<svg width="482" height="249" viewBox="0 0 482 249" fill="none" xmlns="http://www.w3.org/2000/svg">
<path d="M88.4628 201.311H0V166.867L84.2503 3.94444H134.8V166.867H156.706V201.311H134.8V245.056H88.4628V201.311ZM88.4628 166.867V72.8333H87.6203L42.1251 166.867H88.4628Z" fill="white"/>
<path d="M240.579 248.5C217.831 248.5 200.419 243.219 188.344 232.656C176.268 222.093 170.23 207.167 170.23 187.878V61.1222C170.23 41.8333 176.268 26.9074 188.344 16.3444C200.419 5.78148 217.831 0.5 240.579 0.5C263.326 0.5 280.738 5.78148 292.814 16.3444C304.89 26.9074 310.928 41.8333 310.928 61.1222V187.878C310.928 207.167 304.89 222.093 292.814 232.656C280.738 243.219 263.326 248.5 240.579 248.5ZM240.579 214.056C256.586 214.056 264.59 206.133 264.59 190.289V58.7111C264.59 42.8667 256.586 34.9445 240.579 34.9445C224.571 34.9445 216.567 42.8667 216.567 58.7111V190.289C216.567 206.133 224.571 214.056 240.579 214.056Z" fill="white"/>
<path d="M413.757 201.311H325.294V166.867L409.545 3.94444H460.095V166.867H482V201.311H460.095V245.056H413.757V201.311ZM413.757 166.867V72.8333H412.915L367.42 166.867H413.757Z" fill="white"/>
</svg>
