<svg width="614" height="356" viewBox="0 0 614 356" fill="none" xmlns="http://www.w3.org/2000/svg">
<g clip-path="url(#clip0_12775_2785)">
<rect width="614" height="356" fill="white"/>
<path d="M24.88 46V43.8H25.74C26.4067 43.8 26.94 43.6067 27.34 43.22C27.74 42.82 27.94 42.2867 27.94 41.62V31.1H30.28V41.54C30.28 42.4467 30.0933 43.2333 29.72 43.9C29.36 44.5667 28.8333 45.0867 28.14 45.46C27.46 45.82 26.66 46 25.74 46H24.88ZM38.333 46.24C37.293 46.24 36.3396 45.9933 35.473 45.5C34.6196 45.0067 33.9396 44.3333 33.433 43.48C32.9263 42.6267 32.673 41.66 32.673 40.58C32.673 39.4867 32.9263 38.52 33.433 37.68C33.9396 36.8267 34.6196 36.16 35.473 35.68C36.3263 35.1867 37.2796 34.94 38.333 34.94C39.3996 34.94 40.353 35.1867 41.193 35.68C42.0463 36.16 42.7196 36.8267 43.213 37.68C43.7196 38.52 43.973 39.4867 43.973 40.58C43.973 41.6733 43.7196 42.6467 43.213 43.5C42.7063 44.3533 42.0263 45.0267 41.173 45.52C40.3196 46 39.373 46.24 38.333 46.24ZM38.333 44.14C38.973 44.14 39.5396 43.9867 40.033 43.68C40.5263 43.3733 40.913 42.9533 41.193 42.42C41.4863 41.8733 41.633 41.26 41.633 40.58C41.633 39.9 41.4863 39.2933 41.193 38.76C40.913 38.2267 40.5263 37.8067 40.033 37.5C39.5396 37.1933 38.973 37.04 38.333 37.04C37.7063 37.04 37.1396 37.1933 36.633 37.5C36.1396 37.8067 35.7463 38.2267 35.453 38.76C35.173 39.2933 35.033 39.9 35.033 40.58C35.033 41.26 35.173 41.8733 35.453 42.42C35.7463 42.9533 36.1396 43.3733 36.633 43.68C37.1396 43.9867 37.7063 44.14 38.333 44.14ZM51.9594 46.24C51.1194 46.24 50.3527 46.0667 49.6594 45.72C48.9794 45.3733 48.4527 44.8733 48.0794 44.22L48.3394 43.8V46H46.1794V30.86H48.4394V37.42L48.0794 36.9C48.4794 36.2867 49.0127 35.8067 49.6794 35.46C50.346 35.1133 51.106 34.94 51.9594 34.94C52.986 34.94 53.906 35.1867 54.7194 35.68C55.546 36.1733 56.1927 36.8467 56.6594 37.7C57.1394 38.5533 57.3794 39.5133 57.3794 40.58C57.3794 41.6467 57.1394 42.6067 56.6594 43.46C56.1927 44.3133 55.5527 44.9933 54.7394 45.5C53.926 45.9933 52.9994 46.24 51.9594 46.24ZM51.7394 44.14C52.3794 44.14 52.946 43.9867 53.4394 43.68C53.9327 43.3733 54.3194 42.9533 54.5994 42.42C54.8927 41.8733 55.0394 41.26 55.0394 40.58C55.0394 39.9 54.8927 39.2933 54.5994 38.76C54.3194 38.2267 53.9327 37.8067 53.4394 37.5C52.946 37.1933 52.3794 37.04 51.7394 37.04C51.1127 37.04 50.546 37.1933 50.0394 37.5C49.546 37.8067 49.1527 38.2267 48.8594 38.76C48.5794 39.2933 48.4394 39.9 48.4394 40.58C48.4394 41.26 48.5794 41.8733 48.8594 42.42C49.1527 42.9533 49.546 43.3733 50.0394 43.68C50.546 43.9867 51.1127 44.14 51.7394 44.14ZM61.9739 46L67.2139 31.1H70.1339L75.3739 46H72.8539L71.7139 42.66H65.6539L64.4939 46H61.9739ZM66.3339 40.56H70.9939L68.3539 32.76H69.0139L66.3339 40.56ZM76.9216 46V35.18H79.0816V37.3L78.8216 37.02C79.0882 36.34 79.5149 35.8267 80.1016 35.48C80.6882 35.12 81.3682 34.94 82.1416 34.94C82.9416 34.94 83.6482 35.1133 84.2616 35.46C84.8749 35.8067 85.3549 36.2867 85.7016 36.9C86.0482 37.5133 86.2216 38.22 86.2216 39.02V46H83.9816V39.62C83.9816 39.0733 83.8816 38.6133 83.6816 38.24C83.4816 37.8533 83.1949 37.56 82.8216 37.36C82.4616 37.1467 82.0482 37.04 81.5816 37.04C81.1149 37.04 80.6949 37.1467 80.3216 37.36C79.9616 37.56 79.6816 37.8533 79.4816 38.24C79.2816 38.6267 79.1816 39.0867 79.1816 39.62V46H76.9216ZM91.8803 46.24C91.147 46.24 90.5003 46.1133 89.9403 45.86C89.3936 45.5933 88.967 45.2333 88.6603 44.78C88.3536 44.3133 88.2003 43.7667 88.2003 43.14C88.2003 42.5533 88.327 42.0267 88.5803 41.56C88.847 41.0933 89.2536 40.7 89.8003 40.38C90.347 40.06 91.0336 39.8333 91.8603 39.7L95.6203 39.08V40.86L92.3003 41.44C91.7003 41.5467 91.2603 41.74 90.9803 42.02C90.7003 42.2867 90.5603 42.6333 90.5603 43.06C90.5603 43.4733 90.7136 43.8133 91.0203 44.08C91.3403 44.3333 91.747 44.46 92.2403 44.46C92.8536 44.46 93.387 44.3267 93.8403 44.06C94.307 43.7933 94.667 43.44 94.9203 43C95.1736 42.5467 95.3003 42.0467 95.3003 41.5V38.72C95.3003 38.1867 95.1003 37.7533 94.7003 37.42C94.3136 37.0733 93.7936 36.9 93.1403 36.9C92.5403 36.9 92.0136 37.06 91.5603 37.38C91.1203 37.6867 90.7936 38.0867 90.5803 38.58L88.7003 37.64C88.9003 37.1067 89.227 36.64 89.6803 36.24C90.1336 35.8267 90.6603 35.5067 91.2603 35.28C91.8736 35.0533 92.5203 34.94 93.2003 34.94C94.0536 34.94 94.807 35.1 95.4603 35.42C96.127 35.74 96.6403 36.1867 97.0003 36.76C97.3736 37.32 97.5603 37.9733 97.5603 38.72V46H95.4003V44.04L95.8603 44.1C95.607 44.54 95.2803 44.92 94.8803 45.24C94.4936 45.56 94.047 45.8067 93.5403 45.98C93.047 46.1533 92.4936 46.24 91.8803 46.24ZM100.203 46V30.86H102.463V46H100.203ZM106.065 50.4C105.798 50.4 105.532 50.3733 105.265 50.32C105.012 50.28 104.778 50.2133 104.565 50.12V48.18C104.725 48.22 104.918 48.2533 105.145 48.28C105.372 48.32 105.592 48.34 105.805 48.34C106.432 48.34 106.892 48.2 107.185 47.92C107.492 47.6533 107.765 47.24 108.005 46.68L108.725 45.04L108.685 46.94L104.005 35.18H106.425L109.885 44.2H109.065L112.505 35.18H114.945L110.165 47.18C109.912 47.82 109.592 48.38 109.205 48.86C108.832 49.3533 108.385 49.7333 107.865 50C107.358 50.2667 106.758 50.4 106.065 50.4ZM121.172 46.12C120.039 46.12 119.159 45.8 118.532 45.16C117.905 44.52 117.592 43.62 117.592 42.46V37.22H115.692V35.18H115.992C116.499 35.18 116.892 35.0333 117.172 34.74C117.452 34.4467 117.592 34.0467 117.592 33.54V32.7H119.852V35.18H122.312V37.22H119.852V42.36C119.852 42.7333 119.912 43.0533 120.032 43.32C120.152 43.5733 120.345 43.7733 120.612 43.92C120.879 44.0533 121.225 44.12 121.652 44.12C121.759 44.12 121.879 44.1133 122.012 44.1C122.145 44.0867 122.272 44.0733 122.392 44.06V46C122.205 46.0267 121.999 46.0533 121.772 46.08C121.545 46.1067 121.345 46.12 121.172 46.12ZM124.597 46V35.18H126.857V46H124.597ZM124.597 33.7V31.1H126.857V33.7H124.597ZM134.64 46.24C133.56 46.24 132.6 45.9933 131.76 45.5C130.933 44.9933 130.273 44.3133 129.78 43.46C129.3 42.6067 129.06 41.64 129.06 40.56C129.06 39.4933 129.3 38.5333 129.78 37.68C130.26 36.8267 130.92 36.16 131.76 35.68C132.6 35.1867 133.56 34.94 134.64 34.94C135.373 34.94 136.06 35.0733 136.7 35.34C137.34 35.5933 137.893 35.9467 138.36 36.4C138.84 36.8533 139.193 37.38 139.42 37.98L137.44 38.9C137.213 38.34 136.846 37.8933 136.34 37.56C135.846 37.2133 135.28 37.04 134.64 37.04C134.026 37.04 133.473 37.1933 132.98 37.5C132.5 37.7933 132.12 38.2133 131.84 38.76C131.56 39.2933 131.42 39.9 131.42 40.58C131.42 41.26 131.56 41.8733 131.84 42.42C132.12 42.9533 132.5 43.3733 132.98 43.68C133.473 43.9867 134.026 44.14 134.64 44.14C135.293 44.14 135.86 43.9733 136.34 43.64C136.833 43.2933 137.2 42.8333 137.44 42.26L139.42 43.2C139.206 43.7733 138.86 44.2933 138.38 44.76C137.913 45.2133 137.36 45.5733 136.72 45.84C136.08 46.1067 135.386 46.24 134.64 46.24ZM145.629 46.24C144.522 46.24 143.549 45.9667 142.709 45.42C141.882 44.8733 141.302 44.14 140.969 43.22L142.709 42.4C143.002 43.0133 143.402 43.5 143.909 43.86C144.429 44.22 145.002 44.4 145.629 44.4C146.162 44.4 146.595 44.28 146.929 44.04C147.262 43.8 147.429 43.4733 147.429 43.06C147.429 42.7933 147.355 42.58 147.209 42.42C147.062 42.2467 146.875 42.1067 146.649 42C146.435 41.8933 146.215 41.8133 145.989 41.76L144.289 41.28C143.355 41.0133 142.655 40.6133 142.189 40.08C141.735 39.5333 141.509 38.9 141.509 38.18C141.509 37.5267 141.675 36.96 142.009 36.48C142.342 35.9867 142.802 35.6067 143.389 35.34C143.975 35.0733 144.635 34.94 145.369 34.94C146.355 34.94 147.235 35.1867 148.009 35.68C148.782 36.16 149.329 36.8333 149.649 37.7L147.909 38.52C147.695 38 147.355 37.5867 146.889 37.28C146.435 36.9733 145.922 36.82 145.349 36.82C144.855 36.82 144.462 36.94 144.169 37.18C143.875 37.4067 143.729 37.7067 143.729 38.08C143.729 38.3333 143.795 38.5467 143.929 38.72C144.062 38.88 144.235 39.0133 144.449 39.12C144.662 39.2133 144.882 39.2933 145.109 39.36L146.869 39.88C147.762 40.1333 148.449 40.5333 148.929 41.08C149.409 41.6133 149.649 42.2533 149.649 43C149.649 43.64 149.475 44.2067 149.129 44.7C148.795 45.18 148.329 45.56 147.729 45.84C147.129 46.1067 146.429 46.24 145.629 46.24Z" fill="black"/>
<path d="M25.6216 81V70.57H32.0616V71.62H26.7416V75.246H31.6416V76.296H26.7416V81H25.6216ZM33.6024 81V73.496H34.6524V81H33.6024ZM33.6024 72.11V70.57H34.6524V72.11H33.6024ZM40.3156 81.168C39.6063 81.168 38.9623 81 38.3836 80.664C37.805 80.3187 37.343 79.852 36.9976 79.264C36.6616 78.6667 36.4936 77.99 36.4936 77.234C36.4936 76.4873 36.6616 75.82 36.9976 75.232C37.3336 74.644 37.7863 74.182 38.3556 73.846C38.9343 73.5007 39.5876 73.328 40.3156 73.328C41.0436 73.328 41.6923 73.496 42.2616 73.832C42.8403 74.168 43.293 74.63 43.6196 75.218C43.9556 75.806 44.1236 76.478 44.1236 77.234C44.1236 77.9993 43.951 78.6807 43.6056 79.278C43.2603 79.866 42.7983 80.328 42.2196 80.664C41.6503 81 41.0156 81.168 40.3156 81.168ZM40.3156 80.118C40.8196 80.118 41.2723 79.992 41.6736 79.74C42.0843 79.488 42.4063 79.1427 42.6396 78.704C42.8823 78.2653 43.0036 77.7753 43.0036 77.234C43.0036 76.6927 42.8823 76.2073 42.6396 75.778C42.4063 75.3487 42.0843 75.008 41.6736 74.756C41.2723 74.504 40.8196 74.378 40.3156 74.378C39.8116 74.378 39.3543 74.504 38.9436 74.756C38.5423 75.008 38.2203 75.3487 37.9776 75.778C37.735 76.2073 37.6136 76.6927 37.6136 77.234C37.6136 77.7753 37.735 78.2653 37.9776 78.704C38.2203 79.1427 38.5423 79.488 38.9436 79.74C39.3543 79.992 39.8116 80.118 40.3156 80.118ZM45.9755 81V73.496H47.0255V74.952L46.7875 74.896C46.9741 74.4107 47.2775 74.028 47.6975 73.748C48.1268 73.468 48.6215 73.328 49.1815 73.328C49.7135 73.328 50.1895 73.4493 50.6095 73.692C51.0388 73.9347 51.3748 74.2707 51.6175 74.7C51.8695 75.12 51.9955 75.596 51.9955 76.128V81H50.9455V76.534C50.9455 76.0767 50.8615 75.6893 50.6935 75.372C50.5348 75.0547 50.3061 74.812 50.0075 74.644C49.7181 74.4667 49.3821 74.378 48.9995 74.378C48.6168 74.378 48.2761 74.4667 47.9775 74.644C47.6788 74.812 47.4455 75.0593 47.2775 75.386C47.1095 75.7033 47.0255 76.086 47.0255 76.534V81H45.9755ZM53.2308 81V80.09L57.7528 74.14L57.9488 74.546H53.4688V73.496H58.8728V74.406L54.3648 80.356L54.1688 79.95H58.9008V81H53.2308ZM62.4599 81.168C61.9839 81.168 61.5592 81.0793 61.1859 80.902C60.8126 80.7153 60.5186 80.4633 60.3039 80.146C60.0892 79.8287 59.9819 79.4647 59.9819 79.054C59.9819 78.662 60.0659 78.3073 60.2339 77.99C60.4019 77.6633 60.6632 77.388 61.0179 77.164C61.3726 76.94 61.8252 76.7813 62.3759 76.688L65.3159 76.198V77.15L62.6279 77.598C62.0866 77.6913 61.6946 77.864 61.4519 78.116C61.2186 78.368 61.1019 78.6667 61.1019 79.012C61.1019 79.348 61.2326 79.6327 61.4939 79.866C61.7646 80.0993 62.1099 80.216 62.5299 80.216C63.0432 80.216 63.4912 80.1087 63.8739 79.894C64.2566 79.67 64.5552 79.3713 64.7699 78.998C64.9846 78.6247 65.0919 78.2093 65.0919 77.752V75.848C65.0919 75.4 64.9286 75.036 64.6019 74.756C64.2752 74.476 63.8506 74.336 63.3279 74.336C62.8706 74.336 62.4692 74.4527 62.1239 74.686C61.7786 74.91 61.5219 75.204 61.3539 75.568L60.4019 75.05C60.5419 74.7327 60.7612 74.4433 61.0599 74.182C61.3679 73.9207 61.7179 73.7153 62.1099 73.566C62.5019 73.4073 62.9079 73.328 63.3279 73.328C63.8786 73.328 64.3639 73.4353 64.7839 73.65C65.2132 73.8647 65.5446 74.1633 65.7779 74.546C66.0206 74.9193 66.1419 75.3533 66.1419 75.848V81H65.0919V79.502L65.2459 79.656C65.1152 79.936 64.9099 80.1927 64.6299 80.426C64.3592 80.65 64.0372 80.832 63.6639 80.972C63.2999 81.1027 62.8986 81.168 62.4599 81.168ZM70.8345 81V70.57H71.9545V81H70.8345ZM74.2626 81V73.496H75.3126V74.952L75.0746 74.896C75.2612 74.4107 75.5646 74.028 75.9846 73.748C76.4139 73.468 76.9086 73.328 77.4686 73.328C78.0006 73.328 78.4766 73.4493 78.8966 73.692C79.3259 73.9347 79.6619 74.2707 79.9046 74.7C80.1566 75.12 80.2826 75.596 80.2826 76.128V81H79.2326V76.534C79.2326 76.0767 79.1486 75.6893 78.9806 75.372C78.8219 75.0547 78.5932 74.812 78.2946 74.644C78.0052 74.4667 77.6692 74.378 77.2866 74.378C76.9039 74.378 76.5632 74.4667 76.2646 74.644C75.9659 74.812 75.7326 75.0593 75.5646 75.386C75.3966 75.7033 75.3126 76.086 75.3126 76.534V81H74.2626ZM85.718 81.168C84.9806 81.168 84.332 80.9953 83.772 80.65C83.212 80.3047 82.7733 79.838 82.456 79.25C82.1386 78.6527 81.98 77.9807 81.98 77.234C81.98 76.4873 82.1386 75.82 82.456 75.232C82.7733 74.644 83.212 74.182 83.772 73.846C84.332 73.5007 84.9806 73.328 85.718 73.328C86.1846 73.328 86.6233 73.412 87.034 73.58C87.4446 73.748 87.8086 73.9767 88.126 74.266C88.4433 74.546 88.6813 74.8727 88.84 75.246L87.888 75.736C87.7013 75.3347 87.4166 75.008 87.034 74.756C86.6513 74.504 86.2126 74.378 85.718 74.378C85.2233 74.378 84.7753 74.504 84.374 74.756C83.982 74.9987 83.6693 75.3393 83.436 75.778C83.212 76.2073 83.1 76.6973 83.1 77.248C83.1 77.7893 83.212 78.2793 83.436 78.718C83.6693 79.1473 83.982 79.488 84.374 79.74C84.7753 79.992 85.2233 80.118 85.718 80.118C86.2126 80.118 86.6466 79.992 87.02 79.74C87.4026 79.488 87.692 79.152 87.888 78.732L88.84 79.25C88.6813 79.614 88.4433 79.9407 88.126 80.23C87.8086 80.5193 87.4446 80.748 87.034 80.916C86.6233 81.084 86.1846 81.168 85.718 81.168ZM91.0465 81V79.46H92.1665V81H91.0465Z" fill="#616161"/>
<path d="M498.36 47V38.04H495.588V36.57H502.728V38.04H499.998V47H498.36ZM503.809 47V36.402H505.391V40.91L505.139 40.714C505.325 40.238 505.624 39.8787 506.035 39.636C506.445 39.384 506.921 39.258 507.463 39.258C508.023 39.258 508.517 39.3793 508.947 39.622C509.376 39.8647 509.712 40.2007 509.955 40.63C510.197 41.0593 510.319 41.5493 510.319 42.1V47H508.751V42.534C508.751 42.1513 508.676 41.8293 508.527 41.568C508.387 41.2973 508.191 41.092 507.939 40.952C507.687 40.8027 507.397 40.728 507.071 40.728C506.753 40.728 506.464 40.8027 506.203 40.952C505.951 41.092 505.75 41.2973 505.601 41.568C505.461 41.8387 505.391 42.1607 505.391 42.534V47H503.809ZM512.012 47V39.426H513.594V47H512.012ZM512.012 38.39V36.57H513.594V38.39H512.012ZM518.244 47.168C517.469 47.168 516.788 46.9767 516.2 46.594C515.621 46.2113 515.215 45.698 514.982 45.054L516.2 44.48C516.405 44.9093 516.685 45.25 517.04 45.502C517.404 45.754 517.805 45.88 518.244 45.88C518.617 45.88 518.92 45.796 519.154 45.628C519.387 45.46 519.504 45.2313 519.504 44.942C519.504 44.7553 519.452 44.606 519.35 44.494C519.247 44.3727 519.116 44.2747 518.958 44.2C518.808 44.1253 518.654 44.0693 518.496 44.032L517.306 43.696C516.652 43.5093 516.162 43.2293 515.836 42.856C515.518 42.4733 515.36 42.03 515.36 41.526C515.36 41.0687 515.476 40.672 515.71 40.336C515.943 39.9907 516.265 39.7247 516.676 39.538C517.086 39.3513 517.548 39.258 518.062 39.258C518.752 39.258 519.368 39.4307 519.91 39.776C520.451 40.112 520.834 40.5833 521.058 41.19L519.84 41.764C519.69 41.4 519.452 41.1107 519.126 40.896C518.808 40.6813 518.449 40.574 518.048 40.574C517.702 40.574 517.427 40.658 517.222 40.826C517.016 40.9847 516.914 41.1947 516.914 41.456C516.914 41.6333 516.96 41.7827 517.054 41.904C517.147 42.016 517.268 42.1093 517.418 42.184C517.567 42.2493 517.721 42.3053 517.88 42.352L519.112 42.716C519.737 42.8933 520.218 43.1733 520.554 43.556C520.89 43.9293 521.058 44.3773 521.058 44.9C521.058 45.348 520.936 45.7447 520.694 46.09C520.46 46.426 520.134 46.692 519.714 46.888C519.294 47.0747 518.804 47.168 518.244 47.168ZM527.855 47V42.296L524.285 36.57H526.147L529.003 41.204H528.345L531.187 36.57H533.049L529.493 42.296V47H527.855ZM536.363 47.168C535.607 47.168 534.935 46.9953 534.347 46.65C533.768 46.2953 533.315 45.8193 532.989 45.222C532.662 44.6153 532.499 43.9387 532.499 43.192C532.499 42.4267 532.662 41.75 532.989 41.162C533.325 40.574 533.773 40.112 534.333 39.776C534.893 39.4307 535.527 39.258 536.237 39.258C536.806 39.258 537.315 39.356 537.763 39.552C538.211 39.748 538.589 40.0187 538.897 40.364C539.205 40.7 539.438 41.0873 539.597 41.526C539.765 41.9647 539.849 42.4313 539.849 42.926C539.849 43.0473 539.844 43.1733 539.835 43.304C539.825 43.4347 539.807 43.556 539.779 43.668H533.745V42.408H538.883L538.127 42.982C538.22 42.5247 538.187 42.1187 538.029 41.764C537.879 41.4 537.646 41.1153 537.329 40.91C537.021 40.6953 536.657 40.588 536.237 40.588C535.817 40.588 535.443 40.6953 535.117 40.91C534.79 41.1153 534.538 41.414 534.361 41.806C534.183 42.1887 534.113 42.6553 534.151 43.206C534.104 43.7193 534.174 44.1673 534.361 44.55C534.557 44.9327 534.827 45.2313 535.173 45.446C535.527 45.6607 535.929 45.768 536.377 45.768C536.834 45.768 537.221 45.6653 537.539 45.46C537.865 45.2547 538.122 44.9887 538.309 44.662L539.597 45.292C539.447 45.6467 539.214 45.9687 538.897 46.258C538.589 46.538 538.215 46.762 537.777 46.93C537.347 47.0887 536.876 47.168 536.363 47.168ZM543.592 47.168C543.079 47.168 542.626 47.0793 542.234 46.902C541.852 46.7153 541.553 46.4633 541.338 46.146C541.124 45.8193 541.016 45.4367 541.016 44.998C541.016 44.5873 541.105 44.2187 541.282 43.892C541.469 43.5653 541.754 43.29 542.136 43.066C542.519 42.842 543 42.6833 543.578 42.59L546.21 42.156V43.402L543.886 43.808C543.466 43.8827 543.158 44.018 542.962 44.214C542.766 44.4007 542.668 44.6433 542.668 44.942C542.668 45.2313 542.776 45.4693 542.99 45.656C543.214 45.8333 543.499 45.922 543.844 45.922C544.274 45.922 544.647 45.8287 544.964 45.642C545.291 45.4553 545.543 45.208 545.72 44.9C545.898 44.5827 545.986 44.2327 545.986 43.85V41.904C545.986 41.5307 545.846 41.2273 545.566 40.994C545.296 40.7513 544.932 40.63 544.474 40.63C544.054 40.63 543.686 40.742 543.368 40.966C543.06 41.1807 542.832 41.4607 542.682 41.806L541.366 41.148C541.506 40.7747 541.735 40.448 542.052 40.168C542.37 39.8787 542.738 39.6547 543.158 39.496C543.588 39.3373 544.04 39.258 544.516 39.258C545.114 39.258 545.641 39.37 546.098 39.594C546.565 39.818 546.924 40.1307 547.176 40.532C547.438 40.924 547.568 41.3813 547.568 41.904V47H546.056V45.628L546.378 45.67C546.201 45.978 545.972 46.244 545.692 46.468C545.422 46.692 545.109 46.8647 544.754 46.986C544.409 47.1073 544.022 47.168 543.592 47.168ZM549.418 47V39.426H550.93V40.952L550.79 40.728C550.958 40.2333 551.229 39.8787 551.602 39.664C551.975 39.44 552.423 39.328 552.946 39.328H553.408V40.77H552.75C552.227 40.77 551.803 40.9333 551.476 41.26C551.159 41.5773 551 42.0347 551 42.632V47H549.418Z" fill="#616161"/>
<path d="M560 38L566 44L572 38" stroke="#616161" stroke-width="2" stroke-linecap="round" stroke-linejoin="round"/>
<path d="M29.5365 137V134.592H24.4125V133.458L29.5085 126.57H30.8245V133.458H32.1825V134.592H30.8245V137H29.5365ZM25.4485 133.948L25.2525 133.458H29.5365V127.718L29.9425 127.83L25.4485 133.948ZM37.8203 137.168C36.9896 137.168 36.2616 136.944 35.6363 136.496C35.0203 136.039 34.5396 135.409 34.1943 134.606C33.8489 133.794 33.6763 132.851 33.6763 131.778C33.6763 130.705 33.8489 129.767 34.1943 128.964C34.5396 128.152 35.0203 127.522 35.6363 127.074C36.2523 126.626 36.9756 126.402 37.8063 126.402C38.6369 126.402 39.3603 126.626 39.9763 127.074C40.5923 127.522 41.0729 128.152 41.4183 128.964C41.7729 129.767 41.9503 130.705 41.9503 131.778C41.9503 132.851 41.7776 133.794 41.4323 134.606C41.0869 135.418 40.6016 136.048 39.9763 136.496C39.3603 136.944 38.6416 137.168 37.8203 137.168ZM37.8203 135.894C38.3803 135.894 38.8656 135.726 39.2763 135.39C39.6869 135.045 40.0043 134.564 40.2283 133.948C40.4616 133.332 40.5783 132.609 40.5783 131.778C40.5783 130.947 40.4616 130.224 40.2283 129.608C40.0043 128.992 39.6823 128.516 39.2623 128.18C38.8516 127.844 38.3663 127.676 37.8063 127.676C37.2463 127.676 36.7609 127.844 36.3503 128.18C35.9396 128.516 35.6176 128.992 35.3843 129.608C35.1603 130.224 35.0483 130.947 35.0483 131.778C35.0483 132.599 35.1603 133.318 35.3843 133.934C35.6176 134.55 35.9396 135.031 36.3503 135.376C36.7703 135.721 37.2603 135.894 37.8203 135.894ZM47.9511 137.168C47.1205 137.168 46.3925 136.944 45.7671 136.496C45.1511 136.039 44.6705 135.409 44.3251 134.606C43.9798 133.794 43.8071 132.851 43.8071 131.778C43.8071 130.705 43.9798 129.767 44.3251 128.964C44.6705 128.152 45.1511 127.522 45.7671 127.074C46.3831 126.626 47.1065 126.402 47.9371 126.402C48.7678 126.402 49.4911 126.626 50.1071 127.074C50.7231 127.522 51.2038 128.152 51.5491 128.964C51.9038 129.767 52.0811 130.705 52.0811 131.778C52.0811 132.851 51.9085 133.794 51.5631 134.606C51.2178 135.418 50.7325 136.048 50.1071 136.496C49.4911 136.944 48.7725 137.168 47.9511 137.168ZM47.9511 135.894C48.5111 135.894 48.9965 135.726 49.4071 135.39C49.8178 135.045 50.1351 134.564 50.3591 133.948C50.5925 133.332 50.7091 132.609 50.7091 131.778C50.7091 130.947 50.5925 130.224 50.3591 129.608C50.1351 128.992 49.8131 128.516 49.3931 128.18C48.9825 127.844 48.4971 127.676 47.9371 127.676C47.3771 127.676 46.8918 127.844 46.4811 128.18C46.0705 128.516 45.7485 128.992 45.5151 129.608C45.2911 130.224 45.1791 130.947 45.1791 131.778C45.1791 132.599 45.2911 133.318 45.5151 133.934C45.7485 134.55 46.0705 135.031 46.4811 135.376C46.9011 135.721 47.3911 135.894 47.9511 135.894Z" fill="#616161"/>
<path d="M28.3094 177.168C27.7587 177.168 27.2454 177.07 26.7694 176.874C26.2934 176.678 25.8827 176.403 25.5374 176.048C25.192 175.684 24.9354 175.255 24.7674 174.76L25.9294 174.284C26.1254 174.807 26.4334 175.213 26.8534 175.502C27.2734 175.791 27.7587 175.936 28.3094 175.936C28.7387 175.936 29.1214 175.852 29.4574 175.684C29.7934 175.516 30.0547 175.273 30.2414 174.956C30.4374 174.639 30.5354 174.256 30.5354 173.808C30.5354 173.351 30.4374 172.968 30.2414 172.66C30.0547 172.343 29.7934 172.1 29.4574 171.932C29.1214 171.764 28.734 171.68 28.2954 171.68C28.1554 171.68 28.0014 171.689 27.8334 171.708C27.6747 171.727 27.5394 171.755 27.4274 171.792L27.1334 171.162L29.9194 167.76H25.2994V166.57H31.4734V167.718L28.8134 170.994L28.7294 170.63C29.3547 170.649 29.9054 170.793 30.3814 171.064C30.8574 171.335 31.2307 171.703 31.5014 172.17C31.772 172.627 31.9074 173.164 31.9074 173.78C31.9074 174.415 31.7534 174.989 31.4454 175.502C31.1374 176.015 30.7127 176.421 30.1714 176.72C29.63 177.019 29.0094 177.168 28.3094 177.168ZM37.8203 177.168C36.9896 177.168 36.2616 176.944 35.6363 176.496C35.0203 176.039 34.5396 175.409 34.1943 174.606C33.8489 173.794 33.6763 172.851 33.6763 171.778C33.6763 170.705 33.8489 169.767 34.1943 168.964C34.5396 168.152 35.0203 167.522 35.6363 167.074C36.2523 166.626 36.9756 166.402 37.8063 166.402C38.6369 166.402 39.3603 166.626 39.9763 167.074C40.5923 167.522 41.0729 168.152 41.4183 168.964C41.7729 169.767 41.9503 170.705 41.9503 171.778C41.9503 172.851 41.7776 173.794 41.4323 174.606C41.0869 175.418 40.6016 176.048 39.9763 176.496C39.3603 176.944 38.6416 177.168 37.8203 177.168ZM37.8203 175.894C38.3803 175.894 38.8656 175.726 39.2763 175.39C39.6869 175.045 40.0043 174.564 40.2283 173.948C40.4616 173.332 40.5783 172.609 40.5783 171.778C40.5783 170.947 40.4616 170.224 40.2283 169.608C40.0043 168.992 39.6823 168.516 39.2623 168.18C38.8516 167.844 38.3663 167.676 37.8063 167.676C37.2463 167.676 36.7609 167.844 36.3503 168.18C35.9396 168.516 35.6176 168.992 35.3843 169.608C35.1603 170.224 35.0483 170.947 35.0483 171.778C35.0483 172.599 35.1603 173.318 35.3843 173.934C35.6176 174.55 35.9396 175.031 36.3503 175.376C36.7703 175.721 37.2603 175.894 37.8203 175.894ZM47.9511 177.168C47.1205 177.168 46.3925 176.944 45.7671 176.496C45.1511 176.039 44.6705 175.409 44.3251 174.606C43.9798 173.794 43.8071 172.851 43.8071 171.778C43.8071 170.705 43.9798 169.767 44.3251 168.964C44.6705 168.152 45.1511 167.522 45.7671 167.074C46.3831 166.626 47.1065 166.402 47.9371 166.402C48.7678 166.402 49.4911 166.626 50.1071 167.074C50.7231 167.522 51.2038 168.152 51.5491 168.964C51.9038 169.767 52.0811 170.705 52.0811 171.778C52.0811 172.851 51.9085 173.794 51.5631 174.606C51.2178 175.418 50.7325 176.048 50.1071 176.496C49.4911 176.944 48.7725 177.168 47.9511 177.168ZM47.9511 175.894C48.5111 175.894 48.9965 175.726 49.4071 175.39C49.8178 175.045 50.1351 174.564 50.3591 173.948C50.5925 173.332 50.7091 172.609 50.7091 171.778C50.7091 170.947 50.5925 170.224 50.3591 169.608C50.1351 168.992 49.8131 168.516 49.3931 168.18C48.9825 167.844 48.4971 167.676 47.9371 167.676C47.3771 167.676 46.8918 167.844 46.4811 168.18C46.0705 168.516 45.7485 168.992 45.5151 169.608C45.2911 170.224 45.1791 170.947 45.1791 171.778C45.1791 172.599 45.2911 173.318 45.5151 173.934C45.7485 174.55 46.0705 175.031 46.4811 175.376C46.9011 175.721 47.3911 175.894 47.9511 175.894Z" fill="#616161"/>
<path d="M25.1134 217V216.048L27.9974 212.926C28.5668 212.319 29.0194 211.82 29.3554 211.428C29.7008 211.036 29.9528 210.686 30.1114 210.378C30.2701 210.07 30.3494 209.743 30.3494 209.398C30.3494 208.829 30.1814 208.39 29.8454 208.082C29.5094 207.774 29.0661 207.62 28.5154 207.62C27.9554 207.62 27.4794 207.783 27.0874 208.11C26.6954 208.427 26.4248 208.88 26.2754 209.468L25.0294 209.146C25.1508 208.586 25.3748 208.101 25.7014 207.69C26.0281 207.279 26.4341 206.962 26.9194 206.738C27.4048 206.514 27.9368 206.402 28.5154 206.402C29.1501 206.402 29.7054 206.528 30.1814 206.78C30.6668 207.023 31.0448 207.363 31.3154 207.802C31.5954 208.241 31.7354 208.749 31.7354 209.328C31.7354 209.711 31.6561 210.084 31.4974 210.448C31.3388 210.812 31.1054 211.199 30.7974 211.61C30.4894 212.011 30.0881 212.478 29.5934 213.01L27.0174 215.81H31.9594V217H25.1134ZM37.8203 217.168C36.9896 217.168 36.2616 216.944 35.6363 216.496C35.0203 216.039 34.5396 215.409 34.1943 214.606C33.8489 213.794 33.6763 212.851 33.6763 211.778C33.6763 210.705 33.8489 209.767 34.1943 208.964C34.5396 208.152 35.0203 207.522 35.6363 207.074C36.2523 206.626 36.9756 206.402 37.8063 206.402C38.6369 206.402 39.3603 206.626 39.9763 207.074C40.5923 207.522 41.0729 208.152 41.4183 208.964C41.7729 209.767 41.9503 210.705 41.9503 211.778C41.9503 212.851 41.7776 213.794 41.4323 214.606C41.0869 215.418 40.6016 216.048 39.9763 216.496C39.3603 216.944 38.6416 217.168 37.8203 217.168ZM37.8203 215.894C38.3803 215.894 38.8656 215.726 39.2763 215.39C39.6869 215.045 40.0043 214.564 40.2283 213.948C40.4616 213.332 40.5783 212.609 40.5783 211.778C40.5783 210.947 40.4616 210.224 40.2283 209.608C40.0043 208.992 39.6823 208.516 39.2623 208.18C38.8516 207.844 38.3663 207.676 37.8063 207.676C37.2463 207.676 36.7609 207.844 36.3503 208.18C35.9396 208.516 35.6176 208.992 35.3843 209.608C35.1603 210.224 35.0483 210.947 35.0483 211.778C35.0483 212.599 35.1603 213.318 35.3843 213.934C35.6176 214.55 35.9396 215.031 36.3503 215.376C36.7703 215.721 37.2603 215.894 37.8203 215.894ZM47.9511 217.168C47.1205 217.168 46.3925 216.944 45.7671 216.496C45.1511 216.039 44.6705 215.409 44.3251 214.606C43.9798 213.794 43.8071 212.851 43.8071 211.778C43.8071 210.705 43.9798 209.767 44.3251 208.964C44.6705 208.152 45.1511 207.522 45.7671 207.074C46.3831 206.626 47.1065 206.402 47.9371 206.402C48.7678 206.402 49.4911 206.626 50.1071 207.074C50.7231 207.522 51.2038 208.152 51.5491 208.964C51.9038 209.767 52.0811 210.705 52.0811 211.778C52.0811 212.851 51.9085 213.794 51.5631 214.606C51.2178 215.418 50.7325 216.048 50.1071 216.496C49.4911 216.944 48.7725 217.168 47.9511 217.168ZM47.9511 215.894C48.5111 215.894 48.9965 215.726 49.4071 215.39C49.8178 215.045 50.1351 214.564 50.3591 213.948C50.5925 213.332 50.7091 212.609 50.7091 211.778C50.7091 210.947 50.5925 210.224 50.3591 209.608C50.1351 208.992 49.8131 208.516 49.3931 208.18C48.9825 207.844 48.4971 207.676 47.9371 207.676C47.3771 207.676 46.8918 207.844 46.4811 208.18C46.0705 208.516 45.7485 208.992 45.5151 209.608C45.2911 210.224 45.1791 210.947 45.1791 211.778C45.1791 212.599 45.2911 213.318 45.5151 213.934C45.7485 214.55 46.0705 215.031 46.4811 215.376C46.9011 215.721 47.3911 215.894 47.9511 215.894Z" fill="#616161"/>
<path d="M29.8846 257V247.76H27.9106V246.57H31.2706V257H29.8846ZM37.8203 257.168C36.9896 257.168 36.2616 256.944 35.6363 256.496C35.0203 256.039 34.5396 255.409 34.1943 254.606C33.8489 253.794 33.6763 252.851 33.6763 251.778C33.6763 250.705 33.8489 249.767 34.1943 248.964C34.5396 248.152 35.0203 247.522 35.6363 247.074C36.2523 246.626 36.9756 246.402 37.8063 246.402C38.6369 246.402 39.3603 246.626 39.9763 247.074C40.5923 247.522 41.0729 248.152 41.4183 248.964C41.7729 249.767 41.9503 250.705 41.9503 251.778C41.9503 252.851 41.7776 253.794 41.4323 254.606C41.0869 255.418 40.6016 256.048 39.9763 256.496C39.3603 256.944 38.6416 257.168 37.8203 257.168ZM37.8203 255.894C38.3803 255.894 38.8656 255.726 39.2763 255.39C39.6869 255.045 40.0043 254.564 40.2283 253.948C40.4616 253.332 40.5783 252.609 40.5783 251.778C40.5783 250.947 40.4616 250.224 40.2283 249.608C40.0043 248.992 39.6823 248.516 39.2623 248.18C38.8516 247.844 38.3663 247.676 37.8063 247.676C37.2463 247.676 36.7609 247.844 36.3503 248.18C35.9396 248.516 35.6176 248.992 35.3843 249.608C35.1603 250.224 35.0483 250.947 35.0483 251.778C35.0483 252.599 35.1603 253.318 35.3843 253.934C35.6176 254.55 35.9396 255.031 36.3503 255.376C36.7703 255.721 37.2603 255.894 37.8203 255.894ZM47.9511 257.168C47.1205 257.168 46.3925 256.944 45.7671 256.496C45.1511 256.039 44.6705 255.409 44.3251 254.606C43.9798 253.794 43.8071 252.851 43.8071 251.778C43.8071 250.705 43.9798 249.767 44.3251 248.964C44.6705 248.152 45.1511 247.522 45.7671 247.074C46.3831 246.626 47.1065 246.402 47.9371 246.402C48.7678 246.402 49.4911 246.626 50.1071 247.074C50.7231 247.522 51.2038 248.152 51.5491 248.964C51.9038 249.767 52.0811 250.705 52.0811 251.778C52.0811 252.851 51.9085 253.794 51.5631 254.606C51.2178 255.418 50.7325 256.048 50.1071 256.496C49.4911 256.944 48.7725 257.168 47.9511 257.168ZM47.9511 255.894C48.5111 255.894 48.9965 255.726 49.4071 255.39C49.8178 255.045 50.1351 254.564 50.3591 253.948C50.5925 253.332 50.7091 252.609 50.7091 251.778C50.7091 250.947 50.5925 250.224 50.3591 249.608C50.1351 248.992 49.8131 248.516 49.3931 248.18C48.9825 247.844 48.4971 247.676 47.9371 247.676C47.3771 247.676 46.8918 247.844 46.4811 248.18C46.0705 248.516 45.7485 248.992 45.5151 249.608C45.2911 250.224 45.1791 250.947 45.1791 251.778C45.1791 252.599 45.2911 253.318 45.5151 253.934C45.7485 254.55 46.0705 255.031 46.4811 255.376C46.9011 255.721 47.3911 255.894 47.9511 255.894Z" fill="#616161"/>
<path d="M47.9511 297.168C47.1205 297.168 46.3925 296.944 45.7671 296.496C45.1511 296.039 44.6705 295.409 44.3251 294.606C43.9798 293.794 43.8071 292.851 43.8071 291.778C43.8071 290.705 43.9798 289.767 44.3251 288.964C44.6705 288.152 45.1511 287.522 45.7671 287.074C46.3831 286.626 47.1065 286.402 47.9371 286.402C48.7678 286.402 49.4911 286.626 50.1071 287.074C50.7231 287.522 51.2038 288.152 51.5491 288.964C51.9038 289.767 52.0811 290.705 52.0811 291.778C52.0811 292.851 51.9085 293.794 51.5631 294.606C51.2178 295.418 50.7325 296.048 50.1071 296.496C49.4911 296.944 48.7725 297.168 47.9511 297.168ZM47.9511 295.894C48.5111 295.894 48.9965 295.726 49.4071 295.39C49.8178 295.045 50.1351 294.564 50.3591 293.948C50.5925 293.332 50.7091 292.609 50.7091 291.778C50.7091 290.947 50.5925 290.224 50.3591 289.608C50.1351 288.992 49.8131 288.516 49.3931 288.18C48.9825 287.844 48.4971 287.676 47.9371 287.676C47.3771 287.676 46.8918 287.844 46.4811 288.18C46.0705 288.516 45.7485 288.992 45.5151 289.608C45.2911 290.224 45.1791 290.947 45.1791 291.778C45.1791 292.599 45.2911 293.318 45.5151 293.934C45.7485 294.55 46.0705 295.031 46.4811 295.376C46.9011 295.721 47.3911 295.894 47.9511 295.894Z" fill="#616161"/>
<line opacity="0.2" x1="65" y1="294.5" x2="590" y2="294.5" stroke="#616161"/>
<line opacity="0.3" x1="65" y1="126.5" x2="590" y2="126.5" stroke="#616161" stroke-dasharray="4 4"/>
<line opacity="0.3" x1="65" y1="166.5" x2="590" y2="166.5" stroke="#616161" stroke-dasharray="4 4"/>
<line opacity="0.3" x1="65" y1="206.5" x2="590" y2="206.5" stroke="#616161" stroke-dasharray="4 4"/>
<line opacity="0.3" x1="65" y1="246.5" x2="590" y2="246.5" stroke="#616161" stroke-dasharray="4 4"/>
<path opacity="0.3" d="M86.6016 127V294" stroke="#616161" stroke-linecap="round" stroke-dasharray="4 4"/>
<path opacity="0.3" d="M254.713 127V294" stroke="#616161" stroke-linecap="round" stroke-dasharray="4 4"/>
<path opacity="0.3" d="M207.756 127V294" stroke="#616161" stroke-linecap="round" stroke-dasharray="4 4"/>
<path opacity="0.3" d="M172.066 127V294" stroke="#616161" stroke-linecap="round" stroke-dasharray="4 4"/>
<path opacity="0.3" d="M280.072 127V294" stroke="#616161" stroke-linecap="round" stroke-dasharray="4 4"/>
<path opacity="0.3" d="M345.814 127V294" stroke="#616161" stroke-linecap="round" stroke-dasharray="4 4"/>
<path opacity="0.3" d="M431.279 127V294" stroke="#616161" stroke-linecap="round" stroke-dasharray="4 4"/>
<path opacity="0.3" d="M558.068 127V294" stroke="#616161" stroke-linecap="round" stroke-dasharray="4 4"/>
<path opacity="0.3" d="M376.807 127V294" stroke="#616161" stroke-linecap="round" stroke-dasharray="4 4"/>
<path d="M65.9129 329V327.67H66.4869C66.9816 327.67 67.3736 327.525 67.6629 327.236C67.9522 326.937 68.0969 326.536 68.0969 326.032V318.57H69.4829V326.004C69.4829 326.611 69.3569 327.138 69.1049 327.586C68.8622 328.034 68.5169 328.384 68.0689 328.636C67.6209 328.879 67.0936 329 66.4869 329H65.9129ZM73.8333 329.168C73.3386 329.168 72.8999 329.079 72.5173 328.902C72.1439 328.715 71.8499 328.463 71.6353 328.146C71.4206 327.819 71.3133 327.446 71.3133 327.026C71.3133 326.625 71.3973 326.265 71.5653 325.948C71.7426 325.621 72.0133 325.346 72.3773 325.122C72.7506 324.898 73.2173 324.739 73.7773 324.646L76.5773 324.184V325.276L74.0713 325.696C73.5859 325.78 73.2313 325.934 73.0073 326.158C72.7926 326.382 72.6853 326.657 72.6853 326.984C72.6853 327.292 72.8066 327.549 73.0493 327.754C73.3013 327.959 73.6139 328.062 73.9873 328.062C74.4633 328.062 74.8739 327.964 75.2193 327.768C75.5739 327.563 75.8493 327.287 76.0453 326.942C76.2506 326.597 76.3533 326.214 76.3533 325.794V323.876C76.3533 323.465 76.1993 323.134 75.8913 322.882C75.5926 322.621 75.1959 322.49 74.7013 322.49C74.2719 322.49 73.8893 322.602 73.5533 322.826C73.2266 323.041 72.9839 323.33 72.8253 323.694L71.6913 323.106C71.8313 322.761 72.0553 322.453 72.3633 322.182C72.6713 321.902 73.0306 321.683 73.4413 321.524C73.8519 321.365 74.2813 321.286 74.7293 321.286C75.3079 321.286 75.8166 321.398 76.2553 321.622C76.6939 321.837 77.0346 322.14 77.2773 322.532C77.5293 322.915 77.6553 323.363 77.6553 323.876V329H76.3813V327.572L76.6193 327.656C76.4606 327.955 76.2459 328.216 75.9753 328.44C75.7046 328.664 75.3873 328.841 75.0233 328.972C74.6593 329.103 74.2626 329.168 73.8333 329.168ZM79.674 329V321.454H80.948V322.924L80.738 322.798C80.9247 322.322 81.2233 321.953 81.634 321.692C82.054 321.421 82.544 321.286 83.104 321.286C83.6453 321.286 84.126 321.407 84.546 321.65C84.9753 321.893 85.3113 322.229 85.554 322.658C85.806 323.087 85.932 323.573 85.932 324.114V329H84.616V324.534C84.616 324.114 84.5413 323.759 84.392 323.47C84.2427 323.181 84.028 322.957 83.748 322.798C83.4773 322.63 83.1647 322.546 82.81 322.546C82.4553 322.546 82.138 322.63 81.858 322.798C81.5873 322.957 81.3727 323.185 81.214 323.484C81.0553 323.773 80.976 324.123 80.976 324.534V329H79.674Z" fill="#616161"/>
<path d="M121.215 329V318.57H127.823V319.83H122.587V323.204H127.333V324.464H122.587V329H121.215ZM132.462 329.168C131.734 329.168 131.086 328.995 130.516 328.65C129.947 328.305 129.499 327.833 129.172 327.236C128.846 326.629 128.682 325.953 128.682 325.206C128.682 324.45 128.841 323.778 129.158 323.19C129.485 322.602 129.924 322.14 130.474 321.804C131.034 321.459 131.66 321.286 132.35 321.286C132.91 321.286 133.405 321.389 133.834 321.594C134.273 321.79 134.642 322.061 134.94 322.406C135.248 322.742 135.482 323.129 135.64 323.568C135.808 323.997 135.892 324.445 135.892 324.912C135.892 325.015 135.883 325.131 135.864 325.262C135.855 325.383 135.841 325.5 135.822 325.612H129.634V324.492H135.066L134.45 324.996C134.534 324.511 134.488 324.077 134.31 323.694C134.133 323.311 133.872 323.008 133.526 322.784C133.181 322.56 132.789 322.448 132.35 322.448C131.912 322.448 131.51 322.56 131.146 322.784C130.782 323.008 130.498 323.33 130.292 323.75C130.096 324.161 130.017 324.651 130.054 325.22C130.017 325.771 130.101 326.256 130.306 326.676C130.521 327.087 130.82 327.409 131.202 327.642C131.594 327.866 132.019 327.978 132.476 327.978C132.98 327.978 133.405 327.861 133.75 327.628C134.096 327.395 134.376 327.096 134.59 326.732L135.682 327.292C135.533 327.637 135.3 327.955 134.982 328.244C134.674 328.524 134.306 328.748 133.876 328.916C133.456 329.084 132.985 329.168 132.462 329.168ZM141.496 329.168C140.889 329.168 140.334 329.033 139.83 328.762C139.335 328.491 138.953 328.109 138.682 327.614L138.864 327.39V329H137.59V318.402H138.892V323.078L138.696 322.756C138.976 322.308 139.359 321.953 139.844 321.692C140.329 321.421 140.885 321.286 141.51 321.286C142.219 321.286 142.854 321.459 143.414 321.804C143.983 322.149 144.431 322.621 144.758 323.218C145.085 323.806 145.248 324.478 145.248 325.234C145.248 325.971 145.085 326.639 144.758 327.236C144.431 327.833 143.983 328.305 143.414 328.65C142.854 328.995 142.215 329.168 141.496 329.168ZM141.398 327.908C141.874 327.908 142.299 327.791 142.672 327.558C143.045 327.325 143.335 327.007 143.54 326.606C143.755 326.195 143.862 325.738 143.862 325.234C143.862 324.711 143.755 324.254 143.54 323.862C143.335 323.461 143.045 323.143 142.672 322.91C142.299 322.667 141.874 322.546 141.398 322.546C140.922 322.546 140.493 322.663 140.11 322.896C139.737 323.129 139.438 323.451 139.214 323.862C138.999 324.263 138.892 324.721 138.892 325.234C138.892 325.738 138.999 326.195 139.214 326.606C139.438 327.007 139.737 327.325 140.11 327.558C140.493 327.791 140.922 327.908 141.398 327.908Z" fill="#616161"/>
<path d="M180.2 329V318.57H181.46L185.366 324.128H184.722L188.6 318.57H189.86V329H188.474V320.306L188.964 320.46L185.086 325.92H184.974L181.138 320.46L181.572 320.306V329H180.2ZM194.235 329.168C193.74 329.168 193.301 329.079 192.919 328.902C192.545 328.715 192.251 328.463 192.037 328.146C191.822 327.819 191.715 327.446 191.715 327.026C191.715 326.625 191.799 326.265 191.967 325.948C192.144 325.621 192.415 325.346 192.779 325.122C193.152 324.898 193.619 324.739 194.179 324.646L196.979 324.184V325.276L194.473 325.696C193.987 325.78 193.633 325.934 193.409 326.158C193.194 326.382 193.087 326.657 193.087 326.984C193.087 327.292 193.208 327.549 193.451 327.754C193.703 327.959 194.015 328.062 194.389 328.062C194.865 328.062 195.275 327.964 195.621 327.768C195.975 327.563 196.251 327.287 196.447 326.942C196.652 326.597 196.755 326.214 196.755 325.794V323.876C196.755 323.465 196.601 323.134 196.293 322.882C195.994 322.621 195.597 322.49 195.103 322.49C194.673 322.49 194.291 322.602 193.955 322.826C193.628 323.041 193.385 323.33 193.227 323.694L192.093 323.106C192.233 322.761 192.457 322.453 192.765 322.182C193.073 321.902 193.432 321.683 193.843 321.524C194.253 321.365 194.683 321.286 195.131 321.286C195.709 321.286 196.218 321.398 196.657 321.622C197.095 321.837 197.436 322.14 197.679 322.532C197.931 322.915 198.057 323.363 198.057 323.876V329H196.783V327.572L197.021 327.656C196.862 327.955 196.647 328.216 196.377 328.44C196.106 328.664 195.789 328.841 195.425 328.972C195.061 329.103 194.664 329.168 194.235 329.168ZM200.075 329V321.454H201.349V322.84L201.209 322.644C201.387 322.215 201.657 321.897 202.021 321.692C202.385 321.477 202.829 321.37 203.351 321.37H203.813V322.602H203.155C202.623 322.602 202.194 322.77 201.867 323.106C201.541 323.433 201.377 323.899 201.377 324.506V329H200.075Z" fill="#616161"/>
<path d="M237.321 329L241.059 318.57H242.683L246.421 329H244.951L244.097 326.55H239.645L238.791 329H237.321ZM240.079 325.29H243.663L241.675 319.564H242.067L240.079 325.29ZM247.581 331.8V321.454H248.855V323.078L248.687 322.756C248.967 322.308 249.35 321.953 249.835 321.692C250.321 321.421 250.876 321.286 251.501 321.286C252.211 321.286 252.845 321.459 253.405 321.804C253.975 322.149 254.423 322.621 254.749 323.218C255.076 323.806 255.239 324.478 255.239 325.234C255.239 325.971 255.076 326.639 254.749 327.236C254.423 327.833 253.975 328.305 253.405 328.65C252.845 328.995 252.206 329.168 251.487 329.168C250.881 329.168 250.325 329.033 249.821 328.762C249.327 328.491 248.944 328.109 248.673 327.614L248.883 327.39V331.8H247.581ZM251.389 327.908C251.865 327.908 252.29 327.791 252.663 327.558C253.037 327.325 253.326 327.007 253.531 326.606C253.746 326.195 253.853 325.738 253.853 325.234C253.853 324.711 253.746 324.254 253.531 323.862C253.326 323.461 253.037 323.143 252.663 322.91C252.29 322.667 251.865 322.546 251.389 322.546C250.913 322.546 250.484 322.663 250.101 322.896C249.728 323.129 249.429 323.451 249.205 323.862C248.991 324.263 248.883 324.721 248.883 325.234C248.883 325.738 248.991 326.195 249.205 326.606C249.429 327.007 249.728 327.325 250.101 327.558C250.484 327.791 250.913 327.908 251.389 327.908ZM256.946 329V321.454H258.22V322.84L258.08 322.644C258.258 322.215 258.528 321.897 258.892 321.692C259.256 321.477 259.7 321.37 260.222 321.37H260.684V322.602H260.026C259.494 322.602 259.065 322.77 258.738 323.106C258.412 323.433 258.248 323.899 258.248 324.506V329H256.946Z" fill="#616161"/>
<path d="M295.278 329V318.57H296.538L300.444 324.128H299.8L303.678 318.57H304.938V329H303.552V320.306L304.042 320.46L300.164 325.92H300.052L296.216 320.46L296.65 320.306V329H295.278ZM309.313 329.168C308.818 329.168 308.379 329.079 307.997 328.902C307.623 328.715 307.329 328.463 307.115 328.146C306.9 327.819 306.793 327.446 306.793 327.026C306.793 326.625 306.877 326.265 307.045 325.948C307.222 325.621 307.493 325.346 307.857 325.122C308.23 324.898 308.697 324.739 309.257 324.646L312.057 324.184V325.276L309.551 325.696C309.065 325.78 308.711 325.934 308.487 326.158C308.272 326.382 308.165 326.657 308.165 326.984C308.165 327.292 308.286 327.549 308.529 327.754C308.781 327.959 309.093 328.062 309.467 328.062C309.943 328.062 310.353 327.964 310.699 327.768C311.053 327.563 311.329 327.287 311.525 326.942C311.73 326.597 311.833 326.214 311.833 325.794V323.876C311.833 323.465 311.679 323.134 311.371 322.882C311.072 322.621 310.675 322.49 310.181 322.49C309.751 322.49 309.369 322.602 309.033 322.826C308.706 323.041 308.463 323.33 308.305 323.694L307.171 323.106C307.311 322.761 307.535 322.453 307.843 322.182C308.151 321.902 308.51 321.683 308.921 321.524C309.331 321.365 309.761 321.286 310.209 321.286C310.787 321.286 311.296 321.398 311.735 321.622C312.173 321.837 312.514 322.14 312.757 322.532C313.009 322.915 313.135 323.363 313.135 323.876V329H311.861V327.572L312.099 327.656C311.94 327.955 311.725 328.216 311.455 328.44C311.184 328.664 310.867 328.841 310.503 328.972C310.139 329.103 309.742 329.168 309.313 329.168ZM315.56 332.08C315.392 332.08 315.224 332.066 315.056 332.038C314.888 332.01 314.729 331.963 314.58 331.898V330.736C314.682 330.755 314.808 330.773 314.958 330.792C315.116 330.82 315.27 330.834 315.42 330.834C315.858 330.834 316.19 330.736 316.414 330.54C316.647 330.353 316.866 330.027 317.072 329.56L317.548 328.426L317.52 329.56L314.3 321.454H315.714L318.22 327.894H317.8L320.292 321.454H321.734L318.332 329.896C318.173 330.297 317.968 330.661 317.716 330.988C317.473 331.324 317.174 331.59 316.82 331.786C316.465 331.982 316.045 332.08 315.56 332.08Z" fill="#616161"/>
<path d="M356.079 329V327.67H356.653C357.148 327.67 357.54 327.525 357.829 327.236C358.118 326.937 358.263 326.536 358.263 326.032V318.57H359.649V326.004C359.649 326.611 359.523 327.138 359.271 327.586C359.028 328.034 358.683 328.384 358.235 328.636C357.787 328.879 357.26 329 356.653 329H356.079ZM364.461 329.168C363.92 329.168 363.43 329.042 362.991 328.79C362.562 328.538 362.226 328.188 361.983 327.74C361.75 327.283 361.633 326.76 361.633 326.172V321.454H362.935V326.032C362.935 326.405 363.01 326.732 363.159 327.012C363.318 327.292 363.533 327.511 363.803 327.67C364.083 327.829 364.401 327.908 364.755 327.908C365.11 327.908 365.423 327.829 365.693 327.67C365.973 327.511 366.188 327.283 366.337 326.984C366.496 326.685 366.575 326.331 366.575 325.92V321.454H367.891V329H366.617V327.53L366.827 327.656C366.65 328.132 366.347 328.505 365.917 328.776C365.497 329.037 365.012 329.168 364.461 329.168ZM369.908 329V321.454H371.182V322.924L370.972 322.798C371.159 322.322 371.458 321.953 371.868 321.692C372.288 321.421 372.778 321.286 373.338 321.286C373.88 321.286 374.36 321.407 374.78 321.65C375.21 321.893 375.546 322.229 375.788 322.658C376.04 323.087 376.166 323.573 376.166 324.114V329H374.85V324.534C374.85 324.114 374.776 323.759 374.626 323.47C374.477 323.181 374.262 322.957 373.982 322.798C373.712 322.63 373.399 322.546 373.044 322.546C372.69 322.546 372.372 322.63 372.092 322.798C371.822 322.957 371.607 323.185 371.448 323.484C371.29 323.773 371.21 324.123 371.21 324.534V329H369.908ZM381.501 329.168C380.773 329.168 380.125 328.995 379.555 328.65C378.986 328.305 378.538 327.833 378.211 327.236C377.885 326.629 377.721 325.953 377.721 325.206C377.721 324.45 377.88 323.778 378.197 323.19C378.524 322.602 378.963 322.14 379.513 321.804C380.073 321.459 380.699 321.286 381.389 321.286C381.949 321.286 382.444 321.389 382.873 321.594C383.312 321.79 383.681 322.061 383.979 322.406C384.287 322.742 384.521 323.129 384.679 323.568C384.847 323.997 384.931 324.445 384.931 324.912C384.931 325.015 384.922 325.131 384.903 325.262C384.894 325.383 384.88 325.5 384.861 325.612H378.673V324.492H384.105L383.489 324.996C383.573 324.511 383.527 324.077 383.349 323.694C383.172 323.311 382.911 323.008 382.565 322.784C382.22 322.56 381.828 322.448 381.389 322.448C380.951 322.448 380.549 322.56 380.185 322.784C379.821 323.008 379.537 323.33 379.331 323.75C379.135 324.161 379.056 324.651 379.093 325.22C379.056 325.771 379.14 326.256 379.345 326.676C379.56 327.087 379.859 327.409 380.241 327.642C380.633 327.866 381.058 327.978 381.515 327.978C382.019 327.978 382.444 327.861 382.789 327.628C383.135 327.395 383.415 327.096 383.629 326.732L384.721 327.292C384.572 327.637 384.339 327.955 384.021 328.244C383.713 328.524 383.345 328.748 382.915 328.916C382.495 329.084 382.024 329.168 381.501 329.168Z" fill="#616161"/>
<path d="M419.909 329V327.67H420.483C420.978 327.67 421.37 327.525 421.659 327.236C421.948 326.937 422.093 326.536 422.093 326.032V318.57H423.479V326.004C423.479 326.611 423.353 327.138 423.101 327.586C422.858 328.034 422.513 328.384 422.065 328.636C421.617 328.879 421.09 329 420.483 329H419.909ZM428.291 329.168C427.75 329.168 427.26 329.042 426.821 328.79C426.392 328.538 426.056 328.188 425.813 327.74C425.58 327.283 425.463 326.76 425.463 326.172V321.454H426.765V326.032C426.765 326.405 426.84 326.732 426.989 327.012C427.148 327.292 427.363 327.511 427.633 327.67C427.913 327.829 428.231 327.908 428.585 327.908C428.94 327.908 429.253 327.829 429.523 327.67C429.803 327.511 430.018 327.283 430.167 326.984C430.326 326.685 430.405 326.331 430.405 325.92V321.454H431.721V329H430.447V327.53L430.657 327.656C430.48 328.132 430.177 328.505 429.747 328.776C429.327 329.037 428.842 329.168 428.291 329.168ZM433.738 329V318.402H435.04V329H433.738ZM437.467 332.08C437.299 332.08 437.131 332.066 436.963 332.038C436.795 332.01 436.636 331.963 436.487 331.898V330.736C436.589 330.755 436.715 330.773 436.865 330.792C437.023 330.82 437.177 330.834 437.327 330.834C437.765 330.834 438.097 330.736 438.321 330.54C438.554 330.353 438.773 330.027 438.979 329.56L439.455 328.426L439.427 329.56L436.207 321.454H437.621L440.127 327.894H439.707L442.199 321.454H443.641L440.239 329.896C440.08 330.297 439.875 330.661 439.623 330.988C439.38 331.324 439.081 331.59 438.727 331.786C438.372 331.982 437.952 332.08 437.467 332.08Z" fill="#616161"/>
<path d="M477.344 329L481.082 318.57H482.706L486.444 329H484.974L484.12 326.55H479.668L478.814 329H477.344ZM480.102 325.29H483.686L481.698 319.564H482.09L480.102 325.29ZM490.142 329.168C489.601 329.168 489.111 329.042 488.672 328.79C488.243 328.538 487.907 328.188 487.664 327.74C487.431 327.283 487.314 326.76 487.314 326.172V321.454H488.616V326.032C488.616 326.405 488.691 326.732 488.84 327.012C488.999 327.292 489.213 327.511 489.484 327.67C489.764 327.829 490.081 327.908 490.436 327.908C490.791 327.908 491.103 327.829 491.374 327.67C491.654 327.511 491.869 327.283 492.018 326.984C492.177 326.685 492.256 326.331 492.256 325.92V321.454H493.572V329H492.298V327.53L492.508 327.656C492.331 328.132 492.027 328.505 491.598 328.776C491.178 329.037 490.693 329.168 490.142 329.168ZM499.187 332.08C498.655 332.08 498.16 331.996 497.703 331.828C497.255 331.66 496.868 331.427 496.541 331.128C496.224 330.839 495.981 330.498 495.813 330.106L497.031 329.546C497.162 329.901 497.409 330.199 497.773 330.442C498.146 330.694 498.613 330.82 499.173 330.82C499.602 330.82 499.99 330.736 500.335 330.568C500.69 330.409 500.97 330.167 501.175 329.84C501.38 329.523 501.483 329.135 501.483 328.678V326.984L501.721 327.236C501.46 327.749 501.082 328.141 500.587 328.412C500.102 328.683 499.565 328.818 498.977 328.818C498.268 328.818 497.633 328.655 497.073 328.328C496.513 327.992 496.074 327.539 495.757 326.97C495.44 326.391 495.281 325.752 495.281 325.052C495.281 324.343 495.44 323.703 495.757 323.134C496.074 322.565 496.508 322.117 497.059 321.79C497.619 321.454 498.254 321.286 498.963 321.286C499.551 321.286 500.083 321.421 500.559 321.692C501.044 321.953 501.432 322.317 501.721 322.784L501.525 323.134V321.454H502.799V328.678C502.799 329.331 502.645 329.915 502.337 330.428C502.029 330.941 501.6 331.343 501.049 331.632C500.508 331.931 499.887 332.08 499.187 332.08ZM499.089 327.558C499.537 327.558 499.938 327.446 500.293 327.222C500.657 326.998 500.946 326.699 501.161 326.326C501.376 325.943 501.483 325.519 501.483 325.052C501.483 324.595 501.376 324.175 501.161 323.792C500.946 323.409 500.657 323.106 500.293 322.882C499.938 322.658 499.537 322.546 499.089 322.546C498.632 322.546 498.216 322.658 497.843 322.882C497.47 323.106 497.176 323.409 496.961 323.792C496.756 324.165 496.653 324.585 496.653 325.052C496.653 325.519 496.756 325.943 496.961 326.326C497.176 326.699 497.465 326.998 497.829 327.222C498.202 327.446 498.622 327.558 499.089 327.558Z" fill="#616161"/>
<path d="M542.238 329.168C541.576 329.168 540.969 329.047 540.418 328.804C539.868 328.552 539.401 328.211 539.018 327.782C538.636 327.353 538.36 326.872 538.192 326.34L539.382 325.85C539.634 326.522 540.008 327.04 540.502 327.404C541.006 327.759 541.594 327.936 542.266 327.936C542.677 327.936 543.036 327.871 543.344 327.74C543.652 327.609 543.89 327.427 544.058 327.194C544.236 326.951 544.324 326.671 544.324 326.354C544.324 325.915 544.198 325.57 543.946 325.318C543.704 325.057 543.344 324.861 542.868 324.73L540.95 324.142C540.194 323.909 539.616 323.54 539.214 323.036C538.813 322.532 538.612 321.953 538.612 321.3C538.612 320.731 538.748 320.231 539.018 319.802C539.298 319.363 539.681 319.023 540.166 318.78C540.661 318.528 541.221 318.402 541.846 318.402C542.472 318.402 543.036 318.514 543.54 318.738C544.054 318.962 544.488 319.265 544.842 319.648C545.197 320.021 545.458 320.451 545.626 320.936L544.45 321.426C544.226 320.838 543.89 320.395 543.442 320.096C542.994 319.788 542.467 319.634 541.86 319.634C541.487 319.634 541.156 319.699 540.866 319.83C540.586 319.951 540.367 320.133 540.208 320.376C540.059 320.609 539.984 320.889 539.984 321.216C539.984 321.599 540.106 321.939 540.348 322.238C540.591 322.537 540.96 322.765 541.454 322.924L543.204 323.442C544.026 323.694 544.646 324.053 545.066 324.52C545.486 324.987 545.696 325.565 545.696 326.256C545.696 326.825 545.547 327.329 545.248 327.768C544.959 328.207 544.553 328.552 544.03 328.804C543.517 329.047 542.92 329.168 542.238 329.168ZM551.023 329.168C550.295 329.168 549.646 328.995 549.077 328.65C548.508 328.305 548.06 327.833 547.733 327.236C547.406 326.629 547.243 325.953 547.243 325.206C547.243 324.45 547.402 323.778 547.719 323.19C548.046 322.602 548.484 322.14 549.035 321.804C549.595 321.459 550.22 321.286 550.911 321.286C551.471 321.286 551.966 321.389 552.395 321.594C552.834 321.79 553.202 322.061 553.501 322.406C553.809 322.742 554.042 323.129 554.201 323.568C554.369 323.997 554.453 324.445 554.453 324.912C554.453 325.015 554.444 325.131 554.425 325.262C554.416 325.383 554.402 325.5 554.383 325.612H548.195V324.492H553.627L553.011 324.996C553.095 324.511 553.048 324.077 552.871 323.694C552.694 323.311 552.432 323.008 552.087 322.784C551.742 322.56 551.35 322.448 550.911 322.448C550.472 322.448 550.071 322.56 549.707 322.784C549.343 323.008 549.058 323.33 548.853 323.75C548.657 324.161 548.578 324.651 548.615 325.22C548.578 325.771 548.662 326.256 548.867 326.676C549.082 327.087 549.38 327.409 549.763 327.642C550.155 327.866 550.58 327.978 551.037 327.978C551.541 327.978 551.966 327.861 552.311 327.628C552.656 327.395 552.936 327.096 553.151 326.732L554.243 327.292C554.094 327.637 553.86 327.955 553.543 328.244C553.235 328.524 552.866 328.748 552.437 328.916C552.017 329.084 551.546 329.168 551.023 329.168ZM556.151 331.8V321.454H557.425V323.078L557.257 322.756C557.537 322.308 557.919 321.953 558.405 321.692C558.89 321.421 559.445 321.286 560.071 321.286C560.78 321.286 561.415 321.459 561.975 321.804C562.544 322.149 562.992 322.621 563.319 323.218C563.645 323.806 563.809 324.478 563.809 325.234C563.809 325.971 563.645 326.639 563.319 327.236C562.992 327.833 562.544 328.305 561.975 328.65C561.415 328.995 560.775 329.168 560.057 329.168C559.45 329.168 558.895 329.033 558.391 328.762C557.896 328.491 557.513 328.109 557.243 327.614L557.453 327.39V331.8H556.151ZM559.959 327.908C560.435 327.908 560.859 327.791 561.233 327.558C561.606 327.325 561.895 327.007 562.101 326.606C562.315 326.195 562.423 325.738 562.423 325.234C562.423 324.711 562.315 324.254 562.101 323.862C561.895 323.461 561.606 323.143 561.233 322.91C560.859 322.667 560.435 322.546 559.959 322.546C559.483 322.546 559.053 322.663 558.671 322.896C558.297 323.129 557.999 323.451 557.775 323.862C557.56 324.263 557.453 324.721 557.453 325.234C557.453 325.738 557.56 326.195 557.775 326.606C557.999 327.007 558.297 327.325 558.671 327.558C559.053 327.791 559.483 327.908 559.959 327.908Z" fill="#616161"/>
<circle cx="301" cy="78.5" r="8" fill="#0865FF"/>
<path d="M317.44 83V81.9H317.87C318.203 81.9 318.47 81.8033 318.67 81.61C318.87 81.41 318.97 81.1433 318.97 80.81V75.55H320.14V80.77C320.14 81.2233 320.047 81.6167 319.86 81.95C319.68 82.2833 319.417 82.5433 319.07 82.73C318.73 82.91 318.33 83 317.87 83H317.44ZM325.286 83.12C324.746 83.12 324.243 83.0233 323.776 82.83C323.316 82.6367 322.91 82.3667 322.556 82.02C322.21 81.6733 321.936 81.2667 321.736 80.8C321.543 80.3333 321.446 79.8233 321.446 79.27C321.446 78.7167 321.543 78.2067 321.736 77.74C321.936 77.2667 322.21 76.86 322.556 76.52C322.903 76.1733 323.31 75.9067 323.776 75.72C324.243 75.5267 324.746 75.43 325.286 75.43C325.833 75.43 326.336 75.5267 326.796 75.72C327.263 75.9067 327.67 76.1733 328.016 76.52C328.37 76.8667 328.643 77.2733 328.836 77.74C329.03 78.2067 329.126 78.7167 329.126 79.27C329.126 79.8233 329.026 80.3333 328.826 80.8C328.633 81.2667 328.363 81.6733 328.016 82.02C327.67 82.3667 327.263 82.6367 326.796 82.83C326.33 83.0233 325.826 83.12 325.286 83.12ZM325.286 82.04C325.673 82.04 326.026 81.97 326.346 81.83C326.673 81.69 326.956 81.4967 327.196 81.25C327.436 80.9967 327.623 80.7033 327.756 80.37C327.89 80.03 327.956 79.6633 327.956 79.27C327.956 78.8767 327.89 78.5133 327.756 78.18C327.623 77.8467 327.436 77.5533 327.196 77.3C326.956 77.0467 326.673 76.85 326.346 76.71C326.026 76.57 325.673 76.5 325.286 76.5C324.9 76.5 324.543 76.57 324.216 76.71C323.896 76.85 323.616 77.0467 323.376 77.3C323.136 77.5533 322.95 77.8467 322.816 78.18C322.69 78.5133 322.626 78.8767 322.626 79.27C322.626 79.6633 322.69 80.03 322.816 80.37C322.95 80.7033 323.136 80.9967 323.376 81.25C323.616 81.4967 323.9 81.69 324.226 81.83C324.553 81.97 324.906 82.04 325.286 82.04ZM330.446 83V75.55H333.586C334.052 75.55 334.456 75.6333 334.796 75.8C335.136 75.96 335.396 76.1933 335.576 76.5C335.756 76.8 335.846 77.1567 335.846 77.57C335.846 77.93 335.752 78.26 335.566 78.56C335.386 78.8533 335.102 79.0867 334.716 79.26V78.76C335.056 78.8933 335.332 79.0633 335.546 79.27C335.759 79.47 335.912 79.6967 336.006 79.95C336.106 80.2033 336.156 80.47 336.156 80.75C336.156 81.45 335.926 82 335.466 82.4C335.012 82.8 334.389 83 333.596 83H330.446ZM331.626 81.95H333.686C334.079 81.95 334.392 81.8433 334.626 81.63C334.859 81.41 334.976 81.12 334.976 80.76C334.976 80.3933 334.859 80.1033 334.626 79.89C334.392 79.67 334.079 79.56 333.686 79.56H331.626V81.95ZM331.626 78.52H333.616C333.936 78.52 334.192 78.43 334.386 78.25C334.579 78.0633 334.676 77.82 334.676 77.52C334.676 77.22 334.579 76.9867 334.386 76.82C334.192 76.6533 333.936 76.57 333.616 76.57H331.626V78.52ZM338.458 83L341.078 75.55H342.538L345.158 83H343.898L343.328 81.33H340.298L339.718 83H338.458ZM340.638 80.28H342.968L341.648 76.38H341.978L340.638 80.28ZM347.523 83L344.883 75.55H346.153L348.313 81.91H348.063L350.213 75.55H351.483L348.843 83H347.523ZM351.202 83L353.822 75.55H355.282L357.902 83H356.642L356.072 81.33H353.042L352.462 83H351.202ZM353.382 80.28H355.712L354.392 76.38H354.722L353.382 80.28ZM358.786 83V75.55H359.966V83H358.786ZM361.51 83V75.55H362.69V81.95H365.91V83H361.51ZM366.241 83L368.861 75.55H370.321L372.941 83H371.681L371.111 81.33H368.081L367.501 83H366.241ZM368.421 80.28H370.751L369.431 76.38H369.761L368.421 80.28ZM373.825 83V75.55H376.965C377.431 75.55 377.835 75.6333 378.175 75.8C378.515 75.96 378.775 76.1933 378.955 76.5C379.135 76.8 379.225 77.1567 379.225 77.57C379.225 77.93 379.131 78.26 378.945 78.56C378.765 78.8533 378.481 79.0867 378.095 79.26V78.76C378.435 78.8933 378.711 79.0633 378.925 79.27C379.138 79.47 379.291 79.6967 379.385 79.95C379.485 80.2033 379.535 80.47 379.535 80.75C379.535 81.45 379.305 82 378.845 82.4C378.391 82.8 377.768 83 376.975 83H373.825ZM375.005 81.95H377.065C377.458 81.95 377.771 81.8433 378.005 81.63C378.238 81.41 378.355 81.12 378.355 80.76C378.355 80.3933 378.238 80.1033 378.005 79.89C377.771 79.67 377.458 79.56 377.065 79.56H375.005V81.95ZM375.005 78.52H376.995C377.315 78.52 377.571 78.43 377.765 78.25C377.958 78.0633 378.055 77.82 378.055 77.52C378.055 77.22 377.958 76.9867 377.765 76.82C377.571 76.6533 377.315 76.57 376.995 76.57H375.005V78.52ZM380.749 83V75.55H381.929V81.95H385.149V83H380.749ZM386.139 83V75.55H391.049V76.6H387.319V78.74H390.849V79.79H387.319V81.95H391.049V83H386.139Z" fill="black"/>
<circle cx="422" cy="78.5" r="8" fill="#0101DB"/>
<path d="M441.38 83.12C440.913 83.12 440.48 83.0333 440.08 82.86C439.68 82.68 439.34 82.4367 439.06 82.13C438.78 81.8233 438.573 81.47 438.44 81.07L439.44 80.65C439.62 81.11 439.883 81.4633 440.23 81.71C440.577 81.9567 440.977 82.08 441.43 82.08C441.697 82.08 441.93 82.04 442.13 81.96C442.33 81.8733 442.483 81.7533 442.59 81.6C442.703 81.4467 442.76 81.27 442.76 81.07C442.76 80.7967 442.683 80.58 442.53 80.42C442.377 80.26 442.15 80.1333 441.85 80.04L440.45 79.6C439.89 79.4267 439.463 79.1633 439.17 78.81C438.877 78.45 438.73 78.03 438.73 77.55C438.73 77.13 438.833 76.7633 439.04 76.45C439.247 76.13 439.53 75.88 439.89 75.7C440.257 75.52 440.673 75.43 441.14 75.43C441.587 75.43 441.993 75.51 442.36 75.67C442.727 75.8233 443.04 76.0367 443.3 76.31C443.567 76.5833 443.76 76.9 443.88 77.26L442.9 77.69C442.753 77.2967 442.523 76.9933 442.21 76.78C441.903 76.5667 441.547 76.46 441.14 76.46C440.893 76.46 440.677 76.5033 440.49 76.59C440.303 76.67 440.157 76.79 440.05 76.95C439.95 77.1033 439.9 77.2833 439.9 77.49C439.9 77.73 439.977 77.9433 440.13 78.13C440.283 78.3167 440.517 78.4567 440.83 78.55L442.13 78.96C442.723 79.14 443.17 79.4 443.47 79.74C443.77 80.0733 443.92 80.49 443.92 80.99C443.92 81.4033 443.81 81.77 443.59 82.09C443.377 82.41 443.08 82.6633 442.7 82.85C442.32 83.03 441.88 83.12 441.38 83.12ZM448.035 83.12C447.481 83.12 446.988 83.0033 446.555 82.77C446.128 82.5367 445.791 82.2167 445.545 81.81C445.305 81.4033 445.185 80.94 445.185 80.42V75.55H446.365V80.37C446.365 80.6967 446.435 80.9867 446.575 81.24C446.721 81.4933 446.918 81.69 447.165 81.83C447.418 81.97 447.708 82.04 448.035 82.04C448.368 82.04 448.658 81.97 448.905 81.83C449.158 81.69 449.355 81.4933 449.495 81.24C449.641 80.9867 449.715 80.6967 449.715 80.37V75.55H450.885V80.42C450.885 80.94 450.765 81.4033 450.525 81.81C450.285 82.2167 449.948 82.5367 449.515 82.77C449.088 83.0033 448.595 83.12 448.035 83.12ZM452.364 83V75.55H455.504C455.97 75.55 456.374 75.6333 456.714 75.8C457.054 75.96 457.314 76.1933 457.494 76.5C457.674 76.8 457.764 77.1567 457.764 77.57C457.764 77.93 457.67 78.26 457.484 78.56C457.304 78.8533 457.02 79.0867 456.634 79.26V78.76C456.974 78.8933 457.25 79.0633 457.464 79.27C457.677 79.47 457.83 79.6967 457.924 79.95C458.024 80.2033 458.074 80.47 458.074 80.75C458.074 81.45 457.844 82 457.384 82.4C456.93 82.8 456.307 83 455.514 83H452.364ZM453.544 81.95H455.604C455.997 81.95 456.31 81.8433 456.544 81.63C456.777 81.41 456.894 81.12 456.894 80.76C456.894 80.3933 456.777 80.1033 456.544 79.89C456.31 79.67 455.997 79.56 455.604 79.56H453.544V81.95ZM453.544 78.52H455.534C455.854 78.52 456.11 78.43 456.304 78.25C456.497 78.0633 456.594 77.82 456.594 77.52C456.594 77.22 456.497 76.9867 456.304 76.82C456.11 76.6533 455.854 76.57 455.534 76.57H453.544V78.52ZM459.288 83V75.55H460.388L463.188 79.43H462.638L465.388 75.55H466.488V83H465.318V76.94L465.758 77.06L462.948 80.9H462.828L460.078 77.06L460.468 76.94V83H459.288ZM468.028 83V75.55H469.208V83H468.028ZM472.072 83V76.6H470.092V75.55H475.192V76.6H473.242V83H472.072ZM477.395 83V76.6H475.415V75.55H480.515V76.6H478.565V83H477.395ZM481.397 83V75.55H486.307V76.6H482.577V78.74H486.107V79.79H482.577V81.95H486.307V83H481.397ZM487.403 83V75.55H489.843C490.616 75.55 491.286 75.7067 491.853 76.02C492.426 76.3267 492.869 76.76 493.183 77.32C493.496 77.88 493.653 78.53 493.653 79.27C493.653 80.0033 493.496 80.6533 493.183 81.22C492.869 81.78 492.426 82.2167 491.853 82.53C491.286 82.8433 490.616 83 489.843 83H487.403ZM488.583 81.95H489.863C490.389 81.95 490.846 81.84 491.233 81.62C491.626 81.4 491.929 81.09 492.143 80.69C492.356 80.29 492.463 79.8167 492.463 79.27C492.463 78.7233 492.353 78.2533 492.133 77.86C491.919 77.46 491.619 77.15 491.233 76.93C490.846 76.71 490.389 76.6 489.863 76.6H488.583V81.95Z" fill="black"/>
<circle cx="525" cy="78.5" r="8" fill="#E64240"/>
<path d="M541.77 83V75.55H544.48C544.98 75.55 545.42 75.6433 545.8 75.83C546.18 76.01 546.477 76.2767 546.69 76.63C546.91 76.9767 547.02 77.3933 547.02 77.88C547.02 78.3933 546.89 78.8333 546.63 79.2C546.377 79.5667 546.033 79.8333 545.6 80L547.32 83H545.98L544.15 79.75L544.92 80.2H542.95V83H541.77ZM542.95 79.15H544.5C544.773 79.15 545.01 79.0967 545.21 78.99C545.41 78.8833 545.563 78.7367 545.67 78.55C545.783 78.3567 545.84 78.13 545.84 77.87C545.84 77.61 545.783 77.3867 545.67 77.2C545.563 77.0067 545.41 76.86 545.21 76.76C545.01 76.6533 544.773 76.6 544.5 76.6H542.95V79.15ZM548.313 83V75.55H553.223V76.6H549.493V78.74H553.023V79.79H549.493V81.95H553.223V83H548.313ZM553.989 83V81.9H554.419C554.752 81.9 555.019 81.8033 555.219 81.61C555.419 81.41 555.519 81.1433 555.519 80.81V75.55H556.689V80.77C556.689 81.2233 556.595 81.6167 556.409 81.95C556.229 82.2833 555.965 82.5433 555.619 82.73C555.279 82.91 554.879 83 554.419 83H553.989ZM558.215 83V75.55H563.125V76.6H559.395V78.74H562.925V79.79H559.395V81.95H563.125V83H558.215ZM567.691 83.12C567.165 83.12 566.675 83.0233 566.221 82.83C565.775 82.6367 565.385 82.37 565.051 82.03C564.725 81.6833 564.468 81.2767 564.281 80.81C564.095 80.3433 564.001 79.83 564.001 79.27C564.001 78.7167 564.091 78.2067 564.271 77.74C564.458 77.2667 564.718 76.86 565.051 76.52C565.385 76.1733 565.775 75.9067 566.221 75.72C566.668 75.5267 567.158 75.43 567.691 75.43C568.218 75.43 568.688 75.52 569.101 75.7C569.521 75.88 569.875 76.1167 570.161 76.41C570.448 76.6967 570.655 77.01 570.781 77.35L569.721 77.85C569.561 77.45 569.305 77.1267 568.951 76.88C568.605 76.6267 568.185 76.5 567.691 76.5C567.198 76.5 566.761 76.6167 566.381 76.85C566.001 77.0833 565.705 77.4067 565.491 77.82C565.285 78.2333 565.181 78.7167 565.181 79.27C565.181 79.8233 565.285 80.31 565.491 80.73C565.705 81.1433 566.001 81.4667 566.381 81.7C566.761 81.9267 567.198 82.04 567.691 82.04C568.185 82.04 568.605 81.9167 568.951 81.67C569.305 81.4233 569.561 81.1 569.721 80.7L570.781 81.2C570.655 81.5333 570.448 81.8467 570.161 82.14C569.875 82.4333 569.521 82.67 569.101 82.85C568.688 83.03 568.218 83.12 567.691 83.12ZM573.315 83V76.6H571.335V75.55H576.435V76.6H574.485V83H573.315ZM577.317 83V75.55H582.227V76.6H578.497V78.74H582.027V79.79H578.497V81.95H582.227V83H577.317ZM583.323 83V75.55H585.763C586.536 75.55 587.206 75.7067 587.773 76.02C588.346 76.3267 588.789 76.76 589.103 77.32C589.416 77.88 589.573 78.53 589.573 79.27C589.573 80.0033 589.416 80.6533 589.103 81.22C588.789 81.78 588.346 82.2167 587.773 82.53C587.206 82.8433 586.536 83 585.763 83H583.323ZM584.503 81.95H585.783C586.309 81.95 586.766 81.84 587.153 81.62C587.546 81.4 587.849 81.09 588.063 80.69C588.276 80.29 588.383 79.8167 588.383 79.27C588.383 78.7233 588.273 78.2533 588.053 77.86C587.839 77.46 587.539 77.15 587.153 76.93C586.766 76.71 586.309 76.6 585.783 76.6H584.503V81.95Z" fill="black"/>
<path d="M88 174C88 165.163 95.1634 158 104 158H203C211.837 158 219 165.163 219 174V294H88V174Z" fill="#0865FF"/>
<path d="M101.008 188L105.348 179.18H100.434V177.57H107.35V179.18L103.108 188H101.008ZM108.464 188V186.558L111.292 183.604C111.852 183.016 112.282 182.549 112.58 182.204C112.888 181.849 113.103 181.546 113.224 181.294C113.346 181.042 113.406 180.785 113.406 180.524C113.406 180.085 113.266 179.74 112.986 179.488C112.716 179.236 112.366 179.11 111.936 179.11C111.488 179.11 111.101 179.241 110.774 179.502C110.448 179.754 110.21 180.127 110.06 180.622L108.394 180.104C108.506 179.553 108.735 179.077 109.08 178.676C109.426 178.265 109.846 177.953 110.34 177.738C110.844 177.514 111.376 177.402 111.936 177.402C112.608 177.402 113.196 177.523 113.7 177.766C114.214 178.009 114.61 178.349 114.89 178.788C115.18 179.227 115.324 179.74 115.324 180.328C115.324 180.701 115.254 181.07 115.114 181.434C114.974 181.798 114.764 182.171 114.484 182.554C114.204 182.927 113.84 183.347 113.392 183.814L110.942 186.39H115.464V188H108.464ZM121.329 188V185.704H116.541V184.108L121.217 177.57H123.205V184.108H124.731V185.704H123.205V188H121.329ZM117.941 184.794L117.605 184.108H121.329V179.068L121.819 179.222L117.941 184.794Z" fill="white"/>
<path d="M179 227C179 218.163 186.163 211 195 211H294C302.837 211 310 218.163 310 227V295H179V227Z" fill="#0101DB"/>
<path d="M196.292 241V238.704H191.504V237.108L196.18 230.57H198.168V237.108H199.694V238.704H198.168V241H196.292ZM192.904 237.794L192.568 237.108H196.292V232.068L196.782 232.222L192.904 237.794ZM204.318 241.168C203.767 241.168 203.24 241.065 202.736 240.86C202.241 240.655 201.812 240.365 201.448 239.992C201.093 239.609 200.851 239.157 200.72 238.634L202.372 238.046C202.531 238.522 202.787 238.877 203.142 239.11C203.497 239.334 203.889 239.446 204.318 239.446C204.673 239.446 204.985 239.371 205.256 239.222C205.536 239.063 205.751 238.849 205.9 238.578C206.049 238.298 206.124 237.976 206.124 237.612C206.124 237.248 206.045 236.931 205.886 236.66C205.737 236.389 205.527 236.179 205.256 236.03C204.985 235.871 204.673 235.792 204.318 235.792C203.954 235.792 203.623 235.871 203.324 236.03C203.035 236.189 202.825 236.417 202.694 236.716L201.14 236.366L201.966 230.57H207.65V232.18H202.722L203.436 231.354L202.848 235.722L202.302 235.274C202.563 234.891 202.881 234.611 203.254 234.434C203.637 234.257 204.099 234.168 204.64 234.168C205.331 234.168 205.928 234.317 206.432 234.616C206.945 234.915 207.342 235.321 207.622 235.834C207.902 236.347 208.042 236.94 208.042 237.612C208.042 238.284 207.879 238.891 207.552 239.432C207.225 239.973 206.782 240.398 206.222 240.706C205.662 241.014 205.027 241.168 204.318 241.168ZM210.089 241L213.631 236.436L213.953 236.772C213.813 236.875 213.678 236.959 213.547 237.024C213.417 237.089 213.277 237.136 213.127 237.164C212.978 237.192 212.819 237.206 212.651 237.206C212.017 237.206 211.452 237.061 210.957 236.772C210.463 236.483 210.071 236.091 209.781 235.596C209.501 235.092 209.361 234.523 209.361 233.888C209.361 233.216 209.515 232.619 209.823 232.096C210.141 231.573 210.57 231.163 211.111 230.864C211.662 230.556 212.287 230.402 212.987 230.402C213.697 230.402 214.322 230.551 214.863 230.85C215.405 231.149 215.829 231.559 216.137 232.082C216.455 232.595 216.613 233.188 216.613 233.86C216.613 234.196 216.576 234.532 216.501 234.868C216.427 235.204 216.291 235.563 216.095 235.946C215.909 236.319 215.638 236.744 215.283 237.22L212.371 241H210.089ZM212.987 235.61C213.314 235.61 213.603 235.54 213.855 235.4C214.117 235.251 214.322 235.045 214.471 234.784C214.621 234.513 214.695 234.21 214.695 233.874C214.695 233.519 214.616 233.211 214.457 232.95C214.308 232.689 214.107 232.483 213.855 232.334C213.603 232.185 213.314 232.11 212.987 232.11C212.67 232.11 212.381 232.185 212.119 232.334C211.858 232.483 211.648 232.689 211.489 232.95C211.34 233.211 211.265 233.519 211.265 233.874C211.265 234.21 211.34 234.513 211.489 234.784C211.648 235.045 211.858 235.251 212.119 235.4C212.381 235.54 212.67 235.61 212.987 235.61Z" fill="white"/>
<path d="M267 201C267 192.163 274.163 185 283 185H382C390.837 185 398 192.163 398 201V295H267V201Z" fill="#E83E3F"/>
<path d="M283.158 215.278C282.607 215.278 282.08 215.175 281.576 214.97C281.081 214.765 280.652 214.475 280.288 214.102C279.933 213.719 279.691 213.267 279.56 212.744L281.212 212.156C281.371 212.632 281.627 212.987 281.982 213.22C282.337 213.444 282.729 213.556 283.158 213.556C283.513 213.556 283.825 213.481 284.096 213.332C284.376 213.173 284.591 212.959 284.74 212.688C284.889 212.408 284.964 212.086 284.964 211.722C284.964 211.358 284.885 211.041 284.726 210.77C284.577 210.499 284.367 210.289 284.096 210.14C283.825 209.981 283.513 209.902 283.158 209.902C282.794 209.902 282.463 209.981 282.164 210.14C281.875 210.299 281.665 210.527 281.534 210.826L279.98 210.476L280.806 204.68H286.49V206.29H281.562L282.276 205.464L281.688 209.832L281.142 209.384C281.403 209.001 281.721 208.721 282.094 208.544C282.477 208.367 282.939 208.278 283.48 208.278C284.171 208.278 284.768 208.427 285.272 208.726C285.785 209.025 286.182 209.431 286.462 209.944C286.742 210.457 286.882 211.05 286.882 211.722C286.882 212.394 286.719 213.001 286.392 213.542C286.065 214.083 285.622 214.508 285.062 214.816C284.502 215.124 283.867 215.278 283.158 215.278ZM290.035 215.11V206.304H288.019V204.68H291.939V215.11H290.035ZM293.904 215.11V213.668L296.732 210.714C297.292 210.126 297.721 209.659 298.02 209.314C298.328 208.959 298.542 208.656 298.664 208.404C298.785 208.152 298.846 207.895 298.846 207.634C298.846 207.195 298.706 206.85 298.426 206.598C298.155 206.346 297.805 206.22 297.376 206.22C296.928 206.22 296.54 206.351 296.214 206.612C295.887 206.864 295.649 207.237 295.5 207.732L293.834 207.214C293.946 206.663 294.174 206.187 294.52 205.786C294.865 205.375 295.285 205.063 295.78 204.848C296.284 204.624 296.816 204.512 297.376 204.512C298.048 204.512 298.636 204.633 299.14 204.876C299.653 205.119 300.05 205.459 300.33 205.898C300.619 206.337 300.764 206.85 300.764 207.438C300.764 207.811 300.694 208.18 300.554 208.544C300.414 208.908 300.204 209.281 299.924 209.664C299.644 210.037 299.28 210.457 298.832 210.924L296.382 213.5H300.904V215.11H293.904Z" fill="white"/>
<path d="M364 253C364 244.163 371.163 237 380 237H483C491.837 237 499 244.163 499 253V295H364V253Z" fill="#0101DB"/>
<path d="M381.675 267V264.704H376.887V263.108L381.563 256.57H383.551V263.108H385.077V264.704H383.551V267H381.675ZM378.287 263.794L377.951 263.108H381.675V258.068L382.165 258.222L378.287 263.794ZM389.701 267.168C389.15 267.168 388.623 267.065 388.119 266.86C387.624 266.655 387.195 266.365 386.831 265.992C386.476 265.609 386.234 265.157 386.103 264.634L387.755 264.046C387.914 264.522 388.17 264.877 388.525 265.11C388.88 265.334 389.272 265.446 389.701 265.446C390.056 265.446 390.368 265.371 390.639 265.222C390.919 265.063 391.134 264.849 391.283 264.578C391.432 264.298 391.507 263.976 391.507 263.612C391.507 263.248 391.428 262.931 391.269 262.66C391.12 262.389 390.91 262.179 390.639 262.03C390.368 261.871 390.056 261.792 389.701 261.792C389.337 261.792 389.006 261.871 388.707 262.03C388.418 262.189 388.208 262.417 388.077 262.716L386.523 262.366L387.349 256.57H393.033V258.18H388.105L388.819 257.354L388.231 261.722L387.685 261.274C387.946 260.891 388.264 260.611 388.637 260.434C389.02 260.257 389.482 260.168 390.023 260.168C390.714 260.168 391.311 260.317 391.815 260.616C392.328 260.915 392.725 261.321 393.005 261.834C393.285 262.347 393.425 262.94 393.425 263.612C393.425 264.284 393.262 264.891 392.935 265.432C392.608 265.973 392.165 266.398 391.605 266.706C391.045 267.014 390.41 267.168 389.701 267.168ZM395.472 267L399.014 262.436L399.336 262.772C399.196 262.875 399.061 262.959 398.93 263.024C398.8 263.089 398.66 263.136 398.51 263.164C398.361 263.192 398.202 263.206 398.034 263.206C397.4 263.206 396.835 263.061 396.34 262.772C395.846 262.483 395.454 262.091 395.164 261.596C394.884 261.092 394.744 260.523 394.744 259.888C394.744 259.216 394.898 258.619 395.206 258.096C395.524 257.573 395.953 257.163 396.494 256.864C397.045 256.556 397.67 256.402 398.37 256.402C399.08 256.402 399.705 256.551 400.246 256.85C400.788 257.149 401.212 257.559 401.52 258.082C401.838 258.595 401.996 259.188 401.996 259.86C401.996 260.196 401.959 260.532 401.884 260.868C401.81 261.204 401.674 261.563 401.478 261.946C401.292 262.319 401.021 262.744 400.666 263.22L397.754 267H395.472ZM398.37 261.61C398.697 261.61 398.986 261.54 399.238 261.4C399.5 261.251 399.705 261.045 399.854 260.784C400.004 260.513 400.078 260.21 400.078 259.874C400.078 259.519 399.999 259.211 399.84 258.95C399.691 258.689 399.49 258.483 399.238 258.334C398.986 258.185 398.697 258.11 398.37 258.11C398.053 258.11 397.764 258.185 397.502 258.334C397.241 258.483 397.031 258.689 396.872 258.95C396.723 259.211 396.648 259.519 396.648 259.874C396.648 260.21 396.723 260.513 396.872 260.784C397.031 261.045 397.241 261.251 397.502 261.4C397.764 261.54 398.053 261.61 398.37 261.61Z" fill="white"/>
<path d="M455 217C455 208.163 462.163 201 471 201H574C582.837 201 590 208.163 590 217V295H455V217Z" fill="#0865FF"/>
<path d="M471.353 231.278C470.803 231.278 470.275 231.176 469.771 230.97C469.277 230.765 468.847 230.476 468.483 230.102C468.129 229.72 467.886 229.267 467.755 228.744L469.407 228.156C469.566 228.632 469.823 228.987 470.177 229.22C470.532 229.444 470.924 229.556 471.353 229.556C471.708 229.556 472.021 229.482 472.291 229.332C472.571 229.174 472.786 228.959 472.935 228.688C473.085 228.408 473.159 228.086 473.159 227.722C473.159 227.358 473.08 227.041 472.921 226.77C472.772 226.5 472.562 226.29 472.291 226.14C472.021 225.982 471.708 225.902 471.353 225.902C470.989 225.902 470.658 225.982 470.359 226.14C470.07 226.299 469.86 226.528 469.729 226.826L468.175 226.476L469.001 220.68H474.685V222.29H469.757L470.471 221.464L469.883 225.832L469.337 225.384C469.599 225.002 469.916 224.722 470.289 224.544C470.672 224.367 471.134 224.278 471.675 224.278C472.366 224.278 472.963 224.428 473.467 224.726C473.981 225.025 474.377 225.431 474.657 225.944C474.937 226.458 475.077 227.05 475.077 227.722C475.077 228.394 474.914 229.001 474.587 229.542C474.261 230.084 473.817 230.508 473.257 230.816C472.697 231.124 472.063 231.278 471.353 231.278ZM478.231 231.11V222.304H476.215V220.68H480.135V231.11H478.231ZM482.099 231.11V229.668L484.927 226.714C485.487 226.126 485.916 225.66 486.215 225.314C486.523 224.96 486.738 224.656 486.859 224.404C486.98 224.152 487.041 223.896 487.041 223.634C487.041 223.196 486.901 222.85 486.621 222.598C486.35 222.346 486 222.22 485.571 222.22C485.123 222.22 484.736 222.351 484.409 222.612C484.082 222.864 483.844 223.238 483.695 223.732L482.029 223.214C482.141 222.664 482.37 222.188 482.715 221.786C483.06 221.376 483.48 221.063 483.975 220.848C484.479 220.624 485.011 220.512 485.571 220.512C486.243 220.512 486.831 220.634 487.335 220.876C487.848 221.119 488.245 221.46 488.525 221.898C488.814 222.337 488.959 222.85 488.959 223.438C488.959 223.812 488.889 224.18 488.749 224.544C488.609 224.908 488.399 225.282 488.119 225.664C487.839 226.038 487.475 226.458 487.027 226.924L484.577 229.5H489.099V231.11H482.099Z" fill="white"/>
<rect x="205" y="143" width="46" height="28" rx="14" fill="black"/>
<path d="M216.252 162L213.132 153.06H214.908L217.356 160.464H217.008L219.456 153.06H221.232L218.124 162H216.252ZM222.099 162V155.472H223.671V162H222.099ZM222.099 154.74V153.06H223.671V154.74H222.099ZM228.219 162.144C227.547 162.144 226.959 161.992 226.455 161.688C225.951 161.384 225.559 160.972 225.279 160.452C224.999 159.932 224.859 159.356 224.859 158.724C224.859 158.068 224.999 157.488 225.279 156.984C225.567 156.472 225.955 156.068 226.443 155.772C226.939 155.476 227.491 155.328 228.099 155.328C228.611 155.328 229.059 155.412 229.443 155.58C229.835 155.748 230.167 155.98 230.439 156.276C230.711 156.572 230.919 156.912 231.063 157.296C231.207 157.672 231.279 158.08 231.279 158.52C231.279 158.632 231.271 158.748 231.255 158.868C231.247 158.988 231.227 159.092 231.195 159.18H226.155V157.98H230.307L229.563 158.544C229.635 158.176 229.615 157.848 229.503 157.56C229.399 157.272 229.223 157.044 228.975 156.876C228.735 156.708 228.443 156.624 228.099 156.624C227.771 156.624 227.479 156.708 227.223 156.876C226.967 157.036 226.771 157.276 226.635 157.596C226.507 157.908 226.459 158.288 226.491 158.736C226.459 159.136 226.511 159.492 226.647 159.804C226.791 160.108 226.999 160.344 227.271 160.512C227.551 160.68 227.871 160.764 228.231 160.764C228.591 160.764 228.895 160.688 229.143 160.536C229.399 160.384 229.599 160.18 229.743 159.924L231.015 160.548C230.887 160.86 230.687 161.136 230.415 161.376C230.143 161.616 229.819 161.804 229.443 161.94C229.075 162.076 228.667 162.144 228.219 162.144ZM234.114 162L231.87 155.472H233.526L235.17 160.428L234.594 160.416L236.346 155.472H237.738L239.478 160.416L238.902 160.428L240.546 155.472H242.202L239.958 162H238.554L236.778 156.828H237.306L235.506 162H234.114Z" fill="white"/>
<rect x="553" y="189" width="46" height="28" rx="14" fill="black"/>
<path d="M564.252 208L561.132 199.06H562.908L565.356 206.464H565.008L567.456 199.06H569.232L566.124 208H564.252ZM570.099 208V201.472H571.671V208H570.099ZM570.099 200.74V199.06H571.671V200.74H570.099ZM576.219 208.144C575.547 208.144 574.959 207.992 574.455 207.688C573.951 207.384 573.559 206.972 573.279 206.452C572.999 205.932 572.859 205.356 572.859 204.724C572.859 204.068 572.999 203.488 573.279 202.984C573.567 202.472 573.955 202.068 574.443 201.772C574.939 201.476 575.491 201.328 576.099 201.328C576.611 201.328 577.059 201.412 577.443 201.58C577.835 201.748 578.167 201.98 578.439 202.276C578.711 202.572 578.919 202.912 579.063 203.296C579.207 203.672 579.279 204.08 579.279 204.52C579.279 204.632 579.271 204.748 579.255 204.868C579.247 204.988 579.227 205.092 579.195 205.18H574.155V203.98H578.307L577.563 204.544C577.635 204.176 577.615 203.848 577.503 203.56C577.399 203.272 577.223 203.044 576.975 202.876C576.735 202.708 576.443 202.624 576.099 202.624C575.771 202.624 575.479 202.708 575.223 202.876C574.967 203.036 574.771 203.276 574.635 203.596C574.507 203.908 574.459 204.288 574.491 204.736C574.459 205.136 574.511 205.492 574.647 205.804C574.791 206.108 574.999 206.344 575.271 206.512C575.551 206.68 575.871 206.764 576.231 206.764C576.591 206.764 576.895 206.688 577.143 206.536C577.399 206.384 577.599 206.18 577.743 205.924L579.015 206.548C578.887 206.86 578.687 207.136 578.415 207.376C578.143 207.616 577.819 207.804 577.443 207.94C577.075 208.076 576.667 208.144 576.219 208.144ZM582.114 208L579.87 201.472H581.526L583.17 206.428L582.594 206.416L584.346 201.472H585.738L587.478 206.416L586.902 206.428L588.546 201.472H590.202L587.958 208H586.554L584.778 202.828H585.306L583.506 208H582.114Z" fill="white"/>
</g>
<defs>
<clipPath id="clip0_12775_2785">
<rect width="614" height="356" fill="white"/>
</clipPath>
</defs>
</svg>
