<svg width="24" height="25" viewBox="0 0 24 25" fill="none" xmlns="http://www.w3.org/2000/svg">
<g clip-path="url(#clip0_14927_1434)">
<g clip-path="url(#clip1_14927_1434)">
<path fill-rule="evenodd" clip-rule="evenodd" d="M11.5145 1.60547C7.61886 1.60547 4.46973 4.76087 4.46973 8.61678C4.46973 9.08518 4.51573 9.54312 4.60355 9.98642C5.34379 9.72504 6.14257 9.58076 6.97272 9.58076C8.70202 9.58076 10.2912 10.206 11.5208 11.2431C12.7482 10.206 14.3374 9.58076 16.0772 9.58076C16.9011 9.58076 17.6915 9.72295 18.4275 9.98015C18.5153 9.53893 18.5614 9.08308 18.5614 8.61678C18.5614 4.76087 15.4122 1.60547 11.5145 1.60547ZM11.5145 7.67371C10.4251 7.11122 9.23315 6.77038 8.00152 6.62819C8.7083 5.42374 10.0194 4.59986 11.5145 4.59986C13.0096 4.59986 14.3416 5.42374 15.0275 6.62819C13.7958 6.76829 12.6039 7.11122 11.5145 7.67371Z" fill="white"/>
<path fill-rule="evenodd" clip-rule="evenodd" d="M9.03235 16.5939C9.03235 16.1318 9.07835 15.6822 9.16409 15.2473C6.8472 14.4276 5.09071 12.4348 4.60559 9.98828C1.87048 10.9523 -0.0930176 13.5431 -0.0930176 16.5939C-0.0930176 20.4707 3.07702 23.6052 6.97266 23.6052C8.70196 23.6052 10.2912 22.98 11.5207 21.9428C9.99842 20.6568 9.03235 18.7394 9.03235 16.5939ZM2.91601 16.5939C2.91601 15.8704 3.11884 15.1866 3.46178 14.6053C4.16855 15.5505 5.03634 16.3744 6.02541 17.0163C6.08605 18.2626 6.36835 19.4879 6.87438 20.6129C4.67459 20.5523 2.9181 18.7854 2.9181 16.5939H2.91601Z" fill="white"/>
<path fill-rule="evenodd" clip-rule="evenodd" d="M13.8855 15.2414C13.9712 15.6785 14.0172 16.1322 14.0172 16.5943C14.0172 18.7419 13.0449 20.6594 11.5205 21.9433C12.748 22.9804 14.3372 23.6057 16.0769 23.6057C19.9726 23.6057 23.1238 20.4712 23.1238 16.5943C23.1238 13.5372 21.1645 10.9443 18.4273 9.98242C17.9463 12.4248 16.1961 14.4176 13.8855 15.2414ZM19.5899 14.6057C19.9328 15.1892 20.1147 15.8708 20.1147 16.5943C20.1147 18.7837 18.3583 20.5527 16.1773 20.6134C16.6624 19.4884 16.9656 18.263 17.0053 17.0167C18.0153 16.3748 18.8831 15.5509 19.5899 14.6057Z" fill="white"/>
<path fill-rule="evenodd" clip-rule="evenodd" d="M9.164 15.2474C9.90005 15.5067 10.6905 15.651 11.5164 15.651C12.3424 15.651 13.1454 15.5067 13.8877 15.2411C13.574 13.6498 12.7188 12.253 11.5227 11.2451C10.3266 12.2551 9.47557 13.654 9.164 15.2474Z" fill="white"/>
</g>
</g>
<defs>
<clipPath id="clip0_14927_1434">
<rect width="24" height="24" fill="white" transform="translate(0 0.5)"/>
</clipPath>
<clipPath id="clip1_14927_1434">
<rect width="23.217" height="22" fill="white" transform="translate(-0.09375 1.60547)"/>
</clipPath>
</defs>
</svg>
