<svg width="24" height="25" viewBox="0 0 24 25" fill="none" xmlns="http://www.w3.org/2000/svg">
<g clip-path="url(#clip0_16762_5685)">
<path d="M16.6192 0.5C16.6751 0.5 16.7309 0.5 16.7899 0.5C16.9269 2.19253 16.2809 3.45719 15.4958 4.37301C14.7254 5.28251 13.6704 6.1646 11.9642 6.03076C11.8504 4.36247 12.4975 3.19161 13.2816 2.27789C14.0087 1.42636 15.3419 0.668621 16.6192 0.5Z" fill="white"/>
<path d="M21.7841 18.1164C21.7841 18.1332 21.7841 18.148 21.7841 18.1638C21.3046 19.6161 20.6206 20.8607 19.7859 22.0157C19.024 23.0643 18.0903 24.4755 16.423 24.4755C14.9824 24.4755 14.0254 23.5491 12.549 23.5238C10.9871 23.4985 10.1282 24.2984 8.70019 24.4997C8.53684 24.4997 8.37348 24.4997 8.21329 24.4997C7.16468 24.348 6.31842 23.5175 5.7019 22.7693C3.88396 20.5582 2.47914 17.7022 2.21777 14.0474C2.21777 13.689 2.21777 13.3318 2.21777 12.9735C2.32843 10.3577 3.59941 8.23099 5.28878 7.2003C6.18036 6.65228 7.40602 6.18541 8.7708 6.39408C9.3557 6.48471 9.95325 6.68495 10.477 6.88308C10.9734 7.07383 11.5941 7.41213 12.1822 7.39421C12.5806 7.38262 12.9768 7.17501 13.3784 7.02852C14.5545 6.6038 15.7074 6.11691 17.2271 6.3456C19.0535 6.62172 20.3498 7.43321 21.1507 8.68522C19.6057 9.66848 18.3843 11.1502 18.593 13.6806C18.7784 15.9791 20.1148 17.3239 21.7841 18.1164Z" fill="white"/>
</g>
<defs>
<clipPath id="clip0_16762_5685">
<rect width="24" height="24" fill="white" transform="translate(0 0.5)"/>
</clipPath>
</defs>
</svg>
