<svg width="24" height="25" viewBox="0 0 24 25" fill="none" xmlns="http://www.w3.org/2000/svg">
<path d="M8.88 20.6172C7.97183 19.5861 7.38106 18.3294 7.1719 16.9809C6.93156 15.4361 7.21226 13.8857 7.98284 12.495L7.98651 12.4895C7.98651 12.4895 7.9865 12.4877 7.98834 12.4859L10.478 8.1725C10.5221 8.09728 10.6028 8.04957 10.6908 8.04957C10.7789 8.04957 10.8596 8.09544 10.9037 8.1725L14.0135 13.5573C14.5327 14.4563 14.6685 15.4966 14.3933 16.4855C14.1584 17.3331 13.6374 18.0798 12.9383 18.5881C13.3255 18.7422 13.7401 18.8192 14.1749 18.8192C15.5088 18.8192 16.6793 18.0615 17.2279 16.8414C17.6737 15.8525 17.6168 14.7444 17.0719 13.8013L16.4536 12.7299C16.4536 12.7299 16.4499 12.7244 16.4499 12.7225C16.4316 12.6895 16.4151 12.6583 16.3967 12.6271L10.6927 2.75098L4.99045 12.6271C3.79973 14.6893 3.79973 17.1497 4.99045 19.2119C6.18117 21.274 8.31308 22.5033 10.6927 22.5033C10.9495 22.5033 11.2027 22.4886 11.4541 22.4611C10.4744 22.0556 9.59553 21.4282 8.88 20.6154V20.6172Z" fill="white"/>
<path d="M19.8773 12.6269L14.0338 2.50488H11.1185L16.8207 12.381C16.8409 12.4159 16.861 12.4508 16.8794 12.4856C16.8794 12.4856 16.8794 12.4875 16.8794 12.4893L17.4959 13.5571C18.1196 14.6377 18.1857 15.9092 17.6738 17.043C17.3766 17.7017 16.9069 18.2631 16.3143 18.663C15.6868 19.0868 14.9475 19.3107 14.1732 19.3107C13.5072 19.3107 12.8798 19.1511 12.3128 18.8355C11.4193 18.3383 10.7478 17.4833 10.4708 16.4853C10.1974 15.4964 10.3314 14.4561 10.8506 13.5571L12.1477 11.3114L10.6891 8.78688L8.41228 12.7296V12.7333C7.69308 14.0268 7.43072 15.4707 7.65455 16.9054C7.84903 18.1603 8.39944 19.3327 9.24523 20.2922C10.113 21.2775 11.2359 21.9692 12.4926 22.2939C13.0339 22.4333 13.599 22.5049 14.1732 22.5049C15.9877 22.5049 17.6701 21.793 18.9104 20.4977C19.8681 19.4978 20.5047 18.197 20.7011 16.8357C20.9102 15.3826 20.6258 13.9277 19.8754 12.6287L19.8773 12.6269Z" fill="white"/>
</svg>
