<svg width="24" height="25" viewBox="0 0 24 25" fill="none" xmlns="http://www.w3.org/2000/svg">
<path fill-rule="evenodd" clip-rule="evenodd" d="M12.004 2.00586C17.802 2.00586 22.504 6.70792 22.504 12.5059C22.504 18.3039 17.802 23.006 12.004 23.006C6.20596 23.006 1.50391 18.3039 1.50391 12.5059C1.50391 6.70792 6.20596 2.00586 12.004 2.00586ZM9.8235 15.9164L7.25283 13.3436C6.81487 12.9054 6.81478 12.1908 7.25283 11.7527C7.69096 11.3146 8.40874 11.3174 8.84369 11.7527L10.656 13.5664L15.1644 9.058C15.6025 8.61986 16.3172 8.61986 16.7553 9.058C17.1934 9.49604 17.1928 10.2113 16.7553 10.6489L11.4501 15.954C11.0126 16.3915 10.2973 16.3921 9.85928 15.954C9.84697 15.9417 9.8351 15.9292 9.8235 15.9164Z" fill="#0865FF"/>
</svg>
