<svg width="24" height="25" viewBox="0 0 24 25" fill="none" xmlns="http://www.w3.org/2000/svg">
<path fill-rule="evenodd" clip-rule="evenodd" d="M12.0043 2.00586C17.8023 2.00586 22.5043 6.70792 22.5043 12.5059C22.5043 18.3039 17.8023 23.006 12.0043 23.006C6.20627 23.006 1.50421 18.3039 1.50421 12.5059C1.50421 6.70792 6.20627 2.00586 12.0043 2.00586ZM9.82381 15.9164L7.25313 13.3436C6.81518 12.9054 6.81509 12.1908 7.25313 11.7527C7.69127 11.3146 8.40905 11.3174 8.84399 11.7527L10.6563 13.5664L15.1647 9.058C15.6029 8.61986 16.3175 8.61986 16.7556 9.058C17.1937 9.49604 17.1931 10.2113 16.7556 10.6489L11.4504 15.954C11.0129 16.3915 10.2976 16.3921 9.85959 15.954C9.84728 15.9417 9.83541 15.9292 9.82381 15.9164Z" fill="#FF7442"/>
</svg>
