<svg width="25" height="24" viewBox="0 0 25 24" fill="none" xmlns="http://www.w3.org/2000/svg">
<path d="M12.9795 1C10.8039 1 8.67717 1.64514 6.86822 2.85383C5.05928 4.06253 3.64939 5.78049 2.81682 7.79048C1.98426 9.80047 1.76642 12.0122 2.19086 14.146C2.6153 16.2798 3.66295 18.2398 5.20132 19.7782C6.7397 21.3166 8.69971 22.3642 10.8335 22.7886C12.9673 23.2131 15.179 22.9952 17.189 22.1627C19.199 21.3301 20.917 19.9202 22.1257 18.1113C23.3344 16.3023 23.9795 14.1756 23.9795 12C23.9761 9.08367 22.816 6.28778 20.7539 4.22563C18.6917 2.16347 15.8958 1.00344 12.9795 1ZM17.2215 14.829C17.317 14.9212 17.3932 15.0316 17.4456 15.1536C17.498 15.2756 17.5256 15.4068 17.5267 15.5396C17.5279 15.6724 17.5026 15.8041 17.4523 15.927C17.402 16.0499 17.3278 16.1615 17.2339 16.2554C17.14 16.3493 17.0283 16.4235 16.9055 16.4738C16.7826 16.5241 16.6509 16.5494 16.5181 16.5483C16.3853 16.5471 16.2541 16.5195 16.1321 16.4671C16.0101 16.4147 15.8997 16.3385 15.8075 16.243L12.9795 13.414L10.1515 16.243C9.96289 16.4252 9.71029 16.526 9.4481 16.5237C9.1859 16.5214 8.93509 16.4162 8.74968 16.2308C8.56427 16.0454 8.4591 15.7946 8.45682 15.5324C8.45454 15.2702 8.55534 15.0176 8.7375 14.829L11.5655 12L8.7375 9.171C8.64199 9.07875 8.5658 8.96841 8.5134 8.8464C8.46099 8.7244 8.4334 8.59318 8.43225 8.4604C8.43109 8.32762 8.45639 8.19594 8.50668 8.07305C8.55696 7.95015 8.63121 7.8385 8.7251 7.74461C8.81899 7.65071 8.93065 7.57646 9.05354 7.52618C9.17644 7.4759 9.30812 7.4506 9.4409 7.45175C9.57368 7.4529 9.7049 7.48049 9.8269 7.5329C9.94891 7.58531 10.0592 7.66149 10.1515 7.757L12.9795 10.586L15.8075 7.757C15.8997 7.66149 16.0101 7.58531 16.1321 7.5329C16.2541 7.48049 16.3853 7.4529 16.5181 7.45175C16.6509 7.4506 16.7826 7.4759 16.9055 7.52618C17.0283 7.57646 17.14 7.65071 17.2339 7.74461C17.3278 7.8385 17.402 7.95015 17.4523 8.07305C17.5026 8.19594 17.5279 8.32762 17.5267 8.4604C17.5256 8.59318 17.498 8.7244 17.4456 8.8464C17.3932 8.96841 17.317 9.07875 17.2215 9.171L14.3935 12L17.2215 14.829Z" fill="#E64240"/>
</svg>
