<svg width="1040" height="640" viewBox="0 0 1040 640" fill="none" xmlns="http://www.w3.org/2000/svg">
<g opacity="0.8">
<mask id="mask0_16754_331" style="mask-type:alpha" maskUnits="userSpaceOnUse" x="0" y="-55" width="1040" height="695">
<path d="M1039.07 -55H0V639.814H1039.07V-55Z" fill="url(#paint0_radial_16754_331)"/>
</mask>
<g mask="url(#mask0_16754_331)">
<path d="M6.08391 443.636H-96.5637V519.225H6.08391V443.636Z" stroke="white"/>
<path d="M108.737 443.636H6.08923V519.225H108.737V443.636Z" stroke="white"/>
<path d="M211.387 443.636H108.74V519.225H211.387V443.636Z" stroke="white"/>
<path d="M314.034 443.636H211.386V519.225H314.034V443.636Z" stroke="white"/>
<path d="M416.684 443.636H314.037V519.225H416.684V443.636Z" stroke="white"/>
<path d="M519.337 443.636H416.69V519.225H519.337V443.636Z" stroke="white"/>
<path d="M621.99 443.636H519.343V519.225H621.99V443.636Z" stroke="white"/>
<path d="M724.641 443.636H621.993V519.225H724.641V443.636Z" stroke="white"/>
<path d="M827.292 443.636H724.644V519.225H827.292V443.636Z" stroke="white"/>
<path d="M929.938 443.636H827.29V519.225H929.938V443.636Z" stroke="white"/>
<path d="M1032.59 443.636H929.943V519.225H1032.59V443.636Z" stroke="white"/>
<path d="M1135.24 443.636H1032.59V519.225H1135.24V443.636Z" stroke="white"/>
<path d="M6.08391 519.206H-96.5637V594.796H6.08391V519.206Z" stroke="white"/>
<path d="M108.737 519.206H6.08923V594.796H108.737V519.206Z" stroke="white"/>
<path d="M211.387 519.206H108.74V594.796H211.387V519.206Z" stroke="white"/>
<path d="M314.034 519.206H211.386V594.796H314.034V519.206Z" stroke="white"/>
<path d="M416.684 519.206H314.037V594.796H416.684V519.206Z" stroke="white"/>
<path d="M519.337 519.206H416.69V594.796H519.337V519.206Z" stroke="white"/>
<path d="M621.99 519.206H519.343V594.796H621.99V519.206Z" stroke="white"/>
<path d="M724.641 519.206H621.993V594.796H724.641V519.206Z" stroke="white"/>
<path d="M827.292 519.206H724.644V594.796H827.292V519.206Z" stroke="white"/>
<path d="M929.94 519.206H827.292V594.796H929.94V519.206Z" stroke="white"/>
<path d="M1032.59 519.206H929.943V594.796H1032.59V519.206Z" stroke="white"/>
<path d="M1135.24 519.206H1032.59V594.796H1135.24V519.206Z" stroke="white"/>
<path d="M6.08391 594.776H-96.5637V670.366H6.08391V594.776Z" stroke="white"/>
<path d="M6.08391 -9.78516H-96.5637V65.8045H6.08391V-9.78516Z" stroke="white"/>
<path d="M108.737 594.774H6.08923V670.364H108.737V594.774Z" stroke="white"/>
<path d="M108.737 -9.78516H6.08923V65.8045H108.737V-9.78516Z" stroke="white"/>
<path d="M211.387 594.774H108.74V670.364H211.387V594.774Z" stroke="white"/>
<path d="M211.387 -9.78516H108.74V65.8045H211.387V-9.78516Z" stroke="white"/>
<path d="M314.034 594.774H211.386V670.364H314.034V594.774Z" stroke="white"/>
<path d="M314.034 -9.78516H211.386V65.8045H314.034V-9.78516Z" stroke="white"/>
<path d="M416.684 594.774H314.037V670.364H416.684V594.774Z" stroke="white"/>
<path d="M416.684 -9.78516H314.037V65.8045H416.684V-9.78516Z" stroke="white"/>
<path d="M519.337 594.774H416.69V670.364H519.337V594.774Z" stroke="white"/>
<path d="M519.337 -9.78516H416.69V65.8045H519.337V-9.78516Z" stroke="white"/>
<path d="M621.99 594.774H519.343V670.364H621.99V594.774Z" stroke="white"/>
<path d="M621.99 -9.78516H519.343V65.8045H621.99V-9.78516Z" stroke="white"/>
<path d="M724.641 594.774H621.993V670.364H724.641V594.774Z" stroke="white"/>
<path d="M724.641 -9.78516H621.993V65.8045H724.641V-9.78516Z" stroke="white"/>
<path d="M827.292 594.774H724.644V670.364H827.292V594.774Z" stroke="white"/>
<path d="M827.292 -9.78516H724.644V65.8045H827.292V-9.78516Z" stroke="white"/>
<path d="M929.94 594.776H827.292V670.366H929.94V594.776Z" stroke="white"/>
<path d="M929.938 -9.78516H827.29V65.8045H929.938V-9.78516Z" stroke="white"/>
<path d="M1032.59 594.776H929.943V670.366H1032.59V594.776Z" stroke="white"/>
<path d="M1032.59 -9.78516H929.943V65.8045H1032.59V-9.78516Z" stroke="white"/>
<path d="M1135.24 594.774H1032.59V670.364H1135.24V594.774Z" stroke="white"/>
<path d="M1135.24 -9.78516H1032.59V65.8045H1135.24V-9.78516Z" stroke="white"/>
<path d="M6.08391 65.7842H-96.5637V141.374H6.08391V65.7842Z" stroke="white"/>
<path d="M108.737 65.7832H6.08923V141.373H108.737V65.7832Z" stroke="white"/>
<path d="M211.387 65.7832H108.74V141.373H211.387V65.7832Z" stroke="white"/>
<path d="M314.034 65.7832H211.386V141.373H314.034V65.7832Z" stroke="white"/>
<path d="M416.684 65.7832H314.037V141.373H416.684V65.7832Z" stroke="white"/>
<path d="M519.337 65.7832H416.69V141.373H519.337V65.7832Z" stroke="white"/>
<path d="M621.99 65.7832H519.343V141.373H621.99V65.7832Z" stroke="white"/>
<path d="M724.641 65.7832H621.993V141.373H724.641V65.7832Z" stroke="white"/>
<path d="M827.292 65.7832H724.644V141.373H827.292V65.7832Z" stroke="white"/>
<path d="M929.94 65.7842H827.292V141.374H929.94V65.7842Z" stroke="white"/>
<path d="M1032.59 65.7842H929.943V141.374H1032.59V65.7842Z" stroke="white"/>
<path d="M1135.24 65.7832H1032.59V141.373H1135.24V65.7832Z" stroke="white"/>
<path d="M6.08391 141.355H-96.5637V216.945H6.08391V141.355Z" stroke="white"/>
<path d="M108.737 141.355H6.08923V216.945H108.737V141.355Z" stroke="white"/>
<path d="M211.387 141.355H108.74V216.945H211.387V141.355Z" stroke="white"/>
<path d="M314.034 141.355H211.386V216.945H314.034V141.355Z" stroke="white"/>
<path d="M416.684 141.355H314.037V216.945H416.684V141.355Z" stroke="white"/>
<path d="M519.337 141.355H416.69V216.945H519.337V141.355Z" stroke="white"/>
<path d="M621.99 141.355H519.343V216.945H621.99V141.355Z" stroke="white"/>
<path d="M724.641 141.355H621.993V216.945H724.641V141.355Z" stroke="white"/>
<path d="M827.292 141.355H724.644V216.945H827.292V141.355Z" stroke="white"/>
<path d="M929.938 141.355H827.29V216.945H929.938V141.355Z" stroke="white"/>
<path d="M1032.59 141.355H929.943V216.945H1032.59V141.355Z" stroke="white"/>
<path d="M1135.24 141.355H1032.59V216.945H1135.24V141.355Z" stroke="white"/>
<path d="M6.08391 216.924H-96.5637V292.514H6.08391V216.924Z" stroke="white"/>
<path d="M108.737 216.924H6.08923V292.514H108.737V216.924Z" stroke="white"/>
<path d="M211.387 216.924H108.74V292.514H211.387V216.924Z" stroke="white"/>
<path d="M314.034 216.924H211.386V292.514H314.034V216.924Z" stroke="white"/>
<path d="M416.684 216.924H314.037V292.514H416.684V216.924Z" stroke="white"/>
<path d="M519.337 216.924H416.69V292.514H519.337V216.924Z" stroke="white"/>
<path d="M621.99 216.924H519.343V292.514H621.99V216.924Z" stroke="white"/>
<path d="M724.641 216.924H621.993V292.514H724.641V216.924Z" stroke="white"/>
<path d="M827.292 216.924H724.644V292.514H827.292V216.924Z" stroke="white"/>
<path d="M929.938 216.924H827.29V292.514H929.938V216.924Z" stroke="white"/>
<path d="M1032.59 216.925H929.943V292.515H1032.59V216.925Z" stroke="white"/>
<path d="M1135.24 216.924H1032.59V292.514H1135.24V216.924Z" stroke="white"/>
<path d="M6.08391 292.496H-96.5637V368.086H6.08391V292.496Z" stroke="white"/>
<path d="M108.737 292.496H6.08923V368.086H108.737V292.496Z" stroke="white"/>
<path d="M211.387 292.496H108.74V368.086H211.387V292.496Z" stroke="white"/>
<path d="M314.034 292.496H211.386V368.086H314.034V292.496Z" stroke="white"/>
<path d="M416.684 292.496H314.037V368.086H416.684V292.496Z" stroke="white"/>
<path d="M519.337 292.496H416.69V368.086H519.337V292.496Z" stroke="white"/>
<path d="M621.99 292.496H519.343V368.086H621.99V292.496Z" stroke="white"/>
<path d="M724.641 292.496H621.993V368.086H724.641V292.496Z" stroke="white"/>
<path d="M827.292 292.496H724.644V368.086H827.292V292.496Z" stroke="white"/>
<path d="M929.94 292.496H827.292V368.086H929.94V292.496Z" stroke="white"/>
<path d="M1032.59 292.496H929.943V368.086H1032.59V292.496Z" stroke="white"/>
<path d="M1135.24 292.496H1032.59V368.086H1135.24V292.496Z" stroke="white"/>
<path d="M6.08391 368.064H-96.5637V443.654H6.08391V368.064Z" stroke="white"/>
<path d="M108.737 368.064H6.08923V443.654H108.737V368.064Z" stroke="white"/>
<path d="M211.387 368.064H108.74V443.654H211.387V368.064Z" stroke="white"/>
<path d="M314.034 368.064H211.386V443.654H314.034V368.064Z" stroke="white"/>
<path d="M416.684 368.064H314.037V443.654H416.684V368.064Z" stroke="white"/>
<path d="M519.337 368.064H416.69V443.654H519.337V368.064Z" stroke="white"/>
<path d="M621.99 368.064H519.343V443.654H621.99V368.064Z" stroke="white"/>
<path d="M724.641 368.064H621.993V443.654H724.641V368.064Z" stroke="white"/>
<path d="M827.292 368.064H724.644V443.654H827.292V368.064Z" stroke="white"/>
<path d="M929.938 368.064H827.29V443.654H929.938V368.064Z" stroke="white"/>
<path d="M1032.59 368.064H929.944V443.654H1032.59V368.064Z" stroke="white"/>
<path d="M1135.24 368.064H1032.59V443.654H1135.24V368.064Z" stroke="white"/>
</g>
</g>
<defs>
<radialGradient id="paint0_radial_16754_331" cx="0" cy="0" r="1" gradientUnits="userSpaceOnUse" gradientTransform="translate(519.537 292.407) rotate(90) scale(923.764 1381.46)">
<stop stop-color="white" stop-opacity="0.46"/>
<stop offset="0.54" stop-color="white" stop-opacity="0"/>
</radialGradient>
</defs>
</svg>
