<svg width="407" height="451" viewBox="0 0 407 451" fill="none" xmlns="http://www.w3.org/2000/svg">
<circle cx="165.251" cy="64.2508" r="58.2508" fill="white"/>
<path d="M151.002 59.168C150.227 59.168 149.537 59.0047 148.93 58.678C148.333 58.3513 147.861 57.9033 147.516 57.334C147.18 56.7647 147.012 56.116 147.012 55.388V48.57H148.664V55.318C148.664 55.7753 148.762 56.1813 148.958 56.536C149.163 56.8907 149.439 57.166 149.784 57.362C150.139 57.558 150.545 57.656 151.002 57.656C151.469 57.656 151.875 57.558 152.22 57.362C152.575 57.166 152.85 56.8907 153.046 56.536C153.251 56.1813 153.354 55.7753 153.354 55.318V48.57H154.992V55.388C154.992 56.116 154.824 56.7647 154.488 57.334C154.152 57.9033 153.681 58.3513 153.074 58.678C152.477 59.0047 151.786 59.168 151.002 59.168ZM157.063 59V48.57H158.715V59H157.063ZM159.953 60.68L164.629 49.13H166.379L161.703 60.68H159.953ZM171.523 59.168C170.749 59.168 170.058 59.0047 169.451 58.678C168.854 58.3513 168.383 57.9033 168.037 57.334C167.701 56.7647 167.533 56.116 167.533 55.388V48.57H169.185V55.318C169.185 55.7753 169.283 56.1813 169.479 56.536C169.685 56.8907 169.96 57.166 170.305 57.362C170.66 57.558 171.066 57.656 171.523 57.656C171.99 57.656 172.396 57.558 172.741 57.362C173.096 57.166 173.371 56.8907 173.567 56.536C173.773 56.1813 173.875 55.7753 173.875 55.318V48.57H175.513V55.388C175.513 56.116 175.345 56.7647 175.009 57.334C174.673 57.9033 174.202 58.3513 173.595 58.678C172.998 59.0047 172.307 59.168 171.523 59.168ZM176.66 59L180.062 53.722L176.716 48.57H178.592L181.392 52.882H180.594L183.366 48.57H185.242L181.91 53.722L185.312 59H183.436L180.594 54.576L181.392 54.59L178.522 59H176.66ZM136.521 80V69.57H139.937C141.019 69.57 141.957 69.7893 142.751 70.228C143.553 70.6573 144.174 71.264 144.613 72.048C145.051 72.832 145.271 73.742 145.271 74.778C145.271 75.8047 145.051 76.7147 144.613 77.508C144.174 78.292 143.553 78.9033 142.751 79.342C141.957 79.7807 141.019 80 139.937 80H136.521ZM138.173 78.53H139.965C140.702 78.53 141.341 78.376 141.883 78.068C142.433 77.76 142.858 77.326 143.157 76.766C143.455 76.206 143.605 75.5433 143.605 74.778C143.605 74.0127 143.451 73.3547 143.143 72.804C142.844 72.244 142.424 71.81 141.883 71.502C141.341 71.194 140.702 71.04 139.965 71.04H138.173V78.53ZM150.3 80.168C149.544 80.168 148.872 79.9953 148.284 79.65C147.705 79.2953 147.252 78.8193 146.926 78.222C146.599 77.6153 146.436 76.9387 146.436 76.192C146.436 75.4267 146.599 74.75 146.926 74.162C147.262 73.574 147.71 73.112 148.27 72.776C148.83 72.4307 149.464 72.258 150.174 72.258C150.743 72.258 151.252 72.356 151.7 72.552C152.148 72.748 152.526 73.0187 152.834 73.364C153.142 73.7 153.375 74.0873 153.534 74.526C153.702 74.9647 153.786 75.4313 153.786 75.926C153.786 76.0473 153.781 76.1733 153.772 76.304C153.762 76.4347 153.744 76.556 153.716 76.668H147.682V75.408H152.82L152.064 75.982C152.157 75.5247 152.124 75.1187 151.966 74.764C151.816 74.4 151.583 74.1153 151.266 73.91C150.958 73.6953 150.594 73.588 150.174 73.588C149.754 73.588 149.38 73.6953 149.054 73.91C148.727 74.1153 148.475 74.414 148.298 74.806C148.12 75.1887 148.05 75.6553 148.088 76.206C148.041 76.7193 148.111 77.1673 148.298 77.55C148.494 77.9327 148.764 78.2313 149.11 78.446C149.464 78.6607 149.866 78.768 150.314 78.768C150.771 78.768 151.158 78.6653 151.476 78.46C151.802 78.2547 152.059 77.9887 152.246 77.662L153.534 78.292C153.384 78.6467 153.151 78.9687 152.834 79.258C152.526 79.538 152.152 79.762 151.714 79.93C151.284 80.0887 150.813 80.168 150.3 80.168ZM158.13 80.168C157.355 80.168 156.674 79.9767 156.086 79.594C155.507 79.2113 155.101 78.698 154.868 78.054L156.086 77.48C156.291 77.9093 156.571 78.25 156.926 78.502C157.29 78.754 157.691 78.88 158.13 78.88C158.503 78.88 158.806 78.796 159.04 78.628C159.273 78.46 159.39 78.2313 159.39 77.942C159.39 77.7553 159.338 77.606 159.236 77.494C159.133 77.3727 159.002 77.2747 158.844 77.2C158.694 77.1253 158.54 77.0693 158.382 77.032L157.192 76.696C156.538 76.5093 156.048 76.2293 155.722 75.856C155.404 75.4733 155.246 75.03 155.246 74.526C155.246 74.0687 155.362 73.672 155.596 73.336C155.829 72.9907 156.151 72.7247 156.562 72.538C156.972 72.3513 157.434 72.258 157.948 72.258C158.638 72.258 159.254 72.4307 159.796 72.776C160.337 73.112 160.72 73.5833 160.944 74.19L159.726 74.764C159.576 74.4 159.338 74.1107 159.012 73.896C158.694 73.6813 158.335 73.574 157.934 73.574C157.588 73.574 157.313 73.658 157.108 73.826C156.902 73.9847 156.8 74.1947 156.8 74.456C156.8 74.6333 156.846 74.7827 156.94 74.904C157.033 75.016 157.154 75.1093 157.304 75.184C157.453 75.2493 157.607 75.3053 157.766 75.352L158.998 75.716C159.623 75.8933 160.104 76.1733 160.44 76.556C160.776 76.9293 160.944 77.3773 160.944 77.9C160.944 78.348 160.822 78.7447 160.58 79.09C160.346 79.426 160.02 79.692 159.6 79.888C159.18 80.0747 158.69 80.168 158.13 80.168ZM162.494 80V72.426H164.076V80H162.494ZM162.494 71.39V69.57H164.076V71.39H162.494ZM169.579 83.08C169.029 83.08 168.52 82.9913 168.053 82.814C167.587 82.6367 167.185 82.3893 166.849 82.072C166.513 81.764 166.261 81.4 166.093 80.98L167.549 80.378C167.68 80.7327 167.918 81.0267 168.263 81.26C168.618 81.4933 169.052 81.61 169.565 81.61C169.967 81.61 170.326 81.5307 170.643 81.372C170.961 81.2227 171.213 80.9987 171.399 80.7C171.586 80.4107 171.679 80.0607 171.679 79.65V77.942L171.959 78.264C171.698 78.7493 171.334 79.118 170.867 79.37C170.41 79.622 169.892 79.748 169.313 79.748C168.613 79.748 167.983 79.5847 167.423 79.258C166.863 78.9313 166.42 78.4833 166.093 77.914C165.776 77.3447 165.617 76.7053 165.617 75.996C165.617 75.2773 165.776 74.638 166.093 74.078C166.42 73.518 166.859 73.0747 167.409 72.748C167.96 72.4213 168.59 72.258 169.299 72.258C169.878 72.258 170.391 72.384 170.839 72.636C171.297 72.8787 171.67 73.2333 171.959 73.7L171.749 74.092V72.426H173.247V79.65C173.247 80.3033 173.089 80.8867 172.771 81.4C172.463 81.9227 172.034 82.3333 171.483 82.632C170.933 82.9307 170.298 83.08 169.579 83.08ZM169.495 78.278C169.915 78.278 170.289 78.18 170.615 77.984C170.942 77.7787 171.199 77.508 171.385 77.172C171.581 76.8267 171.679 76.4393 171.679 76.01C171.679 75.5807 171.581 75.1933 171.385 74.848C171.189 74.5027 170.928 74.232 170.601 74.036C170.275 73.8307 169.906 73.728 169.495 73.728C169.066 73.728 168.683 73.8307 168.347 74.036C168.011 74.232 167.745 74.5027 167.549 74.848C167.363 75.184 167.269 75.5713 167.269 76.01C167.269 76.43 167.363 76.8127 167.549 77.158C167.745 77.5033 168.011 77.7787 168.347 77.984C168.683 78.18 169.066 78.278 169.495 78.278ZM175.099 80V72.426H176.611V73.91L176.429 73.714C176.616 73.238 176.915 72.8787 177.325 72.636C177.736 72.384 178.212 72.258 178.753 72.258C179.313 72.258 179.808 72.3793 180.237 72.622C180.667 72.8647 181.003 73.2007 181.245 73.63C181.488 74.0593 181.609 74.554 181.609 75.114V80H180.041V75.534C180.041 75.1513 179.971 74.8293 179.831 74.568C179.691 74.2973 179.491 74.092 179.229 73.952C178.977 73.8027 178.688 73.728 178.361 73.728C178.035 73.728 177.741 73.8027 177.479 73.952C177.227 74.092 177.031 74.2973 176.891 74.568C176.751 74.8387 176.681 75.1607 176.681 75.534V80H175.099ZM186.858 80.168C186.102 80.168 185.43 79.9953 184.842 79.65C184.264 79.2953 183.811 78.8193 183.484 78.222C183.158 77.6153 182.994 76.9387 182.994 76.192C182.994 75.4267 183.158 74.75 183.484 74.162C183.82 73.574 184.268 73.112 184.828 72.776C185.388 72.4307 186.023 72.258 186.732 72.258C187.302 72.258 187.81 72.356 188.258 72.552C188.706 72.748 189.084 73.0187 189.392 73.364C189.7 73.7 189.934 74.0873 190.092 74.526C190.26 74.9647 190.344 75.4313 190.344 75.926C190.344 76.0473 190.34 76.1733 190.33 76.304C190.321 76.4347 190.302 76.556 190.274 76.668H184.24V75.408H189.378L188.622 75.982C188.716 75.5247 188.683 75.1187 188.524 74.764C188.375 74.4 188.142 74.1153 187.824 73.91C187.516 73.6953 187.152 73.588 186.732 73.588C186.312 73.588 185.939 73.6953 185.612 73.91C185.286 74.1153 185.034 74.414 184.856 74.806C184.679 75.1887 184.609 75.6553 184.646 76.206C184.6 76.7193 184.67 77.1673 184.856 77.55C185.052 77.9327 185.323 78.2313 185.668 78.446C186.023 78.6607 186.424 78.768 186.872 78.768C187.33 78.768 187.717 78.6653 188.034 78.46C188.361 78.2547 188.618 77.9887 188.804 77.662L190.092 78.292C189.943 78.6467 189.71 78.9687 189.392 79.258C189.084 79.538 188.711 79.762 188.272 79.93C187.843 80.0887 187.372 80.168 186.858 80.168ZM191.888 80V72.426H193.4V73.952L193.26 73.728C193.428 73.2333 193.699 72.8787 194.072 72.664C194.446 72.44 194.894 72.328 195.416 72.328H195.878V73.77H195.22C194.698 73.77 194.273 73.9333 193.946 74.26C193.629 74.5773 193.47 75.0347 193.47 75.632V80H191.888Z" fill="#616161"/>
<circle cx="290.768" cy="52.7684" r="52.7684" fill="#E64240"/>
<path d="M264.211 48.168C263.558 48.168 262.951 48.0467 262.391 47.804C261.831 47.552 261.355 47.2113 260.963 46.782C260.571 46.3527 260.282 45.858 260.095 45.298L261.495 44.71C261.747 45.354 262.116 45.8487 262.601 46.194C263.087 46.5393 263.647 46.712 264.281 46.712C264.655 46.712 264.981 46.656 265.261 46.544C265.541 46.4227 265.756 46.2547 265.905 46.04C266.064 45.8253 266.143 45.578 266.143 45.298C266.143 44.9153 266.036 44.612 265.821 44.388C265.607 44.164 265.289 43.9867 264.869 43.856L262.909 43.24C262.125 42.9973 261.528 42.6287 261.117 42.134C260.707 41.63 260.501 41.042 260.501 40.37C260.501 39.782 260.646 39.2687 260.935 38.83C261.225 38.382 261.621 38.032 262.125 37.78C262.639 37.528 263.222 37.402 263.875 37.402C264.501 37.402 265.07 37.514 265.583 37.738C266.097 37.9527 266.535 38.2513 266.899 38.634C267.273 39.0167 267.543 39.46 267.711 39.964L266.339 40.566C266.134 40.0153 265.812 39.5907 265.373 39.292C264.944 38.9933 264.445 38.844 263.875 38.844C263.53 38.844 263.227 38.9047 262.965 39.026C262.704 39.138 262.499 39.306 262.349 39.53C262.209 39.7447 262.139 39.9967 262.139 40.286C262.139 40.622 262.247 40.9207 262.461 41.182C262.676 41.4433 263.003 41.6393 263.441 41.77L265.261 42.344C266.092 42.596 266.717 42.96 267.137 43.436C267.557 43.9027 267.767 44.486 267.767 45.186C267.767 45.7647 267.613 46.278 267.305 46.726C267.007 47.174 266.591 47.5287 266.059 47.79C265.527 48.042 264.911 48.168 264.211 48.168ZM273.122 48.168C272.394 48.168 271.727 47.9953 271.12 47.65C270.523 47.3047 270.047 46.8333 269.692 46.236C269.337 45.6387 269.16 44.962 269.16 44.206C269.16 43.4407 269.337 42.764 269.692 42.176C270.047 41.5787 270.523 41.112 271.12 40.776C271.717 40.4307 272.385 40.258 273.122 40.258C273.869 40.258 274.536 40.4307 275.124 40.776C275.721 41.112 276.193 41.5787 276.538 42.176C276.893 42.764 277.07 43.4407 277.07 44.206C277.07 44.9713 276.893 45.6527 276.538 46.25C276.183 46.8473 275.707 47.3187 275.11 47.664C274.513 48 273.85 48.168 273.122 48.168ZM273.122 46.698C273.57 46.698 273.967 46.5907 274.312 46.376C274.657 46.1613 274.928 45.8673 275.124 45.494C275.329 45.1113 275.432 44.682 275.432 44.206C275.432 43.73 275.329 43.3053 275.124 42.932C274.928 42.5587 274.657 42.2647 274.312 42.05C273.967 41.8353 273.57 41.728 273.122 41.728C272.683 41.728 272.287 41.8353 271.932 42.05C271.587 42.2647 271.311 42.5587 271.106 42.932C270.91 43.3053 270.812 43.73 270.812 44.206C270.812 44.682 270.91 45.1113 271.106 45.494C271.311 45.8673 271.587 46.1613 271.932 46.376C272.287 46.5907 272.683 46.698 273.122 46.698ZM279.263 48V41.854H277.863V40.426H279.263V40.034C279.263 39.4647 279.38 38.9887 279.613 38.606C279.847 38.214 280.169 37.9153 280.579 37.71C280.999 37.5047 281.48 37.402 282.021 37.402C282.124 37.402 282.241 37.4113 282.371 37.43C282.502 37.4393 282.609 37.4533 282.693 37.472V38.844C282.619 38.8253 282.535 38.816 282.441 38.816C282.348 38.8067 282.273 38.802 282.217 38.802C281.797 38.802 281.461 38.9 281.209 39.096C280.957 39.2827 280.831 39.5953 280.831 40.034V40.426H282.567V41.854H280.831V48H279.263ZM287.592 48.084C286.798 48.084 286.182 47.86 285.744 47.412C285.305 46.964 285.086 46.334 285.086 45.522V41.854H283.756V40.426H283.966C284.32 40.426 284.596 40.3233 284.792 40.118C284.988 39.9127 285.086 39.6327 285.086 39.278V38.69H286.668V40.426H288.39V41.854H286.668V45.452C286.668 45.7133 286.71 45.9373 286.794 46.124C286.878 46.3013 287.013 46.4413 287.2 46.544C287.386 46.6373 287.629 46.684 287.928 46.684C288.002 46.684 288.086 46.6793 288.18 46.67C288.273 46.6607 288.362 46.6513 288.446 46.642V48C288.315 48.0187 288.17 48.0373 288.012 48.056C287.853 48.0747 287.713 48.084 287.592 48.084ZM291.823 48L289.219 40.426H290.899L292.887 46.46H292.299L294.329 40.426H295.771L297.787 46.46H297.199L299.201 40.426H300.881L298.263 48H296.835L294.791 41.826H295.309L293.265 48H291.823ZM303.961 48.168C303.447 48.168 302.995 48.0793 302.603 47.902C302.22 47.7153 301.921 47.4633 301.707 47.146C301.492 46.8193 301.385 46.4367 301.385 45.998C301.385 45.5873 301.473 45.2187 301.651 44.892C301.837 44.5653 302.122 44.29 302.505 44.066C302.887 43.842 303.368 43.6833 303.947 43.59L306.579 43.156V44.402L304.255 44.808C303.835 44.8827 303.527 45.018 303.331 45.214C303.135 45.4007 303.037 45.6433 303.037 45.942C303.037 46.2313 303.144 46.4693 303.359 46.656C303.583 46.8333 303.867 46.922 304.213 46.922C304.642 46.922 305.015 46.8287 305.333 46.642C305.659 46.4553 305.911 46.208 306.089 45.9C306.266 45.5827 306.355 45.2327 306.355 44.85V42.904C306.355 42.5307 306.215 42.2273 305.935 41.994C305.664 41.7513 305.3 41.63 304.843 41.63C304.423 41.63 304.054 41.742 303.737 41.966C303.429 42.1807 303.2 42.4607 303.051 42.806L301.735 42.148C301.875 41.7747 302.103 41.448 302.421 41.168C302.738 40.8787 303.107 40.6547 303.527 40.496C303.956 40.3373 304.409 40.258 304.885 40.258C305.482 40.258 306.009 40.37 306.467 40.594C306.933 40.818 307.293 41.1307 307.545 41.532C307.806 41.924 307.937 42.3813 307.937 42.904V48H306.425V46.628L306.747 46.67C306.569 46.978 306.341 47.244 306.061 47.468C305.79 47.692 305.477 47.8647 305.123 47.986C304.777 48.1073 304.39 48.168 303.961 48.168ZM309.786 48V40.426H311.298V41.952L311.158 41.728C311.326 41.2333 311.597 40.8787 311.97 40.664C312.344 40.44 312.792 40.328 313.314 40.328H313.776V41.77H313.118C312.596 41.77 312.171 41.9333 311.844 42.26C311.527 42.5773 311.368 43.0347 311.368 43.632V48H309.786ZM318.415 48.168C317.659 48.168 316.987 47.9953 316.399 47.65C315.82 47.2953 315.367 46.8193 315.041 46.222C314.714 45.6153 314.551 44.9387 314.551 44.192C314.551 43.4267 314.714 42.75 315.041 42.162C315.377 41.574 315.825 41.112 316.385 40.776C316.945 40.4307 317.579 40.258 318.289 40.258C318.858 40.258 319.367 40.356 319.815 40.552C320.263 40.748 320.641 41.0187 320.949 41.364C321.257 41.7 321.49 42.0873 321.649 42.526C321.817 42.9647 321.901 43.4313 321.901 43.926C321.901 44.0473 321.896 44.1733 321.887 44.304C321.877 44.4347 321.859 44.556 321.831 44.668H315.797V43.408H320.935L320.179 43.982C320.272 43.5247 320.239 43.1187 320.081 42.764C319.931 42.4 319.698 42.1153 319.381 41.91C319.073 41.6953 318.709 41.588 318.289 41.588C317.869 41.588 317.495 41.6953 317.169 41.91C316.842 42.1153 316.59 42.414 316.413 42.806C316.235 43.1887 316.165 43.6553 316.203 44.206C316.156 44.7193 316.226 45.1673 316.413 45.55C316.609 45.9327 316.879 46.2313 317.225 46.446C317.579 46.6607 317.981 46.768 318.429 46.768C318.886 46.768 319.273 46.6653 319.591 46.46C319.917 46.2547 320.174 45.9887 320.361 45.662L321.649 46.292C321.499 46.6467 321.266 46.9687 320.949 47.258C320.641 47.538 320.267 47.762 319.829 47.93C319.399 48.0887 318.928 48.168 318.415 48.168ZM262.246 69V58.57H269.12V60.04H263.898V63.036H268.84V64.506H263.898V67.53H269.12V69H262.246ZM270.5 69V61.426H272.012V62.91L271.83 62.714C272.017 62.238 272.316 61.8787 272.726 61.636C273.137 61.384 273.613 61.258 274.154 61.258C274.714 61.258 275.209 61.3793 275.638 61.622C276.068 61.8647 276.404 62.2007 276.646 62.63C276.889 63.0593 277.01 63.554 277.01 64.114V69H275.442V64.534C275.442 64.1513 275.372 63.8293 275.232 63.568C275.092 63.2973 274.892 63.092 274.63 62.952C274.378 62.8027 274.089 62.728 273.762 62.728C273.436 62.728 273.142 62.8027 272.88 62.952C272.628 63.092 272.432 63.2973 272.292 63.568C272.152 63.8387 272.082 64.1607 272.082 64.534V69H270.5ZM282.357 72.08C281.807 72.08 281.298 71.9913 280.831 71.814C280.365 71.6367 279.963 71.3893 279.627 71.072C279.291 70.764 279.039 70.4 278.871 69.98L280.327 69.378C280.458 69.7327 280.696 70.0267 281.041 70.26C281.396 70.4933 281.83 70.61 282.343 70.61C282.745 70.61 283.104 70.5307 283.421 70.372C283.739 70.2227 283.991 69.9987 284.177 69.7C284.364 69.4107 284.457 69.0607 284.457 68.65V66.942L284.737 67.264C284.476 67.7493 284.112 68.118 283.645 68.37C283.188 68.622 282.67 68.748 282.091 68.748C281.391 68.748 280.761 68.5847 280.201 68.258C279.641 67.9313 279.198 67.4833 278.871 66.914C278.554 66.3447 278.395 65.7053 278.395 64.996C278.395 64.2773 278.554 63.638 278.871 63.078C279.198 62.518 279.637 62.0747 280.187 61.748C280.738 61.4213 281.368 61.258 282.077 61.258C282.656 61.258 283.169 61.384 283.617 61.636C284.075 61.8787 284.448 62.2333 284.737 62.7L284.527 63.092V61.426H286.025V68.65C286.025 69.3033 285.867 69.8867 285.549 70.4C285.241 70.9227 284.812 71.3333 284.261 71.632C283.711 71.9307 283.076 72.08 282.357 72.08ZM282.273 67.278C282.693 67.278 283.067 67.18 283.393 66.984C283.72 66.7787 283.977 66.508 284.163 66.172C284.359 65.8267 284.457 65.4393 284.457 65.01C284.457 64.5807 284.359 64.1933 284.163 63.848C283.967 63.5027 283.706 63.232 283.379 63.036C283.053 62.8307 282.684 62.728 282.273 62.728C281.844 62.728 281.461 62.8307 281.125 63.036C280.789 63.232 280.523 63.5027 280.327 63.848C280.141 64.184 280.047 64.5713 280.047 65.01C280.047 65.43 280.141 65.8127 280.327 66.158C280.523 66.5033 280.789 66.7787 281.125 66.984C281.461 67.18 281.844 67.278 282.273 67.278ZM287.877 69V61.426H289.459V69H287.877ZM287.877 60.39V58.57H289.459V60.39H287.877ZM291.309 69V61.426H292.821V62.91L292.639 62.714C292.825 62.238 293.124 61.8787 293.535 61.636C293.945 61.384 294.421 61.258 294.963 61.258C295.523 61.258 296.017 61.3793 296.447 61.622C296.876 61.8647 297.212 62.2007 297.455 62.63C297.697 63.0593 297.819 63.554 297.819 64.114V69H296.251V64.534C296.251 64.1513 296.181 63.8293 296.041 63.568C295.901 63.2973 295.7 63.092 295.439 62.952C295.187 62.8027 294.897 62.728 294.571 62.728C294.244 62.728 293.95 62.8027 293.689 62.952C293.437 63.092 293.241 63.2973 293.101 63.568C292.961 63.8387 292.891 64.1607 292.891 64.534V69H291.309ZM303.068 69.168C302.312 69.168 301.64 68.9953 301.052 68.65C300.473 68.2953 300.021 67.8193 299.694 67.222C299.367 66.6153 299.204 65.9387 299.204 65.192C299.204 64.4267 299.367 63.75 299.694 63.162C300.03 62.574 300.478 62.112 301.038 61.776C301.598 61.4307 302.233 61.258 302.942 61.258C303.511 61.258 304.02 61.356 304.468 61.552C304.916 61.748 305.294 62.0187 305.602 62.364C305.91 62.7 306.143 63.0873 306.302 63.526C306.47 63.9647 306.554 64.4313 306.554 64.926C306.554 65.0473 306.549 65.1733 306.54 65.304C306.531 65.4347 306.512 65.556 306.484 65.668H300.45V64.408H305.588L304.832 64.982C304.925 64.5247 304.893 64.1187 304.734 63.764C304.585 63.4 304.351 63.1153 304.034 62.91C303.726 62.6953 303.362 62.588 302.942 62.588C302.522 62.588 302.149 62.6953 301.822 62.91C301.495 63.1153 301.243 63.414 301.066 63.806C300.889 64.1887 300.819 64.6553 300.856 65.206C300.809 65.7193 300.879 66.1673 301.066 66.55C301.262 66.9327 301.533 67.2313 301.878 67.446C302.233 67.6607 302.634 67.768 303.082 67.768C303.539 67.768 303.927 67.6653 304.244 67.46C304.571 67.2547 304.827 66.9887 305.014 66.662L306.302 67.292C306.153 67.6467 305.919 67.9687 305.602 68.258C305.294 68.538 304.921 68.762 304.482 68.93C304.053 69.0887 303.581 69.168 303.068 69.168ZM311.654 69.168C310.898 69.168 310.226 68.9953 309.638 68.65C309.059 68.2953 308.606 67.8193 308.28 67.222C307.953 66.6153 307.79 65.9387 307.79 65.192C307.79 64.4267 307.953 63.75 308.28 63.162C308.616 62.574 309.064 62.112 309.624 61.776C310.184 61.4307 310.818 61.258 311.528 61.258C312.097 61.258 312.606 61.356 313.054 61.552C313.502 61.748 313.88 62.0187 314.188 62.364C314.496 62.7 314.729 63.0873 314.888 63.526C315.056 63.9647 315.14 64.4313 315.14 64.926C315.14 65.0473 315.135 65.1733 315.126 65.304C315.116 65.4347 315.098 65.556 315.07 65.668H309.036V64.408H314.174L313.418 64.982C313.511 64.5247 313.478 64.1187 313.32 63.764C313.17 63.4 312.937 63.1153 312.62 62.91C312.312 62.6953 311.948 62.588 311.528 62.588C311.108 62.588 310.734 62.6953 310.408 62.91C310.081 63.1153 309.829 63.414 309.652 63.806C309.474 64.1887 309.404 64.6553 309.442 65.206C309.395 65.7193 309.465 66.1673 309.652 66.55C309.848 66.9327 310.118 67.2313 310.464 67.446C310.818 67.6607 311.22 67.768 311.668 67.768C312.125 67.768 312.512 67.6653 312.83 67.46C313.156 67.2547 313.413 66.9887 313.6 66.662L314.888 67.292C314.738 67.6467 314.505 67.9687 314.188 68.258C313.88 68.538 313.506 68.762 313.068 68.93C312.638 69.0887 312.167 69.168 311.654 69.168ZM316.684 69V61.426H318.196V62.952L318.056 62.728C318.224 62.2333 318.494 61.8787 318.868 61.664C319.241 61.44 319.689 61.328 320.212 61.328H320.674V62.77H320.016C319.493 62.77 319.068 62.9333 318.742 63.26C318.424 63.5773 318.266 64.0347 318.266 64.632V69H316.684Z" fill="white"/>
<circle cx="353.768" cy="158.768" r="52.7684" fill="white"/>
<path d="M327.107 153.499V143.069H330.901C331.601 143.069 332.217 143.199 332.749 143.461C333.29 143.713 333.71 144.086 334.009 144.581C334.308 145.066 334.457 145.649 334.457 146.331C334.457 147.003 334.303 147.581 333.995 148.067C333.696 148.552 333.281 148.925 332.749 149.187C332.217 149.448 331.601 149.579 330.901 149.579H328.759V153.499H327.107ZM328.759 148.109H330.943C331.316 148.109 331.643 148.034 331.923 147.885C332.203 147.735 332.422 147.53 332.581 147.269C332.74 146.998 332.819 146.681 332.819 146.317C332.819 145.953 332.74 145.64 332.581 145.379C332.422 145.108 332.203 144.903 331.923 144.763C331.643 144.613 331.316 144.539 330.943 144.539H328.759V148.109ZM336.004 153.499V145.925H337.516V147.451L337.376 147.227C337.544 146.732 337.814 146.377 338.188 146.163C338.561 145.939 339.009 145.827 339.532 145.827H339.994V147.269H339.336C338.813 147.269 338.388 147.432 338.062 147.759C337.744 148.076 337.586 148.533 337.586 149.131V153.499H336.004ZM344.73 153.667C344.002 153.667 343.335 153.494 342.728 153.149C342.131 152.803 341.655 152.332 341.3 151.735C340.945 151.137 340.768 150.461 340.768 149.705C340.768 148.939 340.945 148.263 341.3 147.675C341.655 147.077 342.131 146.611 342.728 146.275C343.325 145.929 343.993 145.757 344.73 145.757C345.477 145.757 346.144 145.929 346.732 146.275C347.329 146.611 347.801 147.077 348.146 147.675C348.501 148.263 348.678 148.939 348.678 149.705C348.678 150.47 348.501 151.151 348.146 151.749C347.791 152.346 347.315 152.817 346.718 153.163C346.121 153.499 345.458 153.667 344.73 153.667ZM344.73 152.197C345.178 152.197 345.575 152.089 345.92 151.875C346.265 151.66 346.536 151.366 346.732 150.993C346.937 150.61 347.04 150.181 347.04 149.705C347.04 149.229 346.937 148.804 346.732 148.431C346.536 148.057 346.265 147.763 345.92 147.549C345.575 147.334 345.178 147.227 344.73 147.227C344.291 147.227 343.895 147.334 343.54 147.549C343.195 147.763 342.919 148.057 342.714 148.431C342.518 148.804 342.42 149.229 342.42 149.705C342.42 150.181 342.518 150.61 342.714 150.993C342.919 151.366 343.195 151.66 343.54 151.875C343.895 152.089 344.291 152.197 344.73 152.197ZM353.722 153.667C352.994 153.667 352.341 153.494 351.762 153.149C351.193 152.794 350.74 152.318 350.404 151.721C350.078 151.123 349.914 150.451 349.914 149.705C349.914 148.958 350.082 148.286 350.418 147.689C350.754 147.091 351.207 146.62 351.776 146.275C352.346 145.929 352.99 145.757 353.708 145.757C354.315 145.757 354.852 145.878 355.318 146.121C355.785 146.363 356.154 146.699 356.424 147.129L356.186 147.493V142.901H357.754V153.499H356.256V151.959L356.438 152.253C356.177 152.71 355.804 153.06 355.318 153.303C354.833 153.545 354.301 153.667 353.722 153.667ZM353.876 152.197C354.315 152.197 354.707 152.089 355.052 151.875C355.407 151.66 355.682 151.366 355.878 150.993C356.084 150.61 356.186 150.181 356.186 149.705C356.186 149.229 356.084 148.804 355.878 148.431C355.682 148.057 355.407 147.763 355.052 147.549C354.707 147.334 354.315 147.227 353.876 147.227C353.438 147.227 353.041 147.334 352.686 147.549C352.332 147.763 352.056 148.057 351.86 148.431C351.664 148.804 351.566 149.229 351.566 149.705C351.566 150.181 351.664 150.61 351.86 150.993C352.056 151.366 352.327 151.66 352.672 151.875C353.027 152.089 353.428 152.197 353.876 152.197ZM362.303 153.667C361.734 153.667 361.235 153.541 360.805 153.289C360.376 153.027 360.04 152.668 359.797 152.211C359.564 151.744 359.447 151.207 359.447 150.601V145.925H361.029V150.461C361.029 150.806 361.099 151.109 361.239 151.371C361.379 151.632 361.575 151.837 361.827 151.987C362.079 152.127 362.369 152.197 362.695 152.197C363.031 152.197 363.325 152.122 363.577 151.973C363.829 151.823 364.025 151.613 364.165 151.343C364.315 151.072 364.389 150.755 364.389 150.391V145.925H365.957V153.499H364.459V152.015L364.627 152.211C364.45 152.677 364.156 153.037 363.745 153.289C363.335 153.541 362.854 153.667 362.303 153.667ZM371.402 153.667C370.646 153.667 369.974 153.494 369.386 153.149C368.808 152.794 368.346 152.318 368 151.721C367.664 151.123 367.496 150.447 367.496 149.691C367.496 148.944 367.664 148.272 368 147.675C368.336 147.077 368.798 146.611 369.386 146.275C369.974 145.929 370.646 145.757 371.402 145.757C371.916 145.757 372.396 145.85 372.844 146.037C373.292 146.214 373.68 146.461 374.006 146.779C374.342 147.096 374.59 147.465 374.748 147.885L373.362 148.529C373.204 148.137 372.947 147.824 372.592 147.591C372.247 147.348 371.85 147.227 371.402 147.227C370.973 147.227 370.586 147.334 370.24 147.549C369.904 147.754 369.638 148.048 369.442 148.431C369.246 148.804 369.148 149.229 369.148 149.705C369.148 150.181 369.246 150.61 369.442 150.993C369.638 151.366 369.904 151.66 370.24 151.875C370.586 152.089 370.973 152.197 371.402 152.197C371.86 152.197 372.256 152.08 372.592 151.847C372.938 151.604 373.194 151.282 373.362 150.881L374.748 151.539C374.599 151.94 374.356 152.304 374.02 152.631C373.694 152.948 373.306 153.2 372.858 153.387C372.41 153.573 371.925 153.667 371.402 153.667ZM379.571 153.583C378.777 153.583 378.161 153.359 377.723 152.911C377.284 152.463 377.065 151.833 377.065 151.021V147.353H375.735V145.925H375.945C376.299 145.925 376.575 145.822 376.771 145.617C376.967 145.411 377.065 145.131 377.065 144.777V144.189H378.647V145.925H380.369V147.353H378.647V150.951C378.647 151.212 378.689 151.436 378.773 151.623C378.857 151.8 378.992 151.94 379.179 152.043C379.365 152.136 379.608 152.183 379.907 152.183C379.981 152.183 380.065 152.178 380.159 152.169C380.252 152.159 380.341 152.15 380.425 152.141V153.499C380.294 153.517 380.149 153.536 379.991 153.555C379.832 153.573 379.692 153.583 379.571 153.583ZM324.885 174.499V164.069H326.425L330.345 169.501H329.575L333.425 164.069H334.965V174.499H333.327V166.015L333.943 166.183L330.009 171.559H329.841L325.991 166.183L326.537 166.015V174.499H324.885ZM339.236 174.667C338.722 174.667 338.27 174.578 337.878 174.401C337.495 174.214 337.196 173.962 336.982 173.645C336.767 173.318 336.66 172.935 336.66 172.497C336.66 172.086 336.748 171.717 336.926 171.391C337.112 171.064 337.397 170.789 337.78 170.565C338.162 170.341 338.643 170.182 339.222 170.089L341.854 169.655V170.901L339.53 171.307C339.11 171.381 338.802 171.517 338.606 171.713C338.41 171.899 338.312 172.142 338.312 172.441C338.312 172.73 338.419 172.968 338.634 173.155C338.858 173.332 339.142 173.421 339.488 173.421C339.917 173.421 340.29 173.327 340.608 173.141C340.934 172.954 341.186 172.707 341.364 172.399C341.541 172.081 341.63 171.731 341.63 171.349V169.403C341.63 169.029 341.49 168.726 341.21 168.493C340.939 168.25 340.575 168.129 340.118 168.129C339.698 168.129 339.329 168.241 339.012 168.465C338.704 168.679 338.475 168.959 338.326 169.305L337.01 168.647C337.15 168.273 337.378 167.947 337.696 167.667C338.013 167.377 338.382 167.153 338.802 166.995C339.231 166.836 339.684 166.757 340.16 166.757C340.757 166.757 341.284 166.869 341.742 167.093C342.208 167.317 342.568 167.629 342.82 168.031C343.081 168.423 343.212 168.88 343.212 169.403V174.499H341.7V173.127L342.022 173.169C341.844 173.477 341.616 173.743 341.336 173.967C341.065 174.191 340.752 174.363 340.398 174.485C340.052 174.606 339.665 174.667 339.236 174.667ZM345.061 174.499V166.925H346.573V168.409L346.391 168.213C346.578 167.737 346.877 167.377 347.287 167.135C347.698 166.883 348.174 166.757 348.715 166.757C349.275 166.757 349.77 166.878 350.199 167.121C350.629 167.363 350.965 167.699 351.207 168.129C351.45 168.558 351.571 169.053 351.571 169.613V174.499H350.003V170.033C350.003 169.65 349.933 169.328 349.793 169.067C349.653 168.796 349.453 168.591 349.191 168.451C348.939 168.301 348.65 168.227 348.323 168.227C347.997 168.227 347.703 168.301 347.441 168.451C347.189 168.591 346.993 168.796 346.853 169.067C346.713 169.337 346.643 169.659 346.643 170.033V174.499H345.061ZM355.532 174.667C355.019 174.667 354.566 174.578 354.174 174.401C353.792 174.214 353.493 173.962 353.278 173.645C353.064 173.318 352.956 172.935 352.956 172.497C352.956 172.086 353.045 171.717 353.222 171.391C353.409 171.064 353.694 170.789 354.076 170.565C354.459 170.341 354.94 170.182 355.518 170.089L358.15 169.655V170.901L355.826 171.307C355.406 171.381 355.098 171.517 354.902 171.713C354.706 171.899 354.608 172.142 354.608 172.441C354.608 172.73 354.716 172.968 354.93 173.155C355.154 173.332 355.439 173.421 355.784 173.421C356.214 173.421 356.587 173.327 356.904 173.141C357.231 172.954 357.483 172.707 357.66 172.399C357.838 172.081 357.926 171.731 357.926 171.349V169.403C357.926 169.029 357.786 168.726 357.506 168.493C357.236 168.25 356.872 168.129 356.414 168.129C355.994 168.129 355.626 168.241 355.308 168.465C355 168.679 354.772 168.959 354.622 169.305L353.306 168.647C353.446 168.273 353.675 167.947 353.992 167.667C354.31 167.377 354.678 167.153 355.098 166.995C355.528 166.836 355.98 166.757 356.456 166.757C357.054 166.757 357.581 166.869 358.038 167.093C358.505 167.317 358.864 167.629 359.116 168.031C359.378 168.423 359.508 168.88 359.508 169.403V174.499H357.996V173.127L358.318 173.169C358.141 173.477 357.912 173.743 357.632 173.967C357.362 174.191 357.049 174.363 356.694 174.485C356.349 174.606 355.962 174.667 355.532 174.667ZM365.012 177.579C364.462 177.579 363.953 177.49 363.486 177.313C363.02 177.135 362.618 176.888 362.282 176.571C361.946 176.263 361.694 175.899 361.526 175.479L362.982 174.877C363.113 175.231 363.351 175.525 363.696 175.759C364.051 175.992 364.485 176.109 364.998 176.109C365.4 176.109 365.759 176.029 366.076 175.871C366.394 175.721 366.646 175.497 366.832 175.199C367.019 174.909 367.112 174.559 367.112 174.149V172.441L367.392 172.763C367.131 173.248 366.767 173.617 366.3 173.869C365.843 174.121 365.325 174.247 364.746 174.247C364.046 174.247 363.416 174.083 362.856 173.757C362.296 173.43 361.853 172.982 361.526 172.413C361.209 171.843 361.05 171.204 361.05 170.495C361.05 169.776 361.209 169.137 361.526 168.577C361.853 168.017 362.292 167.573 362.842 167.247C363.393 166.92 364.023 166.757 364.732 166.757C365.311 166.757 365.824 166.883 366.272 167.135C366.73 167.377 367.103 167.732 367.392 168.199L367.182 168.591V166.925H368.68V174.149C368.68 174.802 368.522 175.385 368.204 175.899C367.896 176.421 367.467 176.832 366.916 177.131C366.366 177.429 365.731 177.579 365.012 177.579ZM364.928 172.777C365.348 172.777 365.722 172.679 366.048 172.483C366.375 172.277 366.632 172.007 366.818 171.671C367.014 171.325 367.112 170.938 367.112 170.509C367.112 170.079 367.014 169.692 366.818 169.347C366.622 169.001 366.361 168.731 366.034 168.535C365.708 168.329 365.339 168.227 364.928 168.227C364.499 168.227 364.116 168.329 363.78 168.535C363.444 168.731 363.178 169.001 362.982 169.347C362.796 169.683 362.702 170.07 362.702 170.509C362.702 170.929 362.796 171.311 362.982 171.657C363.178 172.002 363.444 172.277 363.78 172.483C364.116 172.679 364.499 172.777 364.928 172.777ZM374.088 174.667C373.332 174.667 372.66 174.494 372.072 174.149C371.493 173.794 371.041 173.318 370.714 172.721C370.387 172.114 370.224 171.437 370.224 170.691C370.224 169.925 370.387 169.249 370.714 168.661C371.05 168.073 371.498 167.611 372.058 167.275C372.618 166.929 373.253 166.757 373.962 166.757C374.531 166.757 375.04 166.855 375.488 167.051C375.936 167.247 376.314 167.517 376.622 167.863C376.93 168.199 377.163 168.586 377.322 169.025C377.49 169.463 377.574 169.93 377.574 170.425C377.574 170.546 377.569 170.672 377.56 170.803C377.551 170.933 377.532 171.055 377.504 171.167H371.47V169.907H376.608L375.852 170.481C375.945 170.023 375.913 169.617 375.754 169.263C375.605 168.899 375.371 168.614 375.054 168.409C374.746 168.194 374.382 168.087 373.962 168.087C373.542 168.087 373.169 168.194 372.842 168.409C372.515 168.614 372.263 168.913 372.086 169.305C371.909 169.687 371.839 170.154 371.876 170.705C371.829 171.218 371.899 171.666 372.086 172.049C372.282 172.431 372.553 172.73 372.898 172.945C373.253 173.159 373.654 173.267 374.102 173.267C374.559 173.267 374.947 173.164 375.264 172.959C375.591 172.753 375.847 172.487 376.034 172.161L377.322 172.791C377.173 173.145 376.939 173.467 376.622 173.757C376.314 174.037 375.941 174.261 375.502 174.429C375.073 174.587 374.601 174.667 374.088 174.667ZM379.118 174.499V166.925H380.63V168.451L380.49 168.227C380.658 167.732 380.929 167.377 381.302 167.163C381.675 166.939 382.123 166.827 382.646 166.827H383.108V168.269H382.45C381.927 168.269 381.503 168.432 381.176 168.759C380.859 169.076 380.7 169.533 380.7 170.131V174.499H379.118Z" fill="#616161"/>
<circle cx="340.474" cy="292.474" r="66.4744" fill="white"/>
<path d="M314.348 287.032V276.602H317.764C318.847 276.602 319.785 276.821 320.578 277.26C321.381 277.689 322.001 278.296 322.44 279.08C322.879 279.864 323.098 280.774 323.098 281.81C323.098 282.836 322.879 283.746 322.44 284.54C322.001 285.324 321.381 285.935 320.578 286.374C319.785 286.812 318.847 287.032 317.764 287.032H314.348ZM316 285.562H317.792C318.529 285.562 319.169 285.408 319.71 285.1C320.261 284.792 320.685 284.358 320.984 283.798C321.283 283.238 321.432 282.575 321.432 281.81C321.432 281.044 321.278 280.386 320.97 279.836C320.671 279.276 320.251 278.842 319.71 278.534C319.169 278.226 318.529 278.072 317.792 278.072H316V285.562ZM328.127 287.2C327.371 287.2 326.699 287.027 326.111 286.682C325.532 286.327 325.08 285.851 324.753 285.254C324.426 284.647 324.263 283.97 324.263 283.224C324.263 282.458 324.426 281.782 324.753 281.194C325.089 280.606 325.537 280.144 326.097 279.808C326.657 279.462 327.292 279.29 328.001 279.29C328.57 279.29 329.079 279.388 329.527 279.584C329.975 279.78 330.353 280.05 330.661 280.396C330.969 280.732 331.202 281.119 331.361 281.558C331.529 281.996 331.613 282.463 331.613 282.958C331.613 283.079 331.608 283.205 331.599 283.336C331.59 283.466 331.571 283.588 331.543 283.7H325.509V282.44H330.647L329.891 283.014C329.984 282.556 329.952 282.15 329.793 281.796C329.644 281.432 329.41 281.147 329.093 280.942C328.785 280.727 328.421 280.62 328.001 280.62C327.581 280.62 327.208 280.727 326.881 280.942C326.554 281.147 326.302 281.446 326.125 281.838C325.948 282.22 325.878 282.687 325.915 283.238C325.868 283.751 325.938 284.199 326.125 284.582C326.321 284.964 326.592 285.263 326.937 285.478C327.292 285.692 327.693 285.8 328.141 285.8C328.598 285.8 328.986 285.697 329.303 285.492C329.63 285.286 329.886 285.02 330.073 284.694L331.361 285.324C331.212 285.678 330.978 286 330.661 286.29C330.353 286.57 329.98 286.794 329.541 286.962C329.112 287.12 328.64 287.2 328.127 287.2ZM335.218 287.032L332.25 279.458H333.972L336.254 285.632H335.624L337.906 279.458H339.642L336.66 287.032H335.218ZM345.94 287.2C345.184 287.2 344.479 287.064 343.826 286.794C343.182 286.523 342.612 286.145 342.118 285.66C341.632 285.174 341.25 284.605 340.97 283.952C340.699 283.298 340.564 282.584 340.564 281.81C340.564 281.035 340.699 280.321 340.97 279.668C341.25 279.005 341.632 278.436 342.118 277.96C342.603 277.474 343.172 277.101 343.826 276.84C344.479 276.569 345.184 276.434 345.94 276.434C346.705 276.434 347.41 276.569 348.054 276.84C348.707 277.101 349.276 277.474 349.762 277.96C350.256 278.445 350.639 279.014 350.91 279.668C351.18 280.321 351.316 281.035 351.316 281.81C351.316 282.584 351.176 283.298 350.896 283.952C350.625 284.605 350.247 285.174 349.762 285.66C349.276 286.145 348.707 286.523 348.054 286.794C347.4 287.064 346.696 287.2 345.94 287.2ZM345.94 285.688C346.481 285.688 346.976 285.59 347.424 285.394C347.881 285.198 348.278 284.927 348.614 284.582C348.95 284.227 349.211 283.816 349.398 283.35C349.584 282.874 349.678 282.36 349.678 281.81C349.678 281.259 349.584 280.75 349.398 280.284C349.211 279.817 348.95 279.406 348.614 279.052C348.278 278.697 347.881 278.422 347.424 278.226C346.976 278.03 346.481 277.932 345.94 277.932C345.398 277.932 344.899 278.03 344.442 278.226C343.994 278.422 343.602 278.697 343.266 279.052C342.93 279.406 342.668 279.817 342.482 280.284C342.304 280.75 342.216 281.259 342.216 281.81C342.216 282.36 342.304 282.874 342.482 283.35C342.668 283.816 342.93 284.227 343.266 284.582C343.602 284.927 343.998 285.198 344.456 285.394C344.913 285.59 345.408 285.688 345.94 285.688ZM353.009 289.832V279.458H354.521V281.026L354.339 280.662C354.619 280.232 354.992 279.896 355.459 279.654C355.925 279.411 356.457 279.29 357.055 279.29C357.773 279.29 358.417 279.462 358.987 279.808C359.565 280.153 360.018 280.624 360.345 281.222C360.681 281.819 360.849 282.491 360.849 283.238C360.849 283.984 360.681 284.656 360.345 285.254C360.018 285.851 359.57 286.327 359.001 286.682C358.431 287.027 357.783 287.2 357.055 287.2C356.467 287.2 355.93 287.078 355.445 286.836C354.969 286.593 354.6 286.243 354.339 285.786L354.591 285.492V289.832H353.009ZM356.901 285.73C357.349 285.73 357.745 285.622 358.091 285.408C358.436 285.193 358.707 284.899 358.903 284.526C359.108 284.143 359.211 283.714 359.211 283.238C359.211 282.762 359.108 282.337 358.903 281.964C358.707 281.59 358.436 281.296 358.091 281.082C357.745 280.867 357.349 280.76 356.901 280.76C356.462 280.76 356.065 280.867 355.711 281.082C355.365 281.296 355.09 281.59 354.885 281.964C354.689 282.337 354.591 282.762 354.591 283.238C354.591 283.714 354.689 284.143 354.885 284.526C355.09 284.899 355.365 285.193 355.711 285.408C356.065 285.622 356.462 285.73 356.901 285.73ZM365.188 287.2C364.413 287.2 363.732 287.008 363.144 286.626C362.565 286.243 362.159 285.73 361.926 285.086L363.144 284.512C363.349 284.941 363.629 285.282 363.984 285.534C364.348 285.786 364.749 285.912 365.188 285.912C365.561 285.912 365.864 285.828 366.098 285.66C366.331 285.492 366.448 285.263 366.448 284.974C366.448 284.787 366.396 284.638 366.294 284.526C366.191 284.404 366.06 284.306 365.902 284.232C365.752 284.157 365.598 284.101 365.44 284.064L364.25 283.728C363.596 283.541 363.106 283.261 362.78 282.888C362.462 282.505 362.304 282.062 362.304 281.558C362.304 281.1 362.42 280.704 362.654 280.368C362.887 280.022 363.209 279.756 363.62 279.57C364.03 279.383 364.492 279.29 365.006 279.29C365.696 279.29 366.312 279.462 366.854 279.808C367.395 280.144 367.778 280.615 368.002 281.222L366.784 281.796C366.634 281.432 366.396 281.142 366.07 280.928C365.752 280.713 365.393 280.606 364.992 280.606C364.646 280.606 364.371 280.69 364.166 280.858C363.96 281.016 363.858 281.226 363.858 281.488C363.858 281.665 363.904 281.814 363.998 281.936C364.091 282.048 364.212 282.141 364.362 282.216C364.511 282.281 364.665 282.337 364.824 282.384L366.056 282.748C366.681 282.925 367.162 283.205 367.498 283.588C367.834 283.961 368.002 284.409 368.002 284.932C368.002 285.38 367.88 285.776 367.638 286.122C367.404 286.458 367.078 286.724 366.658 286.92C366.238 287.106 365.748 287.2 365.188 287.2ZM312.195 308.032V297.602H319.069V299.072H313.847V302.068H318.789V303.538H313.847V306.562H319.069V308.032H312.195ZM320.449 308.032V300.458H321.961V301.942L321.779 301.746C321.966 301.27 322.264 300.91 322.675 300.668C323.086 300.416 323.562 300.29 324.103 300.29C324.663 300.29 325.158 300.411 325.587 300.654C326.016 300.896 326.352 301.232 326.595 301.662C326.838 302.091 326.959 302.586 326.959 303.146V308.032H325.391V303.566C325.391 303.183 325.321 302.861 325.181 302.6C325.041 302.329 324.84 302.124 324.579 301.984C324.327 301.834 324.038 301.76 323.711 301.76C323.384 301.76 323.09 301.834 322.829 301.984C322.577 302.124 322.381 302.329 322.241 302.6C322.101 302.87 322.031 303.192 322.031 303.566V308.032H320.449ZM332.306 311.112C331.755 311.112 331.247 311.023 330.78 310.846C330.313 310.668 329.912 310.421 329.576 310.104C329.24 309.796 328.988 309.432 328.82 309.012L330.276 308.41C330.407 308.764 330.645 309.058 330.99 309.292C331.345 309.525 331.779 309.642 332.292 309.642C332.693 309.642 333.053 309.562 333.37 309.404C333.687 309.254 333.939 309.03 334.126 308.732C334.313 308.442 334.406 308.092 334.406 307.682V305.974L334.686 306.296C334.425 306.781 334.061 307.15 333.594 307.402C333.137 307.654 332.619 307.78 332.04 307.78C331.34 307.78 330.71 307.616 330.15 307.29C329.59 306.963 329.147 306.515 328.82 305.946C328.503 305.376 328.344 304.737 328.344 304.028C328.344 303.309 328.503 302.67 328.82 302.11C329.147 301.55 329.585 301.106 330.136 300.78C330.687 300.453 331.317 300.29 332.026 300.29C332.605 300.29 333.118 300.416 333.566 300.668C334.023 300.91 334.397 301.265 334.686 301.732L334.476 302.124V300.458H335.974V307.682C335.974 308.335 335.815 308.918 335.498 309.432C335.19 309.954 334.761 310.365 334.21 310.664C333.659 310.962 333.025 311.112 332.306 311.112ZM332.222 306.31C332.642 306.31 333.015 306.212 333.342 306.016C333.669 305.81 333.925 305.54 334.112 305.204C334.308 304.858 334.406 304.471 334.406 304.042C334.406 303.612 334.308 303.225 334.112 302.88C333.916 302.534 333.655 302.264 333.328 302.068C333.001 301.862 332.633 301.76 332.222 301.76C331.793 301.76 331.41 301.862 331.074 302.068C330.738 302.264 330.472 302.534 330.276 302.88C330.089 303.216 329.996 303.603 329.996 304.042C329.996 304.462 330.089 304.844 330.276 305.19C330.472 305.535 330.738 305.81 331.074 306.016C331.41 306.212 331.793 306.31 332.222 306.31ZM337.826 308.032V300.458H339.408V308.032H337.826ZM337.826 299.422V297.602H339.408V299.422H337.826ZM341.258 308.032V300.458H342.77V301.942L342.588 301.746C342.774 301.27 343.073 300.91 343.484 300.668C343.894 300.416 344.37 300.29 344.912 300.29C345.472 300.29 345.966 300.411 346.396 300.654C346.825 300.896 347.161 301.232 347.404 301.662C347.646 302.091 347.768 302.586 347.768 303.146V308.032H346.2V303.566C346.2 303.183 346.13 302.861 345.99 302.6C345.85 302.329 345.649 302.124 345.388 301.984C345.136 301.834 344.846 301.76 344.52 301.76C344.193 301.76 343.899 301.834 343.638 301.984C343.386 302.124 343.19 302.329 343.05 302.6C342.91 302.87 342.84 303.192 342.84 303.566V308.032H341.258ZM353.017 308.2C352.261 308.2 351.589 308.027 351.001 307.682C350.422 307.327 349.969 306.851 349.643 306.254C349.316 305.647 349.153 304.97 349.153 304.224C349.153 303.458 349.316 302.782 349.643 302.194C349.979 301.606 350.427 301.144 350.987 300.808C351.547 300.462 352.181 300.29 352.891 300.29C353.46 300.29 353.969 300.388 354.417 300.584C354.865 300.78 355.243 301.05 355.551 301.396C355.859 301.732 356.092 302.119 356.251 302.558C356.419 302.996 356.503 303.463 356.503 303.958C356.503 304.079 356.498 304.205 356.489 304.336C356.479 304.466 356.461 304.588 356.433 304.7H350.399V303.44H355.537L354.781 304.014C354.874 303.556 354.841 303.15 354.683 302.796C354.533 302.432 354.3 302.147 353.983 301.942C353.675 301.727 353.311 301.62 352.891 301.62C352.471 301.62 352.097 301.727 351.771 301.942C351.444 302.147 351.192 302.446 351.015 302.838C350.837 303.22 350.767 303.687 350.805 304.238C350.758 304.751 350.828 305.199 351.015 305.582C351.211 305.964 351.481 306.263 351.827 306.478C352.181 306.692 352.583 306.8 353.031 306.8C353.488 306.8 353.875 306.697 354.193 306.492C354.519 306.286 354.776 306.02 354.963 305.694L356.251 306.324C356.101 306.678 355.868 307 355.551 307.29C355.243 307.57 354.869 307.794 354.431 307.962C354.001 308.12 353.53 308.2 353.017 308.2ZM361.603 308.2C360.847 308.2 360.175 308.027 359.587 307.682C359.008 307.327 358.555 306.851 358.229 306.254C357.902 305.647 357.739 304.97 357.739 304.224C357.739 303.458 357.902 302.782 358.229 302.194C358.565 301.606 359.013 301.144 359.573 300.808C360.133 300.462 360.767 300.29 361.477 300.29C362.046 300.29 362.555 300.388 363.003 300.584C363.451 300.78 363.829 301.05 364.137 301.396C364.445 301.732 364.678 302.119 364.837 302.558C365.005 302.996 365.089 303.463 365.089 303.958C365.089 304.079 365.084 304.205 365.075 304.336C365.065 304.466 365.047 304.588 365.019 304.7H358.985V303.44H364.123L363.367 304.014C363.46 303.556 363.427 303.15 363.269 302.796C363.119 302.432 362.886 302.147 362.569 301.942C362.261 301.727 361.897 301.62 361.477 301.62C361.057 301.62 360.683 301.727 360.357 301.942C360.03 302.147 359.778 302.446 359.601 302.838C359.423 303.22 359.353 303.687 359.391 304.238C359.344 304.751 359.414 305.199 359.601 305.582C359.797 305.964 360.067 306.263 360.413 306.478C360.767 306.692 361.169 306.8 361.617 306.8C362.074 306.8 362.461 306.697 362.779 306.492C363.105 306.286 363.362 306.02 363.549 305.694L364.837 306.324C364.687 306.678 364.454 307 364.137 307.29C363.829 307.57 363.455 307.794 363.017 307.962C362.587 308.12 362.116 308.2 361.603 308.2ZM366.633 308.032V300.458H368.145V301.984L368.005 301.76C368.173 301.265 368.443 300.91 368.817 300.696C369.19 300.472 369.638 300.36 370.161 300.36H370.623V301.802H369.965C369.442 301.802 369.017 301.965 368.691 302.292C368.373 302.609 368.215 303.066 368.215 303.664V308.032H366.633Z" fill="#616161"/>
<circle cx="223.577" cy="191.164" r="67.845" fill="#0865FF"/>
<path d="M196.207 186.168C195.47 186.168 194.784 186.033 194.149 185.762C193.524 185.491 192.978 185.118 192.511 184.642C192.054 184.157 191.695 183.587 191.433 182.934C191.172 182.281 191.041 181.562 191.041 180.778C191.041 180.003 191.167 179.289 191.419 178.636C191.681 177.973 192.045 177.404 192.511 176.928C192.978 176.443 193.524 176.069 194.149 175.808C194.775 175.537 195.461 175.402 196.207 175.402C196.945 175.402 197.603 175.528 198.181 175.78C198.769 176.032 199.264 176.363 199.665 176.774C200.067 177.175 200.356 177.614 200.533 178.09L199.049 178.79C198.825 178.23 198.466 177.777 197.971 177.432C197.486 177.077 196.898 176.9 196.207 176.9C195.517 176.9 194.905 177.063 194.373 177.39C193.841 177.717 193.426 178.169 193.127 178.748C192.838 179.327 192.693 180.003 192.693 180.778C192.693 181.553 192.838 182.234 193.127 182.822C193.426 183.401 193.841 183.853 194.373 184.18C194.905 184.497 195.517 184.656 196.207 184.656C196.898 184.656 197.486 184.483 197.971 184.138C198.466 183.793 198.825 183.34 199.049 182.78L200.533 183.48C200.356 183.947 200.067 184.385 199.665 184.796C199.264 185.207 198.769 185.538 198.181 185.79C197.603 186.042 196.945 186.168 196.207 186.168ZM204.78 186.168C204.211 186.168 203.712 186.042 203.282 185.79C202.853 185.529 202.517 185.169 202.274 184.712C202.041 184.245 201.924 183.709 201.924 183.102V178.426H203.506V182.962C203.506 183.307 203.576 183.611 203.716 183.872C203.856 184.133 204.052 184.339 204.304 184.488C204.556 184.628 204.846 184.698 205.172 184.698C205.508 184.698 205.802 184.623 206.054 184.474C206.306 184.325 206.502 184.115 206.642 183.844C206.792 183.573 206.866 183.256 206.866 182.892V178.426H208.434V186H206.936V184.516L207.104 184.712C206.927 185.179 206.633 185.538 206.222 185.79C205.812 186.042 205.331 186.168 204.78 186.168ZM213.081 186.168C212.307 186.168 211.625 185.977 211.037 185.594C210.459 185.211 210.053 184.698 209.819 184.054L211.037 183.48C211.243 183.909 211.523 184.25 211.877 184.502C212.241 184.754 212.643 184.88 213.081 184.88C213.455 184.88 213.758 184.796 213.991 184.628C214.225 184.46 214.341 184.231 214.341 183.942C214.341 183.755 214.29 183.606 214.187 183.494C214.085 183.373 213.954 183.275 213.795 183.2C213.646 183.125 213.492 183.069 213.333 183.032L212.143 182.696C211.49 182.509 211 182.229 210.673 181.856C210.356 181.473 210.197 181.03 210.197 180.526C210.197 180.069 210.314 179.672 210.547 179.336C210.781 178.991 211.103 178.725 211.513 178.538C211.924 178.351 212.386 178.258 212.899 178.258C213.59 178.258 214.206 178.431 214.747 178.776C215.289 179.112 215.671 179.583 215.895 180.19L214.677 180.764C214.528 180.4 214.29 180.111 213.963 179.896C213.646 179.681 213.287 179.574 212.885 179.574C212.54 179.574 212.265 179.658 212.059 179.826C211.854 179.985 211.751 180.195 211.751 180.456C211.751 180.633 211.798 180.783 211.891 180.904C211.985 181.016 212.106 181.109 212.255 181.184C212.405 181.249 212.559 181.305 212.717 181.352L213.949 181.716C214.575 181.893 215.055 182.173 215.391 182.556C215.727 182.929 215.895 183.377 215.895 183.9C215.895 184.348 215.774 184.745 215.531 185.09C215.298 185.426 214.971 185.692 214.551 185.888C214.131 186.075 213.641 186.168 213.081 186.168ZM220.721 186.084C219.928 186.084 219.312 185.86 218.873 185.412C218.435 184.964 218.215 184.334 218.215 183.522V179.854H216.885V178.426H217.095C217.45 178.426 217.725 178.323 217.921 178.118C218.117 177.913 218.215 177.633 218.215 177.278V176.69H219.797V178.426H221.519V179.854H219.797V183.452C219.797 183.713 219.839 183.937 219.923 184.124C220.007 184.301 220.143 184.441 220.329 184.544C220.516 184.637 220.759 184.684 221.057 184.684C221.132 184.684 221.216 184.679 221.309 184.67C221.403 184.661 221.491 184.651 221.575 184.642V186C221.445 186.019 221.3 186.037 221.141 186.056C220.983 186.075 220.843 186.084 220.721 186.084ZM226.637 186.168C225.909 186.168 225.241 185.995 224.635 185.65C224.037 185.305 223.561 184.833 223.207 184.236C222.852 183.639 222.675 182.962 222.675 182.206C222.675 181.441 222.852 180.764 223.207 180.176C223.561 179.579 224.037 179.112 224.635 178.776C225.232 178.431 225.899 178.258 226.637 178.258C227.383 178.258 228.051 178.431 228.639 178.776C229.236 179.112 229.707 179.579 230.053 180.176C230.407 180.764 230.585 181.441 230.585 182.206C230.585 182.971 230.407 183.653 230.053 184.25C229.698 184.847 229.222 185.319 228.625 185.664C228.027 186 227.365 186.168 226.637 186.168ZM226.637 184.698C227.085 184.698 227.481 184.591 227.827 184.376C228.172 184.161 228.443 183.867 228.639 183.494C228.844 183.111 228.947 182.682 228.947 182.206C228.947 181.73 228.844 181.305 228.639 180.932C228.443 180.559 228.172 180.265 227.827 180.05C227.481 179.835 227.085 179.728 226.637 179.728C226.198 179.728 225.801 179.835 225.447 180.05C225.101 180.265 224.826 180.559 224.621 180.932C224.425 181.305 224.327 181.73 224.327 182.206C224.327 182.682 224.425 183.111 224.621 183.494C224.826 183.867 225.101 184.161 225.447 184.376C225.801 184.591 226.198 184.698 226.637 184.698ZM232.129 186V178.426H233.641V180.064L233.445 179.812C233.604 179.299 233.893 178.911 234.313 178.65C234.733 178.389 235.214 178.258 235.755 178.258C236.362 178.258 236.898 178.421 237.365 178.748C237.841 179.065 238.158 179.49 238.317 180.022L237.869 180.064C238.093 179.457 238.434 179.005 238.891 178.706C239.358 178.407 239.89 178.258 240.487 178.258C241.01 178.258 241.481 178.379 241.901 178.622C242.33 178.865 242.671 179.201 242.923 179.63C243.175 180.059 243.301 180.549 243.301 181.1V186H241.719V181.534C241.719 181.151 241.649 180.829 241.509 180.568C241.378 180.297 241.192 180.092 240.949 179.952C240.716 179.803 240.44 179.728 240.123 179.728C239.806 179.728 239.526 179.803 239.283 179.952C239.04 180.092 238.849 180.297 238.709 180.568C238.569 180.839 238.499 181.161 238.499 181.534V186H236.931V181.534C236.931 181.151 236.861 180.829 236.721 180.568C236.59 180.297 236.404 180.092 236.161 179.952C235.928 179.803 235.648 179.728 235.321 179.728C235.004 179.728 234.724 179.803 234.481 179.952C234.238 180.092 234.047 180.297 233.907 180.568C233.776 180.839 233.711 181.161 233.711 181.534V186H232.129ZM248.55 186.168C247.794 186.168 247.122 185.995 246.534 185.65C245.956 185.295 245.503 184.819 245.176 184.222C244.85 183.615 244.686 182.939 244.686 182.192C244.686 181.427 244.85 180.75 245.176 180.162C245.512 179.574 245.96 179.112 246.52 178.776C247.08 178.431 247.715 178.258 248.424 178.258C248.994 178.258 249.502 178.356 249.95 178.552C250.398 178.748 250.776 179.019 251.084 179.364C251.392 179.7 251.626 180.087 251.784 180.526C251.952 180.965 252.036 181.431 252.036 181.926C252.036 182.047 252.032 182.173 252.022 182.304C252.013 182.435 251.994 182.556 251.966 182.668H245.932V181.408H251.07L250.314 181.982C250.408 181.525 250.375 181.119 250.216 180.764C250.067 180.4 249.834 180.115 249.516 179.91C249.208 179.695 248.844 179.588 248.424 179.588C248.004 179.588 247.631 179.695 247.304 179.91C246.978 180.115 246.726 180.414 246.548 180.806C246.371 181.189 246.301 181.655 246.338 182.206C246.292 182.719 246.362 183.167 246.548 183.55C246.744 183.933 247.015 184.231 247.36 184.446C247.715 184.661 248.116 184.768 248.564 184.768C249.022 184.768 249.409 184.665 249.726 184.46C250.053 184.255 250.31 183.989 250.496 183.662L251.784 184.292C251.635 184.647 251.402 184.969 251.084 185.258C250.776 185.538 250.403 185.762 249.964 185.93C249.535 186.089 249.064 186.168 248.55 186.168ZM253.58 186V178.426H255.092V179.952L254.952 179.728C255.12 179.233 255.391 178.879 255.764 178.664C256.138 178.44 256.586 178.328 257.108 178.328H257.57V179.77H256.912C256.39 179.77 255.965 179.933 255.638 180.26C255.321 180.577 255.162 181.035 255.162 181.632V186H253.58ZM186.13 207.168C185.477 207.168 184.87 207.047 184.31 206.804C183.75 206.552 183.274 206.211 182.882 205.782C182.49 205.353 182.201 204.858 182.014 204.298L183.414 203.71C183.666 204.354 184.035 204.849 184.52 205.194C185.006 205.539 185.566 205.712 186.2 205.712C186.574 205.712 186.9 205.656 187.18 205.544C187.46 205.423 187.675 205.255 187.824 205.04C187.983 204.825 188.062 204.578 188.062 204.298C188.062 203.915 187.955 203.612 187.74 203.388C187.526 203.164 187.208 202.987 186.788 202.856L184.828 202.24C184.044 201.997 183.447 201.629 183.036 201.134C182.626 200.63 182.42 200.042 182.42 199.37C182.42 198.782 182.565 198.269 182.854 197.83C183.144 197.382 183.54 197.032 184.044 196.78C184.558 196.528 185.141 196.402 185.794 196.402C186.42 196.402 186.989 196.514 187.502 196.738C188.016 196.953 188.454 197.251 188.818 197.634C189.192 198.017 189.462 198.46 189.63 198.964L188.258 199.566C188.053 199.015 187.731 198.591 187.292 198.292C186.863 197.993 186.364 197.844 185.794 197.844C185.449 197.844 185.146 197.905 184.884 198.026C184.623 198.138 184.418 198.306 184.268 198.53C184.128 198.745 184.058 198.997 184.058 199.286C184.058 199.622 184.166 199.921 184.38 200.182C184.595 200.443 184.922 200.639 185.36 200.77L187.18 201.344C188.011 201.596 188.636 201.96 189.056 202.436C189.476 202.903 189.686 203.486 189.686 204.186C189.686 204.765 189.532 205.278 189.224 205.726C188.926 206.174 188.51 206.529 187.978 206.79C187.446 207.042 186.83 207.168 186.13 207.168ZM194.089 207.168C193.52 207.168 193.02 207.042 192.591 206.79C192.162 206.529 191.826 206.169 191.583 205.712C191.35 205.245 191.233 204.709 191.233 204.102V199.426H192.815V203.962C192.815 204.307 192.885 204.611 193.025 204.872C193.165 205.133 193.361 205.339 193.613 205.488C193.865 205.628 194.154 205.698 194.481 205.698C194.817 205.698 195.111 205.623 195.363 205.474C195.615 205.325 195.811 205.115 195.951 204.844C196.1 204.573 196.175 204.256 196.175 203.892V199.426H197.743V207H196.245V205.516L196.413 205.712C196.236 206.179 195.942 206.538 195.531 206.79C195.12 207.042 194.64 207.168 194.089 207.168ZM199.59 209.8V199.426H201.102V200.994L200.92 200.63C201.2 200.201 201.573 199.865 202.04 199.622C202.507 199.379 203.039 199.258 203.636 199.258C204.355 199.258 204.999 199.431 205.568 199.776C206.147 200.121 206.599 200.593 206.926 201.19C207.262 201.787 207.43 202.459 207.43 203.206C207.43 203.953 207.262 204.625 206.926 205.222C206.599 205.819 206.151 206.295 205.582 206.65C205.013 206.995 204.364 207.168 203.636 207.168C203.048 207.168 202.511 207.047 202.026 206.804C201.55 206.561 201.181 206.211 200.92 205.754L201.172 205.46V209.8H199.59ZM203.482 205.698C203.93 205.698 204.327 205.591 204.672 205.376C205.017 205.161 205.288 204.867 205.484 204.494C205.689 204.111 205.792 203.682 205.792 203.206C205.792 202.73 205.689 202.305 205.484 201.932C205.288 201.559 205.017 201.265 204.672 201.05C204.327 200.835 203.93 200.728 203.482 200.728C203.043 200.728 202.647 200.835 202.292 201.05C201.947 201.265 201.671 201.559 201.466 201.932C201.27 202.305 201.172 202.73 201.172 203.206C201.172 203.682 201.27 204.111 201.466 204.494C201.671 204.867 201.947 205.161 202.292 205.376C202.647 205.591 203.043 205.698 203.482 205.698ZM208.969 209.8V199.426H210.481V200.994L210.299 200.63C210.579 200.201 210.952 199.865 211.419 199.622C211.886 199.379 212.418 199.258 213.015 199.258C213.734 199.258 214.378 199.431 214.947 199.776C215.526 200.121 215.978 200.593 216.305 201.19C216.641 201.787 216.809 202.459 216.809 203.206C216.809 203.953 216.641 204.625 216.305 205.222C215.978 205.819 215.53 206.295 214.961 206.65C214.392 206.995 213.743 207.168 213.015 207.168C212.427 207.168 211.89 207.047 211.405 206.804C210.929 206.561 210.56 206.211 210.299 205.754L210.551 205.46V209.8H208.969ZM212.861 205.698C213.309 205.698 213.706 205.591 214.051 205.376C214.396 205.161 214.667 204.867 214.863 204.494C215.068 204.111 215.171 203.682 215.171 203.206C215.171 202.73 215.068 202.305 214.863 201.932C214.667 201.559 214.396 201.265 214.051 201.05C213.706 200.835 213.309 200.728 212.861 200.728C212.422 200.728 212.026 200.835 211.671 201.05C211.326 201.265 211.05 201.559 210.845 201.932C210.649 202.305 210.551 202.73 210.551 203.206C210.551 203.682 210.649 204.111 210.845 204.494C211.05 204.867 211.326 205.161 211.671 205.376C212.026 205.591 212.422 205.698 212.861 205.698ZM222.002 207.168C221.274 207.168 220.606 206.995 220 206.65C219.402 206.305 218.926 205.833 218.572 205.236C218.217 204.639 218.04 203.962 218.04 203.206C218.04 202.441 218.217 201.764 218.572 201.176C218.926 200.579 219.402 200.112 220 199.776C220.597 199.431 221.264 199.258 222.002 199.258C222.748 199.258 223.416 199.431 224.004 199.776C224.601 200.112 225.072 200.579 225.418 201.176C225.772 201.764 225.95 202.441 225.95 203.206C225.95 203.971 225.772 204.653 225.418 205.25C225.063 205.847 224.587 206.319 223.99 206.664C223.392 207 222.73 207.168 222.002 207.168ZM222.002 205.698C222.45 205.698 222.846 205.591 223.192 205.376C223.537 205.161 223.808 204.867 224.004 204.494C224.209 204.111 224.312 203.682 224.312 203.206C224.312 202.73 224.209 202.305 224.004 201.932C223.808 201.559 223.537 201.265 223.192 201.05C222.846 200.835 222.45 200.728 222.002 200.728C221.563 200.728 221.166 200.835 220.812 201.05C220.466 201.265 220.191 201.559 219.986 201.932C219.79 202.305 219.692 202.73 219.692 203.206C219.692 203.682 219.79 204.111 219.986 204.494C220.191 204.867 220.466 205.161 220.812 205.376C221.166 205.591 221.563 205.698 222.002 205.698ZM227.494 207V199.426H229.006V200.952L228.866 200.728C229.034 200.233 229.305 199.879 229.678 199.664C230.052 199.44 230.5 199.328 231.022 199.328H231.484V200.77H230.826C230.304 200.77 229.879 200.933 229.552 201.26C229.235 201.577 229.076 202.035 229.076 202.632V207H227.494ZM235.979 207.084C235.186 207.084 234.57 206.86 234.131 206.412C233.693 205.964 233.473 205.334 233.473 204.522V200.854H232.143V199.426H232.353C232.708 199.426 232.983 199.323 233.179 199.118C233.375 198.913 233.473 198.633 233.473 198.278V197.69H235.055V199.426H236.777V200.854H235.055V204.452C235.055 204.713 235.097 204.937 235.181 205.124C235.265 205.301 235.401 205.441 235.587 205.544C235.774 205.637 236.017 205.684 236.315 205.684C236.39 205.684 236.474 205.679 236.567 205.67C236.661 205.661 236.749 205.651 236.833 205.642V207C236.703 207.019 236.558 207.037 236.399 207.056C236.241 207.075 236.101 207.084 235.979 207.084ZM240.978 207V196.57H244.772C245.472 196.57 246.088 196.701 246.62 196.962C247.152 197.214 247.568 197.587 247.866 198.082C248.174 198.567 248.328 199.151 248.328 199.832C248.328 200.551 248.146 201.167 247.782 201.68C247.428 202.193 246.947 202.567 246.34 202.8L248.748 207H246.872L244.31 202.45L245.388 203.08H242.63V207H240.978ZM242.63 201.61H244.8C245.183 201.61 245.514 201.535 245.794 201.386C246.074 201.237 246.289 201.031 246.438 200.77C246.597 200.499 246.676 200.182 246.676 199.818C246.676 199.454 246.597 199.141 246.438 198.88C246.289 198.609 246.074 198.404 245.794 198.264C245.514 198.115 245.183 198.04 244.8 198.04H242.63V201.61ZM253.117 207.168C252.361 207.168 251.689 206.995 251.101 206.65C250.522 206.295 250.069 205.819 249.743 205.222C249.416 204.615 249.253 203.939 249.253 203.192C249.253 202.427 249.416 201.75 249.743 201.162C250.079 200.574 250.527 200.112 251.087 199.776C251.647 199.431 252.281 199.258 252.991 199.258C253.56 199.258 254.069 199.356 254.517 199.552C254.965 199.748 255.343 200.019 255.651 200.364C255.959 200.7 256.192 201.087 256.351 201.526C256.519 201.965 256.603 202.431 256.603 202.926C256.603 203.047 256.598 203.173 256.589 203.304C256.579 203.435 256.561 203.556 256.533 203.668H250.499V202.408H255.637L254.881 202.982C254.974 202.525 254.941 202.119 254.783 201.764C254.633 201.4 254.4 201.115 254.083 200.91C253.775 200.695 253.411 200.588 252.991 200.588C252.571 200.588 252.197 200.695 251.871 200.91C251.544 201.115 251.292 201.414 251.115 201.806C250.937 202.189 250.867 202.655 250.905 203.206C250.858 203.719 250.928 204.167 251.115 204.55C251.311 204.933 251.581 205.231 251.927 205.446C252.281 205.661 252.683 205.768 253.131 205.768C253.588 205.768 253.975 205.665 254.293 205.46C254.619 205.255 254.876 204.989 255.063 204.662L256.351 205.292C256.201 205.647 255.968 205.969 255.651 206.258C255.343 206.538 254.969 206.762 254.531 206.93C254.101 207.089 253.63 207.168 253.117 207.168ZM258.147 209.8V199.426H259.659V200.994L259.477 200.63C259.757 200.201 260.13 199.865 260.597 199.622C261.063 199.379 261.595 199.258 262.193 199.258C262.911 199.258 263.555 199.431 264.125 199.776C264.703 200.121 265.156 200.593 265.483 201.19C265.819 201.787 265.987 202.459 265.987 203.206C265.987 203.953 265.819 204.625 265.483 205.222C265.156 205.819 264.708 206.295 264.139 206.65C263.569 206.995 262.921 207.168 262.193 207.168C261.605 207.168 261.068 207.047 260.583 206.804C260.107 206.561 259.738 206.211 259.477 205.754L259.729 205.46V209.8H258.147ZM262.039 205.698C262.487 205.698 262.883 205.591 263.229 205.376C263.574 205.161 263.845 204.867 264.041 204.494C264.246 204.111 264.349 203.682 264.349 203.206C264.349 202.73 264.246 202.305 264.041 201.932C263.845 201.559 263.574 201.265 263.229 201.05C262.883 200.835 262.487 200.728 262.039 200.728C261.6 200.728 261.203 200.835 260.849 201.05C260.503 201.265 260.228 201.559 260.023 201.932C259.827 202.305 259.729 202.73 259.729 203.206C259.729 203.682 259.827 204.111 260.023 204.494C260.228 204.867 260.503 205.161 260.849 205.376C261.203 205.591 261.6 205.698 262.039 205.698Z" fill="white"/>
<circle cx="91.4537" cy="170.454" r="53.4537" fill="#0101DB"/>
<path d="M65.7034 165.904V155.474H72.4934V156.944H67.3554V160.08H71.9334V161.55H67.3554V165.904H65.7034ZM73.7252 165.904V158.33H75.3072V165.904H73.7252ZM73.7252 157.294V155.474H75.3072V157.294H73.7252ZM77.1568 165.904V158.33H78.6688V159.814L78.4868 159.618C78.6735 159.142 78.9722 158.783 79.3828 158.54C79.7935 158.288 80.2695 158.162 80.8108 158.162C81.3708 158.162 81.8655 158.284 82.2948 158.526C82.7242 158.769 83.0602 159.105 83.3028 159.534C83.5455 159.964 83.6668 160.458 83.6668 161.018V165.904H82.0988V161.438C82.0988 161.056 82.0288 160.734 81.8888 160.472C81.7488 160.202 81.5482 159.996 81.2868 159.856C81.0348 159.707 80.7455 159.632 80.4188 159.632C80.0922 159.632 79.7982 159.707 79.5368 159.856C79.2848 159.996 79.0888 160.202 78.9488 160.472C78.8088 160.743 78.7388 161.065 78.7388 161.438V165.904H77.1568ZM87.628 166.072C87.1146 166.072 86.662 165.984 86.27 165.806C85.8873 165.62 85.5886 165.368 85.374 165.05C85.1593 164.724 85.052 164.341 85.052 163.902C85.052 163.492 85.1406 163.123 85.318 162.796C85.5046 162.47 85.7893 162.194 86.172 161.97C86.5546 161.746 87.0353 161.588 87.614 161.494L90.246 161.06V162.306L87.922 162.712C87.502 162.787 87.194 162.922 86.998 163.118C86.802 163.305 86.704 163.548 86.704 163.846C86.704 164.136 86.8113 164.374 87.026 164.56C87.25 164.738 87.5346 164.826 87.88 164.826C88.3093 164.826 88.6826 164.733 89 164.546C89.3266 164.36 89.5786 164.112 89.756 163.804C89.9333 163.487 90.022 163.137 90.022 162.754V160.808C90.022 160.435 89.882 160.132 89.602 159.898C89.3313 159.656 88.9673 159.534 88.51 159.534C88.09 159.534 87.7213 159.646 87.404 159.87C87.096 160.085 86.8673 160.365 86.718 160.71L85.402 160.052C85.542 159.679 85.7706 159.352 86.088 159.072C86.4053 158.783 86.774 158.559 87.194 158.4C87.6233 158.242 88.076 158.162 88.552 158.162C89.1493 158.162 89.6766 158.274 90.134 158.498C90.6006 158.722 90.96 159.035 91.212 159.436C91.4733 159.828 91.604 160.286 91.604 160.808V165.904H90.092V164.532L90.414 164.574C90.2366 164.882 90.008 165.148 89.728 165.372C89.4573 165.596 89.1446 165.769 88.79 165.89C88.4446 166.012 88.0573 166.072 87.628 166.072ZM93.4537 165.904V158.33H94.9657V159.814L94.7837 159.618C94.9704 159.142 95.2691 158.783 95.6797 158.54C96.0904 158.288 96.5664 158.162 97.1077 158.162C97.6677 158.162 98.1624 158.284 98.5917 158.526C99.0211 158.769 99.3571 159.105 99.5997 159.534C99.8424 159.964 99.9637 160.458 99.9637 161.018V165.904H98.3957V161.438C98.3957 161.056 98.3257 160.734 98.1857 160.472C98.0457 160.202 97.8451 159.996 97.5837 159.856C97.3317 159.707 97.0424 159.632 96.7157 159.632C96.3891 159.632 96.0951 159.707 95.8337 159.856C95.5817 159.996 95.3857 160.202 95.2457 160.472C95.1057 160.743 95.0357 161.065 95.0357 161.438V165.904H93.4537ZM105.255 166.072C104.499 166.072 103.827 165.9 103.239 165.554C102.66 165.2 102.198 164.724 101.853 164.126C101.517 163.529 101.349 162.852 101.349 162.096C101.349 161.35 101.517 160.678 101.853 160.08C102.189 159.483 102.651 159.016 103.239 158.68C103.827 158.335 104.499 158.162 105.255 158.162C105.768 158.162 106.249 158.256 106.697 158.442C107.145 158.62 107.532 158.867 107.859 159.184C108.195 159.502 108.442 159.87 108.601 160.29L107.215 160.934C107.056 160.542 106.8 160.23 106.445 159.996C106.1 159.754 105.703 159.632 105.255 159.632C104.826 159.632 104.438 159.74 104.093 159.954C103.757 160.16 103.491 160.454 103.295 160.836C103.099 161.21 103.001 161.634 103.001 162.11C103.001 162.586 103.099 163.016 103.295 163.398C103.491 163.772 103.757 164.066 104.093 164.28C104.438 164.495 104.826 164.602 105.255 164.602C105.712 164.602 106.109 164.486 106.445 164.252C106.79 164.01 107.047 163.688 107.215 163.286L108.601 163.944C108.452 164.346 108.209 164.71 107.873 165.036C107.546 165.354 107.159 165.606 106.711 165.792C106.263 165.979 105.778 166.072 105.255 166.072ZM113.703 166.072C112.947 166.072 112.275 165.9 111.687 165.554C111.108 165.2 110.656 164.724 110.329 164.126C110.002 163.52 109.839 162.843 109.839 162.096C109.839 161.331 110.002 160.654 110.329 160.066C110.665 159.478 111.113 159.016 111.673 158.68C112.233 158.335 112.868 158.162 113.577 158.162C114.146 158.162 114.655 158.26 115.103 158.456C115.551 158.652 115.929 158.923 116.237 159.268C116.545 159.604 116.778 159.992 116.937 160.43C117.105 160.869 117.189 161.336 117.189 161.83C117.189 161.952 117.184 162.078 117.175 162.208C117.166 162.339 117.147 162.46 117.119 162.572H111.085V161.312H116.223L115.467 161.886C115.56 161.429 115.528 161.023 115.369 160.668C115.22 160.304 114.986 160.02 114.669 159.814C114.361 159.6 113.997 159.492 113.577 159.492C113.157 159.492 112.784 159.6 112.457 159.814C112.13 160.02 111.878 160.318 111.701 160.71C111.524 161.093 111.454 161.56 111.491 162.11C111.444 162.624 111.514 163.072 111.701 163.454C111.897 163.837 112.168 164.136 112.513 164.35C112.868 164.565 113.269 164.672 113.717 164.672C114.174 164.672 114.562 164.57 114.879 164.364C115.206 164.159 115.462 163.893 115.649 163.566L116.937 164.196C116.788 164.551 116.554 164.873 116.237 165.162C115.929 165.442 115.556 165.666 115.117 165.834C114.688 165.993 114.216 166.072 113.703 166.072ZM66.256 186.904L69.924 176.474H71.968L75.636 186.904H73.872L73.074 184.566H68.832L68.02 186.904H66.256ZM69.308 183.096H72.57L70.722 177.636H71.184L69.308 183.096ZM76.7193 186.904V179.33H78.2313V180.814L78.0493 180.618C78.236 180.142 78.5347 179.783 78.9453 179.54C79.356 179.288 79.832 179.162 80.3733 179.162C80.9333 179.162 81.428 179.284 81.8573 179.526C82.2867 179.769 82.6227 180.105 82.8653 180.534C83.108 180.964 83.2293 181.458 83.2293 182.018V186.904H81.6613V182.438C81.6613 182.056 81.5913 181.734 81.4513 181.472C81.3113 181.202 81.1107 180.996 80.8493 180.856C80.5973 180.707 80.308 180.632 79.9813 180.632C79.6547 180.632 79.3607 180.707 79.0993 180.856C78.8473 180.996 78.6513 181.202 78.5113 181.472C78.3713 181.743 78.3013 182.065 78.3013 182.438V186.904H76.7193ZM87.1905 187.072C86.6771 187.072 86.2245 186.984 85.8325 186.806C85.4498 186.62 85.1511 186.368 84.9365 186.05C84.7218 185.724 84.6145 185.341 84.6145 184.902C84.6145 184.492 84.7031 184.123 84.8805 183.796C85.0671 183.47 85.3518 183.194 85.7345 182.97C86.1171 182.746 86.5978 182.588 87.1765 182.494L89.8085 182.06V183.306L87.4845 183.712C87.0645 183.787 86.7565 183.922 86.5605 184.118C86.3645 184.305 86.2665 184.548 86.2665 184.846C86.2665 185.136 86.3738 185.374 86.5885 185.56C86.8125 185.738 87.0971 185.826 87.4425 185.826C87.8718 185.826 88.2451 185.733 88.5625 185.546C88.8891 185.36 89.1411 185.112 89.3185 184.804C89.4958 184.487 89.5845 184.137 89.5845 183.754V181.808C89.5845 181.435 89.4445 181.132 89.1645 180.898C88.8938 180.656 88.5298 180.534 88.0725 180.534C87.6525 180.534 87.2838 180.646 86.9665 180.87C86.6585 181.085 86.4298 181.365 86.2805 181.71L84.9645 181.052C85.1045 180.679 85.3331 180.352 85.6505 180.072C85.9678 179.783 86.3365 179.559 86.7565 179.4C87.1858 179.242 87.6385 179.162 88.1145 179.162C88.7118 179.162 89.2391 179.274 89.6965 179.498C90.1631 179.722 90.5225 180.035 90.7745 180.436C91.0358 180.828 91.1665 181.286 91.1665 181.808V186.904H89.6545V185.532L89.9765 185.574C89.7991 185.882 89.5705 186.148 89.2905 186.372C89.0198 186.596 88.7071 186.769 88.3525 186.89C88.0071 187.012 87.6198 187.072 87.1905 187.072ZM93.0162 186.904V176.306H94.5982V186.904H93.0162ZM97.1199 189.984C96.9332 189.984 96.7465 189.966 96.5599 189.928C96.3825 189.9 96.2192 189.854 96.0699 189.788V188.43C96.1819 188.458 96.3172 188.482 96.4759 188.5C96.6345 188.528 96.7885 188.542 96.9379 188.542C97.3765 188.542 97.6985 188.444 97.9039 188.248C98.1185 188.062 98.3099 187.772 98.4779 187.38L98.9819 186.232L98.9539 187.562L95.6779 179.33H97.3719L99.7939 185.644H99.2199L101.628 179.33H103.336L99.9899 187.73C99.8125 188.178 99.5885 188.57 99.3179 188.906C99.0565 189.252 98.7439 189.518 98.3799 189.704C98.0252 189.891 97.6052 189.984 97.1199 189.984ZM107.219 187.072C106.444 187.072 105.763 186.881 105.175 186.498C104.596 186.116 104.19 185.602 103.957 184.958L105.175 184.384C105.38 184.814 105.66 185.154 106.015 185.406C106.379 185.658 106.78 185.784 107.219 185.784C107.592 185.784 107.895 185.7 108.129 185.532C108.362 185.364 108.479 185.136 108.479 184.846C108.479 184.66 108.427 184.51 108.325 184.398C108.222 184.277 108.091 184.179 107.933 184.104C107.783 184.03 107.629 183.974 107.471 183.936L106.281 183.6C105.627 183.414 105.137 183.134 104.811 182.76C104.493 182.378 104.335 181.934 104.335 181.43C104.335 180.973 104.451 180.576 104.685 180.24C104.918 179.895 105.24 179.629 105.651 179.442C106.061 179.256 106.523 179.162 107.037 179.162C107.727 179.162 108.343 179.335 108.885 179.68C109.426 180.016 109.809 180.488 110.033 181.094L108.815 181.668C108.665 181.304 108.427 181.015 108.101 180.8C107.783 180.586 107.424 180.478 107.023 180.478C106.677 180.478 106.402 180.562 106.197 180.73C105.991 180.889 105.889 181.099 105.889 181.36C105.889 181.538 105.935 181.687 106.029 181.808C106.122 181.92 106.243 182.014 106.393 182.088C106.542 182.154 106.696 182.21 106.855 182.256L108.087 182.62C108.712 182.798 109.193 183.078 109.529 183.46C109.865 183.834 110.033 184.282 110.033 184.804C110.033 185.252 109.911 185.649 109.669 185.994C109.435 186.33 109.109 186.596 108.689 186.792C108.269 186.979 107.779 187.072 107.219 187.072ZM114.859 186.988C114.065 186.988 113.449 186.764 113.011 186.316C112.572 185.868 112.353 185.238 112.353 184.426V180.758H111.023V179.33H111.233C111.587 179.33 111.863 179.228 112.059 179.022C112.255 178.817 112.353 178.537 112.353 178.182V177.594H113.935V179.33H115.657V180.758H113.935V184.356C113.935 184.618 113.977 184.842 114.061 185.028C114.145 185.206 114.28 185.346 114.467 185.448C114.653 185.542 114.896 185.588 115.195 185.588C115.269 185.588 115.353 185.584 115.447 185.574C115.54 185.565 115.629 185.556 115.713 185.546V186.904C115.582 186.923 115.437 186.942 115.279 186.96C115.12 186.979 114.98 186.988 114.859 186.988Z" fill="white"/>
<circle cx="273.5" cy="404.5" r="46.5" fill="white"/>
<path d="M268.583 400.072C267.827 400.072 267.122 399.937 266.469 399.666C265.825 399.396 265.256 399.018 264.761 398.532C264.276 398.047 263.893 397.478 263.613 396.824C263.342 396.171 263.207 395.457 263.207 394.682C263.207 393.908 263.342 393.194 263.613 392.54C263.893 391.878 264.276 391.308 264.761 390.832C265.246 390.347 265.816 389.974 266.469 389.712C267.122 389.442 267.827 389.306 268.583 389.306C269.348 389.306 270.053 389.442 270.697 389.712C271.35 389.974 271.92 390.347 272.405 390.832C272.9 391.318 273.282 391.887 273.553 392.54C273.824 393.194 273.959 393.908 273.959 394.682C273.959 395.457 273.819 396.171 273.539 396.824C273.268 397.478 272.89 398.047 272.405 398.532C271.92 399.018 271.35 399.396 270.697 399.666C270.044 399.937 269.339 400.072 268.583 400.072ZM268.583 398.56C269.124 398.56 269.619 398.462 270.067 398.266C270.524 398.07 270.921 397.8 271.257 397.454C271.593 397.1 271.854 396.689 272.041 396.222C272.228 395.746 272.321 395.233 272.321 394.682C272.321 394.132 272.228 393.623 272.041 393.156C271.854 392.69 271.593 392.279 271.257 391.924C270.921 391.57 270.524 391.294 270.067 391.098C269.619 390.902 269.124 390.804 268.583 390.804C268.042 390.804 267.542 390.902 267.085 391.098C266.637 391.294 266.245 391.57 265.909 391.924C265.573 392.279 265.312 392.69 265.125 393.156C264.948 393.623 264.859 394.132 264.859 394.682C264.859 395.233 264.948 395.746 265.125 396.222C265.312 396.689 265.573 397.1 265.909 397.454C266.245 397.8 266.642 398.07 267.099 398.266C267.556 398.462 268.051 398.56 268.583 398.56ZM271.201 401.164L267.785 395.732H269.549L272.979 401.164H271.201ZM274.458 399.904L278.126 389.474H280.17L283.838 399.904H282.074L281.276 397.566H277.034L276.222 399.904H274.458ZM277.51 396.096H280.772L278.924 390.636H279.386L277.51 396.096ZM255.437 420.904V411.944H252.665V410.474H259.805V411.944H257.075V420.904H255.437ZM263.458 421.072C262.702 421.072 262.03 420.9 261.442 420.554C260.863 420.2 260.411 419.724 260.084 419.126C259.757 418.52 259.594 417.843 259.594 417.096C259.594 416.331 259.757 415.654 260.084 415.066C260.42 414.478 260.868 414.016 261.428 413.68C261.988 413.335 262.623 413.162 263.332 413.162C263.901 413.162 264.41 413.26 264.858 413.456C265.306 413.652 265.684 413.923 265.992 414.268C266.3 414.604 266.533 414.992 266.692 415.43C266.86 415.869 266.944 416.336 266.944 416.83C266.944 416.952 266.939 417.078 266.93 417.208C266.921 417.339 266.902 417.46 266.874 417.572H260.84V416.312H265.978L265.222 416.886C265.315 416.429 265.283 416.023 265.124 415.668C264.975 415.304 264.741 415.02 264.424 414.814C264.116 414.6 263.752 414.492 263.332 414.492C262.912 414.492 262.539 414.6 262.212 414.814C261.885 415.02 261.633 415.318 261.456 415.71C261.279 416.093 261.209 416.56 261.246 417.11C261.199 417.624 261.269 418.072 261.456 418.454C261.652 418.837 261.923 419.136 262.268 419.35C262.623 419.565 263.024 419.672 263.472 419.672C263.929 419.672 264.317 419.57 264.634 419.364C264.961 419.159 265.217 418.893 265.404 418.566L266.692 419.196C266.543 419.551 266.309 419.873 265.992 420.162C265.684 420.442 265.311 420.666 264.872 420.834C264.443 420.993 263.971 421.072 263.458 421.072ZM271.288 421.072C270.513 421.072 269.832 420.881 269.244 420.498C268.665 420.116 268.259 419.602 268.026 418.958L269.244 418.384C269.449 418.814 269.729 419.154 270.084 419.406C270.448 419.658 270.849 419.784 271.288 419.784C271.661 419.784 271.965 419.7 272.198 419.532C272.431 419.364 272.548 419.136 272.548 418.846C272.548 418.66 272.497 418.51 272.394 418.398C272.291 418.277 272.161 418.179 272.002 418.104C271.853 418.03 271.699 417.974 271.54 417.936L270.35 417.6C269.697 417.414 269.207 417.134 268.88 416.76C268.563 416.378 268.404 415.934 268.404 415.43C268.404 414.973 268.521 414.576 268.754 414.24C268.987 413.895 269.309 413.629 269.72 413.442C270.131 413.256 270.593 413.162 271.106 413.162C271.797 413.162 272.413 413.335 272.954 413.68C273.495 414.016 273.878 414.488 274.102 415.094L272.884 415.668C272.735 415.304 272.497 415.015 272.17 414.8C271.853 414.586 271.493 414.478 271.092 414.478C270.747 414.478 270.471 414.562 270.266 414.73C270.061 414.889 269.958 415.099 269.958 415.36C269.958 415.538 270.005 415.687 270.098 415.808C270.191 415.92 270.313 416.014 270.462 416.088C270.611 416.154 270.765 416.21 270.924 416.256L272.156 416.62C272.781 416.798 273.262 417.078 273.598 417.46C273.934 417.834 274.102 418.282 274.102 418.804C274.102 419.252 273.981 419.649 273.738 419.994C273.505 420.33 273.178 420.596 272.758 420.792C272.338 420.979 271.848 421.072 271.288 421.072ZM278.928 420.988C278.135 420.988 277.519 420.764 277.08 420.316C276.641 419.868 276.422 419.238 276.422 418.426V414.758H275.092V413.33H275.302C275.657 413.33 275.932 413.228 276.128 413.022C276.324 412.817 276.422 412.537 276.422 412.182V411.594H278.004V413.33H279.726V414.758H278.004V418.356C278.004 418.618 278.046 418.842 278.13 419.028C278.214 419.206 278.349 419.346 278.536 419.448C278.723 419.542 278.965 419.588 279.264 419.588C279.339 419.588 279.423 419.584 279.516 419.574C279.609 419.565 279.698 419.556 279.782 419.546V420.904C279.651 420.923 279.507 420.942 279.348 420.96C279.189 420.979 279.049 420.988 278.928 420.988ZM284.745 421.072C283.989 421.072 283.317 420.9 282.729 420.554C282.15 420.2 281.698 419.724 281.371 419.126C281.044 418.52 280.881 417.843 280.881 417.096C280.881 416.331 281.044 415.654 281.371 415.066C281.707 414.478 282.155 414.016 282.715 413.68C283.275 413.335 283.91 413.162 284.619 413.162C285.188 413.162 285.697 413.26 286.145 413.456C286.593 413.652 286.971 413.923 287.279 414.268C287.587 414.604 287.82 414.992 287.979 415.43C288.147 415.869 288.231 416.336 288.231 416.83C288.231 416.952 288.226 417.078 288.217 417.208C288.208 417.339 288.189 417.46 288.161 417.572H282.127V416.312H287.265L286.509 416.886C286.602 416.429 286.57 416.023 286.411 415.668C286.262 415.304 286.028 415.02 285.711 414.814C285.403 414.6 285.039 414.492 284.619 414.492C284.199 414.492 283.826 414.6 283.499 414.814C283.172 415.02 282.92 415.318 282.743 415.71C282.566 416.093 282.496 416.56 282.533 417.11C282.486 417.624 282.556 418.072 282.743 418.454C282.939 418.837 283.21 419.136 283.555 419.35C283.91 419.565 284.311 419.672 284.759 419.672C285.216 419.672 285.604 419.57 285.921 419.364C286.248 419.159 286.504 418.893 286.691 418.566L287.979 419.196C287.83 419.551 287.596 419.873 287.279 420.162C286.971 420.442 286.598 420.666 286.159 420.834C285.73 420.993 285.258 421.072 284.745 421.072ZM289.775 420.904V413.33H291.287V414.856L291.147 414.632C291.315 414.138 291.586 413.783 291.959 413.568C292.332 413.344 292.78 413.232 293.303 413.232H293.765V414.674H293.107C292.584 414.674 292.16 414.838 291.833 415.164C291.516 415.482 291.357 415.939 291.357 416.536V420.904H289.775Z" fill="#616161"/>
<circle cx="75.3834" cy="313.383" r="75.3834" fill="white"/>
<path d="M42.4393 308V297.57H43.9793L47.8993 303.002H47.1293L50.9793 297.57H52.5193V308H50.8813V299.516L51.4973 299.684L47.5633 305.06H47.3953L43.5453 299.684L44.0913 299.516V308H42.4393ZM56.7897 308.168C56.2763 308.168 55.8237 308.079 55.4317 307.902C55.049 307.715 54.7503 307.463 54.5357 307.146C54.321 306.819 54.2137 306.437 54.2137 305.998C54.2137 305.587 54.3023 305.219 54.4797 304.892C54.6663 304.565 54.951 304.29 55.3337 304.066C55.7163 303.842 56.197 303.683 56.7757 303.59L59.4077 303.156V304.402L57.0837 304.808C56.6637 304.883 56.3557 305.018 56.1597 305.214C55.9637 305.401 55.8657 305.643 55.8657 305.942C55.8657 306.231 55.973 306.469 56.1877 306.656C56.4117 306.833 56.6963 306.922 57.0417 306.922C57.471 306.922 57.8443 306.829 58.1617 306.642C58.4883 306.455 58.7403 306.208 58.9177 305.9C59.095 305.583 59.1837 305.233 59.1837 304.85V302.904C59.1837 302.531 59.0437 302.227 58.7637 301.994C58.493 301.751 58.129 301.63 57.6717 301.63C57.2517 301.63 56.883 301.742 56.5657 301.966C56.2577 302.181 56.029 302.461 55.8797 302.806L54.5637 302.148C54.7037 301.775 54.9323 301.448 55.2497 301.168C55.567 300.879 55.9357 300.655 56.3557 300.496C56.785 300.337 57.2377 300.258 57.7137 300.258C58.311 300.258 58.8383 300.37 59.2957 300.594C59.7623 300.818 60.1217 301.131 60.3737 301.532C60.635 301.924 60.7657 302.381 60.7657 302.904V308H59.2537V306.628L59.5757 306.67C59.3983 306.978 59.1697 307.244 58.8897 307.468C58.619 307.692 58.3063 307.865 57.9517 307.986C57.6063 308.107 57.219 308.168 56.7897 308.168ZM62.6154 308V300.426H64.1274V301.952L63.9874 301.728C64.1554 301.233 64.4261 300.879 64.7994 300.664C65.1727 300.44 65.6207 300.328 66.1434 300.328H66.6054V301.77H65.9474C65.4247 301.77 65.0001 301.933 64.6734 302.26C64.3561 302.577 64.1974 303.035 64.1974 303.632V308H62.6154ZM67.6877 308V297.402H69.2697V304.5L68.6537 304.346L72.4477 300.426H74.4217L71.5657 303.464L74.5477 308H72.7277L70.0677 303.982L71.0057 303.856L68.7657 306.236L69.2697 305.186V308H67.6877ZM79.0503 308.168C78.2943 308.168 77.6223 307.995 77.0343 307.65C76.4556 307.295 76.003 306.819 75.6763 306.222C75.3496 305.615 75.1863 304.939 75.1863 304.192C75.1863 303.427 75.3496 302.75 75.6763 302.162C76.0123 301.574 76.4603 301.112 77.0203 300.776C77.5803 300.431 78.215 300.258 78.9243 300.258C79.4936 300.258 80.0023 300.356 80.4503 300.552C80.8983 300.748 81.2763 301.019 81.5843 301.364C81.8923 301.7 82.1256 302.087 82.2843 302.526C82.4523 302.965 82.5363 303.431 82.5363 303.926C82.5363 304.047 82.5316 304.173 82.5223 304.304C82.513 304.435 82.4943 304.556 82.4663 304.668H76.4323V303.408H81.5703L80.8143 303.982C80.9076 303.525 80.875 303.119 80.7163 302.764C80.567 302.4 80.3336 302.115 80.0163 301.91C79.7083 301.695 79.3443 301.588 78.9243 301.588C78.5043 301.588 78.131 301.695 77.8043 301.91C77.4776 302.115 77.2256 302.414 77.0483 302.806C76.871 303.189 76.801 303.655 76.8383 304.206C76.7916 304.719 76.8616 305.167 77.0483 305.55C77.2443 305.933 77.515 306.231 77.8603 306.446C78.215 306.661 78.6163 306.768 79.0643 306.768C79.5216 306.768 79.909 306.665 80.2263 306.46C80.553 306.255 80.8096 305.989 80.9963 305.662L82.2843 306.292C82.135 306.647 81.9016 306.969 81.5843 307.258C81.2763 307.538 80.903 307.762 80.4643 307.93C80.035 308.089 79.5636 308.168 79.0503 308.168ZM87.3563 308.084C86.5629 308.084 85.9469 307.86 85.5083 307.412C85.0696 306.964 84.8503 306.334 84.8503 305.522V301.854H83.5203V300.426H83.7303C84.0849 300.426 84.3603 300.323 84.5563 300.118C84.7523 299.913 84.8503 299.633 84.8503 299.278V298.69H86.4323V300.426H88.1543V301.854H86.4323V305.452C86.4323 305.713 86.4743 305.937 86.5583 306.124C86.6423 306.301 86.7776 306.441 86.9643 306.544C87.1509 306.637 87.3936 306.684 87.6923 306.684C87.7669 306.684 87.8509 306.679 87.9443 306.67C88.0376 306.661 88.1263 306.651 88.2103 306.642V308C88.0796 308.019 87.9349 308.037 87.7763 308.056C87.6176 308.075 87.4776 308.084 87.3563 308.084ZM89.7541 308V300.426H91.3361V308H89.7541ZM89.7541 299.39V297.57H91.3361V299.39H89.7541ZM93.1857 308V300.426H94.6977V301.91L94.5157 301.714C94.7024 301.238 95.0011 300.879 95.4117 300.636C95.8224 300.384 96.2984 300.258 96.8397 300.258C97.3997 300.258 97.8944 300.379 98.3237 300.622C98.7531 300.865 99.0891 301.201 99.3317 301.63C99.5744 302.059 99.6957 302.554 99.6957 303.114V308H98.1277V303.534C98.1277 303.151 98.0577 302.829 97.9177 302.568C97.7777 302.297 97.5771 302.092 97.3157 301.952C97.0637 301.803 96.7744 301.728 96.4477 301.728C96.1211 301.728 95.8271 301.803 95.5657 301.952C95.3137 302.092 95.1177 302.297 94.9777 302.568C94.8377 302.839 94.7677 303.161 94.7677 303.534V308H93.1857ZM105.043 311.08C104.492 311.08 103.984 310.991 103.517 310.814C103.05 310.637 102.649 310.389 102.313 310.072C101.977 309.764 101.725 309.4 101.557 308.98L103.013 308.378C103.144 308.733 103.382 309.027 103.727 309.26C104.082 309.493 104.516 309.61 105.029 309.61C105.43 309.61 105.79 309.531 106.107 309.372C106.424 309.223 106.676 308.999 106.863 308.7C107.05 308.411 107.143 308.061 107.143 307.65V305.942L107.423 306.264C107.162 306.749 106.798 307.118 106.331 307.37C105.874 307.622 105.356 307.748 104.777 307.748C104.077 307.748 103.447 307.585 102.887 307.258C102.327 306.931 101.884 306.483 101.557 305.914C101.24 305.345 101.081 304.705 101.081 303.996C101.081 303.277 101.24 302.638 101.557 302.078C101.884 301.518 102.322 301.075 102.873 300.748C103.424 300.421 104.054 300.258 104.763 300.258C105.342 300.258 105.855 300.384 106.303 300.636C106.76 300.879 107.134 301.233 107.423 301.7L107.213 302.092V300.426H108.711V307.65C108.711 308.303 108.552 308.887 108.235 309.4C107.927 309.923 107.498 310.333 106.947 310.632C106.396 310.931 105.762 311.08 105.043 311.08ZM104.959 306.278C105.379 306.278 105.752 306.18 106.079 305.984C106.406 305.779 106.662 305.508 106.849 305.172C107.045 304.827 107.143 304.439 107.143 304.01C107.143 303.581 107.045 303.193 106.849 302.848C106.653 302.503 106.392 302.232 106.065 302.036C105.738 301.831 105.37 301.728 104.959 301.728C104.53 301.728 104.147 301.831 103.811 302.036C103.475 302.232 103.209 302.503 103.013 302.848C102.826 303.184 102.733 303.571 102.733 304.01C102.733 304.43 102.826 304.813 103.013 305.158C103.209 305.503 103.475 305.779 103.811 305.984C104.147 306.18 104.53 306.278 104.959 306.278ZM46.859 329.168C46.2056 329.168 45.599 329.047 45.039 328.804C44.479 328.552 44.003 328.211 43.611 327.782C43.219 327.353 42.9296 326.858 42.743 326.298L44.143 325.71C44.395 326.354 44.7636 326.849 45.249 327.194C45.7343 327.539 46.2943 327.712 46.929 327.712C47.3023 327.712 47.629 327.656 47.909 327.544C48.189 327.423 48.4036 327.255 48.553 327.04C48.7116 326.825 48.791 326.578 48.791 326.298C48.791 325.915 48.6836 325.612 48.469 325.388C48.2543 325.164 47.937 324.987 47.517 324.856L45.557 324.24C44.773 323.997 44.1756 323.629 43.765 323.134C43.3543 322.63 43.149 322.042 43.149 321.37C43.149 320.782 43.2936 320.269 43.583 319.83C43.8723 319.382 44.269 319.032 44.773 318.78C45.2863 318.528 45.8696 318.402 46.523 318.402C47.1483 318.402 47.7176 318.514 48.231 318.738C48.7443 318.953 49.183 319.251 49.547 319.634C49.9203 320.017 50.191 320.46 50.359 320.964L48.987 321.566C48.7816 321.015 48.4596 320.591 48.021 320.292C47.5916 319.993 47.0923 319.844 46.523 319.844C46.1776 319.844 45.8743 319.905 45.613 320.026C45.3516 320.138 45.1463 320.306 44.997 320.53C44.857 320.745 44.787 320.997 44.787 321.286C44.787 321.622 44.8943 321.921 45.109 322.182C45.3236 322.443 45.6503 322.639 46.089 322.77L47.909 323.344C48.7396 323.596 49.365 323.96 49.785 324.436C50.205 324.903 50.415 325.486 50.415 326.186C50.415 326.765 50.261 327.278 49.953 327.726C49.6543 328.174 49.239 328.529 48.707 328.79C48.175 329.042 47.559 329.168 46.859 329.168ZM52.1154 331.8V321.426H53.6274V322.994L53.4454 322.63C53.7254 322.201 54.0987 321.865 54.5654 321.622C55.0321 321.379 55.5641 321.258 56.1614 321.258C56.8801 321.258 57.5241 321.431 58.0934 321.776C58.6721 322.121 59.1247 322.593 59.4514 323.19C59.7874 323.787 59.9554 324.459 59.9554 325.206C59.9554 325.953 59.7874 326.625 59.4514 327.222C59.1247 327.819 58.6767 328.295 58.1074 328.65C57.5381 328.995 56.8894 329.168 56.1614 329.168C55.5734 329.168 55.0367 329.047 54.5514 328.804C54.0754 328.561 53.7067 328.211 53.4454 327.754L53.6974 327.46V331.8H52.1154ZM56.0074 327.698C56.4554 327.698 56.8521 327.591 57.1974 327.376C57.5427 327.161 57.8134 326.867 58.0094 326.494C58.2147 326.111 58.3174 325.682 58.3174 325.206C58.3174 324.73 58.2147 324.305 58.0094 323.932C57.8134 323.559 57.5427 323.265 57.1974 323.05C56.8521 322.835 56.4554 322.728 56.0074 322.728C55.5687 322.728 55.1721 322.835 54.8174 323.05C54.4721 323.265 54.1967 323.559 53.9914 323.932C53.7954 324.305 53.6974 324.73 53.6974 325.206C53.6974 325.682 53.7954 326.111 53.9914 326.494C54.1967 326.867 54.4721 327.161 54.8174 327.376C55.1721 327.591 55.5687 327.698 56.0074 327.698ZM65.0503 329.168C64.2943 329.168 63.6223 328.995 63.0343 328.65C62.4556 328.295 62.003 327.819 61.6763 327.222C61.3496 326.615 61.1863 325.939 61.1863 325.192C61.1863 324.427 61.3496 323.75 61.6763 323.162C62.0123 322.574 62.4603 322.112 63.0203 321.776C63.5803 321.431 64.215 321.258 64.9243 321.258C65.4936 321.258 66.0023 321.356 66.4503 321.552C66.8983 321.748 67.2763 322.019 67.5843 322.364C67.8923 322.7 68.1256 323.087 68.2843 323.526C68.4523 323.965 68.5363 324.431 68.5363 324.926C68.5363 325.047 68.5316 325.173 68.5223 325.304C68.513 325.435 68.4943 325.556 68.4663 325.668H62.4323V324.408H67.5703L66.8143 324.982C66.9076 324.525 66.875 324.119 66.7163 323.764C66.567 323.4 66.3336 323.115 66.0163 322.91C65.7083 322.695 65.3443 322.588 64.9243 322.588C64.5043 322.588 64.131 322.695 63.8043 322.91C63.4776 323.115 63.2256 323.414 63.0483 323.806C62.871 324.189 62.801 324.655 62.8383 325.206C62.7916 325.719 62.8616 326.167 63.0483 326.55C63.2443 326.933 63.515 327.231 63.8603 327.446C64.215 327.661 64.6163 327.768 65.0643 327.768C65.5216 327.768 65.909 327.665 66.2263 327.46C66.553 327.255 66.8096 326.989 66.9963 326.662L68.2843 327.292C68.135 327.647 67.9016 327.969 67.5843 328.258C67.2763 328.538 66.903 328.762 66.4643 328.93C66.035 329.089 65.5636 329.168 65.0503 329.168ZM73.6783 329.168C72.9223 329.168 72.2503 328.995 71.6623 328.65C71.0836 328.295 70.6216 327.819 70.2763 327.222C69.9403 326.625 69.7723 325.948 69.7723 325.192C69.7723 324.445 69.9403 323.773 70.2763 323.176C70.6123 322.579 71.0743 322.112 71.6623 321.776C72.2503 321.431 72.9223 321.258 73.6783 321.258C74.1916 321.258 74.6723 321.351 75.1203 321.538C75.5683 321.715 75.9556 321.963 76.2823 322.28C76.6183 322.597 76.8656 322.966 77.0243 323.386L75.6383 324.03C75.4796 323.638 75.2229 323.325 74.8683 323.092C74.5229 322.849 74.1263 322.728 73.6783 322.728C73.2489 322.728 72.8616 322.835 72.5163 323.05C72.1803 323.255 71.9143 323.549 71.7183 323.932C71.5223 324.305 71.4243 324.73 71.4243 325.206C71.4243 325.682 71.5223 326.111 71.7183 326.494C71.9143 326.867 72.1803 327.161 72.5163 327.376C72.8616 327.591 73.2489 327.698 73.6783 327.698C74.1356 327.698 74.5323 327.581 74.8683 327.348C75.2136 327.105 75.4703 326.783 75.6383 326.382L77.0243 327.04C76.8749 327.441 76.6323 327.805 76.2963 328.132C75.9696 328.449 75.5823 328.701 75.1343 328.888C74.6863 329.075 74.2009 329.168 73.6783 329.168ZM78.5705 329V321.426H80.1525V329H78.5705ZM78.5705 320.39V318.57H80.1525V320.39H78.5705ZM84.2701 329.168C83.7568 329.168 83.3041 329.079 82.9121 328.902C82.5295 328.715 82.2308 328.463 82.0161 328.146C81.8015 327.819 81.6941 327.437 81.6941 326.998C81.6941 326.587 81.7828 326.219 81.9601 325.892C82.1468 325.565 82.4315 325.29 82.8141 325.066C83.1968 324.842 83.6775 324.683 84.2561 324.59L86.8881 324.156V325.402L84.5641 325.808C84.1441 325.883 83.8361 326.018 83.6401 326.214C83.4441 326.401 83.3461 326.643 83.3461 326.942C83.3461 327.231 83.4535 327.469 83.6681 327.656C83.8921 327.833 84.1768 327.922 84.5221 327.922C84.9515 327.922 85.3248 327.829 85.6421 327.642C85.9688 327.455 86.2208 327.208 86.3981 326.9C86.5755 326.583 86.6641 326.233 86.6641 325.85V323.904C86.6641 323.531 86.5241 323.227 86.2441 322.994C85.9735 322.751 85.6095 322.63 85.1521 322.63C84.7321 322.63 84.3635 322.742 84.0461 322.966C83.7381 323.181 83.5095 323.461 83.3601 323.806L82.0441 323.148C82.1841 322.775 82.4128 322.448 82.7301 322.168C83.0475 321.879 83.4161 321.655 83.8361 321.496C84.2655 321.337 84.7181 321.258 85.1941 321.258C85.7915 321.258 86.3188 321.37 86.7761 321.594C87.2428 321.818 87.6021 322.131 87.8541 322.532C88.1155 322.924 88.2461 323.381 88.2461 323.904V329H86.7341V327.628L87.0561 327.67C86.8788 327.978 86.6501 328.244 86.3701 328.468C86.0995 328.692 85.7868 328.865 85.4321 328.986C85.0868 329.107 84.6995 329.168 84.2701 329.168ZM90.0959 329V318.402H91.6779V329H90.0959ZM93.5275 329V321.426H95.1095V329H93.5275ZM93.5275 320.39V318.57H95.1095V320.39H93.5275ZM99.7592 329.168C98.9845 329.168 98.3032 328.977 97.7152 328.594C97.1365 328.211 96.7305 327.698 96.4972 327.054L97.7152 326.48C97.9205 326.909 98.2005 327.25 98.5552 327.502C98.9192 327.754 99.3205 327.88 99.7592 327.88C100.132 327.88 100.436 327.796 100.669 327.628C100.902 327.46 101.019 327.231 101.019 326.942C101.019 326.755 100.968 326.606 100.865 326.494C100.762 326.373 100.632 326.275 100.473 326.2C100.324 326.125 100.17 326.069 100.011 326.032L98.8212 325.696C98.1678 325.509 97.6778 325.229 97.3512 324.856C97.0338 324.473 96.8752 324.03 96.8752 323.526C96.8752 323.069 96.9918 322.672 97.2252 322.336C97.4585 321.991 97.7805 321.725 98.1912 321.538C98.6018 321.351 99.0638 321.258 99.5772 321.258C100.268 321.258 100.884 321.431 101.425 321.776C101.966 322.112 102.349 322.583 102.573 323.19L101.355 323.764C101.206 323.4 100.968 323.111 100.641 322.896C100.324 322.681 99.9645 322.574 99.5632 322.574C99.2178 322.574 98.9425 322.658 98.7372 322.826C98.5318 322.985 98.4292 323.195 98.4292 323.456C98.4292 323.633 98.4758 323.783 98.5692 323.904C98.6625 324.016 98.7838 324.109 98.9332 324.184C99.0825 324.249 99.2365 324.305 99.3952 324.352L100.627 324.716C101.252 324.893 101.733 325.173 102.069 325.556C102.405 325.929 102.573 326.377 102.573 326.9C102.573 327.348 102.452 327.745 102.209 328.09C101.976 328.426 101.649 328.692 101.229 328.888C100.809 329.075 100.319 329.168 99.7592 329.168ZM107.399 329.084C106.606 329.084 105.99 328.86 105.551 328.412C105.113 327.964 104.893 327.334 104.893 326.522V322.854H103.563V321.426H103.773C104.128 321.426 104.403 321.323 104.599 321.118C104.795 320.913 104.893 320.633 104.893 320.278V319.69H106.475V321.426H108.197V322.854H106.475V326.452C106.475 326.713 106.517 326.937 106.601 327.124C106.685 327.301 106.821 327.441 107.007 327.544C107.194 327.637 107.437 327.684 107.735 327.684C107.81 327.684 107.894 327.679 107.987 327.67C108.081 327.661 108.169 327.651 108.253 327.642V329C108.123 329.019 107.978 329.037 107.819 329.056C107.661 329.075 107.521 329.084 107.399 329.084Z" fill="#616161"/>
<circle cx="205.759" cy="321.372" r="44.5447" fill="#FF7442"/>
<path d="M188.4 326L185.53 315.57H187.28L189.604 324.6H189.17L191.578 315.57H193.3L195.708 324.6H195.26L197.598 315.57H199.334L196.478 326H194.616L192.194 317.11H192.684L190.248 326H188.4ZM199.849 326V318.426H201.361V319.952L201.221 319.728C201.389 319.233 201.659 318.879 202.033 318.664C202.406 318.44 202.854 318.328 203.377 318.328H203.839V319.77H203.181C202.658 319.77 202.233 319.933 201.907 320.26C201.589 320.577 201.431 321.035 201.431 321.632V326H199.849ZM204.921 326V318.426H206.503V326H204.921ZM204.921 317.39V315.57H206.503V317.39H204.921ZM211.629 326.084C210.835 326.084 210.219 325.86 209.781 325.412C209.342 324.964 209.123 324.334 209.123 323.522V319.854H207.793V318.426H208.003C208.357 318.426 208.633 318.323 208.829 318.118C209.025 317.913 209.123 317.633 209.123 317.278V316.69H210.705V318.426H212.427V319.854H210.705V323.452C210.705 323.713 210.747 323.937 210.831 324.124C210.915 324.301 211.05 324.441 211.237 324.544C211.423 324.637 211.666 324.684 211.965 324.684C212.039 324.684 212.123 324.679 212.217 324.67C212.31 324.661 212.399 324.651 212.483 324.642V326C212.352 326.019 212.207 326.037 212.049 326.056C211.89 326.075 211.75 326.084 211.629 326.084ZM217.446 326.168C216.69 326.168 216.018 325.995 215.43 325.65C214.851 325.295 214.398 324.819 214.072 324.222C213.745 323.615 213.582 322.939 213.582 322.192C213.582 321.427 213.745 320.75 214.072 320.162C214.408 319.574 214.856 319.112 215.416 318.776C215.976 318.431 216.61 318.258 217.32 318.258C217.889 318.258 218.398 318.356 218.846 318.552C219.294 318.748 219.672 319.019 219.98 319.364C220.288 319.7 220.521 320.087 220.68 320.526C220.848 320.965 220.932 321.431 220.932 321.926C220.932 322.047 220.927 322.173 220.918 322.304C220.908 322.435 220.89 322.556 220.862 322.668H214.828V321.408H219.966L219.21 321.982C219.303 321.525 219.27 321.119 219.112 320.764C218.962 320.4 218.729 320.115 218.412 319.91C218.104 319.695 217.74 319.588 217.32 319.588C216.9 319.588 216.526 319.695 216.2 319.91C215.873 320.115 215.621 320.414 215.444 320.806C215.266 321.189 215.196 321.655 215.234 322.206C215.187 322.719 215.257 323.167 215.444 323.55C215.64 323.933 215.91 324.231 216.256 324.446C216.61 324.661 217.012 324.768 217.46 324.768C217.917 324.768 218.304 324.665 218.622 324.46C218.948 324.255 219.205 323.989 219.392 323.662L220.68 324.292C220.53 324.647 220.297 324.969 219.98 325.258C219.672 325.538 219.298 325.762 218.86 325.93C218.43 326.089 217.959 326.168 217.446 326.168ZM222.476 326V318.426H223.988V319.952L223.848 319.728C224.016 319.233 224.286 318.879 224.66 318.664C225.033 318.44 225.481 318.328 226.004 318.328H226.466V319.77H225.808C225.285 319.77 224.86 319.933 224.534 320.26C224.216 320.577 224.058 321.035 224.058 321.632V326H222.476Z" fill="white"/>
</svg>
