<svg width="40" height="40" viewBox="0 0 40 40" fill="none" xmlns="http://www.w3.org/2000/svg">
<path d="M11.5303 5.64291C14.0123 4.17557 16.9078 3.3335 20 3.3335C29.2047 3.3335 36.6666 10.7954 36.6666 20.0002C36.6666 20.0554 36.6664 20.1105 36.6658 20.1656M5.63522 11.5432C4.17251 14.0224 3.33331 16.9133 3.33331 20.0002C3.33331 27.7662 8.64487 34.2916 15.8333 36.1418M34.5127 28.2011C32.312 32.0872 28.5956 35.0018 24.1667 36.1418M23.4821 10.6231C22.3978 10.2203 21.2246 10.0002 20 10.0002C14.4771 10.0002 9.99998 14.4773 9.99998 20.0002C9.99998 21.2314 10.2225 22.4107 10.6295 23.5M29.3751 16.5129C29.7792 17.5987 30 18.7737 30 20.0002C30 25.523 25.5228 30.0002 20 30.0002C18.7835 30.0002 17.6178 29.783 16.5395 29.3852M20 16.6668V23.3335" stroke="white" stroke-width="3" stroke-linecap="round" stroke-linejoin="round"/>
</svg>
