<svg width="446" height="307" viewBox="0 0 446 307" fill="none" xmlns="http://www.w3.org/2000/svg">
<g opacity="0.7" clip-path="url(#clip0_12785_5355)">
<mask id="mask0_12785_5355" style="mask-type:alpha" maskUnits="userSpaceOnUse" x="0" y="0" width="448" height="307">
<path d="M447.601 0H0V306.921H447.601V0Z" fill="url(#paint0_radial_12785_5355)"/>
</mask>
<g mask="url(#mask0_12785_5355)">
<path d="M2.62076 220.263H-41.5967V253.653H2.62076V220.263Z" stroke="#292B3B" stroke-opacity="0.13"/>
<path d="M46.8405 220.263H2.62305V253.653H46.8405V220.263Z" stroke="#292B3B" stroke-opacity="0.13"/>
<path d="M91.0592 220.263H46.8418V253.653H91.0592V220.263Z" stroke="#292B3B" stroke-opacity="0.13"/>
<path d="M135.276 220.263H91.0586V253.653H135.276V220.263Z" stroke="#292B3B" stroke-opacity="0.13"/>
<path d="M179.495 220.263H135.277V253.653H179.495V220.263Z" stroke="#292B3B" stroke-opacity="0.13"/>
<path d="M223.715 220.263H179.497V253.653H223.715V220.263Z" stroke="#292B3B" stroke-opacity="0.13"/>
<path d="M267.934 220.263H223.717V253.653H267.934V220.263Z" stroke="#292B3B" stroke-opacity="0.13"/>
<path d="M312.153 220.263H267.936V253.653H312.153V220.263Z" stroke="#292B3B" stroke-opacity="0.13"/>
<path d="M356.372 220.263H312.154V253.653H356.372V220.263Z" stroke="#292B3B" stroke-opacity="0.13"/>
<path d="M400.589 220.263H356.371V253.653H400.589V220.263Z" stroke="#292B3B" stroke-opacity="0.13"/>
<path d="M444.808 220.263H400.591V253.653H444.808V220.263Z" stroke="#292B3B" stroke-opacity="0.13"/>
<path d="M489.027 220.263H444.81V253.653H489.027V220.263Z" stroke="#292B3B" stroke-opacity="0.13"/>
<path d="M2.62076 253.645H-41.5967V287.035H2.62076V253.645Z" stroke="#292B3B" stroke-opacity="0.13"/>
<path d="M2.62076 -13.4092H-41.5967V19.9811H2.62076V-13.4092Z" stroke="#292B3B" stroke-opacity="0.13"/>
<path d="M46.8405 253.645H2.62305V287.035H46.8405V253.645Z" stroke="#292B3B" stroke-opacity="0.13"/>
<path d="M46.8405 -13.4092H2.62305V19.9811H46.8405V-13.4092Z" stroke="#292B3B" stroke-opacity="0.13"/>
<path d="M91.0592 253.645H46.8418V287.035H91.0592V253.645Z" stroke="#292B3B" stroke-opacity="0.13"/>
<path d="M91.0592 -13.4092H46.8418V19.9811H91.0592V-13.4092Z" stroke="#292B3B" stroke-opacity="0.13"/>
<path d="M135.276 253.645H91.0586V287.035H135.276V253.645Z" stroke="#292B3B" stroke-opacity="0.13"/>
<path d="M135.276 -13.4092H91.0586V19.9811H135.276V-13.4092Z" stroke="#292B3B" stroke-opacity="0.13"/>
<path d="M179.495 253.645H135.277V287.035H179.495V253.645Z" stroke="#292B3B" stroke-opacity="0.13"/>
<path d="M179.495 -13.4092H135.277V19.9811H179.495V-13.4092Z" stroke="#292B3B" stroke-opacity="0.13"/>
<path d="M223.715 253.645H179.497V287.035H223.715V253.645Z" stroke="#292B3B" stroke-opacity="0.13"/>
<path d="M223.715 -13.4092H179.497V19.9811H223.715V-13.4092Z" stroke="#292B3B" stroke-opacity="0.13"/>
<path d="M267.934 253.645H223.717V287.035H267.934V253.645Z" stroke="#292B3B" stroke-opacity="0.13"/>
<path d="M267.934 -13.4092H223.717V19.9811H267.934V-13.4092Z" stroke="#292B3B" stroke-opacity="0.13"/>
<path d="M312.153 253.645H267.936V287.035H312.153V253.645Z" stroke="#292B3B" stroke-opacity="0.13"/>
<path d="M312.153 -13.4092H267.936V19.9811H312.153V-13.4092Z" stroke="#292B3B" stroke-opacity="0.13"/>
<path d="M356.372 253.645H312.154V287.035H356.372V253.645Z" stroke="#292B3B" stroke-opacity="0.13"/>
<path d="M356.372 -13.4092H312.154V19.9811H356.372V-13.4092Z" stroke="#292B3B" stroke-opacity="0.13"/>
<path d="M400.59 253.645H356.372V287.035H400.59V253.645Z" stroke="#292B3B" stroke-opacity="0.13"/>
<path d="M400.589 -13.4092H356.371V19.9811H400.589V-13.4092Z" stroke="#292B3B" stroke-opacity="0.13"/>
<path d="M444.808 253.645H400.591V287.035H444.808V253.645Z" stroke="#292B3B" stroke-opacity="0.13"/>
<path d="M444.809 -13.4092H400.591V19.9811H444.809V-13.4092Z" stroke="#292B3B" stroke-opacity="0.13"/>
<path d="M489.027 253.645H444.81V287.035H489.027V253.645Z" stroke="#292B3B" stroke-opacity="0.13"/>
<path d="M489.027 -13.4092H444.81V19.9811H489.027V-13.4092Z" stroke="#292B3B" stroke-opacity="0.13"/>
<path d="M2.62076 287.026H-41.5967V320.417H2.62076V287.026Z" stroke="#292B3B" stroke-opacity="0.13"/>
<path d="M2.62076 19.9729H-41.5967V53.3632H2.62076V19.9729Z" stroke="#292B3B" stroke-opacity="0.13"/>
<path d="M46.8405 287.025H2.62305V320.416H46.8405V287.025Z" stroke="#292B3B" stroke-opacity="0.13"/>
<path d="M46.8405 19.9727H2.62305V53.3629H46.8405V19.9727Z" stroke="#292B3B" stroke-opacity="0.13"/>
<path d="M91.0592 287.025H46.8418V320.416H91.0592V287.025Z" stroke="#292B3B" stroke-opacity="0.13"/>
<path d="M91.0592 19.9727H46.8418V53.3629H91.0592V19.9727Z" stroke="#292B3B" stroke-opacity="0.13"/>
<path d="M135.276 287.025H91.0586V320.416H135.276V287.025Z" stroke="#292B3B" stroke-opacity="0.13"/>
<path d="M135.276 19.9727H91.0586V53.3629H135.276V19.9727Z" stroke="#292B3B" stroke-opacity="0.13"/>
<path d="M179.495 287.025H135.277V320.416H179.495V287.025Z" stroke="#292B3B" stroke-opacity="0.13"/>
<path d="M179.495 19.9727H135.277V53.3629H179.495V19.9727Z" stroke="#292B3B" stroke-opacity="0.13"/>
<path d="M223.715 287.025H179.497V320.416H223.715V287.025Z" stroke="#292B3B" stroke-opacity="0.13"/>
<path d="M223.715 19.9727H179.497V53.3629H223.715V19.9727Z" stroke="#292B3B" stroke-opacity="0.13"/>
<path d="M267.934 287.025H223.717V320.416H267.934V287.025Z" stroke="#292B3B" stroke-opacity="0.13"/>
<path d="M267.934 19.9727H223.717V53.3629H267.934V19.9727Z" stroke="#292B3B" stroke-opacity="0.13"/>
<path d="M312.153 287.025H267.936V320.416H312.153V287.025Z" stroke="#292B3B" stroke-opacity="0.13"/>
<path d="M312.153 19.9727H267.936V53.3629H312.153V19.9727Z" stroke="#292B3B" stroke-opacity="0.13"/>
<path d="M356.372 287.025H312.154V320.416H356.372V287.025Z" stroke="#292B3B" stroke-opacity="0.13"/>
<path d="M356.372 19.9727H312.154V53.3629H356.372V19.9727Z" stroke="#292B3B" stroke-opacity="0.13"/>
<path d="M400.59 287.026H356.372V320.417H400.59V287.026Z" stroke="#292B3B" stroke-opacity="0.13"/>
<path d="M400.589 19.9727H356.371V53.3629H400.589V19.9727Z" stroke="#292B3B" stroke-opacity="0.13"/>
<path d="M444.808 287.026H400.591V320.417H444.808V287.026Z" stroke="#292B3B" stroke-opacity="0.13"/>
<path d="M444.809 19.9729H400.591V53.3632H444.809V19.9729Z" stroke="#292B3B" stroke-opacity="0.13"/>
<path d="M489.027 287.025H444.81V320.416H489.027V287.025Z" stroke="#292B3B" stroke-opacity="0.13"/>
<path d="M489.027 19.9727H444.81V53.3629H489.027V19.9727Z" stroke="#292B3B" stroke-opacity="0.13"/>
<path d="M2.62076 53.3545H-41.5967V86.7448H2.62076V53.3545Z" stroke="#292B3B" stroke-opacity="0.13"/>
<path d="M46.8405 53.3535H2.62305V86.7438H46.8405V53.3535Z" stroke="#292B3B" stroke-opacity="0.13"/>
<path d="M91.0592 53.3535H46.8418V86.7438H91.0592V53.3535Z" stroke="#292B3B" stroke-opacity="0.13"/>
<path d="M135.276 53.3535H91.0586V86.7438H135.276V53.3535Z" stroke="#292B3B" stroke-opacity="0.13"/>
<path d="M179.495 53.3535H135.277V86.7438H179.495V53.3535Z" stroke="#292B3B" stroke-opacity="0.13"/>
<path d="M223.715 53.3535H179.497V86.7438H223.715V53.3535Z" stroke="#292B3B" stroke-opacity="0.13"/>
<path d="M267.934 53.3535H223.717V86.7438H267.934V53.3535Z" stroke="#292B3B" stroke-opacity="0.13"/>
<path d="M312.153 53.3535H267.936V86.7438H312.153V53.3535Z" stroke="#292B3B" stroke-opacity="0.13"/>
<path d="M356.372 53.3535H312.154V86.7438H356.372V53.3535Z" stroke="#292B3B" stroke-opacity="0.13"/>
<path d="M400.59 53.3545H356.372V86.7448H400.59V53.3545Z" stroke="#292B3B" stroke-opacity="0.13"/>
<path d="M444.808 53.3545H400.591V86.7448H444.808V53.3545Z" stroke="#292B3B" stroke-opacity="0.13"/>
<path d="M489.027 53.3535H444.81V86.7438H489.027V53.3535Z" stroke="#292B3B" stroke-opacity="0.13"/>
<path d="M2.62076 86.7363H-41.5967V120.127H2.62076V86.7363Z" stroke="#292B3B" stroke-opacity="0.13"/>
<path d="M46.8405 86.7363H2.62305V120.127H46.8405V86.7363Z" stroke="#292B3B" stroke-opacity="0.13"/>
<path d="M91.0592 86.7363H46.8418V120.127H91.0592V86.7363Z" stroke="#292B3B" stroke-opacity="0.13"/>
<path d="M135.276 86.7363H91.0586V120.127H135.276V86.7363Z" stroke="#292B3B" stroke-opacity="0.13"/>
<path d="M179.495 86.7363H135.277V120.127H179.495V86.7363Z" stroke="#292B3B" stroke-opacity="0.13"/>
<path d="M223.715 86.7363H179.497V120.127H223.715V86.7363Z" stroke="#292B3B" stroke-opacity="0.13"/>
<path d="M267.934 86.7363H223.717V120.127H267.934V86.7363Z" stroke="#292B3B" stroke-opacity="0.13"/>
<path d="M312.153 86.7363H267.936V120.127H312.153V86.7363Z" stroke="#292B3B" stroke-opacity="0.13"/>
<path d="M356.372 86.7363H312.154V120.127H356.372V86.7363Z" stroke="#292B3B" stroke-opacity="0.13"/>
<path d="M400.589 86.7363H356.371V120.127H400.589V86.7363Z" stroke="#292B3B" stroke-opacity="0.13"/>
<path d="M444.808 86.7363H400.591V120.127H444.808V86.7363Z" stroke="#292B3B" stroke-opacity="0.13"/>
<path d="M489.027 86.7363H444.81V120.127H489.027V86.7363Z" stroke="#292B3B" stroke-opacity="0.13"/>
<path d="M2.62076 120.117H-41.5967V153.507H2.62076V120.117Z" stroke="#292B3B" stroke-opacity="0.13"/>
<path d="M46.8405 120.117H2.62305V153.507H46.8405V120.117Z" stroke="#292B3B" stroke-opacity="0.13"/>
<path d="M91.0592 120.117H46.8418V153.507H91.0592V120.117Z" stroke="#292B3B" stroke-opacity="0.13"/>
<path d="M135.276 120.117H91.0586V153.507H135.276V120.117Z" stroke="#292B3B" stroke-opacity="0.13"/>
<path d="M179.495 120.117H135.277V153.507H179.495V120.117Z" stroke="#292B3B" stroke-opacity="0.13"/>
<path d="M223.715 120.117H179.497V153.507H223.715V120.117Z" stroke="#292B3B" stroke-opacity="0.13"/>
<path d="M267.934 120.117H223.717V153.507H267.934V120.117Z" stroke="#292B3B" stroke-opacity="0.13"/>
<path d="M312.153 120.117H267.936V153.507H312.153V120.117Z" stroke="#292B3B" stroke-opacity="0.13"/>
<path d="M356.372 120.117H312.154V153.507H356.372V120.117Z" stroke="#292B3B" stroke-opacity="0.13"/>
<path d="M400.589 120.117H356.371V153.507H400.589V120.117Z" stroke="#292B3B" stroke-opacity="0.13"/>
<path d="M444.808 120.118H400.591V153.508H444.808V120.118Z" stroke="#292B3B" stroke-opacity="0.13"/>
<path d="M489.027 120.117H444.81V153.507H489.027V120.117Z" stroke="#292B3B" stroke-opacity="0.13"/>
<path d="M2.62076 153.5H-41.5967V186.89H2.62076V153.5Z" stroke="#292B3B" stroke-opacity="0.13"/>
<path d="M46.8405 153.5H2.62305V186.89H46.8405V153.5Z" stroke="#292B3B" stroke-opacity="0.13"/>
<path d="M91.0592 153.5H46.8418V186.89H91.0592V153.5Z" stroke="#292B3B" stroke-opacity="0.13"/>
<path d="M135.276 153.5H91.0586V186.89H135.276V153.5Z" stroke="#292B3B" stroke-opacity="0.13"/>
<path d="M179.495 153.5H135.277V186.89H179.495V153.5Z" stroke="#292B3B" stroke-opacity="0.13"/>
<path d="M223.715 153.5H179.497V186.89H223.715V153.5Z" stroke="#292B3B" stroke-opacity="0.13"/>
<path d="M267.934 153.5H223.717V186.89H267.934V153.5Z" stroke="#292B3B" stroke-opacity="0.13"/>
<path d="M312.153 153.5H267.936V186.89H312.153V153.5Z" stroke="#292B3B" stroke-opacity="0.13"/>
<path d="M356.372 153.5H312.154V186.89H356.372V153.5Z" stroke="#292B3B" stroke-opacity="0.13"/>
<path d="M400.59 153.5H356.372V186.89H400.59V153.5Z" stroke="#292B3B" stroke-opacity="0.13"/>
<path d="M444.808 153.5H400.591V186.89H444.808V153.5Z" stroke="#292B3B" stroke-opacity="0.13"/>
<path d="M489.027 153.5H444.81V186.89H489.027V153.5Z" stroke="#292B3B" stroke-opacity="0.13"/>
<path d="M2.62076 186.881H-41.5967V220.271H2.62076V186.881Z" stroke="#292B3B" stroke-opacity="0.13"/>
<path d="M46.8405 186.881H2.62305V220.271H46.8405V186.881Z" stroke="#292B3B" stroke-opacity="0.13"/>
<path d="M91.0592 186.881H46.8418V220.271H91.0592V186.881Z" stroke="#292B3B" stroke-opacity="0.13"/>
<path d="M135.276 186.881H91.0586V220.271H135.276V186.881Z" stroke="#292B3B" stroke-opacity="0.13"/>
<path d="M179.495 186.881H135.277V220.271H179.495V186.881Z" stroke="#292B3B" stroke-opacity="0.13"/>
<path d="M223.715 186.881H179.497V220.271H223.715V186.881Z" stroke="#292B3B" stroke-opacity="0.13"/>
<path d="M267.934 186.881H223.717V220.271H267.934V186.881Z" stroke="#292B3B" stroke-opacity="0.13"/>
<path d="M312.153 186.881H267.936V220.271H312.153V186.881Z" stroke="#292B3B" stroke-opacity="0.13"/>
<path d="M356.372 186.881H312.154V220.271H356.372V186.881Z" stroke="#292B3B" stroke-opacity="0.13"/>
<path d="M400.589 186.881H356.371V220.271H400.589V186.881Z" stroke="#292B3B" stroke-opacity="0.13"/>
<path d="M444.809 186.881H400.591V220.271H444.809V186.881Z" stroke="#292B3B" stroke-opacity="0.13"/>
<path d="M489.027 186.881H444.81V220.271H489.027V186.881Z" stroke="#292B3B" stroke-opacity="0.13"/>
</g>
</g>
<defs>
<radialGradient id="paint0_radial_12785_5355" cx="0" cy="0" r="1" gradientUnits="userSpaceOnUse" gradientTransform="translate(223.801 153.46) rotate(90) scale(408.055 595.092)">
<stop stop-color="white" stop-opacity="0.46"/>
<stop offset="0.54" stop-color="white" stop-opacity="0"/>
</radialGradient>
<clipPath id="clip0_12785_5355">
<rect width="448" height="307" fill="white"/>
</clipPath>
</defs>
</svg>
