<svg width="265" height="215" viewBox="0 0 265 215" fill="none" xmlns="http://www.w3.org/2000/svg">
<g opacity="0.7" clip-path="url(#clip0_12754_477)">
<mask id="mask0_12754_477" style="mask-type:alpha" maskUnits="userSpaceOnUse" x="0" y="-145" width="448" height="360">
<path d="M447.601 -145H0V214.907H447.601V-145Z" fill="url(#paint0_radial_12754_477)"/>
</mask>
<g mask="url(#mask0_12754_477)">
<path d="M2.62076 113.289H-41.5967V152.444H2.62076V113.289Z" stroke="#292B3B" stroke-opacity="0.13"/>
<path d="M46.8405 113.289H2.62305V152.444H46.8405V113.289Z" stroke="#292B3B" stroke-opacity="0.13"/>
<path d="M91.0592 113.289H46.8418V152.444H91.0592V113.289Z" stroke="#292B3B" stroke-opacity="0.13"/>
<path d="M135.276 113.289H91.0586V152.444H135.276V113.289Z" stroke="#292B3B" stroke-opacity="0.13"/>
<path d="M179.495 113.289H135.277V152.444H179.495V113.289Z" stroke="#292B3B" stroke-opacity="0.13"/>
<path d="M223.715 113.289H179.497V152.444H223.715V113.289Z" stroke="#292B3B" stroke-opacity="0.13"/>
<path d="M267.934 113.289H223.717V152.444H267.934V113.289Z" stroke="#292B3B" stroke-opacity="0.13"/>
<path d="M2.62076 152.434H-41.5967V191.588H2.62076V152.434Z" stroke="#292B3B" stroke-opacity="0.13"/>
<path d="M46.8405 152.434H2.62305V191.588H46.8405V152.434Z" stroke="#292B3B" stroke-opacity="0.13"/>
<path d="M91.0592 152.434H46.8418V191.588H91.0592V152.434Z" stroke="#292B3B" stroke-opacity="0.13"/>
<path d="M135.276 152.434H91.0586V191.588H135.276V152.434Z" stroke="#292B3B" stroke-opacity="0.13"/>
<path d="M179.495 152.434H135.277V191.588H179.495V152.434Z" stroke="#292B3B" stroke-opacity="0.13"/>
<path d="M223.715 152.434H179.497V191.588H223.715V152.434Z" stroke="#292B3B" stroke-opacity="0.13"/>
<path d="M267.934 152.434H223.717V191.588H267.934V152.434Z" stroke="#292B3B" stroke-opacity="0.13"/>
<path d="M2.62076 191.579H-41.5967V230.734H2.62076V191.579Z" stroke="#292B3B" stroke-opacity="0.13"/>
<path d="M46.8405 191.577H2.62305V230.732H46.8405V191.577Z" stroke="#292B3B" stroke-opacity="0.13"/>
<path d="M91.0592 191.577H46.8418V230.732H91.0592V191.577Z" stroke="#292B3B" stroke-opacity="0.13"/>
<path d="M135.276 191.577H91.0586V230.732H135.276V191.577Z" stroke="#292B3B" stroke-opacity="0.13"/>
<path d="M179.495 191.577H135.277V230.732H179.495V191.577Z" stroke="#292B3B" stroke-opacity="0.13"/>
<path d="M223.715 191.577H179.497V230.732H223.715V191.577Z" stroke="#292B3B" stroke-opacity="0.13"/>
<path d="M267.934 191.577H223.717V230.732H267.934V191.577Z" stroke="#292B3B" stroke-opacity="0.13"/>
<path d="M2.62076 -4.14551H-41.5967V35.0092H2.62076V-4.14551Z" stroke="#292B3B" stroke-opacity="0.13"/>
<path d="M46.8405 -4.14551H2.62305V35.0092H46.8405V-4.14551Z" stroke="#292B3B" stroke-opacity="0.13"/>
<path d="M91.0592 -4.14551H46.8418V35.0092H91.0592V-4.14551Z" stroke="#292B3B" stroke-opacity="0.13"/>
<path d="M135.276 -4.14551H91.0586V35.0092H135.276V-4.14551Z" stroke="#292B3B" stroke-opacity="0.13"/>
<path d="M179.495 -4.14551H135.277V35.0092H179.495V-4.14551Z" stroke="#292B3B" stroke-opacity="0.13"/>
<path d="M223.715 -4.14551H179.497V35.0092H223.715V-4.14551Z" stroke="#292B3B" stroke-opacity="0.13"/>
<path d="M267.934 -4.14551H223.717V35.0092H267.934V-4.14551Z" stroke="#292B3B" stroke-opacity="0.13"/>
<path d="M2.62076 35H-41.5967V74.1547H2.62076V35Z" stroke="#292B3B" stroke-opacity="0.13"/>
<path d="M46.8405 35H2.62305V74.1547H46.8405V35Z" stroke="#292B3B" stroke-opacity="0.13"/>
<path d="M91.0592 35H46.8418V74.1547H91.0592V35Z" stroke="#292B3B" stroke-opacity="0.13"/>
<path d="M135.276 35H91.0586V74.1547H135.276V35Z" stroke="#292B3B" stroke-opacity="0.13"/>
<path d="M179.495 35H135.277V74.1547H179.495V35Z" stroke="#292B3B" stroke-opacity="0.13"/>
<path d="M223.715 35H179.497V74.1547H223.715V35Z" stroke="#292B3B" stroke-opacity="0.13"/>
<path d="M267.934 35H223.717V74.1547H267.934V35Z" stroke="#292B3B" stroke-opacity="0.13"/>
<path d="M2.62076 74.1436H-41.5967V113.298H2.62076V74.1436Z" stroke="#292B3B" stroke-opacity="0.13"/>
<path d="M46.8405 74.1436H2.62305V113.298H46.8405V74.1436Z" stroke="#292B3B" stroke-opacity="0.13"/>
<path d="M91.0592 74.1436H46.8418V113.298H91.0592V74.1436Z" stroke="#292B3B" stroke-opacity="0.13"/>
<path d="M135.276 74.1445H91.0586V113.299H135.276V74.1445Z" stroke="#292B3B" stroke-opacity="0.13"/>
<path d="M179.495 74.1436H135.277V113.298H179.495V74.1436Z" stroke="#292B3B" stroke-opacity="0.13"/>
<path d="M223.715 74.1436H179.497V113.298H223.715V74.1436Z" stroke="#292B3B" stroke-opacity="0.13"/>
<path d="M267.934 74.1445H223.717V113.299H267.934V74.1445Z" stroke="#292B3B" stroke-opacity="0.13"/>
</g>
</g>
<defs>
<radialGradient id="paint0_radial_12754_477" cx="0" cy="0" r="1" gradientUnits="userSpaceOnUse" gradientTransform="translate(223.801 34.9534) rotate(90) scale(478.501 595.092)">
<stop stop-color="white" stop-opacity="0.46"/>
<stop offset="0.54" stop-color="white" stop-opacity="0"/>
</radialGradient>
<clipPath id="clip0_12754_477">
<rect width="448" height="360" fill="white" transform="translate(0 -145)"/>
</clipPath>
</defs>
</svg>
