<svg width="600" height="402" viewBox="0 0 600 402" fill="none" xmlns="http://www.w3.org/2000/svg">
<g opacity="0.8" clip-path="url(#clip0_12743_174)">
<mask id="mask0_12743_174" style="mask-type:alpha" maskUnits="userSpaceOnUse" x="-63" y="-95" width="726" height="497">
<path d="M662.354 -95H-63V401.871H662.354V-95Z" fill="url(#paint0_radial_12743_174)"/>
</mask>
<g mask="url(#mask0_12743_174)">
<path d="M12.9067 261.582H-58.7493V315.637H12.9067V261.582Z" stroke="white"/>
<path d="M84.5647 261.582H12.9088V315.637H84.5647V261.582Z" stroke="white"/>
<path d="M156.22 261.582H84.5637V315.637H156.22V261.582Z" stroke="white"/>
<path d="M227.878 261.582H156.222V315.637H227.878V261.582Z" stroke="white"/>
<path d="M299.537 261.582H227.881V315.637H299.537V261.582Z" stroke="white"/>
<path d="M371.197 261.582H299.541V315.637H371.197V261.582Z" stroke="white"/>
<path d="M442.855 261.582H371.199V315.637H442.855V261.582Z" stroke="white"/>
<path d="M514.513 261.582H442.857V315.637H514.513V261.582Z" stroke="white"/>
<path d="M586.168 261.582H514.512V315.637H586.168V261.582Z" stroke="white"/>
<path d="M657.828 261.582H586.172V315.637H657.828V261.582Z" stroke="white"/>
<path d="M12.9067 315.623H-58.7493V369.679H12.9067V315.623Z" stroke="white"/>
<path d="M84.5647 315.623H12.9088V369.679H84.5647V315.623Z" stroke="white"/>
<path d="M156.22 315.623H84.5637V369.679H156.22V315.623Z" stroke="white"/>
<path d="M227.878 315.623H156.222V369.679H227.878V315.623Z" stroke="white"/>
<path d="M299.537 315.623H227.881V369.679H299.537V315.623Z" stroke="white"/>
<path d="M371.197 315.623H299.541V369.679H371.197V315.623Z" stroke="white"/>
<path d="M442.855 315.623H371.199V369.679H442.855V315.623Z" stroke="white"/>
<path d="M514.513 315.623H442.857V369.679H514.513V315.623Z" stroke="white"/>
<path d="M586.17 315.623H514.514V369.679H586.17V315.623Z" stroke="white"/>
<path d="M657.828 315.623H586.172V369.679H657.828V315.623Z" stroke="white"/>
<path d="M12.9067 369.663H-58.7493V423.719H12.9067V369.663Z" stroke="white"/>
<path d="M84.5647 369.663H12.9088V423.719H84.5647V369.663Z" stroke="white"/>
<path d="M156.22 369.663H84.5637V423.719H156.22V369.663Z" stroke="white"/>
<path d="M227.878 369.663H156.222V423.719H227.878V369.663Z" stroke="white"/>
<path d="M299.537 369.663H227.881V423.719H299.537V369.663Z" stroke="white"/>
<path d="M371.197 369.663H299.541V423.719H371.197V369.663Z" stroke="white"/>
<path d="M442.855 369.663H371.199V423.719H442.855V369.663Z" stroke="white"/>
<path d="M514.513 369.663H442.857V423.719H514.513V369.663Z" stroke="white"/>
<path d="M586.17 369.665H514.514V423.72H586.17V369.665Z" stroke="white"/>
<path d="M657.828 369.665H586.172V423.72H657.828V369.665Z" stroke="white"/>
<path d="M12.9067 -8.62634H-58.7493V45.4289H12.9067V-8.62634Z" stroke="white"/>
<path d="M84.5647 -8.62634H12.9088V45.4289H84.5647V-8.62634Z" stroke="white"/>
<path d="M156.22 -8.62634H84.5637V45.4289H156.22V-8.62634Z" stroke="white"/>
<path d="M227.878 -8.62634H156.222V45.4289H227.878V-8.62634Z" stroke="white"/>
<path d="M299.537 -8.62634H227.881V45.4289H299.537V-8.62634Z" stroke="white"/>
<path d="M371.197 -8.62634H299.541V45.4289H371.197V-8.62634Z" stroke="white"/>
<path d="M442.855 -8.62634H371.199V45.4289H442.855V-8.62634Z" stroke="white"/>
<path d="M514.513 -8.62634H442.857V45.4289H514.513V-8.62634Z" stroke="white"/>
<path d="M586.17 -8.62476H514.514V45.4305H586.17V-8.62476Z" stroke="white"/>
<path d="M657.828 -8.62476H586.172V45.4305H657.828V-8.62476Z" stroke="white"/>
<path d="M12.9067 45.4167H-58.7493V99.472H12.9067V45.4167Z" stroke="white"/>
<path d="M84.5647 45.4167H12.9088V99.472H84.5647V45.4167Z" stroke="white"/>
<path d="M156.22 45.4167H84.5637V99.472H156.22V45.4167Z" stroke="white"/>
<path d="M227.878 45.4167H156.222V99.472H227.878V45.4167Z" stroke="white"/>
<path d="M299.537 45.4167H227.881V99.472H299.537V45.4167Z" stroke="white"/>
<path d="M371.197 45.4167H299.541V99.472H371.197V45.4167Z" stroke="white"/>
<path d="M442.855 45.4167H371.199V99.472H442.855V45.4167Z" stroke="white"/>
<path d="M514.513 45.4167H442.857V99.472H514.513V45.4167Z" stroke="white"/>
<path d="M586.168 45.4167H514.512V99.472H586.168V45.4167Z" stroke="white"/>
<path d="M657.828 45.4167H586.172V99.472H657.828V45.4167Z" stroke="white"/>
<path d="M12.9067 99.4568H-58.7493V153.512H12.9067V99.4568Z" stroke="white"/>
<path d="M84.5647 99.4568H12.9088V153.512H84.5647V99.4568Z" stroke="white"/>
<path d="M156.22 99.4568H84.5637V153.512H156.22V99.4568Z" stroke="white"/>
<path d="M227.878 99.4568H156.222V153.512H227.878V99.4568Z" stroke="white"/>
<path d="M299.537 99.4568H227.881V153.512H299.537V99.4568Z" stroke="white"/>
<path d="M371.197 99.4568H299.541V153.512H371.197V99.4568Z" stroke="white"/>
<path d="M442.855 99.4568H371.199V153.512H442.855V99.4568Z" stroke="white"/>
<path d="M514.513 99.4568H442.857V153.512H514.513V99.4568Z" stroke="white"/>
<path d="M586.168 99.4568H514.512V153.512H586.168V99.4568Z" stroke="white"/>
<path d="M657.828 99.4584H586.172V153.514H657.828V99.4584Z" stroke="white"/>
<path d="M12.9067 153.5H-58.7493V207.555H12.9067V153.5Z" stroke="white"/>
<path d="M84.5647 153.5H12.9088V207.555H84.5647V153.5Z" stroke="white"/>
<path d="M156.22 153.5H84.5637V207.555H156.22V153.5Z" stroke="white"/>
<path d="M227.878 153.5H156.222V207.555H227.878V153.5Z" stroke="white"/>
<path d="M299.537 153.5H227.881V207.555H299.537V153.5Z" stroke="white"/>
<path d="M371.197 153.5H299.541V207.555H371.197V153.5Z" stroke="white"/>
<path d="M442.855 153.5H371.199V207.555H442.855V153.5Z" stroke="white"/>
<path d="M514.513 153.5H442.857V207.555H514.513V153.5Z" stroke="white"/>
<path d="M586.17 153.5H514.514V207.555H586.17V153.5Z" stroke="white"/>
<path d="M657.828 153.5H586.172V207.555H657.828V153.5Z" stroke="white"/>
<path d="M12.9067 207.54H-58.7493V261.595H12.9067V207.54Z" stroke="white"/>
<path d="M84.5647 207.54H12.9088V261.595H84.5647V207.54Z" stroke="white"/>
<path d="M156.22 207.54H84.5637V261.595H156.22V207.54Z" stroke="white"/>
<path d="M227.878 207.54H156.222V261.595H227.878V207.54Z" stroke="white"/>
<path d="M299.537 207.54H227.881V261.595H299.537V207.54Z" stroke="white"/>
<path d="M371.197 207.54H299.541V261.595H371.197V207.54Z" stroke="white"/>
<path d="M442.855 207.54H371.199V261.595H442.855V207.54Z" stroke="white"/>
<path d="M514.513 207.54H442.857V261.595H514.513V207.54Z" stroke="white"/>
<path d="M586.168 207.54H514.512V261.595H586.168V207.54Z" stroke="white"/>
<path d="M657.828 207.54H586.172V261.595H657.828V207.54Z" stroke="white"/>
</g>
</g>
<defs>
<radialGradient id="paint0_radial_12743_174" cx="0" cy="0" r="1" gradientUnits="userSpaceOnUse" gradientTransform="translate(299.677 153.436) rotate(90) scale(660.597 964.368)">
<stop stop-color="white" stop-opacity="0.46"/>
<stop offset="0.54" stop-color="white" stop-opacity="0"/>
</radialGradient>
<clipPath id="clip0_12743_174">
<rect width="726" height="497" fill="white" transform="translate(-63 -95)"/>
</clipPath>
</defs>
</svg>
