<svg width="1160" height="321" viewBox="0 0 1160 321" fill="none" xmlns="http://www.w3.org/2000/svg">
<g clip-path="url(#clip0_16736_3460)">
<mask id="mask0_16736_3460" style="mask-type:alpha" maskUnits="userSpaceOnUse" x="0" y="0" width="1175" height="503">
<path d="M1174.4 0H0V502.717H1174.4V0Z" fill="url(#paint0_linear_16736_3460)"/>
<path d="M0.5 0.5H1173.9V502.217H0.5V0.5Z" stroke="#292B3B" stroke-opacity="0.15"/>
</mask>
<g mask="url(#mask0_16736_3460)">
<path d="M7.01595 321.243H-109V375.934H7.01595V321.243Z" fill="url(#paint1_linear_16736_3460)" stroke="#292B3B" stroke-opacity="0.15"/>
<path d="M123.038 321.243H7.02197V375.934H123.038V321.243Z" fill="url(#paint2_linear_16736_3460)" stroke="#292B3B" stroke-opacity="0.15"/>
<path d="M239.057 321.243H123.041V375.934H239.057V321.243Z" fill="url(#paint3_linear_16736_3460)" stroke="#292B3B" stroke-opacity="0.15"/>
<path d="M355.072 321.243H239.056V375.934H355.072V321.243Z" fill="url(#paint4_linear_16736_3460)" stroke="#292B3B" stroke-opacity="0.15"/>
<path d="M471.091 321.243H355.075V375.934H471.091V321.243Z" fill="url(#paint5_linear_16736_3460)" stroke="#292B3B" stroke-opacity="0.15"/>
<path d="M587.113 321.243H471.097V375.934H587.113V321.243Z" fill="url(#paint6_linear_16736_3460)" stroke="#292B3B" stroke-opacity="0.15"/>
<path d="M703.135 321.243H587.119V375.934H703.135V321.243Z" fill="url(#paint7_linear_16736_3460)" stroke="#292B3B" stroke-opacity="0.15"/>
<path d="M819.154 321.243H703.138V375.934H819.154V321.243Z" fill="url(#paint8_linear_16736_3460)" stroke="#292B3B" stroke-opacity="0.15"/>
<path d="M935.174 321.243H819.158V375.934H935.174V321.243Z" fill="url(#paint9_linear_16736_3460)" stroke="#292B3B" stroke-opacity="0.15"/>
<path d="M1051.19 321.243H935.172V375.934H1051.19V321.243Z" fill="url(#paint10_linear_16736_3460)" stroke="#292B3B" stroke-opacity="0.15"/>
<path d="M1167.21 321.243H1051.19V375.934H1167.21V321.243Z" fill="url(#paint11_linear_16736_3460)" stroke="#292B3B" stroke-opacity="0.15"/>
<path d="M7.01595 -6.82031H-109V47.871H7.01595V-6.82031Z" fill="url(#paint12_linear_16736_3460)" stroke="#292B3B" stroke-opacity="0.15"/>
<path d="M123.038 -6.82031H7.02197V47.871H123.038V-6.82031Z" fill="url(#paint13_linear_16736_3460)" stroke="#292B3B" stroke-opacity="0.15"/>
<path d="M239.057 -6.82031H123.041V47.871H239.057V-6.82031Z" fill="url(#paint14_linear_16736_3460)" stroke="#292B3B" stroke-opacity="0.15"/>
<path d="M355.072 -6.82031H239.056V47.871H355.072V-6.82031Z" fill="url(#paint15_linear_16736_3460)" stroke="#292B3B" stroke-opacity="0.15"/>
<path d="M471.091 -6.82031H355.075V47.871H471.091V-6.82031Z" fill="url(#paint16_linear_16736_3460)" stroke="#292B3B" stroke-opacity="0.15"/>
<path d="M587.113 -6.82031H471.097V47.871H587.113V-6.82031Z" fill="url(#paint17_linear_16736_3460)" stroke="#292B3B" stroke-opacity="0.15"/>
<path d="M703.135 -6.82031H587.119V47.871H703.135V-6.82031Z" fill="url(#paint18_linear_16736_3460)" stroke="#292B3B" stroke-opacity="0.15"/>
<path d="M819.154 -6.82031H703.138V47.871H819.154V-6.82031Z" fill="url(#paint19_linear_16736_3460)" stroke="#292B3B" stroke-opacity="0.15"/>
<path d="M935.174 -6.82031H819.158V47.871H935.174V-6.82031Z" fill="url(#paint20_linear_16736_3460)" stroke="#292B3B" stroke-opacity="0.15"/>
<path d="M1051.19 -6.82031H935.172V47.871H1051.19V-6.82031Z" fill="url(#paint21_linear_16736_3460)" stroke="#292B3B" stroke-opacity="0.15"/>
<path d="M1167.21 -6.82031H1051.19V47.871H1167.21V-6.82031Z" fill="url(#paint22_linear_16736_3460)" stroke="#292B3B" stroke-opacity="0.15"/>
<path d="M7.01595 47.8574H-109V102.549H7.01595V47.8574Z" fill="url(#paint23_linear_16736_3460)" stroke="#292B3B" stroke-opacity="0.15"/>
<path d="M123.038 47.8555H7.02197V102.547H123.038V47.8555Z" fill="url(#paint24_linear_16736_3460)" stroke="#292B3B" stroke-opacity="0.15"/>
<path d="M239.057 47.8555H123.041V102.547H239.057V47.8555Z" fill="url(#paint25_linear_16736_3460)" stroke="#292B3B" stroke-opacity="0.15"/>
<path d="M355.072 47.8555H239.056V102.547H355.072V47.8555Z" fill="url(#paint26_linear_16736_3460)" stroke="#292B3B" stroke-opacity="0.15"/>
<path d="M471.091 47.8555H355.075V102.547H471.091V47.8555Z" fill="url(#paint27_linear_16736_3460)" stroke="#292B3B" stroke-opacity="0.15"/>
<path d="M587.113 47.8555H471.097V102.547H587.113V47.8555Z" fill="url(#paint28_linear_16736_3460)" stroke="#292B3B" stroke-opacity="0.15"/>
<path d="M703.135 47.8555H587.119V102.547H703.135V47.8555Z" fill="url(#paint29_linear_16736_3460)" stroke="#292B3B" stroke-opacity="0.15"/>
<path d="M819.154 47.8555H703.138V102.547H819.154V47.8555Z" fill="url(#paint30_linear_16736_3460)" stroke="#292B3B" stroke-opacity="0.15"/>
<path d="M935.174 47.8555H819.158V102.547H935.174V47.8555Z" fill="url(#paint31_linear_16736_3460)" stroke="#292B3B" stroke-opacity="0.15"/>
<path d="M1051.19 47.8574H935.174V102.549H1051.19V47.8574Z" fill="url(#paint32_linear_16736_3460)" stroke="#292B3B" stroke-opacity="0.15"/>
<path d="M1167.21 47.8574H1051.19V102.549H1167.21V47.8574Z" fill="url(#paint33_linear_16736_3460)" stroke="#292B3B" stroke-opacity="0.15"/>
<path d="M7.01595 102.535H-109V157.226H7.01595V102.535Z" fill="url(#paint34_linear_16736_3460)" stroke="#292B3B" stroke-opacity="0.15"/>
<path d="M123.038 102.535H7.02197V157.226H123.038V102.535Z" fill="url(#paint35_linear_16736_3460)" stroke="#292B3B" stroke-opacity="0.15"/>
<path d="M239.057 102.535H123.041V157.226H239.057V102.535Z" fill="url(#paint36_linear_16736_3460)" stroke="#292B3B" stroke-opacity="0.15"/>
<path d="M355.072 102.535H239.056V157.226H355.072V102.535Z" fill="url(#paint37_linear_16736_3460)" stroke="#292B3B" stroke-opacity="0.15"/>
<path d="M471.091 102.535H355.075V157.226H471.091V102.535Z" fill="url(#paint38_linear_16736_3460)" stroke="#292B3B" stroke-opacity="0.15"/>
<path d="M587.113 102.535H471.097V157.226H587.113V102.535Z" fill="url(#paint39_linear_16736_3460)" stroke="#292B3B" stroke-opacity="0.15"/>
<path d="M703.135 102.535H587.119V157.226H703.135V102.535Z" fill="url(#paint40_linear_16736_3460)" stroke="#292B3B" stroke-opacity="0.15"/>
<path d="M819.154 102.535H703.138V157.226H819.154V102.535Z" fill="url(#paint41_linear_16736_3460)" stroke="#292B3B" stroke-opacity="0.15"/>
<path d="M935.174 102.535H819.158V157.226H935.174V102.535Z" fill="url(#paint42_linear_16736_3460)" stroke="#292B3B" stroke-opacity="0.15"/>
<path d="M1051.19 102.535H935.172V157.226H1051.19V102.535Z" fill="url(#paint43_linear_16736_3460)" stroke="#292B3B" stroke-opacity="0.15"/>
<path d="M1167.21 102.535H1051.19V157.226H1167.21V102.535Z" fill="url(#paint44_linear_16736_3460)" stroke="#292B3B" stroke-opacity="0.15"/>
<path d="M7.01595 157.21H-109V211.902H7.01595V157.21Z" fill="url(#paint45_linear_16736_3460)" stroke="#292B3B" stroke-opacity="0.15"/>
<path d="M123.038 157.21H7.02197V211.902H123.038V157.21Z" fill="url(#paint46_linear_16736_3460)" stroke="#292B3B" stroke-opacity="0.15"/>
<path d="M239.057 157.21H123.041V211.902H239.057V157.21Z" fill="url(#paint47_linear_16736_3460)" stroke="#292B3B" stroke-opacity="0.15"/>
<path d="M355.072 157.21H239.056V211.902H355.072V157.21Z" fill="url(#paint48_linear_16736_3460)" stroke="#292B3B" stroke-opacity="0.15"/>
<path d="M471.091 157.21H355.075V211.902H471.091V157.21Z" fill="url(#paint49_linear_16736_3460)" stroke="#292B3B" stroke-opacity="0.15"/>
<path d="M587.113 157.21H471.097V211.902H587.113V157.21Z" fill="url(#paint50_linear_16736_3460)" stroke="#292B3B" stroke-opacity="0.15"/>
<path d="M703.135 157.21H587.119V211.902H703.135V157.21Z" fill="url(#paint51_linear_16736_3460)" stroke="#292B3B" stroke-opacity="0.15"/>
<path d="M819.154 157.21H703.138V211.902H819.154V157.21Z" fill="url(#paint52_linear_16736_3460)" stroke="#292B3B" stroke-opacity="0.15"/>
<path d="M935.174 157.21H819.158V211.902H935.174V157.21Z" fill="url(#paint53_linear_16736_3460)" stroke="#292B3B" stroke-opacity="0.15"/>
<path d="M1051.19 157.21H935.172V211.902H1051.19V157.21Z" fill="url(#paint54_linear_16736_3460)" stroke="#292B3B" stroke-opacity="0.15"/>
<path d="M1167.21 157.212H1051.19V211.903H1167.21V157.212Z" fill="url(#paint55_linear_16736_3460)" stroke="#292B3B" stroke-opacity="0.15"/>
<path d="M7.01595 211.89H-109V266.581H7.01595V211.89Z" fill="url(#paint56_linear_16736_3460)" stroke="#292B3B" stroke-opacity="0.15"/>
<path d="M123.038 211.89H7.02197V266.581H123.038V211.89Z" fill="url(#paint57_linear_16736_3460)" stroke="#292B3B" stroke-opacity="0.15"/>
<path d="M239.057 211.89H123.041V266.581H239.057V211.89Z" fill="url(#paint58_linear_16736_3460)" stroke="#292B3B" stroke-opacity="0.15"/>
<path d="M355.072 211.89H239.056V266.581H355.072V211.89Z" fill="url(#paint59_linear_16736_3460)" stroke="#292B3B" stroke-opacity="0.15"/>
<path d="M471.091 211.89H355.075V266.581H471.091V211.89Z" fill="url(#paint60_linear_16736_3460)" stroke="#292B3B" stroke-opacity="0.15"/>
<path d="M587.113 211.89H471.097V266.581H587.113V211.89Z" fill="url(#paint61_linear_16736_3460)" stroke="#292B3B" stroke-opacity="0.15"/>
<path d="M703.135 211.89H587.119V266.581H703.135V211.89Z" fill="url(#paint62_linear_16736_3460)" stroke="#292B3B" stroke-opacity="0.15"/>
<path d="M819.154 211.89H703.138V266.581H819.154V211.89Z" fill="url(#paint63_linear_16736_3460)" stroke="#292B3B" stroke-opacity="0.15"/>
<path d="M935.174 211.89H819.158V266.581H935.174V211.89Z" fill="url(#paint64_linear_16736_3460)" stroke="#292B3B" stroke-opacity="0.15"/>
<path d="M1051.19 211.89H935.174V266.581H1051.19V211.89Z" fill="url(#paint65_linear_16736_3460)" stroke="#292B3B" stroke-opacity="0.15"/>
<path d="M1167.21 211.89H1051.19V266.581H1167.21V211.89Z" fill="url(#paint66_linear_16736_3460)" stroke="#292B3B" stroke-opacity="0.15"/>
<path d="M7.01595 266.565H-109V321.257H7.01595V266.565Z" fill="url(#paint67_linear_16736_3460)" stroke="#292B3B" stroke-opacity="0.15"/>
<path d="M123.038 266.565H7.02197V321.257H123.038V266.565Z" fill="url(#paint68_linear_16736_3460)" stroke="#292B3B" stroke-opacity="0.15"/>
<path d="M239.057 266.565H123.041V321.257H239.057V266.565Z" fill="url(#paint69_linear_16736_3460)" stroke="#292B3B" stroke-opacity="0.15"/>
<path d="M355.072 266.565H239.056V321.257H355.072V266.565Z" fill="url(#paint70_linear_16736_3460)" stroke="#292B3B" stroke-opacity="0.15"/>
<path d="M471.091 266.565H355.075V321.257H471.091V266.565Z" fill="url(#paint71_linear_16736_3460)" stroke="#292B3B" stroke-opacity="0.15"/>
<path d="M587.113 266.565H471.097V321.257H587.113V266.565Z" fill="url(#paint72_linear_16736_3460)" stroke="#292B3B" stroke-opacity="0.15"/>
<path d="M703.135 266.565H587.119V321.257H703.135V266.565Z" fill="url(#paint73_linear_16736_3460)" stroke="#292B3B" stroke-opacity="0.15"/>
<path d="M819.154 266.565H703.138V321.257H819.154V266.565Z" fill="url(#paint74_linear_16736_3460)" stroke="#292B3B" stroke-opacity="0.15"/>
<path d="M935.174 266.565H819.158V321.257H935.174V266.565Z" fill="url(#paint75_linear_16736_3460)" stroke="#292B3B" stroke-opacity="0.15"/>
<path d="M1051.19 266.565H935.172V321.257H1051.19V266.565Z" fill="url(#paint76_linear_16736_3460)" stroke="#292B3B" stroke-opacity="0.15"/>
<path d="M1167.21 266.565H1051.19V321.257H1167.21V266.565Z" fill="url(#paint77_linear_16736_3460)" stroke="#292B3B" stroke-opacity="0.15"/>
</g>
</g>
<defs>
<linearGradient id="paint0_linear_16736_3460" x1="587.199" y1="-417.01" x2="587.199" y2="919.728" gradientUnits="userSpaceOnUse">
<stop stop-color="white" stop-opacity="0.46"/>
<stop offset="0.575" stop-color="white" stop-opacity="0"/>
</linearGradient>
<linearGradient id="paint1_linear_16736_3460" x1="-50.992" y1="275.876" x2="-50.992" y2="421.301" gradientUnits="userSpaceOnUse">
<stop stop-color="white" stop-opacity="0.46"/>
<stop offset="0.575" stop-color="white" stop-opacity="0"/>
</linearGradient>
<linearGradient id="paint2_linear_16736_3460" x1="65.0299" y1="275.876" x2="65.0299" y2="421.301" gradientUnits="userSpaceOnUse">
<stop stop-color="white" stop-opacity="0.46"/>
<stop offset="0.575" stop-color="white" stop-opacity="0"/>
</linearGradient>
<linearGradient id="paint3_linear_16736_3460" x1="181.049" y1="275.876" x2="181.049" y2="421.301" gradientUnits="userSpaceOnUse">
<stop stop-color="white" stop-opacity="0.46"/>
<stop offset="0.575" stop-color="white" stop-opacity="0"/>
</linearGradient>
<linearGradient id="paint4_linear_16736_3460" x1="297.064" y1="275.876" x2="297.064" y2="421.301" gradientUnits="userSpaceOnUse">
<stop stop-color="white" stop-opacity="0.46"/>
<stop offset="0.575" stop-color="white" stop-opacity="0"/>
</linearGradient>
<linearGradient id="paint5_linear_16736_3460" x1="413.083" y1="275.876" x2="413.083" y2="421.301" gradientUnits="userSpaceOnUse">
<stop stop-color="white" stop-opacity="0.46"/>
<stop offset="0.575" stop-color="white" stop-opacity="0"/>
</linearGradient>
<linearGradient id="paint6_linear_16736_3460" x1="529.105" y1="275.876" x2="529.105" y2="421.301" gradientUnits="userSpaceOnUse">
<stop stop-color="white" stop-opacity="0.46"/>
<stop offset="0.575" stop-color="white" stop-opacity="0"/>
</linearGradient>
<linearGradient id="paint7_linear_16736_3460" x1="645.127" y1="275.876" x2="645.127" y2="421.301" gradientUnits="userSpaceOnUse">
<stop stop-color="white" stop-opacity="0.46"/>
<stop offset="0.575" stop-color="white" stop-opacity="0"/>
</linearGradient>
<linearGradient id="paint8_linear_16736_3460" x1="761.146" y1="275.876" x2="761.146" y2="421.301" gradientUnits="userSpaceOnUse">
<stop stop-color="white" stop-opacity="0.46"/>
<stop offset="0.575" stop-color="white" stop-opacity="0"/>
</linearGradient>
<linearGradient id="paint9_linear_16736_3460" x1="877.166" y1="275.876" x2="877.166" y2="421.301" gradientUnits="userSpaceOnUse">
<stop stop-color="white" stop-opacity="0.46"/>
<stop offset="0.575" stop-color="white" stop-opacity="0"/>
</linearGradient>
<linearGradient id="paint10_linear_16736_3460" x1="993.18" y1="275.876" x2="993.18" y2="421.301" gradientUnits="userSpaceOnUse">
<stop stop-color="white" stop-opacity="0.46"/>
<stop offset="0.575" stop-color="white" stop-opacity="0"/>
</linearGradient>
<linearGradient id="paint11_linear_16736_3460" x1="1109.2" y1="275.876" x2="1109.2" y2="421.301" gradientUnits="userSpaceOnUse">
<stop stop-color="white" stop-opacity="0.46"/>
<stop offset="0.575" stop-color="white" stop-opacity="0"/>
</linearGradient>
<linearGradient id="paint12_linear_16736_3460" x1="-50.992" y1="-52.1874" x2="-50.992" y2="93.2381" gradientUnits="userSpaceOnUse">
<stop stop-color="white" stop-opacity="0.46"/>
<stop offset="0.575" stop-color="white" stop-opacity="0"/>
</linearGradient>
<linearGradient id="paint13_linear_16736_3460" x1="65.0299" y1="-52.1874" x2="65.0299" y2="93.2381" gradientUnits="userSpaceOnUse">
<stop stop-color="white" stop-opacity="0.46"/>
<stop offset="0.575" stop-color="white" stop-opacity="0"/>
</linearGradient>
<linearGradient id="paint14_linear_16736_3460" x1="181.049" y1="-52.1874" x2="181.049" y2="93.2381" gradientUnits="userSpaceOnUse">
<stop stop-color="white" stop-opacity="0.46"/>
<stop offset="0.575" stop-color="white" stop-opacity="0"/>
</linearGradient>
<linearGradient id="paint15_linear_16736_3460" x1="297.064" y1="-52.1874" x2="297.064" y2="93.2381" gradientUnits="userSpaceOnUse">
<stop stop-color="white" stop-opacity="0.46"/>
<stop offset="0.575" stop-color="white" stop-opacity="0"/>
</linearGradient>
<linearGradient id="paint16_linear_16736_3460" x1="413.083" y1="-52.1874" x2="413.083" y2="93.2381" gradientUnits="userSpaceOnUse">
<stop stop-color="white" stop-opacity="0.46"/>
<stop offset="0.575" stop-color="white" stop-opacity="0"/>
</linearGradient>
<linearGradient id="paint17_linear_16736_3460" x1="529.105" y1="-52.1874" x2="529.105" y2="93.2381" gradientUnits="userSpaceOnUse">
<stop stop-color="white" stop-opacity="0.46"/>
<stop offset="0.575" stop-color="white" stop-opacity="0"/>
</linearGradient>
<linearGradient id="paint18_linear_16736_3460" x1="645.127" y1="-52.1874" x2="645.127" y2="93.2381" gradientUnits="userSpaceOnUse">
<stop stop-color="white" stop-opacity="0.46"/>
<stop offset="0.575" stop-color="white" stop-opacity="0"/>
</linearGradient>
<linearGradient id="paint19_linear_16736_3460" x1="761.146" y1="-52.1874" x2="761.146" y2="93.2381" gradientUnits="userSpaceOnUse">
<stop stop-color="white" stop-opacity="0.46"/>
<stop offset="0.575" stop-color="white" stop-opacity="0"/>
</linearGradient>
<linearGradient id="paint20_linear_16736_3460" x1="877.166" y1="-52.1874" x2="877.166" y2="93.2381" gradientUnits="userSpaceOnUse">
<stop stop-color="white" stop-opacity="0.46"/>
<stop offset="0.575" stop-color="white" stop-opacity="0"/>
</linearGradient>
<linearGradient id="paint21_linear_16736_3460" x1="993.18" y1="-52.1874" x2="993.18" y2="93.2381" gradientUnits="userSpaceOnUse">
<stop stop-color="white" stop-opacity="0.46"/>
<stop offset="0.575" stop-color="white" stop-opacity="0"/>
</linearGradient>
<linearGradient id="paint22_linear_16736_3460" x1="1109.2" y1="-52.1874" x2="1109.2" y2="93.2381" gradientUnits="userSpaceOnUse">
<stop stop-color="white" stop-opacity="0.46"/>
<stop offset="0.575" stop-color="white" stop-opacity="0"/>
</linearGradient>
<linearGradient id="paint23_linear_16736_3460" x1="-50.992" y1="2.49032" x2="-50.992" y2="147.916" gradientUnits="userSpaceOnUse">
<stop stop-color="white" stop-opacity="0.46"/>
<stop offset="0.575" stop-color="white" stop-opacity="0"/>
</linearGradient>
<linearGradient id="paint24_linear_16736_3460" x1="65.0299" y1="2.48837" x2="65.0299" y2="147.914" gradientUnits="userSpaceOnUse">
<stop stop-color="white" stop-opacity="0.46"/>
<stop offset="0.575" stop-color="white" stop-opacity="0"/>
</linearGradient>
<linearGradient id="paint25_linear_16736_3460" x1="181.049" y1="2.48837" x2="181.049" y2="147.914" gradientUnits="userSpaceOnUse">
<stop stop-color="white" stop-opacity="0.46"/>
<stop offset="0.575" stop-color="white" stop-opacity="0"/>
</linearGradient>
<linearGradient id="paint26_linear_16736_3460" x1="297.064" y1="2.48837" x2="297.064" y2="147.914" gradientUnits="userSpaceOnUse">
<stop stop-color="white" stop-opacity="0.46"/>
<stop offset="0.575" stop-color="white" stop-opacity="0"/>
</linearGradient>
<linearGradient id="paint27_linear_16736_3460" x1="413.083" y1="2.48837" x2="413.083" y2="147.914" gradientUnits="userSpaceOnUse">
<stop stop-color="white" stop-opacity="0.46"/>
<stop offset="0.575" stop-color="white" stop-opacity="0"/>
</linearGradient>
<linearGradient id="paint28_linear_16736_3460" x1="529.105" y1="2.48837" x2="529.105" y2="147.914" gradientUnits="userSpaceOnUse">
<stop stop-color="white" stop-opacity="0.46"/>
<stop offset="0.575" stop-color="white" stop-opacity="0"/>
</linearGradient>
<linearGradient id="paint29_linear_16736_3460" x1="645.127" y1="2.48837" x2="645.127" y2="147.914" gradientUnits="userSpaceOnUse">
<stop stop-color="white" stop-opacity="0.46"/>
<stop offset="0.575" stop-color="white" stop-opacity="0"/>
</linearGradient>
<linearGradient id="paint30_linear_16736_3460" x1="761.146" y1="2.48837" x2="761.146" y2="147.914" gradientUnits="userSpaceOnUse">
<stop stop-color="white" stop-opacity="0.46"/>
<stop offset="0.575" stop-color="white" stop-opacity="0"/>
</linearGradient>
<linearGradient id="paint31_linear_16736_3460" x1="877.166" y1="2.48837" x2="877.166" y2="147.914" gradientUnits="userSpaceOnUse">
<stop stop-color="white" stop-opacity="0.46"/>
<stop offset="0.575" stop-color="white" stop-opacity="0"/>
</linearGradient>
<linearGradient id="paint32_linear_16736_3460" x1="993.182" y1="2.49032" x2="993.182" y2="147.916" gradientUnits="userSpaceOnUse">
<stop stop-color="white" stop-opacity="0.46"/>
<stop offset="0.575" stop-color="white" stop-opacity="0"/>
</linearGradient>
<linearGradient id="paint33_linear_16736_3460" x1="1109.2" y1="2.49032" x2="1109.2" y2="147.916" gradientUnits="userSpaceOnUse">
<stop stop-color="white" stop-opacity="0.46"/>
<stop offset="0.575" stop-color="white" stop-opacity="0"/>
</linearGradient>
<linearGradient id="paint34_linear_16736_3460" x1="-50.992" y1="57.1676" x2="-50.992" y2="202.593" gradientUnits="userSpaceOnUse">
<stop stop-color="white" stop-opacity="0.46"/>
<stop offset="0.575" stop-color="white" stop-opacity="0"/>
</linearGradient>
<linearGradient id="paint35_linear_16736_3460" x1="65.0299" y1="57.1676" x2="65.0299" y2="202.593" gradientUnits="userSpaceOnUse">
<stop stop-color="white" stop-opacity="0.46"/>
<stop offset="0.575" stop-color="white" stop-opacity="0"/>
</linearGradient>
<linearGradient id="paint36_linear_16736_3460" x1="181.049" y1="57.1676" x2="181.049" y2="202.593" gradientUnits="userSpaceOnUse">
<stop stop-color="white" stop-opacity="0.46"/>
<stop offset="0.575" stop-color="white" stop-opacity="0"/>
</linearGradient>
<linearGradient id="paint37_linear_16736_3460" x1="297.064" y1="57.1676" x2="297.064" y2="202.593" gradientUnits="userSpaceOnUse">
<stop stop-color="white" stop-opacity="0.46"/>
<stop offset="0.575" stop-color="white" stop-opacity="0"/>
</linearGradient>
<linearGradient id="paint38_linear_16736_3460" x1="413.083" y1="57.1676" x2="413.083" y2="202.593" gradientUnits="userSpaceOnUse">
<stop stop-color="white" stop-opacity="0.46"/>
<stop offset="0.575" stop-color="white" stop-opacity="0"/>
</linearGradient>
<linearGradient id="paint39_linear_16736_3460" x1="529.105" y1="57.1676" x2="529.105" y2="202.593" gradientUnits="userSpaceOnUse">
<stop stop-color="white" stop-opacity="0.46"/>
<stop offset="0.575" stop-color="white" stop-opacity="0"/>
</linearGradient>
<linearGradient id="paint40_linear_16736_3460" x1="645.127" y1="57.1676" x2="645.127" y2="202.593" gradientUnits="userSpaceOnUse">
<stop stop-color="white" stop-opacity="0.46"/>
<stop offset="0.575" stop-color="white" stop-opacity="0"/>
</linearGradient>
<linearGradient id="paint41_linear_16736_3460" x1="761.146" y1="57.1676" x2="761.146" y2="202.593" gradientUnits="userSpaceOnUse">
<stop stop-color="white" stop-opacity="0.46"/>
<stop offset="0.575" stop-color="white" stop-opacity="0"/>
</linearGradient>
<linearGradient id="paint42_linear_16736_3460" x1="877.166" y1="57.1676" x2="877.166" y2="202.593" gradientUnits="userSpaceOnUse">
<stop stop-color="white" stop-opacity="0.46"/>
<stop offset="0.575" stop-color="white" stop-opacity="0"/>
</linearGradient>
<linearGradient id="paint43_linear_16736_3460" x1="993.18" y1="57.1676" x2="993.18" y2="202.593" gradientUnits="userSpaceOnUse">
<stop stop-color="white" stop-opacity="0.46"/>
<stop offset="0.575" stop-color="white" stop-opacity="0"/>
</linearGradient>
<linearGradient id="paint44_linear_16736_3460" x1="1109.2" y1="57.1676" x2="1109.2" y2="202.593" gradientUnits="userSpaceOnUse">
<stop stop-color="white" stop-opacity="0.46"/>
<stop offset="0.575" stop-color="white" stop-opacity="0"/>
</linearGradient>
<linearGradient id="paint45_linear_16736_3460" x1="-50.992" y1="111.843" x2="-50.992" y2="257.269" gradientUnits="userSpaceOnUse">
<stop stop-color="white" stop-opacity="0.46"/>
<stop offset="0.575" stop-color="white" stop-opacity="0"/>
</linearGradient>
<linearGradient id="paint46_linear_16736_3460" x1="65.0299" y1="111.843" x2="65.0299" y2="257.269" gradientUnits="userSpaceOnUse">
<stop stop-color="white" stop-opacity="0.46"/>
<stop offset="0.575" stop-color="white" stop-opacity="0"/>
</linearGradient>
<linearGradient id="paint47_linear_16736_3460" x1="181.049" y1="111.843" x2="181.049" y2="257.269" gradientUnits="userSpaceOnUse">
<stop stop-color="white" stop-opacity="0.46"/>
<stop offset="0.575" stop-color="white" stop-opacity="0"/>
</linearGradient>
<linearGradient id="paint48_linear_16736_3460" x1="297.064" y1="111.843" x2="297.064" y2="257.269" gradientUnits="userSpaceOnUse">
<stop stop-color="white" stop-opacity="0.46"/>
<stop offset="0.575" stop-color="white" stop-opacity="0"/>
</linearGradient>
<linearGradient id="paint49_linear_16736_3460" x1="413.083" y1="111.843" x2="413.083" y2="257.269" gradientUnits="userSpaceOnUse">
<stop stop-color="white" stop-opacity="0.46"/>
<stop offset="0.575" stop-color="white" stop-opacity="0"/>
</linearGradient>
<linearGradient id="paint50_linear_16736_3460" x1="529.105" y1="111.843" x2="529.105" y2="257.269" gradientUnits="userSpaceOnUse">
<stop stop-color="white" stop-opacity="0.46"/>
<stop offset="0.575" stop-color="white" stop-opacity="0"/>
</linearGradient>
<linearGradient id="paint51_linear_16736_3460" x1="645.127" y1="111.843" x2="645.127" y2="257.269" gradientUnits="userSpaceOnUse">
<stop stop-color="white" stop-opacity="0.46"/>
<stop offset="0.575" stop-color="white" stop-opacity="0"/>
</linearGradient>
<linearGradient id="paint52_linear_16736_3460" x1="761.146" y1="111.843" x2="761.146" y2="257.269" gradientUnits="userSpaceOnUse">
<stop stop-color="white" stop-opacity="0.46"/>
<stop offset="0.575" stop-color="white" stop-opacity="0"/>
</linearGradient>
<linearGradient id="paint53_linear_16736_3460" x1="877.166" y1="111.843" x2="877.166" y2="257.269" gradientUnits="userSpaceOnUse">
<stop stop-color="white" stop-opacity="0.46"/>
<stop offset="0.575" stop-color="white" stop-opacity="0"/>
</linearGradient>
<linearGradient id="paint54_linear_16736_3460" x1="993.18" y1="111.843" x2="993.18" y2="257.269" gradientUnits="userSpaceOnUse">
<stop stop-color="white" stop-opacity="0.46"/>
<stop offset="0.575" stop-color="white" stop-opacity="0"/>
</linearGradient>
<linearGradient id="paint55_linear_16736_3460" x1="1109.2" y1="111.845" x2="1109.2" y2="257.27" gradientUnits="userSpaceOnUse">
<stop stop-color="white" stop-opacity="0.46"/>
<stop offset="0.575" stop-color="white" stop-opacity="0"/>
</linearGradient>
<linearGradient id="paint56_linear_16736_3460" x1="-50.992" y1="166.523" x2="-50.992" y2="311.948" gradientUnits="userSpaceOnUse">
<stop stop-color="white" stop-opacity="0.46"/>
<stop offset="0.575" stop-color="white" stop-opacity="0"/>
</linearGradient>
<linearGradient id="paint57_linear_16736_3460" x1="65.0299" y1="166.523" x2="65.0299" y2="311.948" gradientUnits="userSpaceOnUse">
<stop stop-color="white" stop-opacity="0.46"/>
<stop offset="0.575" stop-color="white" stop-opacity="0"/>
</linearGradient>
<linearGradient id="paint58_linear_16736_3460" x1="181.049" y1="166.523" x2="181.049" y2="311.948" gradientUnits="userSpaceOnUse">
<stop stop-color="white" stop-opacity="0.46"/>
<stop offset="0.575" stop-color="white" stop-opacity="0"/>
</linearGradient>
<linearGradient id="paint59_linear_16736_3460" x1="297.064" y1="166.523" x2="297.064" y2="311.948" gradientUnits="userSpaceOnUse">
<stop stop-color="white" stop-opacity="0.46"/>
<stop offset="0.575" stop-color="white" stop-opacity="0"/>
</linearGradient>
<linearGradient id="paint60_linear_16736_3460" x1="413.083" y1="166.523" x2="413.083" y2="311.948" gradientUnits="userSpaceOnUse">
<stop stop-color="white" stop-opacity="0.46"/>
<stop offset="0.575" stop-color="white" stop-opacity="0"/>
</linearGradient>
<linearGradient id="paint61_linear_16736_3460" x1="529.105" y1="166.523" x2="529.105" y2="311.948" gradientUnits="userSpaceOnUse">
<stop stop-color="white" stop-opacity="0.46"/>
<stop offset="0.575" stop-color="white" stop-opacity="0"/>
</linearGradient>
<linearGradient id="paint62_linear_16736_3460" x1="645.127" y1="166.523" x2="645.127" y2="311.948" gradientUnits="userSpaceOnUse">
<stop stop-color="white" stop-opacity="0.46"/>
<stop offset="0.575" stop-color="white" stop-opacity="0"/>
</linearGradient>
<linearGradient id="paint63_linear_16736_3460" x1="761.146" y1="166.523" x2="761.146" y2="311.948" gradientUnits="userSpaceOnUse">
<stop stop-color="white" stop-opacity="0.46"/>
<stop offset="0.575" stop-color="white" stop-opacity="0"/>
</linearGradient>
<linearGradient id="paint64_linear_16736_3460" x1="877.166" y1="166.523" x2="877.166" y2="311.948" gradientUnits="userSpaceOnUse">
<stop stop-color="white" stop-opacity="0.46"/>
<stop offset="0.575" stop-color="white" stop-opacity="0"/>
</linearGradient>
<linearGradient id="paint65_linear_16736_3460" x1="993.182" y1="166.523" x2="993.182" y2="311.948" gradientUnits="userSpaceOnUse">
<stop stop-color="white" stop-opacity="0.46"/>
<stop offset="0.575" stop-color="white" stop-opacity="0"/>
</linearGradient>
<linearGradient id="paint66_linear_16736_3460" x1="1109.2" y1="166.523" x2="1109.2" y2="311.948" gradientUnits="userSpaceOnUse">
<stop stop-color="white" stop-opacity="0.46"/>
<stop offset="0.575" stop-color="white" stop-opacity="0"/>
</linearGradient>
<linearGradient id="paint67_linear_16736_3460" x1="-50.992" y1="221.198" x2="-50.992" y2="366.624" gradientUnits="userSpaceOnUse">
<stop stop-color="white" stop-opacity="0.46"/>
<stop offset="0.575" stop-color="white" stop-opacity="0"/>
</linearGradient>
<linearGradient id="paint68_linear_16736_3460" x1="65.0299" y1="221.198" x2="65.0299" y2="366.624" gradientUnits="userSpaceOnUse">
<stop stop-color="white" stop-opacity="0.46"/>
<stop offset="0.575" stop-color="white" stop-opacity="0"/>
</linearGradient>
<linearGradient id="paint69_linear_16736_3460" x1="181.049" y1="221.198" x2="181.049" y2="366.624" gradientUnits="userSpaceOnUse">
<stop stop-color="white" stop-opacity="0.46"/>
<stop offset="0.575" stop-color="white" stop-opacity="0"/>
</linearGradient>
<linearGradient id="paint70_linear_16736_3460" x1="297.064" y1="221.198" x2="297.064" y2="366.624" gradientUnits="userSpaceOnUse">
<stop stop-color="white" stop-opacity="0.46"/>
<stop offset="0.575" stop-color="white" stop-opacity="0"/>
</linearGradient>
<linearGradient id="paint71_linear_16736_3460" x1="413.083" y1="221.198" x2="413.083" y2="366.624" gradientUnits="userSpaceOnUse">
<stop stop-color="white" stop-opacity="0.46"/>
<stop offset="0.575" stop-color="white" stop-opacity="0"/>
</linearGradient>
<linearGradient id="paint72_linear_16736_3460" x1="529.105" y1="221.198" x2="529.105" y2="366.624" gradientUnits="userSpaceOnUse">
<stop stop-color="white" stop-opacity="0.46"/>
<stop offset="0.575" stop-color="white" stop-opacity="0"/>
</linearGradient>
<linearGradient id="paint73_linear_16736_3460" x1="645.127" y1="221.198" x2="645.127" y2="366.624" gradientUnits="userSpaceOnUse">
<stop stop-color="white" stop-opacity="0.46"/>
<stop offset="0.575" stop-color="white" stop-opacity="0"/>
</linearGradient>
<linearGradient id="paint74_linear_16736_3460" x1="761.146" y1="221.198" x2="761.146" y2="366.624" gradientUnits="userSpaceOnUse">
<stop stop-color="white" stop-opacity="0.46"/>
<stop offset="0.575" stop-color="white" stop-opacity="0"/>
</linearGradient>
<linearGradient id="paint75_linear_16736_3460" x1="877.166" y1="221.198" x2="877.166" y2="366.624" gradientUnits="userSpaceOnUse">
<stop stop-color="white" stop-opacity="0.46"/>
<stop offset="0.575" stop-color="white" stop-opacity="0"/>
</linearGradient>
<linearGradient id="paint76_linear_16736_3460" x1="993.18" y1="221.198" x2="993.18" y2="366.624" gradientUnits="userSpaceOnUse">
<stop stop-color="white" stop-opacity="0.46"/>
<stop offset="0.575" stop-color="white" stop-opacity="0"/>
</linearGradient>
<linearGradient id="paint77_linear_16736_3460" x1="1109.2" y1="221.198" x2="1109.2" y2="366.624" gradientUnits="userSpaceOnUse">
<stop stop-color="white" stop-opacity="0.46"/>
<stop offset="0.575" stop-color="white" stop-opacity="0"/>
</linearGradient>
<clipPath id="clip0_16736_3460">
<rect width="1160" height="321" fill="white"/>
</clipPath>
</defs>
</svg>
