<svg width="603" height="373" viewBox="0 0 603 373" fill="none" xmlns="http://www.w3.org/2000/svg">
<circle cx="58.2508" cy="191.251" r="58.2508" fill="white"/>
<path d="M44.0026 186.168C43.2279 186.168 42.5372 186.005 41.9306 185.678C41.3332 185.351 40.8619 184.903 40.5166 184.334C40.1806 183.765 40.0126 183.116 40.0126 182.388V175.57H41.6646V182.318C41.6646 182.775 41.7626 183.181 41.9586 183.536C42.1639 183.891 42.4392 184.166 42.7846 184.362C43.1392 184.558 43.5452 184.656 44.0026 184.656C44.4692 184.656 44.8752 184.558 45.2206 184.362C45.5752 184.166 45.8506 183.891 46.0466 183.536C46.2519 183.181 46.3546 182.775 46.3546 182.318V175.57H47.9926V182.388C47.9926 183.116 47.8246 183.765 47.4886 184.334C47.1526 184.903 46.6812 185.351 46.0746 185.678C45.4772 186.005 44.7866 186.168 44.0026 186.168ZM50.0634 186V175.57H51.7154V186H50.0634ZM52.9538 187.68L57.6298 176.13H59.3798L54.7038 187.68H52.9538ZM64.524 186.168C63.7494 186.168 63.0587 186.005 62.452 185.678C61.8547 185.351 61.3834 184.903 61.038 184.334C60.702 183.765 60.534 183.116 60.534 182.388V175.57H62.186V182.318C62.186 182.775 62.284 183.181 62.48 183.536C62.6854 183.891 62.9607 184.166 63.306 184.362C63.6607 184.558 64.0667 184.656 64.524 184.656C64.9907 184.656 65.3967 184.558 65.742 184.362C66.0967 184.166 66.372 183.891 66.568 183.536C66.7734 183.181 66.876 182.775 66.876 182.318V175.57H68.514V182.388C68.514 183.116 68.346 183.765 68.01 184.334C67.674 184.903 67.2027 185.351 66.596 185.678C65.9987 186.005 65.308 186.168 64.524 186.168ZM69.6608 186L73.0628 180.722L69.7168 175.57H71.5928L74.3928 179.882H73.5948L76.3668 175.57H78.2428L74.9108 180.722L78.3128 186H76.4368L73.5948 181.576L74.3928 181.59L71.5228 186H69.6608ZM29.5214 207V196.57H32.9374C34.02 196.57 34.958 196.789 35.7514 197.228C36.554 197.657 37.1747 198.264 37.6134 199.048C38.052 199.832 38.2714 200.742 38.2714 201.778C38.2714 202.805 38.052 203.715 37.6134 204.508C37.1747 205.292 36.554 205.903 35.7514 206.342C34.958 206.781 34.02 207 32.9374 207H29.5214ZM31.1734 205.53H32.9654C33.7027 205.53 34.342 205.376 34.8834 205.068C35.434 204.76 35.8587 204.326 36.1574 203.766C36.456 203.206 36.6054 202.543 36.6054 201.778C36.6054 201.013 36.4514 200.355 36.1434 199.804C35.8447 199.244 35.4247 198.81 34.8834 198.502C34.342 198.194 33.7027 198.04 32.9654 198.04H31.1734V205.53ZM43.3003 207.168C42.5443 207.168 41.8723 206.995 41.2843 206.65C40.7056 206.295 40.253 205.819 39.9263 205.222C39.5996 204.615 39.4363 203.939 39.4363 203.192C39.4363 202.427 39.5996 201.75 39.9263 201.162C40.2623 200.574 40.7103 200.112 41.2703 199.776C41.8303 199.431 42.465 199.258 43.1743 199.258C43.7436 199.258 44.2523 199.356 44.7003 199.552C45.1483 199.748 45.5263 200.019 45.8343 200.364C46.1423 200.7 46.3756 201.087 46.5343 201.526C46.7023 201.965 46.7863 202.431 46.7863 202.926C46.7863 203.047 46.7816 203.173 46.7723 203.304C46.763 203.435 46.7443 203.556 46.7163 203.668H40.6823V202.408H45.8203L45.0643 202.982C45.1576 202.525 45.125 202.119 44.9663 201.764C44.817 201.4 44.5836 201.115 44.2663 200.91C43.9583 200.695 43.5943 200.588 43.1743 200.588C42.7543 200.588 42.381 200.695 42.0543 200.91C41.7276 201.115 41.4756 201.414 41.2983 201.806C41.121 202.189 41.051 202.655 41.0883 203.206C41.0416 203.719 41.1116 204.167 41.2983 204.55C41.4943 204.933 41.765 205.231 42.1103 205.446C42.465 205.661 42.8663 205.768 43.3143 205.768C43.7716 205.768 44.159 205.665 44.4763 205.46C44.803 205.255 45.0596 204.989 45.2463 204.662L46.5343 205.292C46.385 205.647 46.1516 205.969 45.8343 206.258C45.5263 206.538 45.153 206.762 44.7143 206.93C44.285 207.089 43.8136 207.168 43.3003 207.168ZM51.1303 207.168C50.3556 207.168 49.6743 206.977 49.0863 206.594C48.5076 206.211 48.1016 205.698 47.8682 205.054L49.0863 204.48C49.2916 204.909 49.5716 205.25 49.9263 205.502C50.2903 205.754 50.6916 205.88 51.1303 205.88C51.5036 205.88 51.8069 205.796 52.0403 205.628C52.2736 205.46 52.3903 205.231 52.3903 204.942C52.3903 204.755 52.3389 204.606 52.2363 204.494C52.1336 204.373 52.0029 204.275 51.8443 204.2C51.6949 204.125 51.5409 204.069 51.3823 204.032L50.1923 203.696C49.5389 203.509 49.0489 203.229 48.7223 202.856C48.4049 202.473 48.2463 202.03 48.2463 201.526C48.2463 201.069 48.3629 200.672 48.5963 200.336C48.8296 199.991 49.1516 199.725 49.5623 199.538C49.9729 199.351 50.4349 199.258 50.9483 199.258C51.6389 199.258 52.2549 199.431 52.7963 199.776C53.3376 200.112 53.7203 200.583 53.9443 201.19L52.7263 201.764C52.5769 201.4 52.3389 201.111 52.0123 200.896C51.6949 200.681 51.3356 200.574 50.9343 200.574C50.5889 200.574 50.3136 200.658 50.1083 200.826C49.9029 200.985 49.8003 201.195 49.8003 201.456C49.8003 201.633 49.8469 201.783 49.9403 201.904C50.0336 202.016 50.1549 202.109 50.3043 202.184C50.4536 202.249 50.6076 202.305 50.7663 202.352L51.9983 202.716C52.6236 202.893 53.1043 203.173 53.4403 203.556C53.7763 203.929 53.9443 204.377 53.9443 204.9C53.9443 205.348 53.8229 205.745 53.5803 206.09C53.3469 206.426 53.0203 206.692 52.6003 206.888C52.1803 207.075 51.6903 207.168 51.1303 207.168ZM55.4943 207V199.426H57.0763V207H55.4943ZM55.4943 198.39V196.57H57.0763V198.39H55.4943ZM62.58 210.08C62.0293 210.08 61.5206 209.991 61.054 209.814C60.5873 209.637 60.186 209.389 59.85 209.072C59.514 208.764 59.262 208.4 59.094 207.98L60.55 207.378C60.6806 207.733 60.9186 208.027 61.264 208.26C61.6186 208.493 62.0526 208.61 62.566 208.61C62.9673 208.61 63.3266 208.531 63.644 208.372C63.9613 208.223 64.2133 207.999 64.4 207.7C64.5866 207.411 64.68 207.061 64.68 206.65V204.942L64.96 205.264C64.6986 205.749 64.3346 206.118 63.868 206.37C63.4106 206.622 62.8926 206.748 62.314 206.748C61.614 206.748 60.984 206.585 60.424 206.258C59.864 205.931 59.4206 205.483 59.094 204.914C58.7766 204.345 58.618 203.705 58.618 202.996C58.618 202.277 58.7766 201.638 59.094 201.078C59.4206 200.518 59.8593 200.075 60.41 199.748C60.9606 199.421 61.5906 199.258 62.3 199.258C62.8786 199.258 63.392 199.384 63.84 199.636C64.2973 199.879 64.6706 200.233 64.96 200.7L64.75 201.092V199.426H66.248V206.65C66.248 207.303 66.0893 207.887 65.772 208.4C65.464 208.923 65.0346 209.333 64.484 209.632C63.9333 209.931 63.2986 210.08 62.58 210.08ZM62.496 205.278C62.916 205.278 63.2893 205.18 63.616 204.984C63.9426 204.779 64.1993 204.508 64.386 204.172C64.582 203.827 64.68 203.439 64.68 203.01C64.68 202.581 64.582 202.193 64.386 201.848C64.19 201.503 63.9286 201.232 63.602 201.036C63.2753 200.831 62.9066 200.728 62.496 200.728C62.0666 200.728 61.684 200.831 61.348 201.036C61.012 201.232 60.746 201.503 60.55 201.848C60.3633 202.184 60.27 202.571 60.27 203.01C60.27 203.43 60.3633 203.813 60.55 204.158C60.746 204.503 61.012 204.779 61.348 204.984C61.684 205.18 62.0666 205.278 62.496 205.278ZM68.0998 207V199.426H69.6118V200.91L69.4298 200.714C69.6164 200.238 69.9151 199.879 70.3258 199.636C70.7364 199.384 71.2124 199.258 71.7538 199.258C72.3138 199.258 72.8084 199.379 73.2378 199.622C73.6671 199.865 74.0031 200.201 74.2458 200.63C74.4884 201.059 74.6098 201.554 74.6098 202.114V207H73.0418V202.534C73.0418 202.151 72.9718 201.829 72.8318 201.568C72.6918 201.297 72.4911 201.092 72.2298 200.952C71.9778 200.803 71.6884 200.728 71.3618 200.728C71.0351 200.728 70.7411 200.803 70.4798 200.952C70.2278 201.092 70.0318 201.297 69.8918 201.568C69.7518 201.839 69.6818 202.161 69.6818 202.534V207H68.0998ZM79.8589 207.168C79.1029 207.168 78.4309 206.995 77.8429 206.65C77.2642 206.295 76.8116 205.819 76.4849 205.222C76.1582 204.615 75.9949 203.939 75.9949 203.192C75.9949 202.427 76.1582 201.75 76.4849 201.162C76.8209 200.574 77.2689 200.112 77.8289 199.776C78.3889 199.431 79.0236 199.258 79.7329 199.258C80.3022 199.258 80.8109 199.356 81.2589 199.552C81.7069 199.748 82.0849 200.019 82.3929 200.364C82.7009 200.7 82.9342 201.087 83.0929 201.526C83.2609 201.965 83.3449 202.431 83.3449 202.926C83.3449 203.047 83.3402 203.173 83.3309 203.304C83.3216 203.435 83.3029 203.556 83.2749 203.668H77.2409V202.408H82.3789L81.6229 202.982C81.7162 202.525 81.6836 202.119 81.5249 201.764C81.3756 201.4 81.1422 201.115 80.8249 200.91C80.5169 200.695 80.1529 200.588 79.7329 200.588C79.3129 200.588 78.9396 200.695 78.6129 200.91C78.2862 201.115 78.0342 201.414 77.8569 201.806C77.6796 202.189 77.6096 202.655 77.6469 203.206C77.6002 203.719 77.6702 204.167 77.8569 204.55C78.0529 204.933 78.3236 205.231 78.6689 205.446C79.0236 205.661 79.4249 205.768 79.8729 205.768C80.3302 205.768 80.7176 205.665 81.0349 205.46C81.3616 205.255 81.6182 204.989 81.8049 204.662L83.0929 205.292C82.9436 205.647 82.7102 205.969 82.3929 206.258C82.0849 206.538 81.7116 206.762 81.2729 206.93C80.8436 207.089 80.3722 207.168 79.8589 207.168ZM84.8888 207V199.426H86.4008V200.952L86.2608 200.728C86.4288 200.233 86.6995 199.879 87.0728 199.664C87.4462 199.44 87.8942 199.328 88.4168 199.328H88.8788V200.77H88.2208C87.6982 200.77 87.2735 200.933 86.9468 201.26C86.6295 201.577 86.4708 202.035 86.4708 202.632V207H84.8888Z" fill="#616161"/>
<circle cx="259.768" cy="52.7684" r="52.7684" fill="#E64240"/>
<path d="M233.211 48.168C232.558 48.168 231.951 48.0467 231.391 47.804C230.831 47.552 230.355 47.2113 229.963 46.782C229.571 46.3527 229.282 45.858 229.095 45.298L230.495 44.71C230.747 45.354 231.116 45.8487 231.601 46.194C232.087 46.5393 232.647 46.712 233.281 46.712C233.655 46.712 233.981 46.656 234.261 46.544C234.541 46.4227 234.756 46.2547 234.905 46.04C235.064 45.8253 235.143 45.578 235.143 45.298C235.143 44.9153 235.036 44.612 234.821 44.388C234.607 44.164 234.289 43.9867 233.869 43.856L231.909 43.24C231.125 42.9973 230.528 42.6287 230.117 42.134C229.707 41.63 229.501 41.042 229.501 40.37C229.501 39.782 229.646 39.2687 229.935 38.83C230.225 38.382 230.621 38.032 231.125 37.78C231.639 37.528 232.222 37.402 232.875 37.402C233.501 37.402 234.07 37.514 234.583 37.738C235.097 37.9527 235.535 38.2513 235.899 38.634C236.273 39.0167 236.543 39.46 236.711 39.964L235.339 40.566C235.134 40.0153 234.812 39.5907 234.373 39.292C233.944 38.9933 233.445 38.844 232.875 38.844C232.53 38.844 232.227 38.9047 231.965 39.026C231.704 39.138 231.499 39.306 231.349 39.53C231.209 39.7447 231.139 39.9967 231.139 40.286C231.139 40.622 231.247 40.9207 231.461 41.182C231.676 41.4433 232.003 41.6393 232.441 41.77L234.261 42.344C235.092 42.596 235.717 42.96 236.137 43.436C236.557 43.9027 236.767 44.486 236.767 45.186C236.767 45.7647 236.613 46.278 236.305 46.726C236.007 47.174 235.591 47.5287 235.059 47.79C234.527 48.042 233.911 48.168 233.211 48.168ZM242.122 48.168C241.394 48.168 240.727 47.9953 240.12 47.65C239.523 47.3047 239.047 46.8333 238.692 46.236C238.337 45.6387 238.16 44.962 238.16 44.206C238.16 43.4407 238.337 42.764 238.692 42.176C239.047 41.5787 239.523 41.112 240.12 40.776C240.717 40.4307 241.385 40.258 242.122 40.258C242.869 40.258 243.536 40.4307 244.124 40.776C244.721 41.112 245.193 41.5787 245.538 42.176C245.893 42.764 246.07 43.4407 246.07 44.206C246.07 44.9713 245.893 45.6527 245.538 46.25C245.183 46.8473 244.707 47.3187 244.11 47.664C243.513 48 242.85 48.168 242.122 48.168ZM242.122 46.698C242.57 46.698 242.967 46.5907 243.312 46.376C243.657 46.1613 243.928 45.8673 244.124 45.494C244.329 45.1113 244.432 44.682 244.432 44.206C244.432 43.73 244.329 43.3053 244.124 42.932C243.928 42.5587 243.657 42.2647 243.312 42.05C242.967 41.8353 242.57 41.728 242.122 41.728C241.683 41.728 241.287 41.8353 240.932 42.05C240.587 42.2647 240.311 42.5587 240.106 42.932C239.91 43.3053 239.812 43.73 239.812 44.206C239.812 44.682 239.91 45.1113 240.106 45.494C240.311 45.8673 240.587 46.1613 240.932 46.376C241.287 46.5907 241.683 46.698 242.122 46.698ZM248.263 48V41.854H246.863V40.426H248.263V40.034C248.263 39.4647 248.38 38.9887 248.613 38.606C248.847 38.214 249.169 37.9153 249.579 37.71C249.999 37.5047 250.48 37.402 251.021 37.402C251.124 37.402 251.241 37.4113 251.371 37.43C251.502 37.4393 251.609 37.4533 251.693 37.472V38.844C251.619 38.8253 251.535 38.816 251.441 38.816C251.348 38.8067 251.273 38.802 251.217 38.802C250.797 38.802 250.461 38.9 250.209 39.096C249.957 39.2827 249.831 39.5953 249.831 40.034V40.426H251.567V41.854H249.831V48H248.263ZM256.592 48.084C255.798 48.084 255.182 47.86 254.744 47.412C254.305 46.964 254.086 46.334 254.086 45.522V41.854H252.756V40.426H252.966C253.32 40.426 253.596 40.3233 253.792 40.118C253.988 39.9127 254.086 39.6327 254.086 39.278V38.69H255.668V40.426H257.39V41.854H255.668V45.452C255.668 45.7133 255.71 45.9373 255.794 46.124C255.878 46.3013 256.013 46.4413 256.2 46.544C256.386 46.6373 256.629 46.684 256.928 46.684C257.002 46.684 257.086 46.6793 257.18 46.67C257.273 46.6607 257.362 46.6513 257.446 46.642V48C257.315 48.0187 257.17 48.0373 257.012 48.056C256.853 48.0747 256.713 48.084 256.592 48.084ZM260.823 48L258.219 40.426H259.899L261.887 46.46H261.299L263.329 40.426H264.771L266.787 46.46H266.199L268.201 40.426H269.881L267.263 48H265.835L263.791 41.826H264.309L262.265 48H260.823ZM272.961 48.168C272.447 48.168 271.995 48.0793 271.603 47.902C271.22 47.7153 270.921 47.4633 270.707 47.146C270.492 46.8193 270.385 46.4367 270.385 45.998C270.385 45.5873 270.473 45.2187 270.651 44.892C270.837 44.5653 271.122 44.29 271.505 44.066C271.887 43.842 272.368 43.6833 272.947 43.59L275.579 43.156V44.402L273.255 44.808C272.835 44.8827 272.527 45.018 272.331 45.214C272.135 45.4007 272.037 45.6433 272.037 45.942C272.037 46.2313 272.144 46.4693 272.359 46.656C272.583 46.8333 272.867 46.922 273.213 46.922C273.642 46.922 274.015 46.8287 274.333 46.642C274.659 46.4553 274.911 46.208 275.089 45.9C275.266 45.5827 275.355 45.2327 275.355 44.85V42.904C275.355 42.5307 275.215 42.2273 274.935 41.994C274.664 41.7513 274.3 41.63 273.843 41.63C273.423 41.63 273.054 41.742 272.737 41.966C272.429 42.1807 272.2 42.4607 272.051 42.806L270.735 42.148C270.875 41.7747 271.103 41.448 271.421 41.168C271.738 40.8787 272.107 40.6547 272.527 40.496C272.956 40.3373 273.409 40.258 273.885 40.258C274.482 40.258 275.009 40.37 275.467 40.594C275.933 40.818 276.293 41.1307 276.545 41.532C276.806 41.924 276.937 42.3813 276.937 42.904V48H275.425V46.628L275.747 46.67C275.569 46.978 275.341 47.244 275.061 47.468C274.79 47.692 274.477 47.8647 274.123 47.986C273.777 48.1073 273.39 48.168 272.961 48.168ZM278.786 48V40.426H280.298V41.952L280.158 41.728C280.326 41.2333 280.597 40.8787 280.97 40.664C281.344 40.44 281.792 40.328 282.314 40.328H282.776V41.77H282.118C281.596 41.77 281.171 41.9333 280.844 42.26C280.527 42.5773 280.368 43.0347 280.368 43.632V48H278.786ZM287.415 48.168C286.659 48.168 285.987 47.9953 285.399 47.65C284.82 47.2953 284.367 46.8193 284.041 46.222C283.714 45.6153 283.551 44.9387 283.551 44.192C283.551 43.4267 283.714 42.75 284.041 42.162C284.377 41.574 284.825 41.112 285.385 40.776C285.945 40.4307 286.579 40.258 287.289 40.258C287.858 40.258 288.367 40.356 288.815 40.552C289.263 40.748 289.641 41.0187 289.949 41.364C290.257 41.7 290.49 42.0873 290.649 42.526C290.817 42.9647 290.901 43.4313 290.901 43.926C290.901 44.0473 290.896 44.1733 290.887 44.304C290.877 44.4347 290.859 44.556 290.831 44.668H284.797V43.408H289.935L289.179 43.982C289.272 43.5247 289.239 43.1187 289.081 42.764C288.931 42.4 288.698 42.1153 288.381 41.91C288.073 41.6953 287.709 41.588 287.289 41.588C286.869 41.588 286.495 41.6953 286.169 41.91C285.842 42.1153 285.59 42.414 285.413 42.806C285.235 43.1887 285.165 43.6553 285.203 44.206C285.156 44.7193 285.226 45.1673 285.413 45.55C285.609 45.9327 285.879 46.2313 286.225 46.446C286.579 46.6607 286.981 46.768 287.429 46.768C287.886 46.768 288.273 46.6653 288.591 46.46C288.917 46.2547 289.174 45.9887 289.361 45.662L290.649 46.292C290.499 46.6467 290.266 46.9687 289.949 47.258C289.641 47.538 289.267 47.762 288.829 47.93C288.399 48.0887 287.928 48.168 287.415 48.168ZM231.246 69V58.57H238.12V60.04H232.898V63.036H237.84V64.506H232.898V67.53H238.12V69H231.246ZM239.5 69V61.426H241.012V62.91L240.83 62.714C241.017 62.238 241.316 61.8787 241.726 61.636C242.137 61.384 242.613 61.258 243.154 61.258C243.714 61.258 244.209 61.3793 244.638 61.622C245.068 61.8647 245.404 62.2007 245.646 62.63C245.889 63.0593 246.01 63.554 246.01 64.114V69H244.442V64.534C244.442 64.1513 244.372 63.8293 244.232 63.568C244.092 63.2973 243.892 63.092 243.63 62.952C243.378 62.8027 243.089 62.728 242.762 62.728C242.436 62.728 242.142 62.8027 241.88 62.952C241.628 63.092 241.432 63.2973 241.292 63.568C241.152 63.8387 241.082 64.1607 241.082 64.534V69H239.5ZM251.357 72.08C250.807 72.08 250.298 71.9913 249.831 71.814C249.365 71.6367 248.963 71.3893 248.627 71.072C248.291 70.764 248.039 70.4 247.871 69.98L249.327 69.378C249.458 69.7327 249.696 70.0267 250.041 70.26C250.396 70.4933 250.83 70.61 251.343 70.61C251.745 70.61 252.104 70.5307 252.421 70.372C252.739 70.2227 252.991 69.9987 253.177 69.7C253.364 69.4107 253.457 69.0607 253.457 68.65V66.942L253.737 67.264C253.476 67.7493 253.112 68.118 252.645 68.37C252.188 68.622 251.67 68.748 251.091 68.748C250.391 68.748 249.761 68.5847 249.201 68.258C248.641 67.9313 248.198 67.4833 247.871 66.914C247.554 66.3447 247.395 65.7053 247.395 64.996C247.395 64.2773 247.554 63.638 247.871 63.078C248.198 62.518 248.637 62.0747 249.187 61.748C249.738 61.4213 250.368 61.258 251.077 61.258C251.656 61.258 252.169 61.384 252.617 61.636C253.075 61.8787 253.448 62.2333 253.737 62.7L253.527 63.092V61.426H255.025V68.65C255.025 69.3033 254.867 69.8867 254.549 70.4C254.241 70.9227 253.812 71.3333 253.261 71.632C252.711 71.9307 252.076 72.08 251.357 72.08ZM251.273 67.278C251.693 67.278 252.067 67.18 252.393 66.984C252.72 66.7787 252.977 66.508 253.163 66.172C253.359 65.8267 253.457 65.4393 253.457 65.01C253.457 64.5807 253.359 64.1933 253.163 63.848C252.967 63.5027 252.706 63.232 252.379 63.036C252.053 62.8307 251.684 62.728 251.273 62.728C250.844 62.728 250.461 62.8307 250.125 63.036C249.789 63.232 249.523 63.5027 249.327 63.848C249.141 64.184 249.047 64.5713 249.047 65.01C249.047 65.43 249.141 65.8127 249.327 66.158C249.523 66.5033 249.789 66.7787 250.125 66.984C250.461 67.18 250.844 67.278 251.273 67.278ZM256.877 69V61.426H258.459V69H256.877ZM256.877 60.39V58.57H258.459V60.39H256.877ZM260.309 69V61.426H261.821V62.91L261.639 62.714C261.825 62.238 262.124 61.8787 262.535 61.636C262.945 61.384 263.421 61.258 263.963 61.258C264.523 61.258 265.017 61.3793 265.447 61.622C265.876 61.8647 266.212 62.2007 266.455 62.63C266.697 63.0593 266.819 63.554 266.819 64.114V69H265.251V64.534C265.251 64.1513 265.181 63.8293 265.041 63.568C264.901 63.2973 264.7 63.092 264.439 62.952C264.187 62.8027 263.897 62.728 263.571 62.728C263.244 62.728 262.95 62.8027 262.689 62.952C262.437 63.092 262.241 63.2973 262.101 63.568C261.961 63.8387 261.891 64.1607 261.891 64.534V69H260.309ZM272.068 69.168C271.312 69.168 270.64 68.9953 270.052 68.65C269.473 68.2953 269.021 67.8193 268.694 67.222C268.367 66.6153 268.204 65.9387 268.204 65.192C268.204 64.4267 268.367 63.75 268.694 63.162C269.03 62.574 269.478 62.112 270.038 61.776C270.598 61.4307 271.233 61.258 271.942 61.258C272.511 61.258 273.02 61.356 273.468 61.552C273.916 61.748 274.294 62.0187 274.602 62.364C274.91 62.7 275.143 63.0873 275.302 63.526C275.47 63.9647 275.554 64.4313 275.554 64.926C275.554 65.0473 275.549 65.1733 275.54 65.304C275.531 65.4347 275.512 65.556 275.484 65.668H269.45V64.408H274.588L273.832 64.982C273.925 64.5247 273.893 64.1187 273.734 63.764C273.585 63.4 273.351 63.1153 273.034 62.91C272.726 62.6953 272.362 62.588 271.942 62.588C271.522 62.588 271.149 62.6953 270.822 62.91C270.495 63.1153 270.243 63.414 270.066 63.806C269.889 64.1887 269.819 64.6553 269.856 65.206C269.809 65.7193 269.879 66.1673 270.066 66.55C270.262 66.9327 270.533 67.2313 270.878 67.446C271.233 67.6607 271.634 67.768 272.082 67.768C272.539 67.768 272.927 67.6653 273.244 67.46C273.571 67.2547 273.827 66.9887 274.014 66.662L275.302 67.292C275.153 67.6467 274.919 67.9687 274.602 68.258C274.294 68.538 273.921 68.762 273.482 68.93C273.053 69.0887 272.581 69.168 272.068 69.168ZM280.654 69.168C279.898 69.168 279.226 68.9953 278.638 68.65C278.059 68.2953 277.606 67.8193 277.28 67.222C276.953 66.6153 276.79 65.9387 276.79 65.192C276.79 64.4267 276.953 63.75 277.28 63.162C277.616 62.574 278.064 62.112 278.624 61.776C279.184 61.4307 279.818 61.258 280.528 61.258C281.097 61.258 281.606 61.356 282.054 61.552C282.502 61.748 282.88 62.0187 283.188 62.364C283.496 62.7 283.729 63.0873 283.888 63.526C284.056 63.9647 284.14 64.4313 284.14 64.926C284.14 65.0473 284.135 65.1733 284.126 65.304C284.116 65.4347 284.098 65.556 284.07 65.668H278.036V64.408H283.174L282.418 64.982C282.511 64.5247 282.478 64.1187 282.32 63.764C282.17 63.4 281.937 63.1153 281.62 62.91C281.312 62.6953 280.948 62.588 280.528 62.588C280.108 62.588 279.734 62.6953 279.408 62.91C279.081 63.1153 278.829 63.414 278.652 63.806C278.474 64.1887 278.404 64.6553 278.442 65.206C278.395 65.7193 278.465 66.1673 278.652 66.55C278.848 66.9327 279.118 67.2313 279.464 67.446C279.818 67.6607 280.22 67.768 280.668 67.768C281.125 67.768 281.512 67.6653 281.83 67.46C282.156 67.2547 282.413 66.9887 282.6 66.662L283.888 67.292C283.738 67.6467 283.505 67.9687 283.188 68.258C282.88 68.538 282.506 68.762 282.068 68.93C281.638 69.0887 281.167 69.168 280.654 69.168ZM285.684 69V61.426H287.196V62.952L287.056 62.728C287.224 62.2333 287.494 61.8787 287.868 61.664C288.241 61.44 288.689 61.328 289.212 61.328H289.674V62.77H289.016C288.493 62.77 288.068 62.9333 287.742 63.26C287.424 63.5773 287.266 64.0347 287.266 64.632V69H285.684Z" fill="white"/>
<circle cx="451.768" cy="142.768" r="52.7684" fill="white"/>
<path d="M425.107 137.499V127.069H428.901C429.601 127.069 430.217 127.199 430.749 127.461C431.291 127.713 431.711 128.086 432.009 128.581C432.308 129.066 432.457 129.649 432.457 130.331C432.457 131.003 432.303 131.581 431.995 132.067C431.697 132.552 431.281 132.925 430.749 133.187C430.217 133.448 429.601 133.579 428.901 133.579H426.759V137.499H425.107ZM426.759 132.109H428.943C429.317 132.109 429.643 132.034 429.923 131.885C430.203 131.735 430.423 131.53 430.581 131.269C430.74 130.998 430.819 130.681 430.819 130.317C430.819 129.953 430.74 129.64 430.581 129.379C430.423 129.108 430.203 128.903 429.923 128.763C429.643 128.613 429.317 128.539 428.943 128.539H426.759V132.109ZM434.004 137.499V129.925H435.516V131.451L435.376 131.227C435.544 130.732 435.815 130.377 436.188 130.163C436.561 129.939 437.009 129.827 437.532 129.827H437.994V131.269H437.336C436.813 131.269 436.389 131.432 436.062 131.759C435.745 132.076 435.586 132.533 435.586 133.131V137.499H434.004ZM442.73 137.667C442.002 137.667 441.335 137.494 440.728 137.149C440.131 136.803 439.655 136.332 439.3 135.735C438.946 135.137 438.768 134.461 438.768 133.705C438.768 132.939 438.946 132.263 439.3 131.675C439.655 131.077 440.131 130.611 440.728 130.275C441.326 129.929 441.993 129.757 442.73 129.757C443.477 129.757 444.144 129.929 444.732 130.275C445.33 130.611 445.801 131.077 446.146 131.675C446.501 132.263 446.678 132.939 446.678 133.705C446.678 134.47 446.501 135.151 446.146 135.749C445.792 136.346 445.316 136.817 444.718 137.163C444.121 137.499 443.458 137.667 442.73 137.667ZM442.73 136.197C443.178 136.197 443.575 136.089 443.92 135.875C444.266 135.66 444.536 135.366 444.732 134.993C444.938 134.61 445.04 134.181 445.04 133.705C445.04 133.229 444.938 132.804 444.732 132.431C444.536 132.057 444.266 131.763 443.92 131.549C443.575 131.334 443.178 131.227 442.73 131.227C442.292 131.227 441.895 131.334 441.54 131.549C441.195 131.763 440.92 132.057 440.714 132.431C440.518 132.804 440.42 133.229 440.42 133.705C440.42 134.181 440.518 134.61 440.714 134.993C440.92 135.366 441.195 135.66 441.54 135.875C441.895 136.089 442.292 136.197 442.73 136.197ZM451.723 137.667C450.995 137.667 450.341 137.494 449.763 137.149C449.193 136.794 448.741 136.318 448.405 135.721C448.078 135.123 447.915 134.451 447.915 133.705C447.915 132.958 448.083 132.286 448.419 131.689C448.755 131.091 449.207 130.62 449.777 130.275C450.346 129.929 450.99 129.757 451.709 129.757C452.315 129.757 452.852 129.878 453.319 130.121C453.785 130.363 454.154 130.699 454.425 131.129L454.187 131.493V126.901H455.755V137.499H454.257V135.959L454.439 136.253C454.177 136.71 453.804 137.06 453.319 137.303C452.833 137.545 452.301 137.667 451.723 137.667ZM451.877 136.197C452.315 136.197 452.707 136.089 453.053 135.875C453.407 135.66 453.683 135.366 453.879 134.993C454.084 134.61 454.187 134.181 454.187 133.705C454.187 133.229 454.084 132.804 453.879 132.431C453.683 132.057 453.407 131.763 453.053 131.549C452.707 131.334 452.315 131.227 451.877 131.227C451.438 131.227 451.041 131.334 450.687 131.549C450.332 131.763 450.057 132.057 449.861 132.431C449.665 132.804 449.567 133.229 449.567 133.705C449.567 134.181 449.665 134.61 449.861 134.993C450.057 135.366 450.327 135.66 450.673 135.875C451.027 136.089 451.429 136.197 451.877 136.197ZM460.304 137.667C459.734 137.667 459.235 137.541 458.806 137.289C458.376 137.027 458.04 136.668 457.798 136.211C457.564 135.744 457.448 135.207 457.448 134.601V129.925H459.03V134.461C459.03 134.806 459.1 135.109 459.24 135.371C459.38 135.632 459.576 135.837 459.828 135.987C460.08 136.127 460.369 136.197 460.696 136.197C461.032 136.197 461.326 136.122 461.578 135.973C461.83 135.823 462.026 135.613 462.166 135.343C462.315 135.072 462.39 134.755 462.39 134.391V129.925H463.958V137.499H462.46V136.015L462.628 136.211C462.45 136.677 462.156 137.037 461.746 137.289C461.335 137.541 460.854 137.667 460.304 137.667ZM469.403 137.667C468.647 137.667 467.975 137.494 467.387 137.149C466.808 136.794 466.346 136.318 466.001 135.721C465.665 135.123 465.497 134.447 465.497 133.691C465.497 132.944 465.665 132.272 466.001 131.675C466.337 131.077 466.799 130.611 467.387 130.275C467.975 129.929 468.647 129.757 469.403 129.757C469.916 129.757 470.397 129.85 470.845 130.037C471.293 130.214 471.68 130.461 472.007 130.779C472.343 131.096 472.59 131.465 472.749 131.885L471.363 132.529C471.204 132.137 470.948 131.824 470.593 131.591C470.248 131.348 469.851 131.227 469.403 131.227C468.974 131.227 468.586 131.334 468.241 131.549C467.905 131.754 467.639 132.048 467.443 132.431C467.247 132.804 467.149 133.229 467.149 133.705C467.149 134.181 467.247 134.61 467.443 134.993C467.639 135.366 467.905 135.66 468.241 135.875C468.586 136.089 468.974 136.197 469.403 136.197C469.86 136.197 470.257 136.08 470.593 135.847C470.938 135.604 471.195 135.282 471.363 134.881L472.749 135.539C472.6 135.94 472.357 136.304 472.021 136.631C471.694 136.948 471.307 137.2 470.859 137.387C470.411 137.573 469.926 137.667 469.403 137.667ZM477.571 137.583C476.778 137.583 476.162 137.359 475.723 136.911C475.284 136.463 475.065 135.833 475.065 135.021V131.353H473.735V129.925H473.945C474.3 129.925 474.575 129.822 474.771 129.617C474.967 129.411 475.065 129.131 475.065 128.777V128.189H476.647V129.925H478.369V131.353H476.647V134.951C476.647 135.212 476.689 135.436 476.773 135.623C476.857 135.8 476.992 135.94 477.179 136.043C477.366 136.136 477.608 136.183 477.907 136.183C477.982 136.183 478.066 136.178 478.159 136.169C478.252 136.159 478.341 136.15 478.425 136.141V137.499C478.294 137.517 478.15 137.536 477.991 137.555C477.832 137.573 477.692 137.583 477.571 137.583ZM422.886 158.499V148.069H424.426L428.346 153.501H427.576L431.426 148.069H432.966V158.499H431.328V150.015L431.944 150.183L428.01 155.559H427.842L423.992 150.183L424.538 150.015V158.499H422.886ZM437.236 158.667C436.723 158.667 436.27 158.578 435.878 158.401C435.495 158.214 435.197 157.962 434.982 157.645C434.767 157.318 434.66 156.935 434.66 156.497C434.66 156.086 434.749 155.717 434.926 155.391C435.113 155.064 435.397 154.789 435.78 154.565C436.163 154.341 436.643 154.182 437.222 154.089L439.854 153.655V154.901L437.53 155.307C437.11 155.381 436.802 155.517 436.606 155.713C436.41 155.899 436.312 156.142 436.312 156.441C436.312 156.73 436.419 156.968 436.634 157.155C436.858 157.332 437.143 157.421 437.488 157.421C437.917 157.421 438.291 157.327 438.608 157.141C438.935 156.954 439.187 156.707 439.364 156.399C439.541 156.081 439.63 155.731 439.63 155.349V153.403C439.63 153.029 439.49 152.726 439.21 152.493C438.939 152.25 438.575 152.129 438.118 152.129C437.698 152.129 437.329 152.241 437.012 152.465C436.704 152.679 436.475 152.959 436.326 153.305L435.01 152.647C435.15 152.273 435.379 151.947 435.696 151.667C436.013 151.377 436.382 151.153 436.802 150.995C437.231 150.836 437.684 150.757 438.16 150.757C438.757 150.757 439.285 150.869 439.742 151.093C440.209 151.317 440.568 151.629 440.82 152.031C441.081 152.423 441.212 152.88 441.212 153.403V158.499H439.7V157.127L440.022 157.169C439.845 157.477 439.616 157.743 439.336 157.967C439.065 158.191 438.753 158.363 438.398 158.485C438.053 158.606 437.665 158.667 437.236 158.667ZM443.062 158.499V150.925H444.574V152.409L444.392 152.213C444.578 151.737 444.877 151.377 445.288 151.135C445.698 150.883 446.174 150.757 446.716 150.757C447.276 150.757 447.77 150.878 448.2 151.121C448.629 151.363 448.965 151.699 449.208 152.129C449.45 152.558 449.572 153.053 449.572 153.613V158.499H448.004V154.033C448.004 153.65 447.934 153.328 447.794 153.067C447.654 152.796 447.453 152.591 447.192 152.451C446.94 152.301 446.65 152.227 446.324 152.227C445.997 152.227 445.703 152.301 445.442 152.451C445.19 152.591 444.994 152.796 444.854 153.067C444.714 153.337 444.644 153.659 444.644 154.033V158.499H443.062ZM453.533 158.667C453.019 158.667 452.567 158.578 452.175 158.401C451.792 158.214 451.493 157.962 451.279 157.645C451.064 157.318 450.957 156.935 450.957 156.497C450.957 156.086 451.045 155.717 451.223 155.391C451.409 155.064 451.694 154.789 452.077 154.565C452.459 154.341 452.94 154.182 453.519 154.089L456.151 153.655V154.901L453.827 155.307C453.407 155.381 453.099 155.517 452.903 155.713C452.707 155.899 452.609 156.142 452.609 156.441C452.609 156.73 452.716 156.968 452.931 157.155C453.155 157.332 453.439 157.421 453.785 157.421C454.214 157.421 454.587 157.327 454.905 157.141C455.231 156.954 455.483 156.707 455.661 156.399C455.838 156.081 455.927 155.731 455.927 155.349V153.403C455.927 153.029 455.787 152.726 455.507 152.493C455.236 152.25 454.872 152.129 454.415 152.129C453.995 152.129 453.626 152.241 453.309 152.465C453.001 152.679 452.772 152.959 452.623 153.305L451.307 152.647C451.447 152.273 451.675 151.947 451.993 151.667C452.31 151.377 452.679 151.153 453.099 150.995C453.528 150.836 453.981 150.757 454.457 150.757C455.054 150.757 455.581 150.869 456.039 151.093C456.505 151.317 456.865 151.629 457.117 152.031C457.378 152.423 457.509 152.88 457.509 153.403V158.499H455.997V157.127L456.319 157.169C456.141 157.477 455.913 157.743 455.633 157.967C455.362 158.191 455.049 158.363 454.695 158.485C454.349 158.606 453.962 158.667 453.533 158.667ZM463.013 161.579C462.462 161.579 461.953 161.49 461.487 161.313C461.02 161.135 460.619 160.888 460.283 160.571C459.947 160.263 459.695 159.899 459.527 159.479L460.983 158.877C461.113 159.231 461.351 159.525 461.697 159.759C462.051 159.992 462.485 160.109 462.999 160.109C463.4 160.109 463.759 160.029 464.077 159.871C464.394 159.721 464.646 159.497 464.833 159.199C465.019 158.909 465.113 158.559 465.113 158.149V156.441L465.393 156.763C465.131 157.248 464.767 157.617 464.301 157.869C463.843 158.121 463.325 158.247 462.747 158.247C462.047 158.247 461.417 158.083 460.857 157.757C460.297 157.43 459.853 156.982 459.527 156.413C459.209 155.843 459.051 155.204 459.051 154.495C459.051 153.776 459.209 153.137 459.527 152.577C459.853 152.017 460.292 151.573 460.843 151.247C461.393 150.92 462.023 150.757 462.733 150.757C463.311 150.757 463.825 150.883 464.273 151.135C464.73 151.377 465.103 151.732 465.393 152.199L465.183 152.591V150.925H466.681V158.149C466.681 158.802 466.522 159.385 466.205 159.899C465.897 160.421 465.467 160.832 464.917 161.131C464.366 161.429 463.731 161.579 463.013 161.579ZM462.929 156.777C463.349 156.777 463.722 156.679 464.049 156.483C464.375 156.277 464.632 156.007 464.819 155.671C465.015 155.325 465.113 154.938 465.113 154.509C465.113 154.079 465.015 153.692 464.819 153.347C464.623 153.001 464.361 152.731 464.035 152.535C463.708 152.329 463.339 152.227 462.929 152.227C462.499 152.227 462.117 152.329 461.781 152.535C461.445 152.731 461.179 153.001 460.983 153.347C460.796 153.683 460.703 154.07 460.703 154.509C460.703 154.929 460.796 155.311 460.983 155.657C461.179 156.002 461.445 156.277 461.781 156.483C462.117 156.679 462.499 156.777 462.929 156.777ZM472.088 158.667C471.332 158.667 470.66 158.494 470.072 158.149C469.494 157.794 469.041 157.318 468.714 156.721C468.388 156.114 468.224 155.437 468.224 154.691C468.224 153.925 468.388 153.249 468.714 152.661C469.05 152.073 469.498 151.611 470.058 151.275C470.618 150.929 471.253 150.757 471.962 150.757C472.532 150.757 473.04 150.855 473.488 151.051C473.936 151.247 474.314 151.517 474.622 151.863C474.93 152.199 475.164 152.586 475.322 153.025C475.49 153.463 475.574 153.93 475.574 154.425C475.574 154.546 475.57 154.672 475.56 154.803C475.551 154.933 475.532 155.055 475.504 155.167H469.47V153.907H474.608L473.852 154.481C473.946 154.023 473.913 153.617 473.754 153.263C473.605 152.899 473.372 152.614 473.054 152.409C472.746 152.194 472.382 152.087 471.962 152.087C471.542 152.087 471.169 152.194 470.842 152.409C470.516 152.614 470.264 152.913 470.086 153.305C469.909 153.687 469.839 154.154 469.876 154.705C469.83 155.218 469.9 155.666 470.086 156.049C470.282 156.431 470.553 156.73 470.898 156.945C471.253 157.159 471.654 157.267 472.102 157.267C472.56 157.267 472.947 157.164 473.264 156.959C473.591 156.753 473.848 156.487 474.034 156.161L475.322 156.791C475.173 157.145 474.94 157.467 474.622 157.757C474.314 158.037 473.941 158.261 473.502 158.429C473.073 158.587 472.602 158.667 472.088 158.667ZM477.118 158.499V150.925H478.63V152.451L478.49 152.227C478.658 151.732 478.929 151.377 479.302 151.163C479.676 150.939 480.124 150.827 480.646 150.827H481.108V152.269H480.45C479.928 152.269 479.503 152.432 479.176 152.759C478.859 153.076 478.7 153.533 478.7 154.131V158.499H477.118Z" fill="#616161"/>
<circle cx="438.474" cy="276.474" r="66.4744" fill="white"/>
<path d="M412.349 271.032V260.602H415.765C416.847 260.602 417.785 260.821 418.579 261.26C419.381 261.689 420.002 262.296 420.441 263.08C420.879 263.864 421.099 264.774 421.099 265.81C421.099 266.836 420.879 267.746 420.441 268.54C420.002 269.324 419.381 269.935 418.579 270.374C417.785 270.812 416.847 271.032 415.765 271.032H412.349ZM414.001 269.562H415.793C416.53 269.562 417.169 269.408 417.711 269.1C418.261 268.792 418.686 268.358 418.985 267.798C419.283 267.238 419.433 266.575 419.433 265.81C419.433 265.044 419.279 264.386 418.971 263.836C418.672 263.276 418.252 262.842 417.711 262.534C417.169 262.226 416.53 262.072 415.793 262.072H414.001V269.562ZM426.127 271.2C425.371 271.2 424.699 271.027 424.111 270.682C423.533 270.327 423.08 269.851 422.753 269.254C422.427 268.647 422.263 267.97 422.263 267.224C422.263 266.458 422.427 265.782 422.753 265.194C423.089 264.606 423.537 264.144 424.097 263.808C424.657 263.462 425.292 263.29 426.001 263.29C426.571 263.29 427.079 263.388 427.527 263.584C427.975 263.78 428.353 264.05 428.661 264.396C428.969 264.732 429.203 265.119 429.361 265.558C429.529 265.996 429.613 266.463 429.613 266.958C429.613 267.079 429.609 267.205 429.599 267.336C429.59 267.466 429.571 267.588 429.543 267.7H423.509V266.44H428.647L427.891 267.014C427.985 266.556 427.952 266.15 427.793 265.796C427.644 265.432 427.411 265.147 427.093 264.942C426.785 264.727 426.421 264.62 426.001 264.62C425.581 264.62 425.208 264.727 424.881 264.942C424.555 265.147 424.303 265.446 424.125 265.838C423.948 266.22 423.878 266.687 423.915 267.238C423.869 267.751 423.939 268.199 424.125 268.582C424.321 268.964 424.592 269.263 424.937 269.478C425.292 269.692 425.693 269.8 426.141 269.8C426.599 269.8 426.986 269.697 427.303 269.492C427.63 269.286 427.887 269.02 428.073 268.694L429.361 269.324C429.212 269.678 428.979 270 428.661 270.29C428.353 270.57 427.98 270.794 427.541 270.962C427.112 271.12 426.641 271.2 426.127 271.2ZM433.219 271.032L430.251 263.458H431.973L434.255 269.632H433.625L435.907 263.458H437.643L434.661 271.032H433.219ZM443.94 271.2C443.184 271.2 442.479 271.064 441.826 270.794C441.182 270.523 440.613 270.145 440.118 269.66C439.633 269.174 439.25 268.605 438.97 267.952C438.699 267.298 438.564 266.584 438.564 265.81C438.564 265.035 438.699 264.321 438.97 263.668C439.25 263.005 439.633 262.436 440.118 261.96C440.603 261.474 441.173 261.101 441.826 260.84C442.479 260.569 443.184 260.434 443.94 260.434C444.705 260.434 445.41 260.569 446.054 260.84C446.707 261.101 447.277 261.474 447.762 261.96C448.257 262.445 448.639 263.014 448.91 263.668C449.181 264.321 449.316 265.035 449.316 265.81C449.316 266.584 449.176 267.298 448.896 267.952C448.625 268.605 448.247 269.174 447.762 269.66C447.277 270.145 446.707 270.523 446.054 270.794C445.401 271.064 444.696 271.2 443.94 271.2ZM443.94 269.688C444.481 269.688 444.976 269.59 445.424 269.394C445.881 269.198 446.278 268.927 446.614 268.582C446.95 268.227 447.211 267.816 447.398 267.35C447.585 266.874 447.678 266.36 447.678 265.81C447.678 265.259 447.585 264.75 447.398 264.284C447.211 263.817 446.95 263.406 446.614 263.052C446.278 262.697 445.881 262.422 445.424 262.226C444.976 262.03 444.481 261.932 443.94 261.932C443.399 261.932 442.899 262.03 442.442 262.226C441.994 262.422 441.602 262.697 441.266 263.052C440.93 263.406 440.669 263.817 440.482 264.284C440.305 264.75 440.216 265.259 440.216 265.81C440.216 266.36 440.305 266.874 440.482 267.35C440.669 267.816 440.93 268.227 441.266 268.582C441.602 268.927 441.999 269.198 442.456 269.394C442.913 269.59 443.408 269.688 443.94 269.688ZM451.009 273.832V263.458H452.521V265.026L452.339 264.662C452.619 264.232 452.992 263.896 453.459 263.654C453.926 263.411 454.458 263.29 455.055 263.29C455.774 263.29 456.418 263.462 456.987 263.808C457.566 264.153 458.018 264.624 458.345 265.222C458.681 265.819 458.849 266.491 458.849 267.238C458.849 267.984 458.681 268.656 458.345 269.254C458.018 269.851 457.57 270.327 457.001 270.682C456.432 271.027 455.783 271.2 455.055 271.2C454.467 271.2 453.93 271.078 453.445 270.836C452.969 270.593 452.6 270.243 452.339 269.786L452.591 269.492V273.832H451.009ZM454.901 269.73C455.349 269.73 455.746 269.622 456.091 269.408C456.436 269.193 456.707 268.899 456.903 268.526C457.108 268.143 457.211 267.714 457.211 267.238C457.211 266.762 457.108 266.337 456.903 265.964C456.707 265.59 456.436 265.296 456.091 265.082C455.746 264.867 455.349 264.76 454.901 264.76C454.462 264.76 454.066 264.867 453.711 265.082C453.366 265.296 453.09 265.59 452.885 265.964C452.689 266.337 452.591 266.762 452.591 267.238C452.591 267.714 452.689 268.143 452.885 268.526C453.09 268.899 453.366 269.193 453.711 269.408C454.066 269.622 454.462 269.73 454.901 269.73ZM463.188 271.2C462.413 271.2 461.732 271.008 461.144 270.626C460.565 270.243 460.159 269.73 459.926 269.086L461.144 268.512C461.349 268.941 461.629 269.282 461.984 269.534C462.348 269.786 462.749 269.912 463.188 269.912C463.561 269.912 463.865 269.828 464.098 269.66C464.331 269.492 464.448 269.263 464.448 268.974C464.448 268.787 464.397 268.638 464.294 268.526C464.191 268.404 464.061 268.306 463.902 268.232C463.753 268.157 463.599 268.101 463.44 268.064L462.25 267.728C461.597 267.541 461.107 267.261 460.78 266.888C460.463 266.505 460.304 266.062 460.304 265.558C460.304 265.1 460.421 264.704 460.654 264.368C460.887 264.022 461.209 263.756 461.62 263.57C462.031 263.383 462.493 263.29 463.006 263.29C463.697 263.29 464.313 263.462 464.854 263.808C465.395 264.144 465.778 264.615 466.002 265.222L464.784 265.796C464.635 265.432 464.397 265.142 464.07 264.928C463.753 264.713 463.393 264.606 462.992 264.606C462.647 264.606 462.371 264.69 462.166 264.858C461.961 265.016 461.858 265.226 461.858 265.488C461.858 265.665 461.905 265.814 461.998 265.936C462.091 266.048 462.213 266.141 462.362 266.216C462.511 266.281 462.665 266.337 462.824 266.384L464.056 266.748C464.681 266.925 465.162 267.205 465.498 267.588C465.834 267.961 466.002 268.409 466.002 268.932C466.002 269.38 465.881 269.776 465.638 270.122C465.405 270.458 465.078 270.724 464.658 270.92C464.238 271.106 463.748 271.2 463.188 271.2ZM410.195 292.032V281.602H417.069V283.072H411.847V286.068H416.789V287.538H411.847V290.562H417.069V292.032H410.195ZM418.449 292.032V284.458H419.961V285.942L419.779 285.746C419.966 285.27 420.265 284.91 420.675 284.668C421.086 284.416 421.562 284.29 422.103 284.29C422.663 284.29 423.158 284.411 423.587 284.654C424.017 284.896 424.353 285.232 424.595 285.662C424.838 286.091 424.959 286.586 424.959 287.146V292.032H423.391V287.566C423.391 287.183 423.321 286.861 423.181 286.6C423.041 286.329 422.841 286.124 422.579 285.984C422.327 285.834 422.038 285.76 421.711 285.76C421.385 285.76 421.091 285.834 420.829 285.984C420.577 286.124 420.381 286.329 420.241 286.6C420.101 286.87 420.031 287.192 420.031 287.566V292.032H418.449ZM430.307 295.112C429.756 295.112 429.247 295.023 428.781 294.846C428.314 294.668 427.913 294.421 427.577 294.104C427.241 293.796 426.989 293.432 426.821 293.012L428.277 292.41C428.407 292.764 428.645 293.058 428.991 293.292C429.345 293.525 429.779 293.642 430.293 293.642C430.694 293.642 431.053 293.562 431.371 293.404C431.688 293.254 431.94 293.03 432.127 292.732C432.313 292.442 432.407 292.092 432.407 291.682V289.974L432.687 290.296C432.425 290.781 432.061 291.15 431.595 291.402C431.137 291.654 430.619 291.78 430.041 291.78C429.341 291.78 428.711 291.616 428.151 291.29C427.591 290.963 427.147 290.515 426.821 289.946C426.503 289.376 426.345 288.737 426.345 288.028C426.345 287.309 426.503 286.67 426.821 286.11C427.147 285.55 427.586 285.106 428.137 284.78C428.687 284.453 429.317 284.29 430.027 284.29C430.605 284.29 431.119 284.416 431.567 284.668C432.024 284.91 432.397 285.265 432.687 285.732L432.477 286.124V284.458H433.975V291.682C433.975 292.335 433.816 292.918 433.499 293.432C433.191 293.954 432.761 294.365 432.211 294.664C431.66 294.962 431.025 295.112 430.307 295.112ZM430.223 290.31C430.643 290.31 431.016 290.212 431.343 290.016C431.669 289.81 431.926 289.54 432.113 289.204C432.309 288.858 432.407 288.471 432.407 288.042C432.407 287.612 432.309 287.225 432.113 286.88C431.917 286.534 431.655 286.264 431.329 286.068C431.002 285.862 430.633 285.76 430.223 285.76C429.793 285.76 429.411 285.862 429.075 286.068C428.739 286.264 428.473 286.534 428.277 286.88C428.09 287.216 427.997 287.603 427.997 288.042C427.997 288.462 428.09 288.844 428.277 289.19C428.473 289.535 428.739 289.81 429.075 290.016C429.411 290.212 429.793 290.31 430.223 290.31ZM435.826 292.032V284.458H437.408V292.032H435.826ZM435.826 283.422V281.602H437.408V283.422H435.826ZM439.258 292.032V284.458H440.77V285.942L440.588 285.746C440.775 285.27 441.073 284.91 441.484 284.668C441.895 284.416 442.371 284.29 442.912 284.29C443.472 284.29 443.967 284.411 444.396 284.654C444.825 284.896 445.161 285.232 445.404 285.662C445.647 286.091 445.768 286.586 445.768 287.146V292.032H444.2V287.566C444.2 287.183 444.13 286.861 443.99 286.6C443.85 286.329 443.649 286.124 443.388 285.984C443.136 285.834 442.847 285.76 442.52 285.76C442.193 285.76 441.899 285.834 441.638 285.984C441.386 286.124 441.19 286.329 441.05 286.6C440.91 286.87 440.84 287.192 440.84 287.566V292.032H439.258ZM451.017 292.2C450.261 292.2 449.589 292.027 449.001 291.682C448.422 291.327 447.97 290.851 447.643 290.254C447.316 289.647 447.153 288.97 447.153 288.224C447.153 287.458 447.316 286.782 447.643 286.194C447.979 285.606 448.427 285.144 448.987 284.808C449.547 284.462 450.182 284.29 450.891 284.29C451.46 284.29 451.969 284.388 452.417 284.584C452.865 284.78 453.243 285.05 453.551 285.396C453.859 285.732 454.092 286.119 454.251 286.558C454.419 286.996 454.503 287.463 454.503 287.958C454.503 288.079 454.498 288.205 454.489 288.336C454.48 288.466 454.461 288.588 454.433 288.7H448.399V287.44H453.537L452.781 288.014C452.874 287.556 452.842 287.15 452.683 286.796C452.534 286.432 452.3 286.147 451.983 285.942C451.675 285.727 451.311 285.62 450.891 285.62C450.471 285.62 450.098 285.727 449.771 285.942C449.444 286.147 449.192 286.446 449.015 286.838C448.838 287.22 448.768 287.687 448.805 288.238C448.758 288.751 448.828 289.199 449.015 289.582C449.211 289.964 449.482 290.263 449.827 290.478C450.182 290.692 450.583 290.8 451.031 290.8C451.488 290.8 451.876 290.697 452.193 290.492C452.52 290.286 452.776 290.02 452.963 289.694L454.251 290.324C454.102 290.678 453.868 291 453.551 291.29C453.243 291.57 452.87 291.794 452.431 291.962C452.002 292.12 451.53 292.2 451.017 292.2ZM459.603 292.2C458.847 292.2 458.175 292.027 457.587 291.682C457.008 291.327 456.556 290.851 456.229 290.254C455.902 289.647 455.739 288.97 455.739 288.224C455.739 287.458 455.902 286.782 456.229 286.194C456.565 285.606 457.013 285.144 457.573 284.808C458.133 284.462 458.768 284.29 459.477 284.29C460.046 284.29 460.555 284.388 461.003 284.584C461.451 284.78 461.829 285.05 462.137 285.396C462.445 285.732 462.678 286.119 462.837 286.558C463.005 286.996 463.089 287.463 463.089 287.958C463.089 288.079 463.084 288.205 463.075 288.336C463.066 288.466 463.047 288.588 463.019 288.7H456.985V287.44H462.123L461.367 288.014C461.46 287.556 461.428 287.15 461.269 286.796C461.12 286.432 460.886 286.147 460.569 285.942C460.261 285.727 459.897 285.62 459.477 285.62C459.057 285.62 458.684 285.727 458.357 285.942C458.03 286.147 457.778 286.446 457.601 286.838C457.424 287.22 457.354 287.687 457.391 288.238C457.344 288.751 457.414 289.199 457.601 289.582C457.797 289.964 458.068 290.263 458.413 290.478C458.768 290.692 459.169 290.8 459.617 290.8C460.074 290.8 460.462 290.697 460.779 290.492C461.106 290.286 461.362 290.02 461.549 289.694L462.837 290.324C462.688 290.678 462.454 291 462.137 291.29C461.829 291.57 461.456 291.794 461.017 291.962C460.588 292.12 460.116 292.2 459.603 292.2ZM464.633 292.032V284.458H466.145V285.984L466.005 285.76C466.173 285.265 466.444 284.91 466.817 284.696C467.19 284.472 467.638 284.36 468.161 284.36H468.623V285.802H467.965C467.442 285.802 467.018 285.965 466.691 286.292C466.374 286.609 466.215 287.066 466.215 287.664V292.032H464.633Z" fill="#616161"/>
<circle cx="321.577" cy="175.164" r="67.845" fill="#0865FF"/>
<path d="M294.207 170.168C293.47 170.168 292.784 170.033 292.149 169.762C291.524 169.491 290.978 169.118 290.511 168.642C290.054 168.157 289.695 167.587 289.433 166.934C289.172 166.281 289.041 165.562 289.041 164.778C289.041 164.003 289.167 163.289 289.419 162.636C289.681 161.973 290.045 161.404 290.511 160.928C290.978 160.443 291.524 160.069 292.149 159.808C292.775 159.537 293.461 159.402 294.207 159.402C294.945 159.402 295.603 159.528 296.181 159.78C296.769 160.032 297.264 160.363 297.665 160.774C298.067 161.175 298.356 161.614 298.533 162.09L297.049 162.79C296.825 162.23 296.466 161.777 295.971 161.432C295.486 161.077 294.898 160.9 294.207 160.9C293.517 160.9 292.905 161.063 292.373 161.39C291.841 161.717 291.426 162.169 291.127 162.748C290.838 163.327 290.693 164.003 290.693 164.778C290.693 165.553 290.838 166.234 291.127 166.822C291.426 167.401 291.841 167.853 292.373 168.18C292.905 168.497 293.517 168.656 294.207 168.656C294.898 168.656 295.486 168.483 295.971 168.138C296.466 167.793 296.825 167.34 297.049 166.78L298.533 167.48C298.356 167.947 298.067 168.385 297.665 168.796C297.264 169.207 296.769 169.538 296.181 169.79C295.603 170.042 294.945 170.168 294.207 170.168ZM302.78 170.168C302.211 170.168 301.712 170.042 301.282 169.79C300.853 169.529 300.517 169.169 300.274 168.712C300.041 168.245 299.924 167.709 299.924 167.102V162.426H301.506V166.962C301.506 167.307 301.576 167.611 301.716 167.872C301.856 168.133 302.052 168.339 302.304 168.488C302.556 168.628 302.846 168.698 303.172 168.698C303.508 168.698 303.802 168.623 304.054 168.474C304.306 168.325 304.502 168.115 304.642 167.844C304.792 167.573 304.866 167.256 304.866 166.892V162.426H306.434V170H304.936V168.516L305.104 168.712C304.927 169.179 304.633 169.538 304.222 169.79C303.812 170.042 303.331 170.168 302.78 170.168ZM311.081 170.168C310.307 170.168 309.625 169.977 309.037 169.594C308.459 169.211 308.053 168.698 307.819 168.054L309.037 167.48C309.243 167.909 309.523 168.25 309.877 168.502C310.241 168.754 310.643 168.88 311.081 168.88C311.455 168.88 311.758 168.796 311.991 168.628C312.225 168.46 312.341 168.231 312.341 167.942C312.341 167.755 312.29 167.606 312.187 167.494C312.085 167.373 311.954 167.275 311.795 167.2C311.646 167.125 311.492 167.069 311.333 167.032L310.143 166.696C309.49 166.509 309 166.229 308.673 165.856C308.356 165.473 308.197 165.03 308.197 164.526C308.197 164.069 308.314 163.672 308.547 163.336C308.781 162.991 309.103 162.725 309.513 162.538C309.924 162.351 310.386 162.258 310.899 162.258C311.59 162.258 312.206 162.431 312.747 162.776C313.289 163.112 313.671 163.583 313.895 164.19L312.677 164.764C312.528 164.4 312.29 164.111 311.963 163.896C311.646 163.681 311.287 163.574 310.885 163.574C310.54 163.574 310.265 163.658 310.059 163.826C309.854 163.985 309.751 164.195 309.751 164.456C309.751 164.633 309.798 164.783 309.891 164.904C309.985 165.016 310.106 165.109 310.255 165.184C310.405 165.249 310.559 165.305 310.717 165.352L311.949 165.716C312.575 165.893 313.055 166.173 313.391 166.556C313.727 166.929 313.895 167.377 313.895 167.9C313.895 168.348 313.774 168.745 313.531 169.09C313.298 169.426 312.971 169.692 312.551 169.888C312.131 170.075 311.641 170.168 311.081 170.168ZM318.721 170.084C317.928 170.084 317.312 169.86 316.873 169.412C316.435 168.964 316.215 168.334 316.215 167.522V163.854H314.885V162.426H315.095C315.45 162.426 315.725 162.323 315.921 162.118C316.117 161.913 316.215 161.633 316.215 161.278V160.69H317.797V162.426H319.519V163.854H317.797V167.452C317.797 167.713 317.839 167.937 317.923 168.124C318.007 168.301 318.143 168.441 318.329 168.544C318.516 168.637 318.759 168.684 319.057 168.684C319.132 168.684 319.216 168.679 319.309 168.67C319.403 168.661 319.491 168.651 319.575 168.642V170C319.445 170.019 319.3 170.037 319.141 170.056C318.983 170.075 318.843 170.084 318.721 170.084ZM324.637 170.168C323.909 170.168 323.241 169.995 322.635 169.65C322.037 169.305 321.561 168.833 321.207 168.236C320.852 167.639 320.675 166.962 320.675 166.206C320.675 165.441 320.852 164.764 321.207 164.176C321.561 163.579 322.037 163.112 322.635 162.776C323.232 162.431 323.899 162.258 324.637 162.258C325.383 162.258 326.051 162.431 326.639 162.776C327.236 163.112 327.707 163.579 328.053 164.176C328.407 164.764 328.585 165.441 328.585 166.206C328.585 166.971 328.407 167.653 328.053 168.25C327.698 168.847 327.222 169.319 326.625 169.664C326.027 170 325.365 170.168 324.637 170.168ZM324.637 168.698C325.085 168.698 325.481 168.591 325.827 168.376C326.172 168.161 326.443 167.867 326.639 167.494C326.844 167.111 326.947 166.682 326.947 166.206C326.947 165.73 326.844 165.305 326.639 164.932C326.443 164.559 326.172 164.265 325.827 164.05C325.481 163.835 325.085 163.728 324.637 163.728C324.198 163.728 323.801 163.835 323.447 164.05C323.101 164.265 322.826 164.559 322.621 164.932C322.425 165.305 322.327 165.73 322.327 166.206C322.327 166.682 322.425 167.111 322.621 167.494C322.826 167.867 323.101 168.161 323.447 168.376C323.801 168.591 324.198 168.698 324.637 168.698ZM330.129 170V162.426H331.641V164.064L331.445 163.812C331.604 163.299 331.893 162.911 332.313 162.65C332.733 162.389 333.214 162.258 333.755 162.258C334.362 162.258 334.898 162.421 335.365 162.748C335.841 163.065 336.158 163.49 336.317 164.022L335.869 164.064C336.093 163.457 336.434 163.005 336.891 162.706C337.358 162.407 337.89 162.258 338.487 162.258C339.01 162.258 339.481 162.379 339.901 162.622C340.33 162.865 340.671 163.201 340.923 163.63C341.175 164.059 341.301 164.549 341.301 165.1V170H339.719V165.534C339.719 165.151 339.649 164.829 339.509 164.568C339.378 164.297 339.192 164.092 338.949 163.952C338.716 163.803 338.44 163.728 338.123 163.728C337.806 163.728 337.526 163.803 337.283 163.952C337.04 164.092 336.849 164.297 336.709 164.568C336.569 164.839 336.499 165.161 336.499 165.534V170H334.931V165.534C334.931 165.151 334.861 164.829 334.721 164.568C334.59 164.297 334.404 164.092 334.161 163.952C333.928 163.803 333.648 163.728 333.321 163.728C333.004 163.728 332.724 163.803 332.481 163.952C332.238 164.092 332.047 164.297 331.907 164.568C331.776 164.839 331.711 165.161 331.711 165.534V170H330.129ZM346.55 170.168C345.794 170.168 345.122 169.995 344.534 169.65C343.956 169.295 343.503 168.819 343.176 168.222C342.85 167.615 342.686 166.939 342.686 166.192C342.686 165.427 342.85 164.75 343.176 164.162C343.512 163.574 343.96 163.112 344.52 162.776C345.08 162.431 345.715 162.258 346.424 162.258C346.994 162.258 347.502 162.356 347.95 162.552C348.398 162.748 348.776 163.019 349.084 163.364C349.392 163.7 349.626 164.087 349.784 164.526C349.952 164.965 350.036 165.431 350.036 165.926C350.036 166.047 350.032 166.173 350.022 166.304C350.013 166.435 349.994 166.556 349.966 166.668H343.932V165.408H349.07L348.314 165.982C348.408 165.525 348.375 165.119 348.216 164.764C348.067 164.4 347.834 164.115 347.516 163.91C347.208 163.695 346.844 163.588 346.424 163.588C346.004 163.588 345.631 163.695 345.304 163.91C344.978 164.115 344.726 164.414 344.548 164.806C344.371 165.189 344.301 165.655 344.338 166.206C344.292 166.719 344.362 167.167 344.548 167.55C344.744 167.933 345.015 168.231 345.36 168.446C345.715 168.661 346.116 168.768 346.564 168.768C347.022 168.768 347.409 168.665 347.726 168.46C348.053 168.255 348.31 167.989 348.496 167.662L349.784 168.292C349.635 168.647 349.402 168.969 349.084 169.258C348.776 169.538 348.403 169.762 347.964 169.93C347.535 170.089 347.064 170.168 346.55 170.168ZM351.58 170V162.426H353.092V163.952L352.952 163.728C353.12 163.233 353.391 162.879 353.764 162.664C354.138 162.44 354.586 162.328 355.108 162.328H355.57V163.77H354.912C354.39 163.77 353.965 163.933 353.638 164.26C353.321 164.577 353.162 165.035 353.162 165.632V170H351.58ZM284.13 191.168C283.477 191.168 282.87 191.047 282.31 190.804C281.75 190.552 281.274 190.211 280.882 189.782C280.49 189.353 280.201 188.858 280.014 188.298L281.414 187.71C281.666 188.354 282.035 188.849 282.52 189.194C283.006 189.539 283.566 189.712 284.2 189.712C284.574 189.712 284.9 189.656 285.18 189.544C285.46 189.423 285.675 189.255 285.824 189.04C285.983 188.825 286.062 188.578 286.062 188.298C286.062 187.915 285.955 187.612 285.74 187.388C285.526 187.164 285.208 186.987 284.788 186.856L282.828 186.24C282.044 185.997 281.447 185.629 281.036 185.134C280.626 184.63 280.42 184.042 280.42 183.37C280.42 182.782 280.565 182.269 280.854 181.83C281.144 181.382 281.54 181.032 282.044 180.78C282.558 180.528 283.141 180.402 283.794 180.402C284.42 180.402 284.989 180.514 285.502 180.738C286.016 180.953 286.454 181.251 286.818 181.634C287.192 182.017 287.462 182.46 287.63 182.964L286.258 183.566C286.053 183.015 285.731 182.591 285.292 182.292C284.863 181.993 284.364 181.844 283.794 181.844C283.449 181.844 283.146 181.905 282.884 182.026C282.623 182.138 282.418 182.306 282.268 182.53C282.128 182.745 282.058 182.997 282.058 183.286C282.058 183.622 282.166 183.921 282.38 184.182C282.595 184.443 282.922 184.639 283.36 184.77L285.18 185.344C286.011 185.596 286.636 185.96 287.056 186.436C287.476 186.903 287.686 187.486 287.686 188.186C287.686 188.765 287.532 189.278 287.224 189.726C286.926 190.174 286.51 190.529 285.978 190.79C285.446 191.042 284.83 191.168 284.13 191.168ZM292.089 191.168C291.52 191.168 291.02 191.042 290.591 190.79C290.162 190.529 289.826 190.169 289.583 189.712C289.35 189.245 289.233 188.709 289.233 188.102V183.426H290.815V187.962C290.815 188.307 290.885 188.611 291.025 188.872C291.165 189.133 291.361 189.339 291.613 189.488C291.865 189.628 292.154 189.698 292.481 189.698C292.817 189.698 293.111 189.623 293.363 189.474C293.615 189.325 293.811 189.115 293.951 188.844C294.1 188.573 294.175 188.256 294.175 187.892V183.426H295.743V191H294.245V189.516L294.413 189.712C294.236 190.179 293.942 190.538 293.531 190.79C293.12 191.042 292.64 191.168 292.089 191.168ZM297.59 193.8V183.426H299.102V184.994L298.92 184.63C299.2 184.201 299.573 183.865 300.04 183.622C300.507 183.379 301.039 183.258 301.636 183.258C302.355 183.258 302.999 183.431 303.568 183.776C304.147 184.121 304.599 184.593 304.926 185.19C305.262 185.787 305.43 186.459 305.43 187.206C305.43 187.953 305.262 188.625 304.926 189.222C304.599 189.819 304.151 190.295 303.582 190.65C303.013 190.995 302.364 191.168 301.636 191.168C301.048 191.168 300.511 191.047 300.026 190.804C299.55 190.561 299.181 190.211 298.92 189.754L299.172 189.46V193.8H297.59ZM301.482 189.698C301.93 189.698 302.327 189.591 302.672 189.376C303.017 189.161 303.288 188.867 303.484 188.494C303.689 188.111 303.792 187.682 303.792 187.206C303.792 186.73 303.689 186.305 303.484 185.932C303.288 185.559 303.017 185.265 302.672 185.05C302.327 184.835 301.93 184.728 301.482 184.728C301.043 184.728 300.647 184.835 300.292 185.05C299.947 185.265 299.671 185.559 299.466 185.932C299.27 186.305 299.172 186.73 299.172 187.206C299.172 187.682 299.27 188.111 299.466 188.494C299.671 188.867 299.947 189.161 300.292 189.376C300.647 189.591 301.043 189.698 301.482 189.698ZM306.969 193.8V183.426H308.481V184.994L308.299 184.63C308.579 184.201 308.952 183.865 309.419 183.622C309.886 183.379 310.418 183.258 311.015 183.258C311.734 183.258 312.378 183.431 312.947 183.776C313.526 184.121 313.978 184.593 314.305 185.19C314.641 185.787 314.809 186.459 314.809 187.206C314.809 187.953 314.641 188.625 314.305 189.222C313.978 189.819 313.53 190.295 312.961 190.65C312.392 190.995 311.743 191.168 311.015 191.168C310.427 191.168 309.89 191.047 309.405 190.804C308.929 190.561 308.56 190.211 308.299 189.754L308.551 189.46V193.8H306.969ZM310.861 189.698C311.309 189.698 311.706 189.591 312.051 189.376C312.396 189.161 312.667 188.867 312.863 188.494C313.068 188.111 313.171 187.682 313.171 187.206C313.171 186.73 313.068 186.305 312.863 185.932C312.667 185.559 312.396 185.265 312.051 185.05C311.706 184.835 311.309 184.728 310.861 184.728C310.422 184.728 310.026 184.835 309.671 185.05C309.326 185.265 309.05 185.559 308.845 185.932C308.649 186.305 308.551 186.73 308.551 187.206C308.551 187.682 308.649 188.111 308.845 188.494C309.05 188.867 309.326 189.161 309.671 189.376C310.026 189.591 310.422 189.698 310.861 189.698ZM320.002 191.168C319.274 191.168 318.606 190.995 318 190.65C317.402 190.305 316.926 189.833 316.572 189.236C316.217 188.639 316.04 187.962 316.04 187.206C316.04 186.441 316.217 185.764 316.572 185.176C316.926 184.579 317.402 184.112 318 183.776C318.597 183.431 319.264 183.258 320.002 183.258C320.748 183.258 321.416 183.431 322.004 183.776C322.601 184.112 323.072 184.579 323.418 185.176C323.772 185.764 323.95 186.441 323.95 187.206C323.95 187.971 323.772 188.653 323.418 189.25C323.063 189.847 322.587 190.319 321.99 190.664C321.392 191 320.73 191.168 320.002 191.168ZM320.002 189.698C320.45 189.698 320.846 189.591 321.192 189.376C321.537 189.161 321.808 188.867 322.004 188.494C322.209 188.111 322.312 187.682 322.312 187.206C322.312 186.73 322.209 186.305 322.004 185.932C321.808 185.559 321.537 185.265 321.192 185.05C320.846 184.835 320.45 184.728 320.002 184.728C319.563 184.728 319.166 184.835 318.812 185.05C318.466 185.265 318.191 185.559 317.986 185.932C317.79 186.305 317.692 186.73 317.692 187.206C317.692 187.682 317.79 188.111 317.986 188.494C318.191 188.867 318.466 189.161 318.812 189.376C319.166 189.591 319.563 189.698 320.002 189.698ZM325.494 191V183.426H327.006V184.952L326.866 184.728C327.034 184.233 327.305 183.879 327.678 183.664C328.052 183.44 328.5 183.328 329.022 183.328H329.484V184.77H328.826C328.304 184.77 327.879 184.933 327.552 185.26C327.235 185.577 327.076 186.035 327.076 186.632V191H325.494ZM333.979 191.084C333.186 191.084 332.57 190.86 332.131 190.412C331.693 189.964 331.473 189.334 331.473 188.522V184.854H330.143V183.426H330.353C330.708 183.426 330.983 183.323 331.179 183.118C331.375 182.913 331.473 182.633 331.473 182.278V181.69H333.055V183.426H334.777V184.854H333.055V188.452C333.055 188.713 333.097 188.937 333.181 189.124C333.265 189.301 333.401 189.441 333.587 189.544C333.774 189.637 334.017 189.684 334.315 189.684C334.39 189.684 334.474 189.679 334.567 189.67C334.661 189.661 334.749 189.651 334.833 189.642V191C334.703 191.019 334.558 191.037 334.399 191.056C334.241 191.075 334.101 191.084 333.979 191.084ZM338.978 191V180.57H342.772C343.472 180.57 344.088 180.701 344.62 180.962C345.152 181.214 345.568 181.587 345.866 182.082C346.174 182.567 346.328 183.151 346.328 183.832C346.328 184.551 346.146 185.167 345.782 185.68C345.428 186.193 344.947 186.567 344.34 186.8L346.748 191H344.872L342.31 186.45L343.388 187.08H340.63V191H338.978ZM340.63 185.61H342.8C343.183 185.61 343.514 185.535 343.794 185.386C344.074 185.237 344.289 185.031 344.438 184.77C344.597 184.499 344.676 184.182 344.676 183.818C344.676 183.454 344.597 183.141 344.438 182.88C344.289 182.609 344.074 182.404 343.794 182.264C343.514 182.115 343.183 182.04 342.8 182.04H340.63V185.61ZM351.117 191.168C350.361 191.168 349.689 190.995 349.101 190.65C348.522 190.295 348.069 189.819 347.743 189.222C347.416 188.615 347.253 187.939 347.253 187.192C347.253 186.427 347.416 185.75 347.743 185.162C348.079 184.574 348.527 184.112 349.087 183.776C349.647 183.431 350.281 183.258 350.991 183.258C351.56 183.258 352.069 183.356 352.517 183.552C352.965 183.748 353.343 184.019 353.651 184.364C353.959 184.7 354.192 185.087 354.351 185.526C354.519 185.965 354.603 186.431 354.603 186.926C354.603 187.047 354.598 187.173 354.589 187.304C354.579 187.435 354.561 187.556 354.533 187.668H348.499V186.408H353.637L352.881 186.982C352.974 186.525 352.941 186.119 352.783 185.764C352.633 185.4 352.4 185.115 352.083 184.91C351.775 184.695 351.411 184.588 350.991 184.588C350.571 184.588 350.197 184.695 349.871 184.91C349.544 185.115 349.292 185.414 349.115 185.806C348.937 186.189 348.867 186.655 348.905 187.206C348.858 187.719 348.928 188.167 349.115 188.55C349.311 188.933 349.581 189.231 349.927 189.446C350.281 189.661 350.683 189.768 351.131 189.768C351.588 189.768 351.975 189.665 352.293 189.46C352.619 189.255 352.876 188.989 353.063 188.662L354.351 189.292C354.201 189.647 353.968 189.969 353.651 190.258C353.343 190.538 352.969 190.762 352.531 190.93C352.101 191.089 351.63 191.168 351.117 191.168ZM356.147 193.8V183.426H357.659V184.994L357.477 184.63C357.757 184.201 358.13 183.865 358.597 183.622C359.063 183.379 359.595 183.258 360.193 183.258C360.911 183.258 361.555 183.431 362.125 183.776C362.703 184.121 363.156 184.593 363.483 185.19C363.819 185.787 363.987 186.459 363.987 187.206C363.987 187.953 363.819 188.625 363.483 189.222C363.156 189.819 362.708 190.295 362.139 190.65C361.569 190.995 360.921 191.168 360.193 191.168C359.605 191.168 359.068 191.047 358.583 190.804C358.107 190.561 357.738 190.211 357.477 189.754L357.729 189.46V193.8H356.147ZM360.039 189.698C360.487 189.698 360.883 189.591 361.229 189.376C361.574 189.161 361.845 188.867 362.041 188.494C362.246 188.111 362.349 187.682 362.349 187.206C362.349 186.73 362.246 186.305 362.041 185.932C361.845 185.559 361.574 185.265 361.229 185.05C360.883 184.835 360.487 184.728 360.039 184.728C359.6 184.728 359.203 184.835 358.849 185.05C358.503 185.265 358.228 185.559 358.023 185.932C357.827 186.305 357.729 186.73 357.729 187.206C357.729 187.682 357.827 188.111 358.023 188.494C358.228 188.867 358.503 189.161 358.849 189.376C359.203 189.591 359.6 189.698 360.039 189.698Z" fill="white"/>
<circle cx="189.454" cy="154.454" r="53.4537" fill="#0101DB"/>
<path d="M163.703 149.904V139.474H170.493V140.944H165.355V144.08H169.933V145.55H165.355V149.904H163.703ZM171.725 149.904V142.33H173.307V149.904H171.725ZM171.725 141.294V139.474H173.307V141.294H171.725ZM175.156 149.904V142.33H176.668V143.814L176.486 143.618C176.673 143.142 176.972 142.783 177.382 142.54C177.793 142.288 178.269 142.162 178.81 142.162C179.37 142.162 179.865 142.284 180.294 142.526C180.724 142.769 181.06 143.105 181.302 143.534C181.545 143.964 181.666 144.458 181.666 145.018V149.904H180.098V145.438C180.098 145.056 180.028 144.734 179.888 144.472C179.748 144.202 179.548 143.996 179.286 143.856C179.034 143.707 178.745 143.632 178.418 143.632C178.092 143.632 177.798 143.707 177.536 143.856C177.284 143.996 177.088 144.202 176.948 144.472C176.808 144.743 176.738 145.065 176.738 145.438V149.904H175.156ZM185.628 150.072C185.114 150.072 184.662 149.984 184.27 149.806C183.887 149.62 183.588 149.368 183.374 149.05C183.159 148.724 183.052 148.341 183.052 147.902C183.052 147.492 183.14 147.123 183.318 146.796C183.504 146.47 183.789 146.194 184.172 145.97C184.554 145.746 185.035 145.588 185.614 145.494L188.246 145.06V146.306L185.922 146.712C185.502 146.787 185.194 146.922 184.998 147.118C184.802 147.305 184.704 147.548 184.704 147.846C184.704 148.136 184.811 148.374 185.026 148.56C185.25 148.738 185.534 148.826 185.88 148.826C186.309 148.826 186.682 148.733 187 148.546C187.326 148.36 187.578 148.112 187.756 147.804C187.933 147.487 188.022 147.137 188.022 146.754V144.808C188.022 144.435 187.882 144.132 187.602 143.898C187.331 143.656 186.967 143.534 186.51 143.534C186.09 143.534 185.721 143.646 185.404 143.87C185.096 144.085 184.867 144.365 184.718 144.71L183.402 144.052C183.542 143.679 183.77 143.352 184.088 143.072C184.405 142.783 184.774 142.559 185.194 142.4C185.623 142.242 186.076 142.162 186.552 142.162C187.149 142.162 187.676 142.274 188.134 142.498C188.6 142.722 188.96 143.035 189.212 143.436C189.473 143.828 189.604 144.286 189.604 144.808V149.904H188.092V148.532L188.414 148.574C188.236 148.882 188.008 149.148 187.728 149.372C187.457 149.596 187.144 149.769 186.79 149.89C186.444 150.012 186.057 150.072 185.628 150.072ZM191.453 149.904V142.33H192.965V143.814L192.783 143.618C192.97 143.142 193.269 142.783 193.679 142.54C194.09 142.288 194.566 142.162 195.107 142.162C195.667 142.162 196.162 142.284 196.591 142.526C197.021 142.769 197.357 143.105 197.599 143.534C197.842 143.964 197.963 144.458 197.963 145.018V149.904H196.395V145.438C196.395 145.056 196.325 144.734 196.185 144.472C196.045 144.202 195.845 143.996 195.583 143.856C195.331 143.707 195.042 143.632 194.715 143.632C194.389 143.632 194.095 143.707 193.833 143.856C193.581 143.996 193.385 144.202 193.245 144.472C193.105 144.743 193.035 145.065 193.035 145.438V149.904H191.453ZM203.254 150.072C202.498 150.072 201.826 149.9 201.238 149.554C200.66 149.2 200.198 148.724 199.852 148.126C199.516 147.529 199.348 146.852 199.348 146.096C199.348 145.35 199.516 144.678 199.852 144.08C200.188 143.483 200.65 143.016 201.238 142.68C201.826 142.335 202.498 142.162 203.254 142.162C203.768 142.162 204.248 142.256 204.696 142.442C205.144 142.62 205.532 142.867 205.858 143.184C206.194 143.502 206.442 143.87 206.6 144.29L205.214 144.934C205.056 144.542 204.799 144.23 204.444 143.996C204.099 143.754 203.702 143.632 203.254 143.632C202.825 143.632 202.438 143.74 202.092 143.954C201.756 144.16 201.49 144.454 201.294 144.836C201.098 145.21 201 145.634 201 146.11C201 146.586 201.098 147.016 201.294 147.398C201.49 147.772 201.756 148.066 202.092 148.28C202.438 148.495 202.825 148.602 203.254 148.602C203.712 148.602 204.108 148.486 204.444 148.252C204.79 148.01 205.046 147.688 205.214 147.286L206.6 147.944C206.451 148.346 206.208 148.71 205.872 149.036C205.546 149.354 205.158 149.606 204.71 149.792C204.262 149.979 203.777 150.072 203.254 150.072ZM211.703 150.072C210.947 150.072 210.275 149.9 209.687 149.554C209.108 149.2 208.655 148.724 208.329 148.126C208.002 147.52 207.839 146.843 207.839 146.096C207.839 145.331 208.002 144.654 208.329 144.066C208.665 143.478 209.113 143.016 209.673 142.68C210.233 142.335 210.867 142.162 211.577 142.162C212.146 142.162 212.655 142.26 213.103 142.456C213.551 142.652 213.929 142.923 214.237 143.268C214.545 143.604 214.778 143.992 214.937 144.43C215.105 144.869 215.189 145.336 215.189 145.83C215.189 145.952 215.184 146.078 215.175 146.208C215.165 146.339 215.147 146.46 215.119 146.572H209.085V145.312H214.223L213.467 145.886C213.56 145.429 213.527 145.023 213.369 144.668C213.219 144.304 212.986 144.02 212.669 143.814C212.361 143.6 211.997 143.492 211.577 143.492C211.157 143.492 210.783 143.6 210.457 143.814C210.13 144.02 209.878 144.318 209.701 144.71C209.523 145.093 209.453 145.56 209.491 146.11C209.444 146.624 209.514 147.072 209.701 147.454C209.897 147.837 210.167 148.136 210.513 148.35C210.867 148.565 211.269 148.672 211.717 148.672C212.174 148.672 212.561 148.57 212.879 148.364C213.205 148.159 213.462 147.893 213.649 147.566L214.937 148.196C214.787 148.551 214.554 148.873 214.237 149.162C213.929 149.442 213.555 149.666 213.117 149.834C212.687 149.993 212.216 150.072 211.703 150.072ZM164.256 170.904L167.924 160.474H169.968L173.636 170.904H171.872L171.074 168.566H166.832L166.02 170.904H164.256ZM167.308 167.096H170.57L168.722 161.636H169.184L167.308 167.096ZM174.719 170.904V163.33H176.231V164.814L176.049 164.618C176.236 164.142 176.534 163.783 176.945 163.54C177.356 163.288 177.832 163.162 178.373 163.162C178.933 163.162 179.428 163.284 179.857 163.526C180.286 163.769 180.622 164.105 180.865 164.534C181.108 164.964 181.229 165.458 181.229 166.018V170.904H179.661V166.438C179.661 166.056 179.591 165.734 179.451 165.472C179.311 165.202 179.11 164.996 178.849 164.856C178.597 164.707 178.308 164.632 177.981 164.632C177.654 164.632 177.36 164.707 177.099 164.856C176.847 164.996 176.651 165.202 176.511 165.472C176.371 165.743 176.301 166.065 176.301 166.438V170.904H174.719ZM185.19 171.072C184.677 171.072 184.224 170.984 183.832 170.806C183.449 170.62 183.151 170.368 182.936 170.05C182.721 169.724 182.614 169.341 182.614 168.902C182.614 168.492 182.703 168.123 182.88 167.796C183.067 167.47 183.351 167.194 183.734 166.97C184.117 166.746 184.597 166.588 185.176 166.494L187.808 166.06V167.306L185.484 167.712C185.064 167.787 184.756 167.922 184.56 168.118C184.364 168.305 184.266 168.548 184.266 168.846C184.266 169.136 184.373 169.374 184.588 169.56C184.812 169.738 185.097 169.826 185.442 169.826C185.871 169.826 186.245 169.733 186.562 169.546C186.889 169.36 187.141 169.112 187.318 168.804C187.495 168.487 187.584 168.137 187.584 167.754V165.808C187.584 165.435 187.444 165.132 187.164 164.898C186.893 164.656 186.529 164.534 186.072 164.534C185.652 164.534 185.283 164.646 184.966 164.87C184.658 165.085 184.429 165.365 184.28 165.71L182.964 165.052C183.104 164.679 183.333 164.352 183.65 164.072C183.967 163.783 184.336 163.559 184.756 163.4C185.185 163.242 185.638 163.162 186.114 163.162C186.711 163.162 187.239 163.274 187.696 163.498C188.163 163.722 188.522 164.035 188.774 164.436C189.035 164.828 189.166 165.286 189.166 165.808V170.904H187.654V169.532L187.976 169.574C187.799 169.882 187.57 170.148 187.29 170.372C187.019 170.596 186.707 170.769 186.352 170.89C186.007 171.012 185.619 171.072 185.19 171.072ZM191.016 170.904V160.306H192.598V170.904H191.016ZM195.119 173.984C194.933 173.984 194.746 173.966 194.559 173.928C194.382 173.9 194.219 173.854 194.069 173.788V172.43C194.181 172.458 194.317 172.482 194.475 172.5C194.634 172.528 194.788 172.542 194.937 172.542C195.376 172.542 195.698 172.444 195.903 172.248C196.118 172.062 196.309 171.772 196.477 171.38L196.981 170.232L196.953 171.562L193.677 163.33H195.371L197.793 169.644H197.219L199.627 163.33H201.335L197.989 171.73C197.812 172.178 197.588 172.57 197.317 172.906C197.056 173.252 196.743 173.518 196.379 173.704C196.025 173.891 195.605 173.984 195.119 173.984ZM205.218 171.072C204.443 171.072 203.762 170.881 203.174 170.498C202.595 170.116 202.189 169.602 201.956 168.958L203.174 168.384C203.379 168.814 203.659 169.154 204.014 169.406C204.378 169.658 204.779 169.784 205.218 169.784C205.591 169.784 205.895 169.7 206.128 169.532C206.361 169.364 206.478 169.136 206.478 168.846C206.478 168.66 206.427 168.51 206.324 168.398C206.221 168.277 206.091 168.179 205.932 168.104C205.783 168.03 205.629 167.974 205.47 167.936L204.28 167.6C203.627 167.414 203.137 167.134 202.81 166.76C202.493 166.378 202.334 165.934 202.334 165.43C202.334 164.973 202.451 164.576 202.684 164.24C202.917 163.895 203.239 163.629 203.65 163.442C204.061 163.256 204.523 163.162 205.036 163.162C205.727 163.162 206.343 163.335 206.884 163.68C207.425 164.016 207.808 164.488 208.032 165.094L206.814 165.668C206.665 165.304 206.427 165.015 206.1 164.8C205.783 164.586 205.423 164.478 205.022 164.478C204.677 164.478 204.401 164.562 204.196 164.73C203.991 164.889 203.888 165.099 203.888 165.36C203.888 165.538 203.935 165.687 204.028 165.808C204.121 165.92 204.243 166.014 204.392 166.088C204.541 166.154 204.695 166.21 204.854 166.256L206.086 166.62C206.711 166.798 207.192 167.078 207.528 167.46C207.864 167.834 208.032 168.282 208.032 168.804C208.032 169.252 207.911 169.649 207.668 169.994C207.435 170.33 207.108 170.596 206.688 170.792C206.268 170.979 205.778 171.072 205.218 171.072ZM212.858 170.988C212.065 170.988 211.449 170.764 211.01 170.316C210.572 169.868 210.352 169.238 210.352 168.426V164.758H209.022V163.33H209.232C209.587 163.33 209.862 163.228 210.058 163.022C210.254 162.817 210.352 162.537 210.352 162.182V161.594H211.934V163.33H213.656V164.758H211.934V168.356C211.934 168.618 211.976 168.842 212.06 169.028C212.144 169.206 212.28 169.346 212.466 169.448C212.653 169.542 212.896 169.588 213.194 169.588C213.269 169.588 213.353 169.584 213.446 169.574C213.54 169.565 213.628 169.556 213.712 169.546V170.904C213.582 170.923 213.437 170.942 213.278 170.96C213.12 170.979 212.98 170.988 212.858 170.988Z" fill="white"/>
<circle cx="556.5" cy="204.5" r="46.5" fill="white"/>
<path d="M551.583 200.072C550.827 200.072 550.122 199.937 549.469 199.666C548.825 199.396 548.255 199.018 547.761 198.532C547.275 198.047 546.893 197.478 546.613 196.824C546.342 196.171 546.207 195.457 546.207 194.682C546.207 193.908 546.342 193.194 546.613 192.54C546.893 191.878 547.275 191.308 547.761 190.832C548.246 190.347 548.815 189.974 549.469 189.712C550.122 189.442 550.827 189.306 551.583 189.306C552.348 189.306 553.053 189.442 553.697 189.712C554.35 189.974 554.919 190.347 555.405 190.832C555.899 191.318 556.282 191.887 556.553 192.54C556.823 193.194 556.959 193.908 556.959 194.682C556.959 195.457 556.819 196.171 556.539 196.824C556.268 197.478 555.89 198.047 555.405 198.532C554.919 199.018 554.35 199.396 553.697 199.666C553.043 199.937 552.339 200.072 551.583 200.072ZM551.583 198.56C552.124 198.56 552.619 198.462 553.067 198.266C553.524 198.07 553.921 197.8 554.257 197.454C554.593 197.1 554.854 196.689 555.041 196.222C555.227 195.746 555.321 195.233 555.321 194.682C555.321 194.132 555.227 193.623 555.041 193.156C554.854 192.69 554.593 192.279 554.257 191.924C553.921 191.57 553.524 191.294 553.067 191.098C552.619 190.902 552.124 190.804 551.583 190.804C551.041 190.804 550.542 190.902 550.085 191.098C549.637 191.294 549.245 191.57 548.909 191.924C548.573 192.279 548.311 192.69 548.125 193.156C547.947 193.623 547.859 194.132 547.859 194.682C547.859 195.233 547.947 195.746 548.125 196.222C548.311 196.689 548.573 197.1 548.909 197.454C549.245 197.8 549.641 198.07 550.099 198.266C550.556 198.462 551.051 198.56 551.583 198.56ZM554.201 201.164L550.785 195.732H552.549L555.979 201.164H554.201ZM557.458 199.904L561.126 189.474H563.17L566.838 199.904H565.074L564.276 197.566H560.034L559.222 199.904H557.458ZM560.51 196.096H563.772L561.924 190.636H562.386L560.51 196.096ZM538.437 220.904V211.944H535.665V210.474H542.805V211.944H540.075V220.904H538.437ZM546.458 221.072C545.702 221.072 545.03 220.9 544.442 220.554C543.863 220.2 543.41 219.724 543.084 219.126C542.757 218.52 542.594 217.843 542.594 217.096C542.594 216.331 542.757 215.654 543.084 215.066C543.42 214.478 543.868 214.016 544.428 213.68C544.988 213.335 545.622 213.162 546.332 213.162C546.901 213.162 547.41 213.26 547.858 213.456C548.306 213.652 548.684 213.923 548.992 214.268C549.3 214.604 549.533 214.992 549.692 215.43C549.86 215.869 549.944 216.336 549.944 216.83C549.944 216.952 549.939 217.078 549.93 217.208C549.92 217.339 549.902 217.46 549.874 217.572H543.84V216.312H548.978L548.222 216.886C548.315 216.429 548.282 216.023 548.124 215.668C547.974 215.304 547.741 215.02 547.424 214.814C547.116 214.6 546.752 214.492 546.332 214.492C545.912 214.492 545.538 214.6 545.212 214.814C544.885 215.02 544.633 215.318 544.456 215.71C544.278 216.093 544.208 216.56 544.246 217.11C544.199 217.624 544.269 218.072 544.456 218.454C544.652 218.837 544.922 219.136 545.268 219.35C545.622 219.565 546.024 219.672 546.472 219.672C546.929 219.672 547.316 219.57 547.634 219.364C547.96 219.159 548.217 218.893 548.404 218.566L549.692 219.196C549.542 219.551 549.309 219.873 548.992 220.162C548.684 220.442 548.31 220.666 547.872 220.834C547.442 220.993 546.971 221.072 546.458 221.072ZM554.287 221.072C553.513 221.072 552.831 220.881 552.243 220.498C551.665 220.116 551.259 219.602 551.025 218.958L552.243 218.384C552.449 218.814 552.729 219.154 553.083 219.406C553.447 219.658 553.849 219.784 554.287 219.784C554.661 219.784 554.964 219.7 555.197 219.532C555.431 219.364 555.547 219.136 555.547 218.846C555.547 218.66 555.496 218.51 555.393 218.398C555.291 218.277 555.16 218.179 555.001 218.104C554.852 218.03 554.698 217.974 554.539 217.936L553.349 217.6C552.696 217.414 552.206 217.134 551.879 216.76C551.562 216.378 551.403 215.934 551.403 215.43C551.403 214.973 551.52 214.576 551.753 214.24C551.987 213.895 552.309 213.629 552.719 213.442C553.13 213.256 553.592 213.162 554.105 213.162C554.796 213.162 555.412 213.335 555.953 213.68C556.495 214.016 556.877 214.488 557.101 215.094L555.883 215.668C555.734 215.304 555.496 215.015 555.169 214.8C554.852 214.586 554.493 214.478 554.091 214.478C553.746 214.478 553.471 214.562 553.265 214.73C553.06 214.889 552.957 215.099 552.957 215.36C552.957 215.538 553.004 215.687 553.097 215.808C553.191 215.92 553.312 216.014 553.461 216.088C553.611 216.154 553.765 216.21 553.923 216.256L555.155 216.62C555.781 216.798 556.261 217.078 556.597 217.46C556.933 217.834 557.101 218.282 557.101 218.804C557.101 219.252 556.98 219.649 556.737 219.994C556.504 220.33 556.177 220.596 555.757 220.792C555.337 220.979 554.847 221.072 554.287 221.072ZM561.928 220.988C561.134 220.988 560.518 220.764 560.08 220.316C559.641 219.868 559.422 219.238 559.422 218.426V214.758H558.092V213.33H558.302C558.656 213.33 558.932 213.228 559.128 213.022C559.324 212.817 559.422 212.537 559.422 212.182V211.594H561.004V213.33H562.726V214.758H561.004V218.356C561.004 218.618 561.046 218.842 561.13 219.028C561.214 219.206 561.349 219.346 561.536 219.448C561.722 219.542 561.965 219.588 562.264 219.588C562.338 219.588 562.422 219.584 562.516 219.574C562.609 219.565 562.698 219.556 562.782 219.546V220.904C562.651 220.923 562.506 220.942 562.348 220.96C562.189 220.979 562.049 220.988 561.928 220.988ZM567.745 221.072C566.989 221.072 566.317 220.9 565.729 220.554C565.15 220.2 564.697 219.724 564.371 219.126C564.044 218.52 563.881 217.843 563.881 217.096C563.881 216.331 564.044 215.654 564.371 215.066C564.707 214.478 565.155 214.016 565.715 213.68C566.275 213.335 566.909 213.162 567.619 213.162C568.188 213.162 568.697 213.26 569.145 213.456C569.593 213.652 569.971 213.923 570.279 214.268C570.587 214.604 570.82 214.992 570.979 215.43C571.147 215.869 571.231 216.336 571.231 216.83C571.231 216.952 571.226 217.078 571.217 217.208C571.207 217.339 571.189 217.46 571.161 217.572H565.127V216.312H570.265L569.509 216.886C569.602 216.429 569.569 216.023 569.411 215.668C569.261 215.304 569.028 215.02 568.711 214.814C568.403 214.6 568.039 214.492 567.619 214.492C567.199 214.492 566.825 214.6 566.499 214.814C566.172 215.02 565.92 215.318 565.743 215.71C565.565 216.093 565.495 216.56 565.533 217.11C565.486 217.624 565.556 218.072 565.743 218.454C565.939 218.837 566.209 219.136 566.555 219.35C566.909 219.565 567.311 219.672 567.759 219.672C568.216 219.672 568.603 219.57 568.921 219.364C569.247 219.159 569.504 218.893 569.691 218.566L570.979 219.196C570.829 219.551 570.596 219.873 570.279 220.162C569.971 220.442 569.597 220.666 569.159 220.834C568.729 220.993 568.258 221.072 567.745 221.072ZM572.775 220.904V213.33H574.287V214.856L574.147 214.632C574.315 214.138 574.585 213.783 574.959 213.568C575.332 213.344 575.78 213.232 576.303 213.232H576.765V214.674H576.107C575.584 214.674 575.159 214.838 574.833 215.164C574.515 215.482 574.357 215.939 574.357 216.536V220.904H572.775Z" fill="#616161"/>
<circle cx="173.383" cy="297.383" r="75.3834" fill="white"/>
<path d="M140.439 292V281.57H141.979L145.899 287.002H145.129L148.979 281.57H150.519V292H148.881V283.516L149.497 283.684L145.563 289.06H145.395L141.545 283.684L142.091 283.516V292H140.439ZM154.79 292.168C154.276 292.168 153.824 292.079 153.432 291.902C153.049 291.715 152.75 291.463 152.536 291.146C152.321 290.819 152.214 290.437 152.214 289.998C152.214 289.587 152.302 289.219 152.48 288.892C152.666 288.565 152.951 288.29 153.334 288.066C153.716 287.842 154.197 287.683 154.776 287.59L157.408 287.156V288.402L155.084 288.808C154.664 288.883 154.356 289.018 154.16 289.214C153.964 289.401 153.866 289.643 153.866 289.942C153.866 290.231 153.973 290.469 154.188 290.656C154.412 290.833 154.696 290.922 155.042 290.922C155.471 290.922 155.844 290.829 156.162 290.642C156.488 290.455 156.74 290.208 156.918 289.9C157.095 289.583 157.184 289.233 157.184 288.85V286.904C157.184 286.531 157.044 286.227 156.764 285.994C156.493 285.751 156.129 285.63 155.672 285.63C155.252 285.63 154.883 285.742 154.566 285.966C154.258 286.181 154.029 286.461 153.88 286.806L152.564 286.148C152.704 285.775 152.932 285.448 153.25 285.168C153.567 284.879 153.936 284.655 154.356 284.496C154.785 284.337 155.238 284.258 155.714 284.258C156.311 284.258 156.838 284.37 157.296 284.594C157.762 284.818 158.122 285.131 158.374 285.532C158.635 285.924 158.766 286.381 158.766 286.904V292H157.254V290.628L157.576 290.67C157.398 290.978 157.17 291.244 156.89 291.468C156.619 291.692 156.306 291.865 155.952 291.986C155.606 292.107 155.219 292.168 154.79 292.168ZM160.615 292V284.426H162.127V285.952L161.987 285.728C162.155 285.233 162.426 284.879 162.799 284.664C163.173 284.44 163.621 284.328 164.143 284.328H164.605V285.77H163.947C163.425 285.77 163 285.933 162.673 286.26C162.356 286.577 162.197 287.035 162.197 287.632V292H160.615ZM165.688 292V281.402H167.27V288.5L166.654 288.346L170.448 284.426H172.422L169.566 287.464L172.548 292H170.728L168.068 287.982L169.006 287.856L166.766 290.236L167.27 289.186V292H165.688ZM177.05 292.168C176.294 292.168 175.622 291.995 175.034 291.65C174.456 291.295 174.003 290.819 173.676 290.222C173.35 289.615 173.186 288.939 173.186 288.192C173.186 287.427 173.35 286.75 173.676 286.162C174.012 285.574 174.46 285.112 175.02 284.776C175.58 284.431 176.215 284.258 176.924 284.258C177.494 284.258 178.002 284.356 178.45 284.552C178.898 284.748 179.276 285.019 179.584 285.364C179.892 285.7 180.126 286.087 180.284 286.526C180.452 286.965 180.536 287.431 180.536 287.926C180.536 288.047 180.532 288.173 180.522 288.304C180.513 288.435 180.494 288.556 180.466 288.668H174.432V287.408H179.57L178.814 287.982C178.908 287.525 178.875 287.119 178.716 286.764C178.567 286.4 178.334 286.115 178.016 285.91C177.708 285.695 177.344 285.588 176.924 285.588C176.504 285.588 176.131 285.695 175.804 285.91C175.478 286.115 175.226 286.414 175.048 286.806C174.871 287.189 174.801 287.655 174.838 288.206C174.792 288.719 174.862 289.167 175.048 289.55C175.244 289.933 175.515 290.231 175.86 290.446C176.215 290.661 176.616 290.768 177.064 290.768C177.522 290.768 177.909 290.665 178.226 290.46C178.553 290.255 178.81 289.989 178.996 289.662L180.284 290.292C180.135 290.647 179.902 290.969 179.584 291.258C179.276 291.538 178.903 291.762 178.464 291.93C178.035 292.089 177.564 292.168 177.05 292.168ZM185.356 292.084C184.563 292.084 183.947 291.86 183.508 291.412C183.07 290.964 182.85 290.334 182.85 289.522V285.854H181.52V284.426H181.73C182.085 284.426 182.36 284.323 182.556 284.118C182.752 283.913 182.85 283.633 182.85 283.278V282.69H184.432V284.426H186.154V285.854H184.432V289.452C184.432 289.713 184.474 289.937 184.558 290.124C184.642 290.301 184.778 290.441 184.964 290.544C185.151 290.637 185.394 290.684 185.692 290.684C185.767 290.684 185.851 290.679 185.944 290.67C186.038 290.661 186.126 290.651 186.21 290.642V292C186.08 292.019 185.935 292.037 185.776 292.056C185.618 292.075 185.478 292.084 185.356 292.084ZM187.754 292V284.426H189.336V292H187.754ZM187.754 283.39V281.57H189.336V283.39H187.754ZM191.186 292V284.426H192.698V285.91L192.516 285.714C192.702 285.238 193.001 284.879 193.412 284.636C193.822 284.384 194.298 284.258 194.84 284.258C195.4 284.258 195.894 284.379 196.324 284.622C196.753 284.865 197.089 285.201 197.332 285.63C197.574 286.059 197.696 286.554 197.696 287.114V292H196.128V287.534C196.128 287.151 196.058 286.829 195.918 286.568C195.778 286.297 195.577 286.092 195.316 285.952C195.064 285.803 194.774 285.728 194.448 285.728C194.121 285.728 193.827 285.803 193.566 285.952C193.314 286.092 193.118 286.297 192.978 286.568C192.838 286.839 192.768 287.161 192.768 287.534V292H191.186ZM203.043 295.08C202.492 295.08 201.984 294.991 201.517 294.814C201.05 294.637 200.649 294.389 200.313 294.072C199.977 293.764 199.725 293.4 199.557 292.98L201.013 292.378C201.144 292.733 201.382 293.027 201.727 293.26C202.082 293.493 202.516 293.61 203.029 293.61C203.43 293.61 203.79 293.531 204.107 293.372C204.424 293.223 204.676 292.999 204.863 292.7C205.05 292.411 205.143 292.061 205.143 291.65V289.942L205.423 290.264C205.162 290.749 204.798 291.118 204.331 291.37C203.874 291.622 203.356 291.748 202.777 291.748C202.077 291.748 201.447 291.585 200.887 291.258C200.327 290.931 199.884 290.483 199.557 289.914C199.24 289.345 199.081 288.705 199.081 287.996C199.081 287.277 199.24 286.638 199.557 286.078C199.884 285.518 200.322 285.075 200.873 284.748C201.424 284.421 202.054 284.258 202.763 284.258C203.342 284.258 203.855 284.384 204.303 284.636C204.76 284.879 205.134 285.233 205.423 285.7L205.213 286.092V284.426H206.711V291.65C206.711 292.303 206.552 292.887 206.235 293.4C205.927 293.923 205.498 294.333 204.947 294.632C204.396 294.931 203.762 295.08 203.043 295.08ZM202.959 290.278C203.379 290.278 203.752 290.18 204.079 289.984C204.406 289.779 204.662 289.508 204.849 289.172C205.045 288.827 205.143 288.439 205.143 288.01C205.143 287.581 205.045 287.193 204.849 286.848C204.653 286.503 204.392 286.232 204.065 286.036C203.738 285.831 203.37 285.728 202.959 285.728C202.53 285.728 202.147 285.831 201.811 286.036C201.475 286.232 201.209 286.503 201.013 286.848C200.826 287.184 200.733 287.571 200.733 288.01C200.733 288.43 200.826 288.813 201.013 289.158C201.209 289.503 201.475 289.779 201.811 289.984C202.147 290.18 202.53 290.278 202.959 290.278ZM144.859 313.168C144.206 313.168 143.599 313.047 143.039 312.804C142.479 312.552 142.003 312.211 141.611 311.782C141.219 311.353 140.93 310.858 140.743 310.298L142.143 309.71C142.395 310.354 142.764 310.849 143.249 311.194C143.734 311.539 144.294 311.712 144.929 311.712C145.302 311.712 145.629 311.656 145.909 311.544C146.189 311.423 146.404 311.255 146.553 311.04C146.712 310.825 146.791 310.578 146.791 310.298C146.791 309.915 146.684 309.612 146.469 309.388C146.254 309.164 145.937 308.987 145.517 308.856L143.557 308.24C142.773 307.997 142.176 307.629 141.765 307.134C141.354 306.63 141.149 306.042 141.149 305.37C141.149 304.782 141.294 304.269 141.583 303.83C141.872 303.382 142.269 303.032 142.773 302.78C143.286 302.528 143.87 302.402 144.523 302.402C145.148 302.402 145.718 302.514 146.231 302.738C146.744 302.953 147.183 303.251 147.547 303.634C147.92 304.017 148.191 304.46 148.359 304.964L146.987 305.566C146.782 305.015 146.46 304.591 146.021 304.292C145.592 303.993 145.092 303.844 144.523 303.844C144.178 303.844 143.874 303.905 143.613 304.026C143.352 304.138 143.146 304.306 142.997 304.53C142.857 304.745 142.787 304.997 142.787 305.286C142.787 305.622 142.894 305.921 143.109 306.182C143.324 306.443 143.65 306.639 144.089 306.77L145.909 307.344C146.74 307.596 147.365 307.96 147.785 308.436C148.205 308.903 148.415 309.486 148.415 310.186C148.415 310.765 148.261 311.278 147.953 311.726C147.654 312.174 147.239 312.529 146.707 312.79C146.175 313.042 145.559 313.168 144.859 313.168ZM150.115 315.8V305.426H151.627V306.994L151.445 306.63C151.725 306.201 152.099 305.865 152.565 305.622C153.032 305.379 153.564 305.258 154.161 305.258C154.88 305.258 155.524 305.431 156.093 305.776C156.672 306.121 157.125 306.593 157.451 307.19C157.787 307.787 157.955 308.459 157.955 309.206C157.955 309.953 157.787 310.625 157.451 311.222C157.125 311.819 156.677 312.295 156.107 312.65C155.538 312.995 154.889 313.168 154.161 313.168C153.573 313.168 153.037 313.047 152.551 312.804C152.075 312.561 151.707 312.211 151.445 311.754L151.697 311.46V315.8H150.115ZM154.007 311.698C154.455 311.698 154.852 311.591 155.197 311.376C155.543 311.161 155.813 310.867 156.009 310.494C156.215 310.111 156.317 309.682 156.317 309.206C156.317 308.73 156.215 308.305 156.009 307.932C155.813 307.559 155.543 307.265 155.197 307.05C154.852 306.835 154.455 306.728 154.007 306.728C153.569 306.728 153.172 306.835 152.817 307.05C152.472 307.265 152.197 307.559 151.991 307.932C151.795 308.305 151.697 308.73 151.697 309.206C151.697 309.682 151.795 310.111 151.991 310.494C152.197 310.867 152.472 311.161 152.817 311.376C153.172 311.591 153.569 311.698 154.007 311.698ZM163.05 313.168C162.294 313.168 161.622 312.995 161.034 312.65C160.456 312.295 160.003 311.819 159.676 311.222C159.35 310.615 159.186 309.939 159.186 309.192C159.186 308.427 159.35 307.75 159.676 307.162C160.012 306.574 160.46 306.112 161.02 305.776C161.58 305.431 162.215 305.258 162.924 305.258C163.494 305.258 164.002 305.356 164.45 305.552C164.898 305.748 165.276 306.019 165.584 306.364C165.892 306.7 166.126 307.087 166.284 307.526C166.452 307.965 166.536 308.431 166.536 308.926C166.536 309.047 166.532 309.173 166.522 309.304C166.513 309.435 166.494 309.556 166.466 309.668H160.432V308.408H165.57L164.814 308.982C164.908 308.525 164.875 308.119 164.716 307.764C164.567 307.4 164.334 307.115 164.016 306.91C163.708 306.695 163.344 306.588 162.924 306.588C162.504 306.588 162.131 306.695 161.804 306.91C161.478 307.115 161.226 307.414 161.048 307.806C160.871 308.189 160.801 308.655 160.838 309.206C160.792 309.719 160.862 310.167 161.048 310.55C161.244 310.933 161.515 311.231 161.86 311.446C162.215 311.661 162.616 311.768 163.064 311.768C163.522 311.768 163.909 311.665 164.226 311.46C164.553 311.255 164.81 310.989 164.996 310.662L166.284 311.292C166.135 311.647 165.902 311.969 165.584 312.258C165.276 312.538 164.903 312.762 164.464 312.93C164.035 313.089 163.564 313.168 163.05 313.168ZM171.678 313.168C170.922 313.168 170.25 312.995 169.662 312.65C169.084 312.295 168.622 311.819 168.276 311.222C167.94 310.625 167.772 309.948 167.772 309.192C167.772 308.445 167.94 307.773 168.276 307.176C168.612 306.579 169.074 306.112 169.662 305.776C170.25 305.431 170.922 305.258 171.678 305.258C172.192 305.258 172.672 305.351 173.12 305.538C173.568 305.715 173.956 305.963 174.282 306.28C174.618 306.597 174.866 306.966 175.024 307.386L173.638 308.03C173.48 307.638 173.223 307.325 172.868 307.092C172.523 306.849 172.126 306.728 171.678 306.728C171.249 306.728 170.862 306.835 170.516 307.05C170.18 307.255 169.914 307.549 169.718 307.932C169.522 308.305 169.424 308.73 169.424 309.206C169.424 309.682 169.522 310.111 169.718 310.494C169.914 310.867 170.18 311.161 170.516 311.376C170.862 311.591 171.249 311.698 171.678 311.698C172.136 311.698 172.532 311.581 172.868 311.348C173.214 311.105 173.47 310.783 173.638 310.382L175.024 311.04C174.875 311.441 174.632 311.805 174.296 312.132C173.97 312.449 173.582 312.701 173.134 312.888C172.686 313.075 172.201 313.168 171.678 313.168ZM176.57 313V305.426H178.152V313H176.57ZM176.57 304.39V302.57H178.152V304.39H176.57ZM182.27 313.168C181.757 313.168 181.304 313.079 180.912 312.902C180.529 312.715 180.231 312.463 180.016 312.146C179.801 311.819 179.694 311.437 179.694 310.998C179.694 310.587 179.783 310.219 179.96 309.892C180.147 309.565 180.431 309.29 180.814 309.066C181.197 308.842 181.677 308.683 182.256 308.59L184.888 308.156V309.402L182.564 309.808C182.144 309.883 181.836 310.018 181.64 310.214C181.444 310.401 181.346 310.643 181.346 310.942C181.346 311.231 181.453 311.469 181.668 311.656C181.892 311.833 182.177 311.922 182.522 311.922C182.951 311.922 183.325 311.829 183.642 311.642C183.969 311.455 184.221 311.208 184.398 310.9C184.575 310.583 184.664 310.233 184.664 309.85V307.904C184.664 307.531 184.524 307.227 184.244 306.994C183.973 306.751 183.609 306.63 183.152 306.63C182.732 306.63 182.363 306.742 182.046 306.966C181.738 307.181 181.509 307.461 181.36 307.806L180.044 307.148C180.184 306.775 180.413 306.448 180.73 306.168C181.047 305.879 181.416 305.655 181.836 305.496C182.265 305.337 182.718 305.258 183.194 305.258C183.791 305.258 184.319 305.37 184.776 305.594C185.243 305.818 185.602 306.131 185.854 306.532C186.115 306.924 186.246 307.381 186.246 307.904V313H184.734V311.628L185.056 311.67C184.879 311.978 184.65 312.244 184.37 312.468C184.099 312.692 183.787 312.865 183.432 312.986C183.087 313.107 182.699 313.168 182.27 313.168ZM188.096 313V302.402H189.678V313H188.096ZM191.528 313V305.426H193.11V313H191.528ZM191.528 304.39V302.57H193.11V304.39H191.528ZM197.759 313.168C196.984 313.168 196.303 312.977 195.715 312.594C195.136 312.211 194.73 311.698 194.497 311.054L195.715 310.48C195.92 310.909 196.2 311.25 196.555 311.502C196.919 311.754 197.32 311.88 197.759 311.88C198.132 311.88 198.436 311.796 198.669 311.628C198.902 311.46 199.019 311.231 199.019 310.942C199.019 310.755 198.968 310.606 198.865 310.494C198.762 310.373 198.632 310.275 198.473 310.2C198.324 310.125 198.17 310.069 198.011 310.032L196.821 309.696C196.168 309.509 195.678 309.229 195.351 308.856C195.034 308.473 194.875 308.03 194.875 307.526C194.875 307.069 194.992 306.672 195.225 306.336C195.458 305.991 195.78 305.725 196.191 305.538C196.602 305.351 197.064 305.258 197.577 305.258C198.268 305.258 198.884 305.431 199.425 305.776C199.966 306.112 200.349 306.583 200.573 307.19L199.355 307.764C199.206 307.4 198.968 307.111 198.641 306.896C198.324 306.681 197.964 306.574 197.563 306.574C197.218 306.574 196.942 306.658 196.737 306.826C196.532 306.985 196.429 307.195 196.429 307.456C196.429 307.633 196.476 307.783 196.569 307.904C196.662 308.016 196.784 308.109 196.933 308.184C197.082 308.249 197.236 308.305 197.395 308.352L198.627 308.716C199.252 308.893 199.733 309.173 200.069 309.556C200.405 309.929 200.573 310.377 200.573 310.9C200.573 311.348 200.452 311.745 200.209 312.09C199.976 312.426 199.649 312.692 199.229 312.888C198.809 313.075 198.319 313.168 197.759 313.168ZM205.399 313.084C204.606 313.084 203.99 312.86 203.551 312.412C203.113 311.964 202.893 311.334 202.893 310.522V306.854H201.563V305.426H201.773C202.128 305.426 202.403 305.323 202.599 305.118C202.795 304.913 202.893 304.633 202.893 304.278V303.69H204.475V305.426H206.197V306.854H204.475V310.452C204.475 310.713 204.517 310.937 204.601 311.124C204.685 311.301 204.821 311.441 205.007 311.544C205.194 311.637 205.437 311.684 205.735 311.684C205.81 311.684 205.894 311.679 205.987 311.67C206.081 311.661 206.169 311.651 206.253 311.642V313C206.123 313.019 205.978 313.037 205.819 313.056C205.661 313.075 205.521 313.084 205.399 313.084Z" fill="#616161"/>
<circle cx="303.76" cy="305.372" r="44.5447" fill="#FF7442"/>
<path d="M286.4 310L283.53 299.57H285.28L287.604 308.6H287.17L289.578 299.57H291.3L293.708 308.6H293.26L295.598 299.57H297.334L294.478 310H292.616L290.194 301.11H290.684L288.248 310H286.4ZM297.849 310V302.426H299.361V303.952L299.221 303.728C299.389 303.233 299.659 302.879 300.033 302.664C300.406 302.44 300.854 302.328 301.377 302.328H301.839V303.77H301.181C300.658 303.77 300.233 303.933 299.907 304.26C299.589 304.577 299.431 305.035 299.431 305.632V310H297.849ZM302.921 310V302.426H304.503V310H302.921ZM302.921 301.39V299.57H304.503V301.39H302.921ZM309.629 310.084C308.835 310.084 308.219 309.86 307.781 309.412C307.342 308.964 307.123 308.334 307.123 307.522V303.854H305.793V302.426H306.003C306.357 302.426 306.633 302.323 306.829 302.118C307.025 301.913 307.123 301.633 307.123 301.278V300.69H308.705V302.426H310.427V303.854H308.705V307.452C308.705 307.713 308.747 307.937 308.831 308.124C308.915 308.301 309.05 308.441 309.237 308.544C309.423 308.637 309.666 308.684 309.965 308.684C310.039 308.684 310.123 308.679 310.217 308.67C310.31 308.661 310.399 308.651 310.483 308.642V310C310.352 310.019 310.207 310.037 310.049 310.056C309.89 310.075 309.75 310.084 309.629 310.084ZM315.446 310.168C314.69 310.168 314.018 309.995 313.43 309.65C312.851 309.295 312.398 308.819 312.072 308.222C311.745 307.615 311.582 306.939 311.582 306.192C311.582 305.427 311.745 304.75 312.072 304.162C312.408 303.574 312.856 303.112 313.416 302.776C313.976 302.431 314.61 302.258 315.32 302.258C315.889 302.258 316.398 302.356 316.846 302.552C317.294 302.748 317.672 303.019 317.98 303.364C318.288 303.7 318.521 304.087 318.68 304.526C318.848 304.965 318.932 305.431 318.932 305.926C318.932 306.047 318.927 306.173 318.918 306.304C318.908 306.435 318.89 306.556 318.862 306.668H312.828V305.408H317.966L317.21 305.982C317.303 305.525 317.27 305.119 317.112 304.764C316.962 304.4 316.729 304.115 316.412 303.91C316.104 303.695 315.74 303.588 315.32 303.588C314.9 303.588 314.526 303.695 314.2 303.91C313.873 304.115 313.621 304.414 313.444 304.806C313.266 305.189 313.196 305.655 313.234 306.206C313.187 306.719 313.257 307.167 313.444 307.55C313.64 307.933 313.91 308.231 314.256 308.446C314.61 308.661 315.012 308.768 315.46 308.768C315.917 308.768 316.304 308.665 316.622 308.46C316.948 308.255 317.205 307.989 317.392 307.662L318.68 308.292C318.53 308.647 318.297 308.969 317.98 309.258C317.672 309.538 317.298 309.762 316.86 309.93C316.43 310.089 315.959 310.168 315.446 310.168ZM320.476 310V302.426H321.988V303.952L321.848 303.728C322.016 303.233 322.286 302.879 322.66 302.664C323.033 302.44 323.481 302.328 324.004 302.328H324.466V303.77H323.808C323.285 303.77 322.86 303.933 322.534 304.26C322.216 304.577 322.058 305.035 322.058 305.632V310H320.476Z" fill="white"/>
</svg>
