<svg width="104" height="98" viewBox="0 0 104 98" fill="none" xmlns="http://www.w3.org/2000/svg">
<g filter="url(#filter0_d_12726_1904)">
<path d="M11.5598 55.3806C6.28006 35.3542 18.2346 14.8395 38.261 9.5598C58.2874 4.28008 78.8021 16.2346 84.0818 36.261L93.6416 72.522L57.3806 82.0818C37.3542 87.3615 16.8395 75.407 11.5598 55.3806Z" fill="white"/>
<circle cx="47.8208" cy="45.8208" r="29.5" transform="rotate(-14.7693 47.8208 45.8208)" fill="#000092"/>
<path d="M31.5686 56.7449L28.5299 45.2187L29.9997 44.8312L38.8202 52.0532L38.1525 52.3451L35.7705 43.3098L37.5807 42.8326L40.6194 54.3587L39.1496 54.7462L30.3592 47.4501L30.9918 47.1509L33.3943 56.2636L31.5686 56.7449Z" fill="white"/>
<path d="M46.331 53.0515C45.4955 53.2718 44.7026 53.2767 43.9522 53.0664C43.2094 52.8431 42.5704 52.4489 42.0354 51.884C41.4977 51.3087 41.12 50.6085 40.9025 49.7834C40.6795 48.9376 40.6629 48.1423 40.8526 47.3973C41.0526 46.6496 41.413 46.0085 41.934 45.4741C42.4522 44.9293 43.1033 44.5536 43.8872 44.3469C44.5164 44.181 45.107 44.1411 45.6592 44.2272C46.2114 44.3133 46.708 44.5023 47.149 44.7942C47.5872 45.0757 47.9579 45.4358 48.2611 45.8743C48.5745 46.3102 48.8033 46.8014 48.9475 47.3481C48.9828 47.4821 49.0144 47.6227 49.0421 47.7699C49.0699 47.917 49.0846 48.0565 49.0863 48.1884L42.4181 49.9464L42.051 48.554L47.729 47.0571L47.0608 47.9116C47.0307 47.379 46.8763 46.9399 46.5976 46.5942C46.3266 46.2354 45.9858 45.9888 45.5753 45.8544C45.1723 45.7069 44.7388 45.6943 44.2747 45.8167C43.8105 45.939 43.4292 46.1664 43.1308 46.4988C42.8296 46.8209 42.6381 47.2244 42.5564 47.7092C42.4719 48.1838 42.5305 48.7199 42.7322 49.3176C42.8302 49.8984 43.0381 50.3731 43.3558 50.7416C43.6839 51.1074 44.07 51.3586 44.5142 51.4952C44.9687 51.6291 45.4435 51.6308 45.9386 51.5003C46.444 51.3671 46.8421 51.1407 47.133 50.8214C47.4341 50.4993 47.6403 50.1306 47.7514 49.7152L49.3583 50.0361C49.2966 50.4716 49.1326 50.8954 48.8662 51.3076C48.6074 51.7068 48.2601 52.0631 47.8242 52.3765C47.396 52.677 46.8983 52.902 46.331 53.0515Z" fill="white"/>
<path d="M53.3839 50.9935L48.2995 43.3822L50.1561 42.8927L54.111 48.9817L53.4612 49.153L53.9466 41.8934L55.5401 41.4733L59.526 47.5541L58.8762 47.7254L59.3306 40.474L61.1872 39.9845L60.5007 49.1173L58.9226 49.5333L54.865 43.306L55.4375 43.155L54.9774 50.5734L53.3839 50.9935Z" fill="white"/>
<path d="M64.0543 44.507L61.7973 36.4481L63.5765 35.9791L65.6015 44.0991L64.0543 44.507ZM64.8361 47.9743L64.3058 45.963L66.085 45.494L66.6153 47.5052L64.8361 47.9743Z" fill="white"/>
</g>
<defs>
<filter id="filter0_d_12726_1904" x="0.311523" y="2.31158" width="103.33" height="95.0184" filterUnits="userSpaceOnUse" color-interpolation-filters="sRGB">
<feFlood flood-opacity="0" result="BackgroundImageFix"/>
<feColorMatrix in="SourceAlpha" type="matrix" values="0 0 0 0 0 0 0 0 0 0 0 0 0 0 0 0 0 0 127 0" result="hardAlpha"/>
<feOffset dy="4"/>
<feGaussianBlur stdDeviation="5"/>
<feComposite in2="hardAlpha" operator="out"/>
<feColorMatrix type="matrix" values="0 0 0 0 0 0 0 0 0 0 0 0 0 0 0 0 0 0 0.1 0"/>
<feBlend mode="normal" in2="BackgroundImageFix" result="effect1_dropShadow_12726_1904"/>
<feBlend mode="normal" in="SourceGraphic" in2="effect1_dropShadow_12726_1904" result="shape"/>
</filter>
</defs>
</svg>
