<svg width="88" height="23" viewBox="0 0 88 23" fill="none" xmlns="http://www.w3.org/2000/svg">
<path d="M82.0585 18.8932C80.7465 18.8932 79.6345 18.5812 78.7225 17.9572C77.8265 17.3332 77.1545 16.5252 76.7065 15.5332C76.2745 14.5252 76.0585 13.4532 76.0585 12.3172C76.0585 11.1652 76.2745 10.0932 76.7065 9.10116C77.1545 8.09316 77.8265 7.27716 78.7225 6.65316C79.6345 6.02916 80.7545 5.71716 82.0825 5.71716C83.8425 5.71716 85.2345 6.28516 86.2585 7.42116C87.2985 8.55716 87.8185 10.1972 87.8185 12.3412V13.1332H78.8905V13.3252C78.8905 13.8852 79.0185 14.4132 79.2745 14.9092C79.5465 15.4052 79.9145 15.8052 80.3785 16.1092C80.8585 16.3972 81.4025 16.5412 82.0105 16.5412C82.6985 16.5412 83.2825 16.3812 83.7625 16.0612C84.2425 15.7252 84.6025 15.2772 84.8425 14.7172H87.6985C87.3625 15.9332 86.7145 16.9332 85.7545 17.7172C84.7945 18.5012 83.5625 18.8932 82.0585 18.8932ZM85.0105 11.2132C84.9785 10.0612 84.6905 9.22116 84.1465 8.69316C83.6185 8.14916 82.9225 7.87716 82.0585 7.87716C81.1305 7.87716 80.3865 8.18116 79.8265 8.78916C79.2825 9.38116 78.9945 10.1892 78.9625 11.2132H85.0105Z" fill="black"/>
<path d="M69.9357 18.8932C68.8797 18.8932 67.9677 18.6932 67.1997 18.2932C66.4317 17.8932 65.8477 17.3732 65.4477 16.7332C65.0477 16.0772 64.8477 15.3892 64.8477 14.6692V14.5252H67.7037V14.6692C67.7037 15.1652 67.9037 15.6132 68.3037 16.0132C68.7037 16.4132 69.2717 16.6132 70.0077 16.6132C70.6157 16.6132 71.1117 16.4692 71.4957 16.1812C71.8797 15.8932 72.0717 15.4932 72.0717 14.9812C72.0717 14.5332 71.9037 14.1812 71.5677 13.9252C71.2477 13.6692 70.8477 13.5092 70.3677 13.4452L68.8557 13.1572C67.8797 12.9972 67.0157 12.6372 66.2637 12.0772C65.5277 11.5012 65.1597 10.6452 65.1597 9.50916C65.1597 8.32516 65.5917 7.39716 66.4557 6.72516C67.3197 6.05316 68.4317 5.71716 69.7917 5.71716C70.7837 5.71716 71.6397 5.90117 72.3597 6.26917C73.0957 6.63716 73.6477 7.11716 74.0157 7.70916C74.3997 8.30116 74.5917 8.94116 74.5917 9.62916V9.72516H71.7357V9.65316C71.7357 9.22116 71.5677 8.81316 71.2317 8.42916C70.9117 8.04516 70.3997 7.85316 69.6957 7.85316C69.1037 7.85316 68.6317 8.00516 68.2797 8.30916C67.9277 8.59716 67.7517 8.98116 67.7517 9.46116C67.7517 9.87716 67.9117 10.2132 68.2317 10.4692C68.5677 10.7252 68.9837 10.9012 69.4797 10.9972L71.1357 11.2852C72.1757 11.4932 73.0477 11.8852 73.7517 12.4612C74.4557 13.0372 74.8077 13.8612 74.8077 14.9332C74.8077 15.7172 74.5917 16.4132 74.1597 17.0212C73.7437 17.6132 73.1597 18.0772 72.4077 18.4132C71.6717 18.7332 70.8477 18.8932 69.9357 18.8932Z" fill="black"/>
<path d="M61.8949 18.7972C60.7909 18.7972 59.9749 18.6292 59.4469 18.2932C58.9189 17.9412 58.5829 17.5092 58.4389 16.9972C58.3109 16.4692 58.2469 15.7972 58.2469 14.9812V0.701172H61.1509V14.4292C61.1509 15.0212 61.1749 15.4612 61.2229 15.7492C61.2869 16.0372 61.4469 16.2692 61.7029 16.4452C61.9589 16.6052 62.3669 16.6852 62.9269 16.6852C63.1349 16.6852 63.3829 16.6692 63.6709 16.6372V18.6532C63.1589 18.7492 62.5669 18.7972 61.8949 18.7972Z" fill="black"/>
<path d="M55.7609 18.7012H52.8329V16.5652H52.6889C52.3849 17.2212 51.9049 17.7812 51.2489 18.2452C50.6089 18.7092 49.8249 18.9412 48.8969 18.9412C47.7929 18.9412 46.9049 18.6772 46.2329 18.1492C45.5609 17.6052 45.0889 16.9332 44.8169 16.1332C44.5449 15.3332 44.4089 14.5092 44.4089 13.6612V6.02917H47.3129V13.2052C47.3129 14.2292 47.5529 15.0292 48.0329 15.6052C48.5129 16.1812 49.1769 16.4692 50.0249 16.4692C50.9369 16.4692 51.6329 16.1652 52.1129 15.5572C52.5929 14.9332 52.8329 14.1492 52.8329 13.2052V6.02917H55.7609V18.7012Z" fill="black"/>
<path d="M37.1378 1.90112C38.4818 1.90112 39.6018 2.17312 40.4978 2.71712C41.3938 3.26112 42.0498 3.96512 42.4658 4.82912C42.8978 5.69312 43.1138 6.61312 43.1138 7.58912C43.1138 8.56512 42.9058 9.48512 42.4898 10.3491C42.0738 11.1971 41.4178 11.8851 40.5218 12.4131C39.6258 12.9411 38.4978 13.2051 37.1378 13.2051H33.9458V18.7011H31.0898V1.90112H37.1378ZM36.7058 10.7811C37.7138 10.7811 38.5618 10.5411 39.2498 10.0611C39.9378 9.56512 40.2818 8.74112 40.2818 7.58912C40.2818 6.45312 39.9378 5.65312 39.2498 5.18912C38.5778 4.70912 37.7298 4.46912 36.7058 4.46912H33.9458V10.7811H36.7058Z" fill="black"/>
<g clip-path="url(#clip0_53_193)">
<path d="M0.577816 6.67548V12.669C0.577816 14.2382 3.0636 14.2446 3.0636 12.669V6.67548C3.0636 6.35142 2.93265 6.04063 2.69956 5.81149C2.46647 5.58235 2.15034 5.45361 1.82071 5.45361C1.49107 5.45361 1.17494 5.58235 0.94185 5.81149C0.708763 6.04063 0.577816 6.35142 0.577816 6.67548Z" fill="#FC5795"/>
<path d="M21.0986 6.67552V12.6691C21.1213 12.977 21.2618 13.265 21.4918 13.4753C21.7218 13.6855 22.0242 13.8024 22.3382 13.8024C22.6522 13.8024 22.9546 13.6855 23.1846 13.4753C23.4146 13.265 23.555 12.977 23.5778 12.6691V6.67552C23.555 6.3676 23.4146 6.07958 23.1846 5.86934C22.9546 5.6591 22.6522 5.54224 22.3382 5.54224C22.0242 5.54224 21.7218 5.6591 21.4918 5.86934C21.2618 6.07958 21.1213 6.3676 21.0986 6.67552Z" fill="#FC5795"/>
<path d="M5.70637 1.88446V17.3185C5.70637 17.6426 5.83732 17.9534 6.0704 18.1825C6.30349 18.4117 6.61963 18.5404 6.94926 18.5404C7.2789 18.5404 7.59503 18.4117 7.82812 18.1825C8.0612 17.9534 8.19215 17.6426 8.19215 17.3185V1.88446C8.19215 1.5604 8.0612 1.24962 7.82812 1.02047C7.59503 0.791329 7.2789 0.662598 6.94926 0.662598C6.61963 0.662598 6.30349 0.791329 6.0704 1.02047C5.83732 1.24962 5.70637 1.5604 5.70637 1.88446Z" fill="#FC5795"/>
<path d="M15.9635 1.88446V17.3185C15.9635 17.6426 16.0944 17.9534 16.3275 18.1825C16.5606 18.4117 16.8767 18.5404 17.2064 18.5404C17.536 18.5404 17.8521 18.4117 18.0852 18.1825C18.3183 17.9534 18.4493 17.6426 18.4493 17.3185V1.88446C18.4493 1.5604 18.3183 1.24962 18.0852 1.02047C17.8521 0.791329 17.536 0.662598 17.2064 0.662598C16.8767 0.662598 16.5606 0.791329 16.3275 1.02047C16.0944 1.24962 15.9635 1.5604 15.9635 1.88446Z" fill="#FC5795"/>
<path d="M10.8349 6.10956V21.5436C10.8349 23.1128 13.3207 23.1192 13.3207 21.5436V6.10956C13.3207 4.54043 10.8349 4.534 10.8349 6.10956Z" fill="#FC5795"/>
</g>
<defs>
<clipPath id="clip0_53_193">
<rect width="23" height="22" fill="white" transform="translate(0.577816 0.701172)"/>
</clipPath>
</defs>
</svg>
