<svg width="97" height="27" viewBox="0 0 97 27" fill="none" xmlns="http://www.w3.org/2000/svg">
<path d="M95.5236 15.0792C95.5236 15.5645 95.4889 15.9805 95.4196 16.3272H85.4876C85.7129 17.1245 86.1463 17.7572 86.7876 18.2252C87.4289 18.6759 88.1483 18.9012 88.9456 18.9012C89.5869 18.9012 90.2196 18.7799 90.8436 18.5372C91.4676 18.2772 91.9876 17.8959 92.4036 17.3932L94.8216 19.4212C93.4523 21.1025 91.4503 21.9432 88.8156 21.9432C87.5676 21.9432 86.4149 21.6399 85.3576 21.0332C84.3176 20.4092 83.4856 19.5772 82.8616 18.5372C82.2549 17.4799 81.9516 16.3272 81.9516 15.0792C81.9516 13.8312 82.2549 12.6872 82.8616 11.6472C83.4856 10.5899 84.3176 9.75788 85.3576 9.15121C86.4149 8.52721 87.5676 8.21521 88.8156 8.21521C90.0636 8.21521 91.1989 8.52721 92.2216 9.15121C93.2443 9.75788 94.0503 10.5899 94.6396 11.6472C95.2289 12.6872 95.5236 13.8312 95.5236 15.0792ZM92.0656 13.9612C91.8749 13.1119 91.4849 12.4619 90.8956 12.0112C90.3236 11.5432 89.6303 11.3092 88.8156 11.3092C87.9836 11.3092 87.2643 11.5432 86.6576 12.0112C86.0509 12.4792 85.6436 13.1292 85.4356 13.9612H92.0656Z" fill="#1B1C33"/>
<path d="M79.6039 3.45715V21.6572H76.2499V3.45715H79.6039Z" fill="#1B1C33"/>
<path d="M62.1026 3.45715V21.6572H58.7486V3.45715H62.1026ZM70.0586 21.6572L63.2466 14.7672L69.3566 8.50115H73.9586L67.7186 14.7672L74.6866 21.6572H70.0586Z" fill="#1B1C33"/>
<path d="M56.6845 11.3612C56.5285 11.3265 56.2945 11.3092 55.9825 11.3092C54.9251 11.3092 54.0758 11.6819 53.4345 12.4272C52.7931 13.1552 52.4725 14.0912 52.4725 15.2352V21.6572H49.1185V8.50121H52.4725V10.4512C52.9405 9.77521 53.5211 9.23788 54.2145 8.83921C54.9251 8.42321 55.7485 8.21521 56.6845 8.21521V11.3612Z" fill="#1B1C33"/>
<path d="M42.351 19.9932C41.155 21.2932 39.595 21.9432 37.671 21.9432C36.4576 21.9432 35.3396 21.6485 34.317 21.0592C33.3116 20.4525 32.5056 19.6292 31.899 18.5892C31.3096 17.5319 31.015 16.3619 31.015 15.0792C31.015 13.7965 31.3096 12.6352 31.899 11.5952C32.5056 10.5379 33.3116 9.71454 34.317 9.12521C35.3396 8.51854 36.4576 8.21521 37.671 8.21521C39.595 8.21521 41.155 8.86521 42.351 10.1652V8.50121H45.731V21.6572H42.351V19.9932ZM42.351 15.0792C42.351 14.2992 42.1776 13.6059 41.831 12.9992C41.4843 12.3752 41.0076 11.8899 40.401 11.5432C39.7943 11.1965 39.1183 11.0232 38.373 11.0232C37.6103 11.0232 36.9256 11.1965 36.319 11.5432C35.7123 11.8899 35.2356 12.3752 34.889 12.9992C34.5423 13.6059 34.369 14.2992 34.369 15.0792C34.369 15.8592 34.5423 16.5612 34.889 17.1852C35.2356 17.7919 35.7123 18.2685 36.319 18.6152C36.9256 18.9619 37.6103 19.1352 38.373 19.1352C39.1183 19.1352 39.7943 18.9619 40.401 18.6152C41.0076 18.2685 41.4843 17.7919 41.831 17.1852C42.1776 16.5612 42.351 15.8592 42.351 15.0792Z" fill="#1B1C33"/>
<path d="M29.4413 15.0792C29.4413 16.3619 29.138 17.5319 28.5313 18.5892C27.942 19.6292 27.136 20.4525 26.1133 21.0592C25.108 21.6485 23.9987 21.9432 22.7853 21.9432C20.8787 21.9432 19.31 21.2932 18.0793 19.9932V26.7012H14.7253V8.50121H18.0793V10.1652C19.31 8.86521 20.8787 8.21521 22.7853 8.21521C23.9987 8.21521 25.108 8.51854 26.1133 9.12521C27.136 9.71454 27.942 10.5379 28.5313 11.5952C29.138 12.6352 29.4413 13.7965 29.4413 15.0792ZM26.0613 15.0792C26.0613 14.2992 25.888 13.6059 25.5413 12.9992C25.1947 12.3752 24.718 11.8899 24.1113 11.5432C23.5047 11.1965 22.8287 11.0232 22.0833 11.0232C21.3207 11.0232 20.636 11.1965 20.0293 11.5432C19.4227 11.8899 18.946 12.3752 18.5993 12.9992C18.2527 13.6059 18.0793 14.2992 18.0793 15.0792C18.0793 15.8592 18.2527 16.5612 18.5993 17.1852C18.946 17.7919 19.4227 18.2685 20.0293 18.6152C20.636 18.9619 21.3207 19.1352 22.0833 19.1352C22.8287 19.1352 23.5047 18.9619 24.1113 18.6152C24.718 18.2685 25.1947 17.7919 25.5413 17.1852C25.888 16.5612 26.0613 15.8592 26.0613 15.0792Z" fill="#1B1C33"/>
<path d="M0.0881577 19.3952C0.192158 19.2912 0.859491 18.4765 2.09016 16.9512C2.43682 17.3499 2.89616 17.7312 3.46816 18.0952C4.05749 18.4419 4.63816 18.6845 5.21016 18.8232C5.78216 18.9445 6.26749 19.0052 6.66616 19.0052C7.23816 19.0052 7.69749 18.9099 8.04416 18.7192C8.39082 18.5285 8.56416 18.2425 8.56416 17.8612C8.56416 17.5492 8.44282 17.3239 8.20016 17.1852C7.97483 17.0465 7.72349 16.9425 7.44616 16.8732C7.18616 16.8039 7.00416 16.7519 6.90016 16.7172C5.53082 16.3185 4.36949 15.9459 3.41616 15.5992C2.67082 15.3219 2.07282 14.8799 1.62216 14.2732C1.18882 13.6665 0.972158 12.9992 0.972158 12.2712C0.972158 12.1499 0.989491 11.9679 1.02416 11.7252C1.21482 10.4945 1.85616 9.61054 2.94816 9.07321C4.04016 8.51854 5.27949 8.24121 6.66616 8.24121C7.58482 8.24121 8.52082 8.37121 9.47416 8.63121C10.4448 8.87388 11.2508 9.20321 11.8922 9.61921L10.4362 12.5312C9.86416 12.2192 9.37016 11.9765 8.95416 11.8032C8.55549 11.6299 8.10482 11.4999 7.60216 11.4132C7.06482 11.3092 6.59682 11.2572 6.19816 11.2572C5.62616 11.2572 5.19282 11.3525 4.89816 11.5432C4.62082 11.7339 4.48216 11.9679 4.48216 12.2452C4.48216 12.5919 4.63816 12.8519 4.95016 13.0252C5.27949 13.1812 5.94682 13.3805 6.95216 13.6232C6.90016 13.6059 7.16016 13.6752 7.73216 13.8312C9.20549 14.2125 10.2715 14.6545 10.9302 15.1572C11.6062 15.6599 11.9962 16.3879 12.1002 17.3412C12.1175 17.4452 12.1262 17.5925 12.1262 17.7832C12.1262 18.4592 11.9442 19.0745 11.5802 19.6292C11.2335 20.1665 10.7482 20.6172 10.1242 20.9812C9.67349 21.2585 9.11882 21.4839 8.46016 21.6572C7.81883 21.8305 7.20349 21.9172 6.61416 21.9172C5.21016 21.9172 3.94482 21.7005 2.81816 21.2672C1.70882 20.8165 0.798824 20.1925 0.0881577 19.3952Z" fill="#1B1C33"/>
<path d="M87.5942 2.1651V5.6571H86.8202V2.1651H85.4282V1.4571H88.9802V2.1651H87.5942ZM90.1673 2.8491V5.6571H89.3933V1.4571H90.1853L91.4933 3.7851L92.8013 1.4571H93.5933V5.6571H92.8193V2.8491L91.6973 4.7871H91.2893L90.1673 2.8491ZM94.3754 5.2731C94.3754 5.1491 94.4194 5.0431 94.5074 4.9551C94.5954 4.8631 94.7014 4.8171 94.8254 4.8171C94.9534 4.8171 95.0614 4.8611 95.1494 4.9491C95.2374 5.0371 95.2814 5.1451 95.2814 5.2731C95.2814 5.3971 95.2354 5.5031 95.1434 5.5911C95.0554 5.6791 94.9494 5.7231 94.8254 5.7231C94.7014 5.7231 94.5954 5.6791 94.5074 5.5911C94.4194 5.5031 94.3754 5.3971 94.3754 5.2731Z" fill="#1B1C33"/>
</svg>
