<svg width="139" height="30" viewBox="0 0 139 30" fill="none" xmlns="http://www.w3.org/2000/svg">
<path d="M14.9735 15.0048H0V0.0313339C8.26867 0.0313339 14.9735 6.75275 14.9735 15.0048Z" fill="white"/>
<path d="M0 15.0048H14.9735V29.9782C6.70478 29.9782 0 23.2735 0 15.0048Z" fill="white"/>
<path d="M29.9461 15.0048H14.9727V29.9782C23.2413 29.9782 29.9461 23.2735 29.9461 15.0048Z" fill="white"/>
<path d="M14.9727 15.0048H29.9461V0.0313339C21.6774 0.0313339 14.9727 6.75275 14.9727 15.0048Z" fill="white"/>
<path d="M48.5389 16.5935V6.67593H52.9681V23.8151H48.8919V21.5684C47.9612 23.0769 46.0675 24.136 43.885 24.136C40.4507 24.136 37.9473 22.0498 37.9473 17.5885V6.67593H42.4086V16.7219C42.4086 19.1291 43.5961 20.1883 45.3935 20.1883C46.9983 20.1883 48.5389 18.9044 48.5389 16.5935Z" fill="white"/>
<path d="M73.2812 15.2455C73.2812 20.3166 70.2963 24.136 65.6745 24.136C63.6525 24.136 61.9193 23.2695 60.6355 21.6005V30.0096H56.1742V6.67593H60.2824V9.1794C61.5984 7.34994 63.492 6.35497 65.6745 6.35497C70.2963 6.35497 73.2812 10.2065 73.2812 15.2455ZM68.6915 15.2455C68.6915 12.0359 66.8621 10.3028 64.6796 10.3028C62.497 10.3028 60.6676 12.0038 60.6676 15.2455C60.6676 18.4872 62.497 20.1562 64.6796 20.1562C66.8621 20.1562 68.6915 18.5193 68.6915 15.2455Z" fill="white"/>
<path d="M88.9568 23.8151L85.7151 12.6778L82.5055 23.8151H78.0442L73.1656 6.67593H77.4986L80.4193 17.5243L83.5647 6.67593H87.9618L91.0109 17.5243L93.8995 6.67593H98.2967L93.386 23.8151H88.9568Z" fill="white"/>
<path d="M104.903 2.69605C104.903 4.20455 103.683 5.3279 101.918 5.3279C100.185 5.3279 98.9652 4.20455 98.9652 2.69605C98.9652 1.12335 100.185 0 101.918 0C103.683 0 104.903 1.12335 104.903 2.69605ZM104.197 23.8151H99.7355V6.67593H104.197V23.8151Z" fill="white"/>
<path d="M121.23 23.8151H106.626V20.2204L115.453 10.5274H106.594V6.67593H120.973V10.3348L112.115 19.9315H121.23V23.8151Z" fill="white"/>
<path d="M130.683 24.104C125.548 24.104 122.114 20.5413 122.114 15.1813C122.114 10.0781 125.676 6.35497 130.619 6.35497C136.043 6.35497 139.638 10.7521 138.835 16.3368H126.671C126.96 19.1291 128.308 20.6697 130.587 20.6697C132.545 20.6697 133.861 19.7068 134.374 18.0057H138.803C137.84 21.8893 134.856 24.104 130.683 24.104ZM130.523 9.62874C128.436 9.62874 127.12 10.9768 126.735 13.5123H134.117C133.989 11.1372 132.641 9.62874 130.523 9.62874Z" fill="white"/>
</svg>
