<svg width="1322" height="303" viewBox="0 0 1322 303" fill="none" xmlns="http://www.w3.org/2000/svg">
<path d="M127.784 151.236H0V23.4521C70.5654 23.4521 127.784 80.8129 127.784 151.236Z" fill="#0865FF"/>
<path d="M0 151.236H127.784V279.02C57.219 279.02 0 221.801 0 151.236Z" fill="#0865FF"/>
<path d="M255.569 151.236H127.784V279.02C198.35 279.02 255.569 221.801 255.569 151.236Z" fill="#0865FF"/>
<path d="M127.784 151.236H255.569V23.4521C185.003 23.4521 127.784 80.8129 127.784 151.236Z" fill="#0865FF"/>
<path d="M410.324 167.25V67.2881H454.967V240.037H413.882V217.392C404.501 232.597 385.414 243.272 363.416 243.272C328.802 243.272 303.569 222.245 303.569 177.278V67.2881H348.535V168.544C348.535 192.806 360.505 203.482 378.621 203.482C394.796 203.482 410.324 190.542 410.324 167.25Z" fill="black"/>
<path d="M659.707 153.663C659.707 204.776 629.622 243.272 583.038 243.272C562.657 243.272 545.188 234.538 532.248 217.716V302.473H487.282V67.2881H528.69V92.5211C541.953 74.0816 561.04 64.0531 583.038 64.0531C629.622 64.0531 659.707 102.873 659.707 153.663ZM613.447 153.663C613.447 121.313 595.007 103.844 573.009 103.844C551.011 103.844 532.572 120.989 532.572 153.663C532.572 186.336 551.011 203.158 573.009 203.158C595.007 203.158 613.447 186.66 613.447 153.663Z" fill="black"/>
<path d="M817.704 240.037L785.031 127.783L752.681 240.037H707.714L658.542 67.2881H702.215L731.653 176.631L763.356 67.2881H807.676L838.408 176.631L867.523 67.2881H911.843L862.347 240.037H817.704Z" fill="black"/>
<path d="M978.428 27.174C978.428 42.3785 966.135 53.701 948.343 53.701C930.874 53.701 918.581 42.3785 918.581 27.174C918.581 11.3225 930.874 0 948.343 0C966.135 0 978.428 11.3225 978.428 27.174ZM971.311 240.037H926.345V67.2881H971.311V240.037Z" fill="black"/>
<path d="M1142.99 240.037H995.799V203.805L1084.76 106.108H995.475V67.2881H1140.4V104.167L1051.12 200.894H1142.99V240.037Z" fill="black"/>
<path d="M1238.27 242.949C1186.51 242.949 1151.9 207.04 1151.9 153.016C1151.9 101.579 1187.81 64.0531 1237.63 64.0531C1292.3 64.0531 1328.53 108.373 1320.44 164.662H1197.83C1200.75 192.806 1214.33 208.334 1237.3 208.334C1257.04 208.334 1270.3 198.629 1275.47 181.484H1320.12C1310.41 220.627 1280.33 242.949 1238.27 242.949ZM1236.65 97.0501C1215.63 97.0501 1202.36 110.637 1198.48 136.194H1272.89C1271.59 112.255 1258.01 97.0501 1236.65 97.0501Z" fill="black"/>
</svg>
