<svg width="1440" height="1026" viewBox="0 0 1440 1026" fill="none" xmlns="http://www.w3.org/2000/svg">
<g opacity="0.6">
<mask id="mask0_12728_129" style="mask-type:alpha" maskUnits="userSpaceOnUse" x="-12" y="-13" width="1465" height="1039">
<path d="M1452.86 -13H-11.9325V1025.22H1452.86V-13Z" fill="url(#paint0_radial_12728_129)"/>
</mask>
<g mask="url(#mask0_12728_129)">
<path d="M141.354 732.083H-3.34973V845.032H141.354V732.083Z" stroke="white"/>
<path d="M286.062 732.083H141.358V845.032H286.062V732.083Z" stroke="white"/>
<path d="M430.766 732.083H286.062V845.032H430.766V732.083Z" stroke="white"/>
<path d="M575.474 732.083H430.77V845.032H575.474V732.083Z" stroke="white"/>
<path d="M720.185 732.083H575.481V845.032H720.185V732.083Z" stroke="white"/>
<path d="M864.896 732.083H720.192V845.032H864.896V732.083Z" stroke="white"/>
<path d="M1009.6 732.083H864.898V845.032H1009.6V732.083Z" stroke="white"/>
<path d="M1154.31 732.083H1009.61V845.032H1154.31V732.083Z" stroke="white"/>
<path d="M1299.01 732.083H1154.31V845.032H1299.01V732.083Z" stroke="white"/>
<path d="M1443.72 732.083H1299.02V845.032H1443.72V732.083Z" stroke="white"/>
<path d="M141.354 845.003H-3.34973V957.953H141.354V845.003Z" stroke="white"/>
<path d="M141.354 -58.3577H-3.34973V54.5916H141.354V-58.3577Z" stroke="white"/>
<path d="M286.062 845.003H141.358V957.953H286.062V845.003Z" stroke="white"/>
<path d="M286.062 -58.3577H141.358V54.5916H286.062V-58.3577Z" stroke="white"/>
<path d="M430.766 845.003H286.062V957.953H430.766V845.003Z" stroke="white"/>
<path d="M430.766 -58.3577H286.062V54.5916H430.766V-58.3577Z" stroke="white"/>
<path d="M575.474 845.003H430.77V957.953H575.474V845.003Z" stroke="white"/>
<path d="M575.474 -58.3577H430.77V54.5916H575.474V-58.3577Z" stroke="white"/>
<path d="M720.185 845.003H575.481V957.953H720.185V845.003Z" stroke="white"/>
<path d="M720.185 -58.3577H575.481V54.5916H720.185V-58.3577Z" stroke="white"/>
<path d="M864.896 845.003H720.192V957.953H864.896V845.003Z" stroke="white"/>
<path d="M864.896 -58.3577H720.192V54.5916H864.896V-58.3577Z" stroke="white"/>
<path d="M1009.6 845.003H864.898V957.953H1009.6V845.003Z" stroke="white"/>
<path d="M1009.6 -58.3577H864.898V54.5916H1009.6V-58.3577Z" stroke="white"/>
<path d="M1154.31 845.003H1009.61V957.953H1154.31V845.003Z" stroke="white"/>
<path d="M1154.31 -58.3577H1009.61V54.5916H1154.31V-58.3577Z" stroke="white"/>
<path d="M1299.02 845.003H1154.31V957.953H1299.02V845.003Z" stroke="white"/>
<path d="M1299.01 -58.3577H1154.31V54.5916H1299.01V-58.3577Z" stroke="white"/>
<path d="M1443.72 845.003H1299.02V957.953H1443.72V845.003Z" stroke="white"/>
<path d="M1443.72 -58.3577H1299.02V54.5916H1443.72V-58.3577Z" stroke="white"/>
<path d="M141.354 957.924H-3.34973V1070.87H141.354V957.924Z" stroke="white"/>
<path d="M141.354 54.5637H-3.34973V167.513H141.354V54.5637Z" stroke="white"/>
<path d="M286.062 957.924H141.358V1070.87H286.062V957.924Z" stroke="white"/>
<path d="M286.062 54.5637H141.358V167.513H286.062V54.5637Z" stroke="white"/>
<path d="M430.766 957.924H286.062V1070.87H430.766V957.924Z" stroke="white"/>
<path d="M430.766 54.5637H286.062V167.513H430.766V54.5637Z" stroke="white"/>
<path d="M575.474 957.924H430.77V1070.87H575.474V957.924Z" stroke="white"/>
<path d="M575.474 54.5637H430.77V167.513H575.474V54.5637Z" stroke="white"/>
<path d="M720.185 957.924H575.481V1070.87H720.185V957.924Z" stroke="white"/>
<path d="M720.185 54.5637H575.481V167.513H720.185V54.5637Z" stroke="white"/>
<path d="M864.896 957.924H720.192V1070.87H864.896V957.924Z" stroke="white"/>
<path d="M864.896 54.5637H720.192V167.513H864.896V54.5637Z" stroke="white"/>
<path d="M1009.6 957.924H864.898V1070.87H1009.6V957.924Z" stroke="white"/>
<path d="M1009.6 54.5637H864.898V167.513H1009.6V54.5637Z" stroke="white"/>
<path d="M1154.31 957.924H1009.61V1070.87H1154.31V957.924Z" stroke="white"/>
<path d="M1154.31 54.5637H1009.61V167.513H1154.31V54.5637Z" stroke="white"/>
<path d="M1299.02 957.924H1154.31V1070.87H1299.02V957.924Z" stroke="white"/>
<path d="M1299.01 54.5637H1154.31V167.513H1299.01V54.5637Z" stroke="white"/>
<path d="M1443.72 957.924H1299.02V1070.87H1443.72V957.924Z" stroke="white"/>
<path d="M1443.72 54.5637H1299.02V167.513H1443.72V54.5637Z" stroke="white"/>
<path d="M141.354 167.482H-3.34973V280.432H141.354V167.482Z" stroke="white"/>
<path d="M286.062 167.482H141.358V280.432H286.062V167.482Z" stroke="white"/>
<path d="M430.766 167.482H286.062V280.432H430.766V167.482Z" stroke="white"/>
<path d="M575.474 167.482H430.77V280.432H575.474V167.482Z" stroke="white"/>
<path d="M720.185 167.482H575.481V280.432H720.185V167.482Z" stroke="white"/>
<path d="M864.896 167.482H720.192V280.432H864.896V167.482Z" stroke="white"/>
<path d="M1009.6 167.482H864.898V280.432H1009.6V167.482Z" stroke="white"/>
<path d="M1154.31 167.482H1009.61V280.432H1154.31V167.482Z" stroke="white"/>
<path d="M1299.02 167.482H1154.31V280.432H1299.02V167.482Z" stroke="white"/>
<path d="M1443.72 167.482H1299.02V280.432H1443.72V167.482Z" stroke="white"/>
<path d="M141.354 280.404H-3.34973V393.353H141.354V280.404Z" stroke="white"/>
<path d="M286.062 280.404H141.358V393.353H286.062V280.404Z" stroke="white"/>
<path d="M430.766 280.404H286.062V393.353H430.766V280.404Z" stroke="white"/>
<path d="M575.474 280.404H430.77V393.353H575.474V280.404Z" stroke="white"/>
<path d="M720.185 280.404H575.481V393.353H720.185V280.404Z" stroke="white"/>
<path d="M864.896 280.404H720.192V393.353H864.896V280.404Z" stroke="white"/>
<path d="M1009.6 280.404H864.898V393.353H1009.6V280.404Z" stroke="white"/>
<path d="M1154.31 280.404H1009.61V393.353H1154.31V280.404Z" stroke="white"/>
<path d="M1299.01 280.404H1154.31V393.353H1299.01V280.404Z" stroke="white"/>
<path d="M1443.72 280.404H1299.02V393.353H1443.72V280.404Z" stroke="white"/>
<path d="M141.354 393.322H-3.34973V506.271H141.354V393.322Z" stroke="white"/>
<path d="M286.062 393.322H141.358V506.271H286.062V393.322Z" stroke="white"/>
<path d="M430.766 393.322H286.062V506.271H430.766V393.322Z" stroke="white"/>
<path d="M575.474 393.322H430.77V506.271H575.474V393.322Z" stroke="white"/>
<path d="M720.185 393.322H575.481V506.271H720.185V393.322Z" stroke="white"/>
<path d="M864.896 393.322H720.192V506.271H864.896V393.322Z" stroke="white"/>
<path d="M1009.6 393.322H864.898V506.271H1009.6V393.322Z" stroke="white"/>
<path d="M1154.31 393.322H1009.61V506.271H1154.31V393.322Z" stroke="white"/>
<path d="M1299.01 393.322H1154.31V506.271H1299.01V393.322Z" stroke="white"/>
<path d="M1443.72 393.324H1299.02V506.273H1443.72V393.324Z" stroke="white"/>
<path d="M141.354 506.244H-3.34973V619.194H141.354V506.244Z" stroke="white"/>
<path d="M286.062 506.244H141.358V619.194H286.062V506.244Z" stroke="white"/>
<path d="M430.766 506.244H286.062V619.194H430.766V506.244Z" stroke="white"/>
<path d="M575.474 506.244H430.77V619.194H575.474V506.244Z" stroke="white"/>
<path d="M720.185 506.244H575.481V619.194H720.185V506.244Z" stroke="white"/>
<path d="M864.896 506.244H720.192V619.194H864.896V506.244Z" stroke="white"/>
<path d="M1009.6 506.244H864.898V619.194H1009.6V506.244Z" stroke="white"/>
<path d="M1154.31 506.244H1009.61V619.194H1154.31V506.244Z" stroke="white"/>
<path d="M1299.02 506.244H1154.31V619.194H1299.02V506.244Z" stroke="white"/>
<path d="M1443.72 506.244H1299.02V619.194H1443.72V506.244Z" stroke="white"/>
<path d="M141.354 619.163H-3.34973V732.112H141.354V619.163Z" stroke="white"/>
<path d="M286.062 619.163H141.358V732.112H286.062V619.163Z" stroke="white"/>
<path d="M430.766 619.163H286.062V732.112H430.766V619.163Z" stroke="white"/>
<path d="M575.474 619.163H430.77V732.112H575.474V619.163Z" stroke="white"/>
<path d="M720.185 619.163H575.481V732.112H720.185V619.163Z" stroke="white"/>
<path d="M864.896 619.163H720.192V732.112H864.896V619.163Z" stroke="white"/>
<path d="M1009.6 619.163H864.898V732.112H1009.6V619.163Z" stroke="white"/>
<path d="M1154.31 619.163H1009.61V732.112H1154.31V619.163Z" stroke="white"/>
<path d="M1299.01 619.163H1154.31V732.112H1299.01V619.163Z" stroke="white"/>
<path d="M1443.72 619.163H1299.02V732.112H1443.72V619.163Z" stroke="white"/>
<path d="M1299.39 590.333V619.507H1262.01" stroke="white" stroke-linecap="round"/>
<path d="M1298.59 590.333V618.888H1336.76" stroke="white" stroke-linecap="round"/>
<path d="M1298.59 647.44V618.888H1336.76" stroke="white" stroke-linecap="round"/>
<path d="M1298.59 647.44V618.888H1260.42" stroke="white" stroke-linecap="round"/>
</g>
</g>
<defs>
<radialGradient id="paint0_radial_12728_129" cx="0" cy="0" r="1" gradientUnits="userSpaceOnUse" gradientTransform="translate(720.466 506.11) rotate(90) scale(1380.33 1947.47)">
<stop stop-color="white" stop-opacity="0.46"/>
<stop offset="0.54" stop-color="white" stop-opacity="0"/>
</radialGradient>
</defs>
</svg>
