<svg width="24" height="24" viewBox="0 0 24 24" fill="none" xmlns="http://www.w3.org/2000/svg">
<path d="M17.657 12.007C17.4235 12.031 17.1999 12.1138 17.007 12.2475C16.8142 12.3813 16.6583 12.5617 16.554 12.772L15.699 14.495L13.792 14.772C13.272 14.844 12.832 15.212 12.668 15.716L12.63 15.856C12.53 16.321 12.676 16.81 13.023 17.146L14.4 18.483L14.074 20.375C14.0313 20.6305 14.0606 20.8928 14.1587 21.1326C14.2569 21.3723 14.4199 21.5799 14.6295 21.7321C14.8392 21.8843 15.0871 21.975 15.3454 21.9941C15.6038 22.0131 15.8623 21.9598 16.092 21.84L17.8 20.945L19.508 21.841C19.7372 21.9617 19.9956 22.0158 20.254 21.9972C20.5124 21.9787 20.7604 21.8882 20.97 21.736L21.082 21.646C21.2574 21.4888 21.39 21.2896 21.4673 21.0671C21.5446 20.8446 21.5641 20.6061 21.524 20.374L21.199 18.483L22.579 17.144C22.959 16.773 23.095 16.22 22.931 15.717L22.88 15.583C22.7843 15.3683 22.6356 15.1813 22.4479 15.0396C22.2603 14.898 22.0398 14.8062 21.807 14.773L19.9 14.495L19.047 12.773C18.9316 12.5409 18.7538 12.3456 18.5335 12.209C18.3132 12.0725 18.0592 12.0001 17.8 12L17.657 12.007Z" fill="white"/>
<path d="M6.05702 12.007C5.82353 12.031 5.59993 12.1138 5.40706 12.2475C5.21419 12.3813 5.05833 12.5617 4.95402 12.772L4.09902 14.495L2.19202 14.772C1.67202 14.844 1.23202 15.212 1.06802 15.716L1.03002 15.856C0.930022 16.321 1.07602 16.81 1.42302 17.146L2.80002 18.483L2.47402 20.375C2.43128 20.6305 2.46062 20.8928 2.55876 21.1326C2.6569 21.3723 2.81994 21.5799 3.02957 21.7321C3.2392 21.8843 3.48711 21.975 3.74545 21.9941C4.00379 22.0131 4.26233 21.9598 4.49202 21.84L6.20002 20.945L7.90802 21.841C8.13724 21.9617 8.39564 22.0158 8.65401 21.9972C8.91238 21.9787 9.1604 21.8882 9.37002 21.736L9.48202 21.646C9.65744 21.4888 9.79003 21.2896 9.86734 21.0671C9.94465 20.8446 9.96416 20.6061 9.92402 20.374L9.60002 18.483L10.98 17.144C11.36 16.773 11.496 16.22 11.332 15.717L11.281 15.583C11.1853 15.3683 11.0366 15.1813 10.849 15.0396C10.6613 14.898 10.4408 14.8062 10.208 14.773L8.30002 14.494L7.44702 12.772C7.33152 12.5401 7.15363 12.345 6.93335 12.2086C6.71306 12.0722 6.45911 12 6.20002 12L6.05702 12.007Z" fill="white"/>
<path d="M11.8569 2.007C11.6235 2.03101 11.3999 2.11376 11.207 2.24753C11.0141 2.3813 10.8583 2.56173 10.7539 2.772L9.89895 4.495L7.99195 4.772C7.47195 4.844 7.03195 5.212 6.86795 5.716L6.82995 5.856C6.72995 6.321 6.87595 6.81 7.22295 7.146L8.59995 8.483L8.27395 10.375C8.23121 10.6305 8.26055 10.8928 8.35869 11.1326C8.45683 11.3723 8.61987 11.5799 8.82949 11.7321C9.03912 11.8843 9.28703 11.975 9.54538 11.9941C9.80372 12.0131 10.0623 11.9598 10.2919 11.84L11.9999 10.946L13.7089 11.842C13.9382 11.9627 14.1966 12.0168 14.4549 11.9982C14.7133 11.9797 14.9613 11.8892 15.1709 11.737L15.2829 11.647C15.4584 11.4898 15.591 11.2906 15.6683 11.0681C15.7456 10.8456 15.7651 10.6071 15.7249 10.375L15.3999 8.483L16.7799 7.144C17.1599 6.773 17.2959 6.22 17.1319 5.717L17.0809 5.583C16.9852 5.36826 16.8365 5.18131 16.6489 5.03965C16.4612 4.89799 16.2407 4.80624 16.0079 4.773L14.0999 4.494L13.2469 2.772C13.1314 2.54009 12.9536 2.34498 12.7333 2.2086C12.513 2.07222 12.259 1.99999 11.9999 2L11.8569 2.007Z" fill="white"/>
</svg>
